<?xml version="1.0" encoding="UTF-8" standalone="no"?>
<!DOCTYPE svg PUBLIC "-//W3C//DTD SVG 1.1//EN"
 "http://www.w3.org/Graphics/SVG/1.1/DTD/svg11.dtd">
<!-- Generated by graphviz version 2.38.0 (20140413.2041)
 -->
<!-- Title: FindStart.svg Pages: 1 -->
<svg width="1146pt" height="613pt"
 viewBox="0.00 0.00 1146.00 612.50" xmlns="http://www.w3.org/2000/svg" xmlns:xlink="http://www.w3.org/1999/xlink">
<g id="graph0" class="graph" transform="scale(1 1) rotate(0) translate(4 608.5)">
<title>FindStart.svg</title>
<polygon fill="none" stroke="none" points="-4,4 -4,-608.5 1142,-608.5 1142,4 -4,4"/>
<text text-anchor="middle" x="569" y="-9.2" font-family="Verdana" font-size="16.00" fill="white">logic execution graph for FindStart.xml</text>
<!-- 0 -->
<g id="node1" class="node"><title>0</title>
<polygon fill="#006699" stroke="none" points="8,-278.5 8,-346.5 147,-346.5 147,-278.5 8,-278.5"/>
<text text-anchor="start" x="14.5" y="-331.9" font-family="Verdana" font-weight="bold" font-size="12.00" fill="white">BodyDataInput [0]</text>
<text text-anchor="start" x="12.5" y="-314.5" font-family="Verdana" font-weight="bold" font-size="10.00" fill="white">Inputs</text>
<text text-anchor="start" x="99.5" y="-314.5" font-family="Verdana" font-weight="bold" font-size="10.00" fill="white">Outputs</text>
<text text-anchor="start" x="127.5" y="-298.5" font-family="Verdana" font-size="10.00" fill="white">0 •</text>
<text text-anchor="start" x="127.5" y="-285.5" font-family="Verdana" font-size="10.00" fill="white">1 •</text>
<polygon fill="black" stroke="black" points="8.5,-323.5 8.5,-323.5 147.5,-323.5 147.5,-323.5 8.5,-323.5"/>
<polygon fill="none" stroke="black" stroke-width="2" points="9,-279.5 9,-345.5 146,-345.5 146,-279.5 9,-279.5"/>
</g>
<!-- 4 -->
<g id="node4" class="node"><title>4</title>
<polygon fill="#006699" stroke="none" points="235,-279 235,-334 434,-334 434,-279 235,-279"/>
<text text-anchor="start" x="241.5" y="-318.9" font-family="Verdana" font-weight="bold" font-size="12.00" fill="white">DisplacementToPosQuat [4]</text>
<text text-anchor="start" x="239.5" y="-301.5" font-family="Verdana" font-weight="bold" font-size="10.00" fill="white">Inputs</text>
<text text-anchor="start" x="386.5" y="-301.5" font-family="Verdana" font-weight="bold" font-size="10.00" fill="white">Outputs</text>
<text text-anchor="start" x="239.5" y="-285.5" font-family="Verdana" font-size="10.00" fill="white">• 0</text>
<text text-anchor="start" x="414.5" y="-285.5" font-family="Verdana" font-size="10.00" fill="white">0 •</text>
<polygon fill="black" stroke="black" points="235.5,-310.5 235.5,-310.5 434.5,-310.5 434.5,-310.5 235.5,-310.5"/>
<polygon fill="none" stroke="black" stroke-width="2" points="236,-280 236,-333 433,-333 433,-280 236,-280"/>
</g>
<!-- 0&#45;&gt;4 -->
<g id="edge1" class="edge"><title>0:o1:e&#45;&gt;4:i0:w</title>
<g id="a_edge1"><a xlink:title="in: 0 &#45;get&#45;&gt; out: 1">
<path fill="none" stroke="blue" stroke-width="2" d="M144.5,-287.5C182.688,-287.5 194.696,-287.5 228.384,-287.5"/>
<polygon fill="blue" stroke="blue" stroke-width="2" points="238.5,-287.5 228.5,-292 233.5,-288 228.5,-288 228.5,-287.5 228.5,-287 233.5,-287 228.5,-283 238.5,-287.5 238.5,-287.5"/>
</a>
</g>
</g>
<!-- 1 -->
<g id="node2" class="node"><title>1</title>
<polygon fill="#006699" stroke="none" points="523.5,-458.5 523.5,-526.5 664.5,-526.5 664.5,-458.5 523.5,-458.5"/>
<text text-anchor="start" x="530" y="-511.9" font-family="Verdana" font-weight="bold" font-size="12.00" fill="white">StateDataInput [1]</text>
<text text-anchor="start" x="528" y="-494.5" font-family="Verdana" font-weight="bold" font-size="10.00" fill="white">Inputs</text>
<text text-anchor="start" x="617" y="-494.5" font-family="Verdana" font-weight="bold" font-size="10.00" fill="white">Outputs</text>
<text text-anchor="start" x="645" y="-478.5" font-family="Verdana" font-size="10.00" fill="white">0 •</text>
<text text-anchor="start" x="645" y="-465.5" font-family="Verdana" font-size="10.00" fill="white">1 •</text>
<polygon fill="black" stroke="black" points="524,-503.5 524,-503.5 665,-503.5 665,-503.5 524,-503.5"/>
<polygon fill="none" stroke="black" stroke-width="2" points="524.5,-459.5 524.5,-525.5 663.5,-525.5 663.5,-459.5 524.5,-459.5"/>
</g>
<!-- 17 -->
<g id="node11" class="node"><title>17</title>
<polygon fill="#006699" stroke="none" points="760,-446 760,-593 893,-593 893,-446 760,-446"/>
<text text-anchor="start" x="766.5" y="-577.9" font-family="Verdana" font-weight="bold" font-size="12.00" fill="white">StringFormat [17]</text>
<text text-anchor="start" x="802" y="-557.5" font-family="Verdana" font-size="10.00" fill="white">Attributes</text>
<text text-anchor="start" x="776.5" y="-540.5" font-family="Verdana" font-size="10.00" fill="white">groupId :</text>
<text text-anchor="start" x="828.5" y="-540.5" font-family="Verdana" font-size="10.00" fill="white">&#39;Body&#39;</text>
<text text-anchor="start" x="781.5" y="-523.5" font-family="Verdana" font-size="10.00" fill="white">format :</text>
<text text-anchor="start" x="828.5" y="-523.5" font-family="Verdana" font-size="10.00" fill="white">&#39;%f %i %i&#39;</text>
<text text-anchor="start" x="764.5" y="-507.5" font-family="Verdana" font-weight="bold" font-size="10.00" fill="white">Inputs</text>
<text text-anchor="start" x="845.5" y="-507.5" font-family="Verdana" font-weight="bold" font-size="10.00" fill="white">Outputs</text>
<text text-anchor="start" x="764.5" y="-491.5" font-family="Verdana" font-size="10.00" fill="white">• 0</text>
<text text-anchor="start" x="764.5" y="-478.5" font-family="Verdana" font-size="10.00" fill="white">• 1</text>
<text text-anchor="start" x="764.5" y="-465.5" font-family="Verdana" font-size="10.00" fill="white">• 2</text>
<text text-anchor="start" x="764.5" y="-452.5" font-family="Verdana" font-size="10.00" fill="white">• 3</text>
<text text-anchor="start" x="873.5" y="-472" font-family="Verdana" font-size="10.00" fill="white">0 •</text>
<polygon fill="black" stroke="black" points="760.5,-569.5 760.5,-569.5 893.5,-569.5 893.5,-569.5 760.5,-569.5"/>
<polygon fill="none" stroke="black" stroke-width="2" points="761,-447 761,-592 892,-592 892,-447 761,-447"/>
</g>
<!-- 1&#45;&gt;17 -->
<g id="edge8" class="edge"><title>1:o0:e&#45;&gt;17:i1:w</title>
<g id="a_edge8"><a xlink:title="in: 1 &#45;get&#45;&gt; out: 0">
<path fill="none" stroke="blue" stroke-width="2" d="M662,-480.5C703.411,-480.5 716.311,-480.5 753.044,-480.5"/>
<polygon fill="blue" stroke="blue" stroke-width="2" points="763.5,-480.5 753.5,-485 758.5,-481 753.5,-481 753.5,-480.5 753.5,-480 758.5,-480 753.5,-476 763.5,-480.5 763.5,-480.5"/>
</a>
</g>
</g>
<!-- 1&#45;&gt;17 -->
<g id="edge9" class="edge"><title>1:o1:e&#45;&gt;17:i2:w</title>
<g id="a_edge9"><a xlink:title="in: 2 &#45;get&#45;&gt; out: 1">
<path fill="none" stroke="blue" stroke-width="2" d="M662,-467.5C703.411,-467.5 716.311,-467.5 753.044,-467.5"/>
<polygon fill="blue" stroke="blue" stroke-width="2" points="763.5,-467.5 753.5,-472 758.5,-468 753.5,-468 753.5,-467.5 753.5,-467 758.5,-467 753.5,-463 763.5,-467.5 763.5,-467.5"/>
</a>
</g>
</g>
<!-- 2 -->
<g id="node3" class="node"><title>2</title>
<polygon fill="#006699" stroke="none" points="538.5,-98.5 538.5,-218.5 649.5,-218.5 649.5,-98.5 538.5,-98.5"/>
<text text-anchor="start" x="545" y="-203.9" font-family="Verdana" font-weight="bold" font-size="12.00" fill="white">SimFileInfo [2]</text>
<text text-anchor="start" x="543" y="-186.5" font-family="Verdana" font-weight="bold" font-size="10.00" fill="white">Inputs</text>
<text text-anchor="start" x="602" y="-186.5" font-family="Verdana" font-weight="bold" font-size="10.00" fill="white">Outputs</text>
<text text-anchor="start" x="630" y="-170.5" font-family="Verdana" font-size="10.00" fill="white">0 •</text>
<text text-anchor="start" x="630" y="-157.5" font-family="Verdana" font-size="10.00" fill="white">1 •</text>
<text text-anchor="start" x="630" y="-144.5" font-family="Verdana" font-size="10.00" fill="white">2 •</text>
<text text-anchor="start" x="630" y="-131.5" font-family="Verdana" font-size="10.00" fill="white">3 •</text>
<text text-anchor="start" x="630" y="-118.5" font-family="Verdana" font-size="10.00" fill="white">4 •</text>
<text text-anchor="start" x="630" y="-105.5" font-family="Verdana" font-size="10.00" fill="white">5 •</text>
<polygon fill="black" stroke="black" points="539,-195.5 539,-195.5 650,-195.5 650,-195.5 539,-195.5"/>
<polygon fill="none" stroke="black" stroke-width="2" points="539.5,-99.5 539.5,-217.5 648.5,-217.5 648.5,-99.5 539.5,-99.5"/>
</g>
<!-- 13 -->
<g id="node7" class="node"><title>13</title>
<polygon fill="#006699" stroke="none" points="754,-128.5 754,-294.5 899,-294.5 899,-128.5 754,-128.5"/>
<text text-anchor="start" x="760.5" y="-279.9" font-family="Verdana" font-weight="bold" font-size="12.00" fill="white">SimpleFunction [13]</text>
<text text-anchor="start" x="802" y="-259.5" font-family="Verdana" font-size="10.00" fill="white">Attributes</text>
<text text-anchor="start" x="779.5" y="-242.5" font-family="Verdana" font-size="10.00" fill="white">evalType :</text>
<text text-anchor="start" x="839.5" y="-242.5" font-family="Verdana" font-size="10.00" fill="white">&#39;double&#39;</text>
<text text-anchor="start" x="766.5" y="-225.5" font-family="Verdana" font-size="10.00" fill="white">outputType :</text>
<text text-anchor="start" x="839.5" y="-225.5" font-family="Verdana" font-size="10.00" fill="white">&#39;bool&#39;</text>
<text text-anchor="start" x="772.5" y="-203" font-family="Verdana" font-size="10.00" fill="white">expression :</text>
<text text-anchor="start" x="839.5" y="-208.5" font-family="Verdana" font-size="10.00" fill="white">&#39;i[0] &gt;= i[</text>
<text text-anchor="start" x="839.5" y="-197.5" font-family="Verdana" font-size="10.00" fill="white">1]&#39;</text>
<text text-anchor="start" x="787.5" y="-180.5" font-family="Verdana" font-size="10.00" fill="white">groupId :</text>
<text text-anchor="start" x="839.5" y="-180.5" font-family="Verdana" font-size="10.00" fill="white">&#39;Body&#39;</text>
<text text-anchor="start" x="758.5" y="-164.5" font-family="Verdana" font-weight="bold" font-size="10.00" fill="white">Inputs</text>
<text text-anchor="start" x="851.5" y="-164.5" font-family="Verdana" font-weight="bold" font-size="10.00" fill="white">Outputs</text>
<text text-anchor="start" x="758.5" y="-148.5" font-family="Verdana" font-size="10.00" fill="white">• 0</text>
<text text-anchor="start" x="758.5" y="-135.5" font-family="Verdana" font-size="10.00" fill="white">• 1</text>
<text text-anchor="start" x="879.5" y="-142" font-family="Verdana" font-size="10.00" fill="white">0 •</text>
<polygon fill="black" stroke="black" points="754.5,-271.5 754.5,-271.5 899.5,-271.5 899.5,-271.5 754.5,-271.5"/>
<polygon fill="none" stroke="black" stroke-width="2" points="755,-129.5 755,-293.5 898,-293.5 898,-129.5 755,-129.5"/>
</g>
<!-- 2&#45;&gt;13 -->
<g id="edge4" class="edge"><title>2:o1:e&#45;&gt;13:i1:w</title>
<g id="a_edge4"><a xlink:title="in: 1 &#45;get&#45;&gt; out: 1">
<path fill="none" stroke="blue" stroke-width="2" d="M647,-160.5C693.637,-160.5 705.708,-140.621 747.484,-137.825"/>
<polygon fill="blue" stroke="blue" stroke-width="2" points="757.5,-137.5 747.651,-142.322 752.519,-138.162 747.521,-138.324 747.505,-137.825 747.489,-137.325 752.486,-137.163 747.359,-133.327 757.5,-137.5 757.5,-137.5"/>
</a>
</g>
</g>
<!-- 18 -->
<g id="node12" class="node"><title>18</title>
<polygon fill="#006699" stroke="none" points="760,-310 760,-431 893,-431 893,-310 760,-310"/>
<text text-anchor="start" x="766.5" y="-415.9" font-family="Verdana" font-weight="bold" font-size="12.00" fill="white">StringFormat [18]</text>
<text text-anchor="start" x="802" y="-395.5" font-family="Verdana" font-size="10.00" fill="white">Attributes</text>
<text text-anchor="start" x="781.5" y="-378.5" font-family="Verdana" font-size="10.00" fill="white">groupId :</text>
<text text-anchor="start" x="833.5" y="-378.5" font-family="Verdana" font-size="10.00" fill="white">&#39;File&#39;</text>
<text text-anchor="start" x="786.5" y="-361.5" font-family="Verdana" font-size="10.00" fill="white">format :</text>
<text text-anchor="start" x="833.5" y="-361.5" font-family="Verdana" font-size="10.00" fill="white">&#39;%s.xml&#39;</text>
<text text-anchor="start" x="764.5" y="-345.5" font-family="Verdana" font-weight="bold" font-size="10.00" fill="white">Inputs</text>
<text text-anchor="start" x="845.5" y="-345.5" font-family="Verdana" font-weight="bold" font-size="10.00" fill="white">Outputs</text>
<text text-anchor="start" x="764.5" y="-329.5" font-family="Verdana" font-size="10.00" fill="white">• 0</text>
<text text-anchor="start" x="764.5" y="-316.5" font-family="Verdana" font-size="10.00" fill="white">• 1</text>
<text text-anchor="start" x="873.5" y="-323" font-family="Verdana" font-size="10.00" fill="white">0 •</text>
<polygon fill="black" stroke="black" points="760.5,-407.5 760.5,-407.5 893.5,-407.5 893.5,-407.5 760.5,-407.5"/>
<polygon fill="none" stroke="black" stroke-width="2" points="761,-311 761,-430 892,-430 892,-311 761,-311"/>
</g>
<!-- 2&#45;&gt;18 -->
<g id="edge11" class="edge"><title>2:o5:e&#45;&gt;18:i1:w</title>
<g id="a_edge11"><a xlink:title="in: 1 &#45;get&#45;&gt; out: 5">
<path fill="none" stroke="blue" stroke-width="2" d="M647,-107.5C750.566,-107.5 662.643,-304.721 753.492,-317.818"/>
<polygon fill="blue" stroke="blue" stroke-width="2" points="763.5,-318.5 753.217,-322.309 758.478,-318.659 753.489,-318.318 753.523,-317.82 753.557,-317.321 758.546,-317.661 753.829,-313.33 763.5,-318.5 763.5,-318.5"/>
</a>
</g>
</g>
<!-- 12 -->
<g id="node6" class="node"><title>12</title>
<polygon fill="#006699" stroke="none" points="522,-278.5 522,-420.5 666,-420.5 666,-278.5 522,-278.5"/>
<text text-anchor="start" x="533" y="-405.9" font-family="Verdana" font-weight="bold" font-size="12.00" fill="white">OOBBCollider [12]</text>
<text text-anchor="start" x="569" y="-385.5" font-family="Verdana" font-size="10.00" fill="white">Attributes</text>
<text text-anchor="start" x="548" y="-368.5" font-family="Verdana" font-size="10.00" fill="white">maxPoint :</text>
<text text-anchor="start" x="607" y="-368.5" font-family="Verdana" font-size="10.00" fill="white">&#39;0 10 10&#39;</text>
<text text-anchor="start" x="551" y="-351.5" font-family="Verdana" font-size="10.00" fill="white">minPoint :</text>
<text text-anchor="start" x="607" y="-351.5" font-family="Verdana" font-size="10.00" fill="white">&#39;&#45;10 &#45;10 0&#39;</text>
<text text-anchor="start" x="555" y="-334.5" font-family="Verdana" font-size="10.00" fill="white">groupId :</text>
<text text-anchor="start" x="607" y="-334.5" font-family="Verdana" font-size="10.00" fill="white">&#39;Body&#39;</text>
<text text-anchor="start" x="528" y="-317.5" font-family="Verdana" font-size="10.00" fill="white">resetGroupId :</text>
<text text-anchor="start" x="607" y="-317.5" font-family="Verdana" font-size="10.00" fill="white">&#39;Frame&#39;</text>
<text text-anchor="start" x="526" y="-301.5" font-family="Verdana" font-weight="bold" font-size="10.00" fill="white">Inputs</text>
<text text-anchor="start" x="618" y="-301.5" font-family="Verdana" font-weight="bold" font-size="10.00" fill="white">Outputs</text>
<text text-anchor="start" x="526" y="-285.5" font-family="Verdana" font-size="10.00" fill="white">• 0</text>
<text text-anchor="start" x="646" y="-285.5" font-family="Verdana" font-size="10.00" fill="white">0 •</text>
<polygon fill="black" stroke="black" points="522,-397.5 522,-397.5 666,-397.5 666,-397.5 522,-397.5"/>
<polygon fill="none" stroke="black" stroke-width="2" points="523,-279.5 523,-419.5 665,-419.5 665,-279.5 523,-279.5"/>
</g>
<!-- 4&#45;&gt;12 -->
<g id="edge2" class="edge"><title>4:o0:e&#45;&gt;12:i0:w</title>
<g id="a_edge2"><a xlink:title="in: 0 &#45;get&#45;&gt; out: 0">
<path fill="none" stroke="blue" stroke-width="2" d="M431.5,-287.5C469.484,-287.5 481.429,-287.5 514.937,-287.5"/>
<polygon fill="blue" stroke="blue" stroke-width="2" points="525,-287.5 515,-292 520,-288 515,-288 515,-287.5 515,-287 520,-287 515,-283 525,-287.5 525,-287.5"/>
</a>
</g>
</g>
<!-- 11 -->
<g id="node5" class="node"><title>11</title>
<polygon fill="#006699" stroke="none" points="987,-406.5 987,-600.5 1130,-600.5 1130,-406.5 987,-406.5"/>
<text text-anchor="start" x="993.5" y="-585.9" font-family="Verdana" font-weight="bold" font-size="12.00" fill="white">XMLLineWriter [11]</text>
<text text-anchor="start" x="1034" y="-565.5" font-family="Verdana" font-size="10.00" fill="white">Attributes</text>
<text text-anchor="start" x="1000.5" y="-543" font-family="Verdana" font-size="10.00" fill="white">rootName :</text>
<text text-anchor="start" x="1062.5" y="-548.5" font-family="Verdana" font-size="10.00" fill="white">&#39;CollisionI</text>
<text text-anchor="start" x="1062.5" y="-537.5" font-family="Verdana" font-size="10.00" fill="white">nfo&#39;</text>
<text text-anchor="start" x="1010.5" y="-520.5" font-family="Verdana" font-size="10.00" fill="white">groupId :</text>
<text text-anchor="start" x="1062.5" y="-520.5" font-family="Verdana" font-size="10.00" fill="white">&#39;FrameFinal&#39;</text>
<text text-anchor="start" x="998.5" y="-503.5" font-family="Verdana" font-size="10.00" fill="white">childName :</text>
<text text-anchor="start" x="1062.5" y="-503.5" font-family="Verdana" font-size="10.00" fill="white">&#39;State&#39;</text>
<text text-anchor="start" x="1033.5" y="-481" font-family="Verdana" font-size="10.00" fill="white">file :</text>
<text text-anchor="start" x="1062.5" y="-486.5" font-family="Verdana" font-size="10.00" fill="white">&#39;CollisionI</text>
<text text-anchor="start" x="1062.5" y="-475.5" font-family="Verdana" font-size="10.00" fill="white">nfo.xml&#39;</text>
<text text-anchor="start" x="998.5" y="-458.5" font-family="Verdana" font-size="10.00" fill="white">inputType :</text>
<text text-anchor="start" x="1062.5" y="-458.5" font-family="Verdana" font-size="10.00" fill="white">&#39;string&#39;</text>
<text text-anchor="start" x="991.5" y="-442.5" font-family="Verdana" font-weight="bold" font-size="10.00" fill="white">Inputs</text>
<text text-anchor="start" x="1082.5" y="-442.5" font-family="Verdana" font-weight="bold" font-size="10.00" fill="white">Outputs</text>
<text text-anchor="start" x="991.5" y="-426.5" font-family="Verdana" font-size="10.00" fill="white">• 0</text>
<text text-anchor="start" x="991.5" y="-413.5" font-family="Verdana" font-size="10.00" fill="white">• 1</text>
<polygon fill="black" stroke="black" points="987.5,-577.5 987.5,-577.5 1130.5,-577.5 1130.5,-577.5 987.5,-577.5"/>
<polygon fill="none" stroke="black" stroke-width="2" points="988,-407.5 988,-599.5 1129,-599.5 1129,-407.5 988,-407.5"/>
</g>
<!-- 12&#45;&gt;13 -->
<g id="edge3" class="edge"><title>12:o0:e&#45;&gt;13:i0:w</title>
<g id="a_edge3"><a xlink:title="in: 0 &#45;get&#45;&gt; out: 0">
<path fill="none" stroke="blue" stroke-width="2" d="M663,-287.5C733.213,-287.5 688.63,-164.061 747.184,-151.524"/>
<polygon fill="blue" stroke="blue" stroke-width="2" points="757.5,-150.5 747.993,-155.966 752.574,-151.491 747.598,-151.985 747.549,-151.488 747.5,-150.99 752.475,-150.496 747.104,-147.01 757.5,-150.5 757.5,-150.5"/>
</a>
</g>
</g>
<!-- 12&#45;&gt;17 -->
<g id="edge10" class="edge"><title>12:o0:e&#45;&gt;17:i3:w</title>
<g id="a_edge10"><a xlink:title="in: 3 &#45;get&#45;&gt; out: 0">
<path fill="none" stroke="blue" stroke-width="2" d="M663,-287.5C745.904,-287.5 682.832,-440.457 753.191,-453.601"/>
<polygon fill="blue" stroke="blue" stroke-width="2" points="763.5,-454.5 753.147,-458.115 758.475,-454.564 753.494,-454.13 753.538,-453.632 753.581,-453.134 758.562,-453.568 753.929,-449.149 763.5,-454.5 763.5,-454.5"/>
</a>
</g>
</g>
<!-- 14 -->
<g id="node8" class="node"><title>14</title>
<polygon fill="#006699" stroke="none" points="997.5,-242 997.5,-333 1119.5,-333 1119.5,-242 997.5,-242"/>
<text text-anchor="start" x="1009" y="-317.9" font-family="Verdana" font-weight="bold" font-size="12.00" fill="white">StopNode [14]</text>
<text text-anchor="start" x="1033.5" y="-297.5" font-family="Verdana" font-size="10.00" fill="white">Attributes</text>
<text text-anchor="start" x="1003.5" y="-280.5" font-family="Verdana" font-size="10.00" fill="white">stopGroupId :</text>
<text text-anchor="start" x="1078.5" y="-280.5" font-family="Verdana" font-size="10.00" fill="white">&#39;Frame&#39;</text>
<text text-anchor="start" x="1001.5" y="-264.5" font-family="Verdana" font-weight="bold" font-size="10.00" fill="white">Inputs</text>
<text text-anchor="start" x="1071.5" y="-264.5" font-family="Verdana" font-weight="bold" font-size="10.00" fill="white">Outputs</text>
<text text-anchor="start" x="1001.5" y="-248.5" font-family="Verdana" font-size="10.00" fill="white">• 0</text>
<polygon fill="black" stroke="black" points="997.5,-309.5 997.5,-309.5 1119.5,-309.5 1119.5,-309.5 997.5,-309.5"/>
<polygon fill="none" stroke="black" stroke-width="2" points="998.5,-243 998.5,-332 1118.5,-332 1118.5,-243 998.5,-243"/>
</g>
<!-- 13&#45;&gt;14 -->
<g id="edge5" class="edge"><title>13:o0:e&#45;&gt;14:i0:w</title>
<g id="a_edge5"><a xlink:title="in: 0 &#45;get&#45;&gt; out: 0">
<path fill="none" stroke="blue" stroke-width="2" d="M896.5,-144.5C958.89,-144.5 937.282,-239.223 990.485,-249.584"/>
<polygon fill="blue" stroke="blue" stroke-width="2" points="1000.5,-250.5 990.132,-254.07 995.475,-250.542 990.496,-250.087 990.542,-249.589 990.587,-249.091 995.566,-249.546 990.952,-245.107 1000.5,-250.5 1000.5,-250.5"/>
</a>
</g>
</g>
<!-- 15 -->
<g id="node9" class="node"><title>15</title>
<polygon fill="#006699" stroke="none" points="1000.5,-136 1000.5,-227 1116.5,-227 1116.5,-136 1000.5,-136"/>
<text text-anchor="start" x="1009" y="-211.9" font-family="Verdana" font-weight="bold" font-size="12.00" fill="white">StopNode [15]</text>
<text text-anchor="start" x="1033.5" y="-191.5" font-family="Verdana" font-size="10.00" fill="white">Attributes</text>
<text text-anchor="start" x="1006.5" y="-174.5" font-family="Verdana" font-size="10.00" fill="white">stopGroupId :</text>
<text text-anchor="start" x="1081.5" y="-174.5" font-family="Verdana" font-size="10.00" fill="white">&#39;Body&#39;</text>
<text text-anchor="start" x="1004.5" y="-158.5" font-family="Verdana" font-weight="bold" font-size="10.00" fill="white">Inputs</text>
<text text-anchor="start" x="1068.5" y="-158.5" font-family="Verdana" font-weight="bold" font-size="10.00" fill="white">Outputs</text>
<text text-anchor="start" x="1004.5" y="-142.5" font-family="Verdana" font-size="10.00" fill="white">• 0</text>
<polygon fill="black" stroke="black" points="1000.5,-203.5 1000.5,-203.5 1116.5,-203.5 1116.5,-203.5 1000.5,-203.5"/>
<polygon fill="none" stroke="black" stroke-width="2" points="1001.5,-137 1001.5,-226 1115.5,-226 1115.5,-137 1001.5,-137"/>
</g>
<!-- 13&#45;&gt;15 -->
<g id="edge6" class="edge"><title>13:o0:e&#45;&gt;15:i0:w</title>
<g id="a_edge6"><a xlink:title="in: 0 &#45;get&#45;&gt; out: 0">
<path fill="none" stroke="blue" stroke-width="2" d="M896.5,-144.5C940.526,-144.5 953.983,-144.5 993.472,-144.5"/>
<polygon fill="blue" stroke="blue" stroke-width="2" points="1003.5,-144.5 993.5,-149 998.5,-145 993.5,-145 993.5,-144.5 993.5,-144 998.5,-144 993.5,-140 1003.5,-144.5 1003.5,-144.5"/>
</a>
</g>
</g>
<!-- 16 -->
<g id="node10" class="node"><title>16</title>
<polygon fill="#006699" stroke="none" points="1003,-30 1003,-121 1114,-121 1114,-30 1003,-30"/>
<text text-anchor="start" x="1009.5" y="-105.9" font-family="Verdana" font-weight="bold" font-size="12.00" fill="white">StopNode [16]</text>
<text text-anchor="start" x="1034" y="-85.5" font-family="Verdana" font-size="10.00" fill="white">Attributes</text>
<text text-anchor="start" x="1010.5" y="-68.5" font-family="Verdana" font-size="10.00" fill="white">stopGroupId :</text>
<text text-anchor="start" x="1085.5" y="-68.5" font-family="Verdana" font-size="10.00" fill="white">&#39;File&#39;</text>
<text text-anchor="start" x="1007.5" y="-52.5" font-family="Verdana" font-weight="bold" font-size="10.00" fill="white">Inputs</text>
<text text-anchor="start" x="1066.5" y="-52.5" font-family="Verdana" font-weight="bold" font-size="10.00" fill="white">Outputs</text>
<text text-anchor="start" x="1007.5" y="-36.5" font-family="Verdana" font-size="10.00" fill="white">• 0</text>
<polygon fill="black" stroke="black" points="1003.5,-97.5 1003.5,-97.5 1114.5,-97.5 1114.5,-97.5 1003.5,-97.5"/>
<polygon fill="none" stroke="black" stroke-width="2" points="1004,-31 1004,-120 1113,-120 1113,-31 1004,-31"/>
</g>
<!-- 13&#45;&gt;16 -->
<g id="edge7" class="edge"><title>13:o0:e&#45;&gt;16:i0:w</title>
<g id="a_edge7"><a xlink:title="in: 0 &#45;get&#45;&gt; out: 0">
<path fill="none" stroke="blue" stroke-width="2" d="M896.5,-144.5C960.814,-144.5 941.065,-49.3849 996.513,-39.3532"/>
<polygon fill="blue" stroke="blue" stroke-width="2" points="1006.5,-38.5 996.919,-43.835 1001.56,-39.4239 996.579,-39.8495 996.536,-39.3513 996.494,-38.8532 1001.48,-38.4275 996.153,-34.8677 1006.5,-38.5 1006.5,-38.5"/>
</a>
</g>
</g>
<!-- 17&#45;&gt;11 -->
<g id="edge13" class="edge"><title>17:o0:e&#45;&gt;11:i1:w</title>
<g id="a_edge13"><a xlink:title="in: 1 &#45;get&#45;&gt; out: 0">
<path fill="none" stroke="blue" stroke-width="2" d="M890.5,-474.5C938.475,-474.5 939.077,-423.505 980.39,-416.334"/>
<polygon fill="blue" stroke="blue" stroke-width="2" points="990.5,-415.5 980.904,-420.807 985.558,-416.409 980.575,-416.821 980.534,-416.322 980.493,-415.824 985.476,-415.413 980.164,-411.837 990.5,-415.5 990.5,-415.5"/>
</a>
</g>
</g>
<!-- 18&#45;&gt;11 -->
<g id="edge12" class="edge"><title>18:o0:e&#45;&gt;11:i0:w</title>
<g id="a_edge12"><a xlink:title="in: 0 &#45;get&#45;&gt; out: 0">
<path fill="none" stroke="blue" stroke-width="2" d="M890.5,-325.5C950.69,-325.5 929.53,-417.162 980.505,-427.546"/>
<polygon fill="blue" stroke="blue" stroke-width="2" points="990.5,-428.5 980.118,-432.03 985.475,-428.523 980.498,-428.048 980.545,-427.55 980.593,-427.052 985.57,-427.527 980.973,-423.07 990.5,-428.5 990.5,-428.5"/>
</a>
</g>
</g>
</g>
</svg>
