<?xml version="1.0" encoding="UTF-8" standalone="no"?>
<!DOCTYPE svg PUBLIC "-//W3C//DTD SVG 1.1//EN"
 "http://www.w3.org/Graphics/SVG/1.1/DTD/svg11.dtd">
<!-- Generated by graphviz version 2.38.0 (20140413.2041)
 -->
<!-- Title: FindStart.svg Pages: 1 -->
<svg width="1148pt" height="613pt"
 viewBox="0.00 0.00 1148.00 612.50" xmlns="http://www.w3.org/2000/svg" xmlns:xlink="http://www.w3.org/1999/xlink">
<g id="graph0" class="graph" transform="scale(1 1) rotate(0) translate(4 608.5)">
<title>FindStart.svg</title>
<polygon fill="#333333" stroke="none" points="-4,4 -4,-608.5 1144,-608.5 1144,4 -4,4"/>
<text text-anchor="middle" x="570" y="-9.2" font-family="Verdana" font-size="16.00" fill="white">logic execution graph for FindStart.xml </text>
<!-- 0 -->
<g id="node1" class="node"><title>0</title>
<polygon fill="#006699" stroke="none" points="8,-269.5 8,-337.5 147,-337.5 147,-269.5 8,-269.5"/>
<text text-anchor="start" x="14.5" y="-322.9" font-family="Verdana" font-weight="bold" font-size="12.00" fill="white">BodyDataInput [0]</text>
<text text-anchor="start" x="12.5" y="-304.5" font-family="Verdana" font-size="10.00" fill="white">Inputs</text>
<text text-anchor="start" x="103.5" y="-304.5" font-family="Verdana" font-size="10.00" fill="white">Outputs</text>
<text text-anchor="start" x="127.5" y="-289.5" font-family="Verdana" font-size="10.00" fill="white">0 •</text>
<text text-anchor="start" x="127.5" y="-276.5" font-family="Verdana" font-size="10.00" fill="white">1 •</text>
<polygon fill="none" stroke="black" stroke-width="2" points="9,-270.5 9,-336.5 146,-336.5 146,-270.5 9,-270.5"/>
</g>
<!-- 4 -->
<g id="node4" class="node"><title>4</title>
<polygon fill="#006699" stroke="none" points="235,-270 235,-325 434,-325 434,-270 235,-270"/>
<text text-anchor="start" x="241.5" y="-309.9" font-family="Verdana" font-weight="bold" font-size="12.00" fill="white">DisplacementToPosQuat [4]</text>
<text text-anchor="start" x="239.5" y="-291.5" font-family="Verdana" font-size="10.00" fill="white">Inputs</text>
<text text-anchor="start" x="390.5" y="-291.5" font-family="Verdana" font-size="10.00" fill="white">Outputs</text>
<text text-anchor="start" x="239.5" y="-276.5" font-family="Verdana" font-size="10.00" fill="white">• 0</text>
<text text-anchor="start" x="414.5" y="-276.5" font-family="Verdana" font-size="10.00" fill="white">0 •</text>
<polygon fill="none" stroke="black" stroke-width="2" points="236,-271 236,-324 433,-324 433,-271 236,-271"/>
</g>
<!-- 0&#45;&gt;4 -->
<g id="edge1" class="edge"><title>0:o1:e&#45;&gt;4:i0:w</title>
<g id="a_edge1"><a xlink:title="in: 0 &#45;get&#45;&gt; out: 1">
<path fill="none" stroke="blue" stroke-width="2" d="M144.5,-278.5C182.688,-278.5 194.696,-278.5 228.384,-278.5"/>
<polygon fill="blue" stroke="blue" stroke-width="2" points="238.5,-278.5 228.5,-283 233.5,-279 228.5,-279 228.5,-278.5 228.5,-278 233.5,-278 228.5,-274 238.5,-278.5 238.5,-278.5"/>
</a>
</g>
</g>
<!-- 1 -->
<g id="node2" class="node"><title>1</title>
<polygon fill="#006699" stroke="none" points="524.5,-458.5 524.5,-526.5 665.5,-526.5 665.5,-458.5 524.5,-458.5"/>
<text text-anchor="start" x="531" y="-511.9" font-family="Verdana" font-weight="bold" font-size="12.00" fill="white">StateDataInput [1]</text>
<text text-anchor="start" x="529" y="-493.5" font-family="Verdana" font-size="10.00" fill="white">Inputs</text>
<text text-anchor="start" x="622" y="-493.5" font-family="Verdana" font-size="10.00" fill="white">Outputs</text>
<text text-anchor="start" x="646" y="-478.5" font-family="Verdana" font-size="10.00" fill="white">0 •</text>
<text text-anchor="start" x="646" y="-465.5" font-family="Verdana" font-size="10.00" fill="white">1 •</text>
<polygon fill="none" stroke="black" stroke-width="2" points="525.5,-459.5 525.5,-525.5 664.5,-525.5 664.5,-459.5 525.5,-459.5"/>
</g>
<!-- 17 -->
<g id="node11" class="node"><title>17</title>
<polygon fill="#006699" stroke="none" points="762,-446 762,-593 895,-593 895,-446 762,-446"/>
<text text-anchor="start" x="768.5" y="-577.9" font-family="Verdana" font-weight="bold" font-size="12.00" fill="white">StringFormat [17]</text>
<text text-anchor="start" x="804" y="-557.5" font-family="Verdana" font-size="10.00" fill="white">Attributes</text>
<text text-anchor="start" x="778.5" y="-540.5" font-family="Verdana" font-size="10.00" fill="white">groupId :</text>
<text text-anchor="start" x="830.5" y="-540.5" font-family="Verdana" font-size="10.00" fill="white">&#39;Body&#39;</text>
<text text-anchor="start" x="783.5" y="-523.5" font-family="Verdana" font-size="10.00" fill="white">format :</text>
<text text-anchor="start" x="830.5" y="-523.5" font-family="Verdana" font-size="10.00" fill="white">&#39;%f %i %i&#39;</text>
<text text-anchor="start" x="766.5" y="-506.5" font-family="Verdana" font-size="10.00" fill="white">Inputs</text>
<text text-anchor="start" x="851.5" y="-506.5" font-family="Verdana" font-size="10.00" fill="white">Outputs</text>
<text text-anchor="start" x="766.5" y="-491.5" font-family="Verdana" font-size="10.00" fill="white">• 0</text>
<text text-anchor="start" x="766.5" y="-478.5" font-family="Verdana" font-size="10.00" fill="white">• 1</text>
<text text-anchor="start" x="766.5" y="-465.5" font-family="Verdana" font-size="10.00" fill="white">• 2</text>
<text text-anchor="start" x="766.5" y="-452.5" font-family="Verdana" font-size="10.00" fill="white">• 3</text>
<text text-anchor="start" x="875.5" y="-472" font-family="Verdana" font-size="10.00" fill="white">0 •</text>
<polygon fill="black" stroke="black" points="762.5,-569.5 762.5,-569.5 895.5,-569.5 895.5,-569.5 762.5,-569.5"/>
<polygon fill="none" stroke="black" stroke-width="2" points="763,-447 763,-592 894,-592 894,-447 763,-447"/>
</g>
<!-- 1&#45;&gt;17 -->
<g id="edge8" class="edge"><title>1:o0:e&#45;&gt;17:i1:w</title>
<g id="a_edge8"><a xlink:title="in: 1 &#45;get&#45;&gt; out: 0">
<path fill="none" stroke="blue" stroke-width="2" d="M663,-480.5C704.997,-480.5 717.956,-480.5 755.416,-480.5"/>
<polygon fill="blue" stroke="blue" stroke-width="2" points="765.5,-480.5 755.5,-485 760.5,-481 755.5,-481 755.5,-480.5 755.5,-480 760.5,-480 755.5,-476 765.5,-480.5 765.5,-480.5"/>
</a>
</g>
</g>
<!-- 1&#45;&gt;17 -->
<g id="edge9" class="edge"><title>1:o1:e&#45;&gt;17:i2:w</title>
<g id="a_edge9"><a xlink:title="in: 2 &#45;get&#45;&gt; out: 1">
<path fill="none" stroke="blue" stroke-width="2" d="M663,-467.5C704.997,-467.5 717.956,-467.5 755.416,-467.5"/>
<polygon fill="blue" stroke="blue" stroke-width="2" points="765.5,-467.5 755.5,-472 760.5,-468 755.5,-468 755.5,-467.5 755.5,-467 760.5,-467 755.5,-463 765.5,-467.5 765.5,-467.5"/>
</a>
</g>
</g>
<!-- 2 -->
<g id="node3" class="node"><title>2</title>
<polygon fill="#006699" stroke="none" points="539.5,-95.5 539.5,-215.5 650.5,-215.5 650.5,-95.5 539.5,-95.5"/>
<text text-anchor="start" x="546" y="-200.9" font-family="Verdana" font-weight="bold" font-size="12.00" fill="white">SimFileInfo [2]</text>
<text text-anchor="start" x="544" y="-182.5" font-family="Verdana" font-size="10.00" fill="white">Inputs</text>
<text text-anchor="start" x="607" y="-182.5" font-family="Verdana" font-size="10.00" fill="white">Outputs</text>
<text text-anchor="start" x="631" y="-167.5" font-family="Verdana" font-size="10.00" fill="white">0 •</text>
<text text-anchor="start" x="631" y="-154.5" font-family="Verdana" font-size="10.00" fill="white">1 •</text>
<text text-anchor="start" x="631" y="-141.5" font-family="Verdana" font-size="10.00" fill="white">2 •</text>
<text text-anchor="start" x="631" y="-128.5" font-family="Verdana" font-size="10.00" fill="white">3 •</text>
<text text-anchor="start" x="631" y="-115.5" font-family="Verdana" font-size="10.00" fill="white">4 •</text>
<text text-anchor="start" x="631" y="-102.5" font-family="Verdana" font-size="10.00" fill="white">5 •</text>
<polygon fill="none" stroke="black" stroke-width="2" points="540.5,-96.5 540.5,-214.5 649.5,-214.5 649.5,-96.5 540.5,-96.5"/>
</g>
<!-- 13 -->
<g id="node7" class="node"><title>13</title>
<polygon fill="#006699" stroke="none" points="756,-128.5 756,-294.5 901,-294.5 901,-128.5 756,-128.5"/>
<text text-anchor="start" x="762.5" y="-279.9" font-family="Verdana" font-weight="bold" font-size="12.00" fill="white">SimpleFunction [13]</text>
<text text-anchor="start" x="804" y="-259.5" font-family="Verdana" font-size="10.00" fill="white">Attributes</text>
<text text-anchor="start" x="779.5" y="-242.5" font-family="Verdana" font-size="10.00" fill="white">evalType :</text>
<text text-anchor="start" x="839.5" y="-242.5" font-family="Verdana" font-size="10.00" fill="white">&#39;double&#39;</text>
<text text-anchor="start" x="787.5" y="-225.5" font-family="Verdana" font-size="10.00" fill="white">groupId :</text>
<text text-anchor="start" x="839.5" y="-225.5" font-family="Verdana" font-size="10.00" fill="white">&#39;Body&#39;</text>
<text text-anchor="start" x="766.5" y="-208.5" font-family="Verdana" font-size="10.00" fill="white">outputType :</text>
<text text-anchor="start" x="839.5" y="-208.5" font-family="Verdana" font-size="10.00" fill="white">&#39;bool&#39;</text>
<text text-anchor="start" x="772.5" y="-186" font-family="Verdana" font-size="10.00" fill="white">expression :</text>
<text text-anchor="start" x="839.5" y="-191.5" font-family="Verdana" font-size="10.00" fill="white">&#39;i[0] &gt;= 50</text>
<text text-anchor="start" x="839.5" y="-180.5" font-family="Verdana" font-size="10.00" fill="white">0&#39;</text>
<text text-anchor="start" x="760.5" y="-163.5" font-family="Verdana" font-size="10.00" fill="white">Inputs</text>
<text text-anchor="start" x="857.5" y="-163.5" font-family="Verdana" font-size="10.00" fill="white">Outputs</text>
<text text-anchor="start" x="760.5" y="-148.5" font-family="Verdana" font-size="10.00" fill="white">• 0</text>
<text text-anchor="start" x="760.5" y="-135.5" font-family="Verdana" font-size="10.00" fill="white">• 1</text>
<text text-anchor="start" x="881.5" y="-142" font-family="Verdana" font-size="10.00" fill="white">0 •</text>
<polygon fill="black" stroke="black" points="756.5,-271.5 756.5,-271.5 901.5,-271.5 901.5,-271.5 756.5,-271.5"/>
<polygon fill="none" stroke="black" stroke-width="2" points="757,-129.5 757,-293.5 900,-293.5 900,-129.5 757,-129.5"/>
</g>
<!-- 2&#45;&gt;13 -->
<g id="edge4" class="edge"><title>2:o1:e&#45;&gt;13:i1:w</title>
<g id="a_edge4"><a xlink:title="in: 1 &#45;get&#45;&gt; out: 1">
<path fill="none" stroke="blue" stroke-width="2" d="M648,-157.5C694.806,-157.5 707.438,-140.214 749.439,-137.783"/>
<polygon fill="blue" stroke="blue" stroke-width="2" points="759.5,-137.5 749.63,-142.279 754.516,-138.14 749.518,-138.281 749.504,-137.781 749.49,-137.281 754.488,-137.141 749.377,-133.283 759.5,-137.5 759.5,-137.5"/>
</a>
</g>
</g>
<!-- 18 -->
<g id="node12" class="node"><title>18</title>
<polygon fill="#006699" stroke="none" points="762,-310 762,-431 895,-431 895,-310 762,-310"/>
<text text-anchor="start" x="768.5" y="-415.9" font-family="Verdana" font-weight="bold" font-size="12.00" fill="white">StringFormat [18]</text>
<text text-anchor="start" x="804" y="-395.5" font-family="Verdana" font-size="10.00" fill="white">Attributes</text>
<text text-anchor="start" x="783.5" y="-378.5" font-family="Verdana" font-size="10.00" fill="white">groupId :</text>
<text text-anchor="start" x="835.5" y="-378.5" font-family="Verdana" font-size="10.00" fill="white">&#39;File&#39;</text>
<text text-anchor="start" x="788.5" y="-361.5" font-family="Verdana" font-size="10.00" fill="white">format :</text>
<text text-anchor="start" x="835.5" y="-361.5" font-family="Verdana" font-size="10.00" fill="white">&#39;%s.xml&#39;</text>
<text text-anchor="start" x="766.5" y="-344.5" font-family="Verdana" font-size="10.00" fill="white">Inputs</text>
<text text-anchor="start" x="851.5" y="-344.5" font-family="Verdana" font-size="10.00" fill="white">Outputs</text>
<text text-anchor="start" x="766.5" y="-329.5" font-family="Verdana" font-size="10.00" fill="white">• 0</text>
<text text-anchor="start" x="766.5" y="-316.5" font-family="Verdana" font-size="10.00" fill="white">• 1</text>
<text text-anchor="start" x="875.5" y="-323" font-family="Verdana" font-size="10.00" fill="white">0 •</text>
<polygon fill="black" stroke="black" points="762.5,-407.5 762.5,-407.5 895.5,-407.5 895.5,-407.5 762.5,-407.5"/>
<polygon fill="none" stroke="black" stroke-width="2" points="763,-311 763,-430 894,-430 894,-311 763,-311"/>
</g>
<!-- 2&#45;&gt;18 -->
<g id="edge11" class="edge"><title>2:o5:e&#45;&gt;18:i1:w</title>
<g id="a_edge11"><a xlink:title="in: 1 &#45;get&#45;&gt; out: 5">
<path fill="none" stroke="blue" stroke-width="2" d="M648,-104.5C752.902,-104.5 663.374,-304.525 755.365,-317.808"/>
<polygon fill="blue" stroke="blue" stroke-width="2" points="765.5,-318.5 755.217,-322.308 760.478,-318.658 755.489,-318.317 755.523,-317.819 755.557,-317.32 760.546,-317.66 755.83,-313.329 765.5,-318.5 765.5,-318.5"/>
</a>
</g>
</g>
<!-- 12 -->
<g id="node6" class="node"><title>12</title>
<polygon fill="#006699" stroke="none" points="522,-270 522,-423 668,-423 668,-270 522,-270"/>
<text text-anchor="start" x="534" y="-407.9" font-family="Verdana" font-weight="bold" font-size="12.00" fill="white">OOBBCollider [12]</text>
<text text-anchor="start" x="570" y="-387.5" font-family="Verdana" font-size="10.00" fill="white">Attributes</text>
<text text-anchor="start" x="528" y="-370.5" font-family="Verdana" font-size="10.00" fill="white">resetGroupId :</text>
<text text-anchor="start" x="607" y="-370.5" font-family="Verdana" font-size="10.00" fill="white">&#39;Frame&#39;</text>
<text text-anchor="start" x="555" y="-353.5" font-family="Verdana" font-size="10.00" fill="white">groupId :</text>
<text text-anchor="start" x="607" y="-353.5" font-family="Verdana" font-size="10.00" fill="white">&#39;Body&#39;</text>
<text text-anchor="start" x="551" y="-336.5" font-family="Verdana" font-size="10.00" fill="white">minPoint :</text>
<text text-anchor="start" x="607" y="-336.5" font-family="Verdana" font-size="10.00" fill="white">&#39;&#45;1 &#45;0.3 0&#39;</text>
<text text-anchor="start" x="548" y="-314" font-family="Verdana" font-size="10.00" fill="white">maxPoint :</text>
<text text-anchor="start" x="607" y="-319.5" font-family="Verdana" font-size="10.00" fill="white">&#39;&#45;0.296 0.3</text>
<text text-anchor="start" x="607" y="-308.5" font-family="Verdana" font-size="10.00" fill="white"> 1&#39;</text>
<text text-anchor="start" x="526" y="-291.5" font-family="Verdana" font-size="10.00" fill="white">Inputs</text>
<text text-anchor="start" x="624" y="-291.5" font-family="Verdana" font-size="10.00" fill="white">Outputs</text>
<text text-anchor="start" x="526" y="-276.5" font-family="Verdana" font-size="10.00" fill="white">• 0</text>
<text text-anchor="start" x="648" y="-276.5" font-family="Verdana" font-size="10.00" fill="white">0 •</text>
<polygon fill="black" stroke="black" points="522,-399.5 522,-399.5 668,-399.5 668,-399.5 522,-399.5"/>
<polygon fill="none" stroke="black" stroke-width="2" points="523,-271 523,-422 667,-422 667,-271 523,-271"/>
</g>
<!-- 4&#45;&gt;12 -->
<g id="edge2" class="edge"><title>4:o0:e&#45;&gt;12:i0:w</title>
<g id="a_edge2"><a xlink:title="in: 0 &#45;get&#45;&gt; out: 0">
<path fill="none" stroke="blue" stroke-width="2" d="M431.5,-278.5C469.484,-278.5 481.429,-278.5 514.937,-278.5"/>
<polygon fill="blue" stroke="blue" stroke-width="2" points="525,-278.5 515,-283 520,-279 515,-279 515,-278.5 515,-278 520,-278 515,-274 525,-278.5 525,-278.5"/>
</a>
</g>
</g>
<!-- 11 -->
<g id="node5" class="node"><title>11</title>
<polygon fill="#006699" stroke="none" points="989,-406.5 989,-600.5 1132,-600.5 1132,-406.5 989,-406.5"/>
<text text-anchor="start" x="995.5" y="-585.9" font-family="Verdana" font-weight="bold" font-size="12.00" fill="white">XMLLineWriter [11]</text>
<text text-anchor="start" x="1036" y="-565.5" font-family="Verdana" font-size="10.00" fill="white">Attributes</text>
<text text-anchor="start" x="1012.5" y="-548.5" font-family="Verdana" font-size="10.00" fill="white">groupId :</text>
<text text-anchor="start" x="1064.5" y="-548.5" font-family="Verdana" font-size="10.00" fill="white">&#39;FrameFinal&#39;</text>
<text text-anchor="start" x="1035.5" y="-526" font-family="Verdana" font-size="10.00" fill="white">file :</text>
<text text-anchor="start" x="1064.5" y="-531.5" font-family="Verdana" font-size="10.00" fill="white">&#39;CollisionI</text>
<text text-anchor="start" x="1064.5" y="-520.5" font-family="Verdana" font-size="10.00" fill="white">nfo.xml&#39;</text>
<text text-anchor="start" x="1002.5" y="-498" font-family="Verdana" font-size="10.00" fill="white">rootName :</text>
<text text-anchor="start" x="1064.5" y="-503.5" font-family="Verdana" font-size="10.00" fill="white">&#39;CollisionI</text>
<text text-anchor="start" x="1064.5" y="-492.5" font-family="Verdana" font-size="10.00" fill="white">nfo&#39;</text>
<text text-anchor="start" x="1000.5" y="-475.5" font-family="Verdana" font-size="10.00" fill="white">childName :</text>
<text text-anchor="start" x="1064.5" y="-475.5" font-family="Verdana" font-size="10.00" fill="white">&#39;Frame&#39;</text>
<text text-anchor="start" x="1000.5" y="-458.5" font-family="Verdana" font-size="10.00" fill="white">inputType :</text>
<text text-anchor="start" x="1064.5" y="-458.5" font-family="Verdana" font-size="10.00" fill="white">&#39;string&#39;</text>
<text text-anchor="start" x="993.5" y="-441.5" font-family="Verdana" font-size="10.00" fill="white">Inputs</text>
<text text-anchor="start" x="1088.5" y="-441.5" font-family="Verdana" font-size="10.00" fill="white">Outputs</text>
<text text-anchor="start" x="993.5" y="-426.5" font-family="Verdana" font-size="10.00" fill="white">• 0</text>
<text text-anchor="start" x="993.5" y="-413.5" font-family="Verdana" font-size="10.00" fill="white">• 1</text>
<polygon fill="black" stroke="black" points="989.5,-577.5 989.5,-577.5 1132.5,-577.5 1132.5,-577.5 989.5,-577.5"/>
<polygon fill="none" stroke="black" stroke-width="2" points="990,-407.5 990,-599.5 1131,-599.5 1131,-407.5 990,-407.5"/>
</g>
<!-- 12&#45;&gt;13 -->
<g id="edge3" class="edge"><title>12:o0:e&#45;&gt;13:i0:w</title>
<g id="a_edge3"><a xlink:title="in: 0 &#45;get&#45;&gt; out: 0">
<path fill="none" stroke="blue" stroke-width="2" d="M665,-278.5C731.984,-278.5 693.409,-163.644 749.26,-151.53"/>
<polygon fill="blue" stroke="blue" stroke-width="2" points="759.5,-150.5 750.001,-155.979 754.575,-151.498 749.6,-151.999 749.55,-151.501 749.5,-151.004 754.475,-150.503 749.1,-147.024 759.5,-150.5 759.5,-150.5"/>
</a>
</g>
</g>
<!-- 12&#45;&gt;17 -->
<g id="edge10" class="edge"><title>12:o0:e&#45;&gt;17:i3:w</title>
<g id="a_edge10"><a xlink:title="in: 3 &#45;get&#45;&gt; out: 0">
<path fill="none" stroke="blue" stroke-width="2" d="M665,-278.5C751.382,-278.5 681.672,-440.359 755.25,-453.636"/>
<polygon fill="blue" stroke="blue" stroke-width="2" points="765.5,-454.5 755.157,-458.144 760.476,-454.578 755.493,-454.158 755.535,-453.66 755.577,-453.162 760.56,-453.582 755.913,-449.176 765.5,-454.5 765.5,-454.5"/>
</a>
</g>
</g>
<!-- 14 -->
<g id="node8" class="node"><title>14</title>
<polygon fill="#006699" stroke="none" points="999.5,-242 999.5,-333 1121.5,-333 1121.5,-242 999.5,-242"/>
<text text-anchor="start" x="1011" y="-317.9" font-family="Verdana" font-weight="bold" font-size="12.00" fill="white">StopNode [14]</text>
<text text-anchor="start" x="1035.5" y="-297.5" font-family="Verdana" font-size="10.00" fill="white">Attributes</text>
<text text-anchor="start" x="1005.5" y="-280.5" font-family="Verdana" font-size="10.00" fill="white">stopGroupId :</text>
<text text-anchor="start" x="1080.5" y="-280.5" font-family="Verdana" font-size="10.00" fill="white">&#39;Frame&#39;</text>
<text text-anchor="start" x="1003.5" y="-263.5" font-family="Verdana" font-size="10.00" fill="white">Inputs</text>
<text text-anchor="start" x="1077.5" y="-263.5" font-family="Verdana" font-size="10.00" fill="white">Outputs</text>
<text text-anchor="start" x="1003.5" y="-248.5" font-family="Verdana" font-size="10.00" fill="white">• 0</text>
<polygon fill="black" stroke="black" points="999.5,-309.5 999.5,-309.5 1121.5,-309.5 1121.5,-309.5 999.5,-309.5"/>
<polygon fill="none" stroke="black" stroke-width="2" points="1000.5,-243 1000.5,-332 1120.5,-332 1120.5,-243 1000.5,-243"/>
</g>
<!-- 13&#45;&gt;14 -->
<g id="edge5" class="edge"><title>13:o0:e&#45;&gt;14:i0:w</title>
<g id="a_edge5"><a xlink:title="in: 0 &#45;get&#45;&gt; out: 0">
<path fill="none" stroke="blue" stroke-width="2" d="M898.5,-144.5C960.89,-144.5 939.282,-239.223 992.485,-249.584"/>
<polygon fill="blue" stroke="blue" stroke-width="2" points="1002.5,-250.5 992.132,-254.07 997.475,-250.542 992.496,-250.087 992.542,-249.589 992.587,-249.091 997.566,-249.546 992.952,-245.107 1002.5,-250.5 1002.5,-250.5"/>
</a>
</g>
</g>
<!-- 15 -->
<g id="node9" class="node"><title>15</title>
<polygon fill="#006699" stroke="none" points="1002.5,-136 1002.5,-227 1118.5,-227 1118.5,-136 1002.5,-136"/>
<text text-anchor="start" x="1011" y="-211.9" font-family="Verdana" font-weight="bold" font-size="12.00" fill="white">StopNode [15]</text>
<text text-anchor="start" x="1035.5" y="-191.5" font-family="Verdana" font-size="10.00" fill="white">Attributes</text>
<text text-anchor="start" x="1008.5" y="-174.5" font-family="Verdana" font-size="10.00" fill="white">stopGroupId :</text>
<text text-anchor="start" x="1083.5" y="-174.5" font-family="Verdana" font-size="10.00" fill="white">&#39;Body&#39;</text>
<text text-anchor="start" x="1006.5" y="-157.5" font-family="Verdana" font-size="10.00" fill="white">Inputs</text>
<text text-anchor="start" x="1074.5" y="-157.5" font-family="Verdana" font-size="10.00" fill="white">Outputs</text>
<text text-anchor="start" x="1006.5" y="-142.5" font-family="Verdana" font-size="10.00" fill="white">• 0</text>
<polygon fill="black" stroke="black" points="1002.5,-203.5 1002.5,-203.5 1118.5,-203.5 1118.5,-203.5 1002.5,-203.5"/>
<polygon fill="none" stroke="black" stroke-width="2" points="1003.5,-137 1003.5,-226 1117.5,-226 1117.5,-137 1003.5,-137"/>
</g>
<!-- 13&#45;&gt;15 -->
<g id="edge6" class="edge"><title>13:o0:e&#45;&gt;15:i0:w</title>
<g id="a_edge6"><a xlink:title="in: 0 &#45;get&#45;&gt; out: 0">
<path fill="none" stroke="blue" stroke-width="2" d="M898.5,-144.5C942.526,-144.5 955.983,-144.5 995.472,-144.5"/>
<polygon fill="blue" stroke="blue" stroke-width="2" points="1005.5,-144.5 995.5,-149 1000.5,-145 995.5,-145 995.5,-144.5 995.5,-144 1000.5,-144 995.5,-140 1005.5,-144.5 1005.5,-144.5"/>
</a>
</g>
</g>
<!-- 16 -->
<g id="node10" class="node"><title>16</title>
<polygon fill="#006699" stroke="none" points="1005,-30 1005,-121 1116,-121 1116,-30 1005,-30"/>
<text text-anchor="start" x="1011.5" y="-105.9" font-family="Verdana" font-weight="bold" font-size="12.00" fill="white">StopNode [16]</text>
<text text-anchor="start" x="1036" y="-85.5" font-family="Verdana" font-size="10.00" fill="white">Attributes</text>
<text text-anchor="start" x="1012.5" y="-68.5" font-family="Verdana" font-size="10.00" fill="white">stopGroupId :</text>
<text text-anchor="start" x="1087.5" y="-68.5" font-family="Verdana" font-size="10.00" fill="white">&#39;File&#39;</text>
<text text-anchor="start" x="1009.5" y="-51.5" font-family="Verdana" font-size="10.00" fill="white">Inputs</text>
<text text-anchor="start" x="1072.5" y="-51.5" font-family="Verdana" font-size="10.00" fill="white">Outputs</text>
<text text-anchor="start" x="1009.5" y="-36.5" font-family="Verdana" font-size="10.00" fill="white">• 0</text>
<polygon fill="black" stroke="black" points="1005.5,-97.5 1005.5,-97.5 1116.5,-97.5 1116.5,-97.5 1005.5,-97.5"/>
<polygon fill="none" stroke="black" stroke-width="2" points="1006,-31 1006,-120 1115,-120 1115,-31 1006,-31"/>
</g>
<!-- 13&#45;&gt;16 -->
<g id="edge7" class="edge"><title>13:o0:e&#45;&gt;16:i0:w</title>
<g id="a_edge7"><a xlink:title="in: 0 &#45;get&#45;&gt; out: 0">
<path fill="none" stroke="blue" stroke-width="2" d="M898.5,-144.5C962.814,-144.5 943.065,-49.3849 998.513,-39.3532"/>
<polygon fill="blue" stroke="blue" stroke-width="2" points="1008.5,-38.5 998.919,-43.835 1003.56,-39.4239 998.579,-39.8495 998.536,-39.3513 998.494,-38.8532 1003.48,-38.4275 998.153,-34.8677 1008.5,-38.5 1008.5,-38.5"/>
</a>
</g>
</g>
<!-- 17&#45;&gt;11 -->
<g id="edge13" class="edge"><title>17:o0:e&#45;&gt;11:i1:w</title>
<g id="a_edge13"><a xlink:title="in: 1 &#45;get&#45;&gt; out: 0">
<path fill="none" stroke="blue" stroke-width="2" d="M892.5,-474.5C940.475,-474.5 941.077,-423.505 982.39,-416.334"/>
<polygon fill="blue" stroke="blue" stroke-width="2" points="992.5,-415.5 982.904,-420.807 987.558,-416.409 982.575,-416.821 982.534,-416.322 982.493,-415.824 987.476,-415.413 982.164,-411.837 992.5,-415.5 992.5,-415.5"/>
</a>
</g>
</g>
<!-- 18&#45;&gt;11 -->
<g id="edge12" class="edge"><title>18:o0:e&#45;&gt;11:i0:w</title>
<g id="a_edge12"><a xlink:title="in: 0 &#45;get&#45;&gt; out: 0">
<path fill="none" stroke="blue" stroke-width="2" d="M892.5,-325.5C952.69,-325.5 931.53,-417.162 982.505,-427.546"/>
<polygon fill="blue" stroke="blue" stroke-width="2" points="992.5,-428.5 982.118,-432.03 987.475,-428.523 982.498,-428.048 982.545,-427.55 982.593,-427.052 987.57,-427.527 982.973,-423.07 992.5,-428.5 992.5,-428.5"/>
</a>
</g>
</g>
</g>
</svg>
