<?xml version="1.0" standalone="no"?>
<!DOCTYPE svg PUBLIC "-//W3C//DTD SVG 20010904//EN"
 "http://www.w3.org/TR/2001/REC-SVG-20010904/DTD/svg10.dtd">
<svg version="1.0" xmlns="http://www.w3.org/2000/svg"
 width="260.000000pt" height="260.000000pt" viewBox="0 0 260.000000 260.000000"
 preserveAspectRatio="xMidYMid meet">
<metadata>
Created by potrace 1.11, written by Peter Selinger 2001-2013
</metadata>
<g transform="translate(0.000000,260.000000) scale(0.100000,-0.100000)"
fill="#000000" stroke="none">
<path d="M2075 2395 c-117 -28 -185 -77 -230 -164 -63 -125 -150 -421 -292
-994 -100 -401 -82 -380 -177 -197 -107 205 -258 612 -406 1088 -46 148 -48
150 -125 111 -49 -25 -64 -46 -71 -102 -44 -360 -122 -695 -241 -1032 -52
-147 -91 -224 -125 -241 -42 -22 -114 -5 -196 47 -21 13 -24 12 -42 -11 -22
-29 -50 -104 -50 -134 1 -40 46 -75 126 -98 118 -34 194 35 295 267 86 199
223 676 269 935 20 116 19 116 85 -80 108 -325 168 -487 249 -676 61 -142 158
-321 202 -372 30 -35 32 -36 70 -24 21 6 51 22 66 34 31 25 22 -6 153 528 120
488 215 819 244 854 35 40 99 62 207 71 102 9 110 12 133 48 24 39 43 119 35
142 -8 19 -98 19 -179 0z"/>
<path d="M2190 1244 c-8 -3 -44 -14 -80 -26 -103 -33 -201 -95 -279 -177 -150
-159 -230 -433 -178 -612 69 -236 339 -277 588 -89 57 43 132 131 120 143 -18
18 -67 -9 -125 -70 -70 -74 -113 -99 -182 -108 -124 -17 -232 58 -275 190 -33
103 -4 302 64 434 77 149 172 221 312 236 134 14 160 -49 82 -202 -31 -60 -33
-73 -12 -73 22 0 77 30 93 49 29 37 82 159 88 203 6 43 4 49 -24 77 -29 29
-35 31 -104 30 -40 0 -80 -3 -88 -5z"/>
</g>
</svg>
