<?xml version="1.0" encoding="UTF-8" standalone="no"?>
<!DOCTYPE svg PUBLIC "-//W3C//DTD SVG 1.1//EN"
"http://www.w3.org/Graphics/SVG/1.1/DTD/svg11.dtd">


<!-- Page 1 -->
<svg x="0" y="0" width="100%" height="100%" viewBox="0 0 1564 1173"  version="1.1" xmlns="http://www.w3.org/2000/svg" xmlns:xlink="http://www.w3.org/1999/xlink"
style="display: block;margin-left: auto;margin-right: auto;">
<defs>
<clipPath id="c0_1"><path d="M110.1,229.6c0.4,0,0.9,-0.1,1.3,-0.3c1.2,-0.8,1.5,-2.3,0.8,-3.5c-0.5,-0.7,-1.3,-1.1,-2.1,-1.1c-0.4,0,-0.9,0.1,-1.3,0.3c-1.2,0.8,-1.5,2.3,-0.8,3.4c0.5,0.8,1.3,1.2,2.1,1.2ZM44.3,332.2l0,-155l171.1,0l0,155Z" /></clipPath>
<clipPath id="c1_1"><path d="M335.5,1019.5l0,-164l1229,0l0,164Z" /></clipPath>
<clipPath id="c2_1"><path d="M0.5,1173.5l0,-148l1564,0l0,148Z" /></clipPath>

<style type="text/css"><![CDATA[

.g37_1{
fill: #77B3C6;
}
.g56_1{
fill: #469CB1;
}
.g59_1{
fill: #3B99B0;
}
.g31_1{
fill: #8BBDCD;
}
.g61_1{
fill: #3496AE;
}
.g25_1{
fill: #9AC6D5;
}
.g21_1{
fill: #A5CBD7;
}
.g40_1{
fill: #71B1C4;
}
.g12_1{
fill: #C0DBE3;
}
.g47_1{
fill: #5FA7BC;
}
.g9_1{
fill: #CBE2E9;
}
.g71_1{
fill: #1389A0;
}
.g16_1{
fill: #B2D2DE;
}
.g77_1{
fill: #01849C;
}
.g27_1{
fill: #96C3D1;
}
.g84_1{
fill: none;
stroke: #006880;
stroke-width: 1;
stroke-linecap: butt;
stroke-linejoin: miter;
}
.g7_1{
fill: #CFE4EB;
}
.g78_1{
fill: #01839B;
}
.g44_1{
fill: #68ABBE;
}
.g46_1{
fill: #62A8BC;
}
.g83_1{
fill: none;
stroke: #007D96;
stroke-width: 1;
stroke-linecap: butt;
stroke-linejoin: miter;
}
.g67_1{
fill: #228FA5;
}
.g26_1{
fill: #99C4D3;
}
.g29_1{
fill: #91C1D0;
}
.g53_1{
fill: #50A1B6;
}
.g64_1{
fill: #2A92A7;
}
.g82_1{
fill: #007E96;
}
.g60_1{
fill: #3697AE;
}
.g19_1{
fill: #A9CDDA;
}
.g33_1{
fill: #85BACC;
}
.g73_1{
fill: #0F889E;
}
.g49_1{
fill: #5DA6BB;
}
.g70_1{
fill: #188AA0;
}
.g28_1{
fill: #93C2D1;
}
.g41_1{
fill: #71B0C2;
}
.g55_1{
fill: #499FB5;
}
.g76_1{
fill: #05859C;
}
.g38_1{
fill: #75B3C5;
}
.g20_1{
fill: #A7CDD9;
}
.g17_1{
fill: #AFD1DC;
}
.g85_1{
fill: #006880;
}
.g74_1{
fill: #0C879E;
}
.g24_1{
fill: #9CC7D5;
}
.g13_1{
fill: #BEDAE3;
}
.g11_1{
fill: #C4DDE7;
}
.g43_1{
fill: #69ACBF;
}
.g48_1{
fill: #5EA7BC;
}
.g52_1{
fill: #54A2B7;
}
.g42_1{
fill: #6BADBF;
}
.g51_1{
fill: #57A4B9;
}
.g75_1{
fill: #08879E;
}
.g2_1{
fill: #E9E9E9;
}
.g23_1{
fill: #A0C9D7;
}
.g45_1{
fill: #65AABE;
}
.g58_1{
fill: #3E9AB0;
}
.g22_1{
fill: #A2CAD7;
}
.g65_1{
fill: #2791A7;
}
.g68_1{
fill: #1F8EA5;
}
.g81_1{
fill: #008098;
}
.g35_1{
fill: #7FB7C8;
}
.g80_1{
fill: #00829A;
}
.g32_1{
fill: #88BCCD;
}
.g6_1{
fill: #D2E5EB;
}
.g34_1{
fill: #83B9CA;
}
.g79_1{
fill: #00829B;
}
.g50_1{
fill: #5BA5B9;
}
.g10_1{
fill: #C8E1E9;
}
.g15_1{
fill: #B6D5E0;
}
.g1_1{
fill: #FFFFFF;
}
.g5_1{
fill: #D6E8EE;
}
.g4_1{
fill: #DAE9EE;
}
.g57_1{
fill: #419CB2;
}
.g72_1{
fill: #0F89A0;
}
.g63_1{
fill: #2D93AB;
}
.g8_1{
fill: #CDE2EA;
}
.g62_1{
fill: #3094AB;
}
.g3_1{
fill: #231F20;
}
.g54_1{
fill: #4D9FB5;
}
.g18_1{
fill: #ADD0DB;
}
.g39_1{
fill: #72B2C5;
}
.g66_1{
fill: #268FA5;
}
.g86_1{
fill-opacity: 0;
}
.g87_1{
fill: #B4B4B4;
fill-opacity: 0.64730006;
}
.g30_1{
fill: #8EC0D0;
}
.g14_1{
fill: #BAD8E3;
}
.g69_1{
fill: #1A8DA4;
}
.g36_1{
fill: #7CB6C8;
}

.s2_1{
font-size: 41.25px;
font-family: NXNZCE-MyriadApple-Text1;
fill: #000000;
}
.s1_1{
font-size: 70.28px;
font-family: WLVRIH-MyriadApple-Semibold1;
fill: #09084E;
}
.s3_1{
font-size: 55.00px;
font-family: WLVRIH-MyriadApple-Semibold1;
fill: #000000;
}

]]></style>

</defs>
<path d="M0,0
L0,1173
L1564,1173
L1564,0 Z " 
fill="#FFFFFF" stroke="none" />
<path d="M0,1173l1564,0L1564,0L0,0L0,1173Z" class="g1_1" />
<path d="M0,0L1564,0l0,1173L0,1173Z" class="g2_1" />
<image x="-140" y="0" width="1705" height="1279" xlink:href="1/img/1.png" />
<path fill-rule="evenodd" d="M146.3,40l-3.1,14.9l9.5,0L156.2,40l14.1,0l-9.1,41.4l-14.2,0l3.3,-16l-9.2,0l-3.9,16l-14.7,0l6.7,-30.7l-12.6,0l-6.7,30.7l-15.1,0l6.8,-30.7l-33,0l-1.3,4.9l20.4,0l-2.1,9.8l-20.5,0l-1.2,5.1l21.4,0L82.8,81.4l-36.3,0L55.5,40Z" class="g3_1" />
<path d="M55,115l0,-2l-5,0l0,-5l5,0l0,-2l-5,0l0,-5l5,0l0,-2l-8,0l0,16Z" class="g3_1" />
<path d="M61.6,104l-2.5,0l0,11.5l2.5,0Zm0.3,-3.3c0,-0.4,-0.1,-0.8,-0.4,-1.1C61.2,99.3,60.8,99.1,60.4,99.1c-0.5,0,-0.8,0.2,-1.1,0.5c-0.3,0.3,-0.5,0.7,-0.5,1.1c0,0.4,0.2,0.8,0.5,1.1c0.3,0.3,0.6,0.4,1.1,0.4c0.4,0,0.8,-0.1,1.1,-0.4c0.3,-0.3,0.4,-0.7,0.4,-1.1Z" class="g3_1" />
<path d="M71.9,109.5c0,0.5,0,0.9,-0.2,1.4c-0.1,0.5,-0.3,0.9,-0.5,1.3c-0.3,0.3,-0.5,0.6,-0.9,0.9c-0.3,0.2,-0.7,0.3,-1.2,0.3c-0.8,0,-1.3,-0.3,-1.7,-0.9C67,111.9,66.8,111.1,66.8,110c0,-1.5,0.3,-2.5,0.9,-3.1c0.6,-0.7,1.4,-1,2.4,-1c0.6,0,1.2,0.1,1.8,0.2Zm2.4,5.7l0,-16.6l-2.4,0l0,5.5C71.6,104,71.3,104,71,104c-0.2,0,-0.5,0,-0.8,0c-0.9,0,-1.7,0.1,-2.5,0.4c-0.7,0.3,-1.3,0.7,-1.9,1.3c-0.5,0.5,-0.9,1.2,-1.1,1.9c-0.3,0.8,-0.4,1.7,-0.4,2.6c0,1.6,0.3,2.9,1,3.9c0.7,0.9,1.7,1.4,3.1,1.4c0.9,0,1.7,-0.3,2.3,-0.7c0.7,-0.4,1.1,-1,1.5,-1.7c-0.1,0.3,-0.1,0.7,-0.1,1.1c-0.1,0.4,-0.1,0.7,-0.1,1Z" class="g3_1" />
<path d="M85.5,117.1c0,0.6,-0.2,1.1,-0.8,1.5c-0.6,0.4,-1.4,0.6,-2.5,0.6c-0.8,0,-1.5,-0.2,-2,-0.5c-0.5,-0.3,-0.8,-0.8,-0.8,-1.4c0,-0.4,0.1,-0.7,0.4,-1.1c0.2,-0.3,0.5,-0.6,0.9,-0.8c0.1,0.1,0.2,0.1,0.3,0.1l0.3,0l2.1,0c0.8,0,1.3,0.1,1.6,0.4c0.4,0.3,0.5,0.7,0.5,1.2M84.8,108c0,0.7,-0.2,1.3,-0.7,1.7c-0.4,0.4,-1.1,0.6,-1.8,0.6c-0.9,0,-1.5,-0.2,-1.9,-0.6c-0.5,-0.4,-0.7,-1,-0.7,-1.7c0,-0.7,0.2,-1.3,0.7,-1.8c0.4,-0.4,1.1,-0.6,1.9,-0.6c0.8,0,1.4,0.2,1.8,0.6c0.5,0.4,0.7,1,0.7,1.8m3.2,8.7c0,-1,-0.4,-1.8,-1,-2.4c-0.7,-0.6,-1.7,-0.9,-2.9,-0.9l-1.9,0c-0.7,0,-1.2,0,-1.5,-0.1c-0.3,-0.1,-0.4,-0.3,-0.4,-0.6c0,-0.1,0,-0.3,0.1,-0.4c0.1,-0.1,0.3,-0.2,0.5,-0.3c0.2,0,0.4,0,0.7,0c0.2,0.1,0.4,0.1,0.6,0.1c1.6,0,2.9,-0.4,3.7,-1.2c0.9,-0.8,1.3,-1.8,1.3,-3.1c0,-0.4,-0.1,-0.8,-0.2,-1.1c-0.2,-0.3,-0.4,-0.6,-0.6,-0.8l1.7,0l0,-1.9l-3.8,0c-0.3,-0.1,-0.6,-0.2,-0.9,-0.2c-0.3,-0.1,-0.6,-0.1,-1,-0.1c-0.8,0,-1.5,0.2,-2.2,0.4c-0.6,0.2,-1.1,0.5,-1.6,0.9c-0.4,0.4,-0.7,0.9,-0.9,1.4c-0.3,0.6,-0.4,1.1,-0.4,1.7c0,0.7,0.2,1.4,0.4,1.9c0.3,0.6,0.8,1,1.3,1.3c-0.4,0.2,-0.7,0.4,-0.9,0.8c-0.3,0.4,-0.4,0.7,-0.4,1.2c0,0.3,0.1,0.7,0.3,1c0.2,0.2,0.5,0.5,0.8,0.6c-0.5,0.3,-0.9,0.7,-1.2,1.2c-0.4,0.5,-0.6,1,-0.6,1.7c0,1.1,0.4,1.9,1.3,2.5c0.9,0.5,2,0.8,3.5,0.8c1,0,1.8,-0.1,2.5,-0.3c0.8,-0.3,1.4,-0.6,2,-1c0.5,-0.4,0.9,-0.8,1.2,-1.4c0.3,-0.5,0.5,-1,0.5,-1.7Z" class="g3_1" />
<path d="M97,108.1l-4.8,0c0.1,-0.7,0.4,-1.3,0.8,-1.7c0.5,-0.4,1.1,-0.6,1.7,-0.6c0.8,0,1.4,0.2,1.8,0.6c0.4,0.4,0.6,1,0.5,1.7m2.5,0.6c0,-0.6,-0.1,-1.2,-0.3,-1.8c-0.2,-0.6,-0.4,-1.1,-0.8,-1.5c-0.4,-0.5,-0.9,-0.8,-1.5,-1.1C96.3,104.1,95.6,104,94.8,104c-0.8,0,-1.5,0.1,-2.2,0.4c-0.6,0.3,-1.2,0.7,-1.6,1.2c-0.4,0.5,-0.8,1.2,-1,1.9c-0.2,0.7,-0.4,1.5,-0.4,2.3c0,1.9,0.5,3.4,1.5,4.3c0.9,0.9,2.3,1.4,4,1.4c0.7,0,1.4,-0.1,2.1,-0.2c0.7,-0.1,1.3,-0.3,1.9,-0.6l-0.3,-1.9c-0.4,0.2,-1,0.4,-1.5,0.5c-0.6,0.1,-1.2,0.2,-1.8,0.2c-1.1,0,-2,-0.3,-2.5,-0.9c-0.6,-0.6,-0.9,-1.5,-0.8,-2.7l7.2,0c0.1,-0.5,0.1,-0.8,0.1,-1.2Z" class="g3_1" />
<path d="M111.8,115.5l0,-7.9c0,-0.5,0,-1,-0.2,-1.4c-0.1,-0.5,-0.2,-0.9,-0.5,-1.2c-0.3,-0.3,-0.6,-0.6,-1.1,-0.8c-0.4,-0.1,-0.9,-0.2,-1.6,-0.2c-0.9,0,-1.8,0.2,-2.4,0.6c-0.7,0.5,-1.2,1.1,-1.5,1.8l-0.1,0c0.1,-0.3,0.1,-0.7,0.2,-1.1c0,-0.4,0,-0.8,0,-1.1l-2.3,0l0,11.3l2.4,0l0,-5.5c0,-0.5,0.1,-1,0.2,-1.5c0.2,-0.5,0.4,-0.9,0.7,-1.3c0.2,-0.4,0.5,-0.6,0.9,-0.9c0.4,-0.2,0.8,-0.3,1.2,-0.3c0.6,0,1.1,0.2,1.3,0.6c0.3,0.4,0.4,0.9,0.4,1.6l0,7.3Z" class="g3_1" />
<path d="M119,100.4c0,-0.4,-0.1,-0.7,-0.4,-1C118.4,99.1,118,99,117.6,99c-0.4,0,-0.7,0.1,-0.9,0.4c-0.3,0.3,-0.4,0.6,-0.4,1c0,0.4,0.1,0.7,0.4,1c0.2,0.3,0.5,0.4,0.9,0.4c0.4,0,0.8,-0.1,1,-0.4c0.3,-0.3,0.4,-0.6,0.4,-1m4.5,0c0,-0.4,-0.1,-0.7,-0.4,-1C122.9,99.1,122.5,99,122.2,99c-0.4,0,-0.8,0.1,-1,0.4c-0.3,0.3,-0.4,0.6,-0.4,1c0,0.4,0.1,0.7,0.4,1c0.2,0.3,0.6,0.4,1,0.4c0.3,0,0.7,-0.1,0.9,-0.4c0.3,-0.3,0.4,-0.6,0.4,-1m-0.7,9.3c0,0.6,-0.1,1.1,-0.3,1.6c-0.1,0.5,-0.3,0.8,-0.6,1.1c-0.3,0.3,-0.6,0.6,-0.9,0.7c-0.4,0.2,-0.7,0.2,-1.1,0.2c-1,0,-1.7,-0.3,-2.2,-0.9c-0.5,-0.6,-0.7,-1.6,-0.7,-2.8c0,-0.6,0,-1.2,0.2,-1.6c0.2,-0.4,0.4,-0.8,0.7,-1.1c0.2,-0.3,0.6,-0.5,0.9,-0.6c0.4,-0.2,0.7,-0.3,1.1,-0.3c1,0,1.7,0.4,2.2,1c0.4,0.6,0.7,1.5,0.7,2.7m2.5,-0.2c0,-1,-0.1,-1.8,-0.4,-2.5c-0.3,-0.7,-0.6,-1.3,-1.1,-1.7c-0.4,-0.5,-1,-0.8,-1.6,-1c-0.6,-0.2,-1.3,-0.3,-2.1,-0.3c-0.9,0,-1.7,0.1,-2.4,0.4c-0.7,0.3,-1.2,0.7,-1.7,1.3c-0.5,0.5,-0.9,1.1,-1.2,1.8c-0.3,0.8,-0.4,1.5,-0.4,2.4c0,0.9,0.1,1.8,0.4,2.5c0.2,0.7,0.6,1.3,1,1.7c0.5,0.5,1,0.8,1.7,1c0.6,0.3,1.3,0.4,2.1,0.4c0.9,0,1.6,-0.2,2.3,-0.5c0.7,-0.3,1.3,-0.7,1.8,-1.2c0.5,-0.6,0.9,-1.2,1.2,-1.9c0.3,-0.8,0.4,-1.6,0.4,-2.4Z" class="g3_1" />
<path d="M134.8,111.9c0,-0.6,-0.2,-1.1,-0.4,-1.4c-0.3,-0.4,-0.6,-0.7,-0.9,-1c-0.4,-0.2,-0.8,-0.4,-1.3,-0.5c-0.4,-0.1,-0.8,-0.3,-1.2,-0.4c-0.3,-0.2,-0.6,-0.3,-0.9,-0.5c-0.2,-0.2,-0.4,-0.5,-0.4,-0.9c0,-0.4,0.2,-0.7,0.5,-1c0.4,-0.2,0.9,-0.3,1.5,-0.3c0.8,0,1.6,0.1,2.3,0.3l0,-2c-0.3,-0.1,-0.7,-0.1,-1,-0.2c-0.4,0,-0.8,0,-1.1,0c-0.8,0,-1.5,0.1,-2,0.2c-0.6,0.2,-1.1,0.4,-1.5,0.8c-0.4,0.3,-0.7,0.6,-0.9,1c-0.2,0.4,-0.3,0.9,-0.3,1.4c0,0.6,0.1,1.1,0.4,1.5c0.2,0.3,0.5,0.6,0.9,0.9c0.4,0.2,0.8,0.4,1.2,0.5c0.4,0.1,0.8,0.3,1.2,0.4c0.4,0.1,0.7,0.3,0.9,0.5c0.3,0.2,0.4,0.5,0.4,0.8c0,0.5,-0.2,0.8,-0.6,1.1c-0.4,0.3,-1,0.4,-1.6,0.4c-0.5,0,-0.9,0,-1.3,-0.1c-0.5,-0.1,-0.9,-0.2,-1.2,-0.3l-0.1,2.1c0.4,0.1,0.8,0.2,1.2,0.2c0.4,0,0.8,0.1,1.2,0.1c0.8,0,1.5,-0.1,2.1,-0.3c0.6,-0.2,1.1,-0.4,1.5,-0.7c0.5,-0.4,0.8,-0.7,1,-1.2c0.3,-0.4,0.4,-0.9,0.4,-1.4Z" class="g3_1" />
<path d="M144.4,111.9c0,-0.6,-0.1,-1.1,-0.4,-1.4c-0.2,-0.4,-0.5,-0.7,-0.9,-1c-0.4,-0.2,-0.8,-0.4,-1.2,-0.5c-0.5,-0.1,-0.9,-0.3,-1.2,-0.4c-0.4,-0.2,-0.7,-0.3,-1,-0.5c-0.2,-0.2,-0.3,-0.5,-0.3,-0.9c0,-0.4,0.1,-0.7,0.5,-1c0.3,-0.2,0.8,-0.3,1.5,-0.3c0.7,0,1.5,0.1,2.2,0.3l0.1,-2c-0.4,-0.1,-0.7,-0.1,-1.1,-0.2c-0.4,0,-0.7,0,-1.1,0c-0.7,0,-1.4,0.1,-2,0.2c-0.6,0.2,-1.1,0.4,-1.5,0.8c-0.4,0.3,-0.7,0.6,-0.9,1c-0.2,0.4,-0.2,0.9,-0.2,1.4c0,0.6,0.1,1.1,0.3,1.5c0.3,0.3,0.6,0.6,0.9,0.9c0.4,0.2,0.8,0.4,1.2,0.5c0.5,0.1,0.9,0.3,1.2,0.4c0.4,0.1,0.7,0.3,1,0.5c0.2,0.2,0.3,0.5,0.3,0.8c0,0.5,-0.2,0.8,-0.6,1.1c-0.4,0.3,-0.9,0.4,-1.6,0.4c-0.4,0,-0.9,0,-1.3,-0.1c-0.4,-0.1,-0.8,-0.2,-1.2,-0.3l0,2.1c0.3,0.1,0.7,0.2,1.1,0.2c0.4,0,0.8,0.1,1.3,0.1c0.7,0,1.4,-0.1,2,-0.3c0.6,-0.2,1.2,-0.4,1.6,-0.7c0.4,-0.4,0.7,-0.7,1,-1.2c0.2,-0.4,0.3,-0.9,0.3,-1.4Z" class="g3_1" />
<path d="M149.7,104l-2.5,0l0,11.5l2.5,0Zm0.3,-3.3c0,-0.4,-0.1,-0.8,-0.4,-1.1c-0.3,-0.3,-0.7,-0.5,-1.1,-0.5c-0.5,0,-0.9,0.2,-1.2,0.5c-0.3,0.3,-0.4,0.7,-0.4,1.1c0,0.4,0.1,0.8,0.4,1.1c0.3,0.3,0.7,0.4,1.2,0.4c0.4,0,0.8,-0.1,1.1,-0.4c0.3,-0.3,0.4,-0.7,0.4,-1.1Z" class="g3_1" />
<path d="M160.1,111.9c0,-0.6,-0.2,-1.1,-0.4,-1.4c-0.3,-0.4,-0.6,-0.7,-0.9,-1c-0.4,-0.2,-0.8,-0.4,-1.3,-0.5c-0.4,-0.1,-0.8,-0.3,-1.2,-0.4c-0.3,-0.2,-0.6,-0.3,-0.9,-0.5c-0.2,-0.2,-0.4,-0.5,-0.4,-0.9c0,-0.4,0.2,-0.7,0.5,-1c0.3,-0.2,0.9,-0.3,1.5,-0.3c0.8,0,1.5,0.1,2.3,0.3l0,-2c-0.3,-0.1,-0.7,-0.1,-1,-0.2c-0.4,0,-0.8,0,-1.1,0c-0.8,0,-1.5,0.1,-2,0.2c-0.6,0.2,-1.1,0.4,-1.5,0.8c-0.4,0.3,-0.7,0.6,-0.9,1c-0.2,0.4,-0.3,0.9,-0.3,1.4c0,0.6,0.1,1.1,0.4,1.5c0.2,0.3,0.5,0.6,0.9,0.9c0.4,0.2,0.8,0.4,1.2,0.5c0.4,0.1,0.8,0.3,1.2,0.4c0.4,0.1,0.7,0.3,0.9,0.5c0.3,0.2,0.4,0.5,0.4,0.8c0,0.5,-0.2,0.8,-0.6,1.1c-0.4,0.3,-1,0.4,-1.6,0.4c-0.5,0,-0.9,0,-1.3,-0.1c-0.5,-0.1,-0.9,-0.2,-1.2,-0.3l-0.1,2.1c0.4,0.1,0.7,0.2,1.2,0.2c0.4,0,0.8,0.1,1.2,0.1c0.8,0,1.5,-0.1,2.1,-0.3c0.6,-0.2,1.1,-0.4,1.5,-0.7c0.5,-0.4,0.8,-0.7,1,-1.2c0.3,-0.4,0.4,-0.9,0.4,-1.4Z" class="g3_1" />
<path d="M170.2,114.9L170,112.8c-0.3,0.1,-0.7,0.3,-1.1,0.4c-0.5,0.1,-0.9,0.1,-1.3,0.1c-0.6,0,-1.1,-0.1,-1.5,-0.2c-0.4,-0.2,-0.7,-0.5,-0.9,-0.8c-0.3,-0.3,-0.4,-0.7,-0.5,-1.1c-0.1,-0.4,-0.2,-0.9,-0.2,-1.4c0,-1.2,0.3,-2.1,0.8,-2.8c0.5,-0.6,1.3,-1,2.4,-1c0.4,0,0.8,0.1,1.2,0.1c0.3,0.1,0.7,0.2,1.1,0.4l0.2,-2.2c-0.8,-0.2,-1.6,-0.3,-2.5,-0.3c-0.9,0,-1.8,0.1,-2.5,0.4c-0.7,0.3,-1.3,0.8,-1.8,1.3c-0.5,0.5,-0.8,1.2,-1.1,1.9c-0.2,0.8,-0.3,1.6,-0.3,2.5c0,1,0.1,1.8,0.3,2.5c0.3,0.7,0.6,1.2,1.1,1.7c0.4,0.4,1,0.7,1.6,0.9c0.6,0.2,1.3,0.3,2,0.3c0.7,0,1.3,-0.1,1.8,-0.2c0.6,-0.1,1,-0.3,1.4,-0.4Z" class="g3_1" />
<path d="M182.3,115.5l0,-7.9c0,-0.5,-0.1,-1,-0.2,-1.4c-0.1,-0.5,-0.3,-0.9,-0.5,-1.2c-0.3,-0.3,-0.6,-0.6,-1.1,-0.8c-0.4,-0.1,-1,-0.2,-1.6,-0.2c-0.9,0,-1.7,0.2,-2.4,0.6c-0.6,0.4,-1.1,1,-1.5,1.7c0.1,-0.3,0.1,-0.7,0.2,-1.1c0,-0.4,0,-0.8,0,-1.2l0,-5.4l-2.5,0l0,16.9l2.5,0l0,-5.4c0,-0.6,0.1,-1.1,0.2,-1.6c0.2,-0.5,0.4,-0.9,0.6,-1.3c0.3,-0.4,0.6,-0.6,1,-0.9c0.4,-0.2,0.7,-0.3,1.2,-0.3c0.6,0,1.1,0.2,1.3,0.6c0.3,0.4,0.4,0.9,0.4,1.6l0,7.3Z" class="g3_1" />
<path d="M192.3,108.1l-4.8,0c0.1,-0.7,0.4,-1.3,0.9,-1.7c0.4,-0.4,1,-0.6,1.7,-0.6c0.7,0,1.3,0.2,1.7,0.6c0.4,0.4,0.6,1,0.5,1.7m2.5,0.6c0,-0.6,-0.1,-1.2,-0.3,-1.8c-0.2,-0.6,-0.4,-1.1,-0.8,-1.5c-0.4,-0.5,-0.9,-0.8,-1.5,-1.1C191.7,104.1,191,104,190.1,104c-0.8,0,-1.5,0.1,-2.2,0.4c-0.6,0.3,-1.2,0.7,-1.6,1.2c-0.4,0.5,-0.8,1.2,-1,1.9c-0.2,0.7,-0.3,1.5,-0.3,2.3c0,1.9,0.4,3.4,1.4,4.3c0.9,0.9,2.3,1.4,4,1.4c0.7,0,1.4,-0.1,2.1,-0.2c0.7,-0.1,1.3,-0.3,1.9,-0.6l-0.2,-1.9c-0.5,0.2,-1,0.4,-1.6,0.5c-0.6,0.1,-1.2,0.2,-1.8,0.2c-1.1,0,-2,-0.3,-2.5,-0.9c-0.6,-0.6,-0.9,-1.5,-0.8,-2.7l7.2,0c0.1,-0.5,0.1,-0.8,0.1,-1.2Z" class="g3_1" />
<path d="M211,101l0,-2l-11,0l0,2l4,0l0,14l3,0l0,-14Z" class="g3_1" />
<path d="M218,108.1l-4.8,0c0.1,-0.7,0.4,-1.3,0.8,-1.7c0.5,-0.4,1,-0.6,1.7,-0.6c0.8,0,1.3,0.2,1.7,0.6c0.5,0.4,0.6,1,0.6,1.7m2.5,0.6c0,-0.6,-0.1,-1.2,-0.3,-1.8c-0.2,-0.6,-0.5,-1.1,-0.8,-1.5c-0.4,-0.5,-0.9,-0.8,-1.5,-1.1c-0.6,-0.2,-1.3,-0.3,-2.1,-0.3c-0.8,0,-1.5,0.1,-2.2,0.4c-0.6,0.3,-1.2,0.7,-1.6,1.2c-0.5,0.5,-0.8,1.2,-1,1.9c-0.3,0.7,-0.4,1.5,-0.4,2.3c0,1.9,0.5,3.4,1.4,4.3c1,0.9,2.3,1.4,4.1,1.4c0.7,0,1.4,-0.1,2.1,-0.2c0.6,-0.1,1.3,-0.3,1.8,-0.6l-0.2,-1.9c-0.5,0.2,-1,0.4,-1.6,0.5c-0.5,0.1,-1.1,0.2,-1.7,0.2c-1.1,0,-2,-0.3,-2.6,-0.9c-0.5,-0.6,-0.8,-1.5,-0.8,-2.7l7.3,0c0,-0.5,0.1,-0.8,0.1,-1.2Z" class="g3_1" />
<path d="M230.6,114.9l-0.2,-2.1c-0.4,0.1,-0.7,0.3,-1.2,0.4c-0.4,0.1,-0.9,0.1,-1.3,0.1c-0.6,0,-1,-0.1,-1.4,-0.2c-0.4,-0.2,-0.7,-0.5,-1,-0.8c-0.2,-0.3,-0.4,-0.7,-0.5,-1.1c-0.1,-0.4,-0.1,-0.9,-0.1,-1.4c0,-1.2,0.2,-2.1,0.8,-2.8c0.5,-0.6,1.3,-1,2.3,-1c0.4,0,0.8,0.1,1.2,0.1c0.4,0.1,0.8,0.2,1.1,0.4l0.3,-2.2C229.8,104.1,229,104,228.1,104c-1,0,-1.8,0.1,-2.6,0.4c-0.7,0.3,-1.3,0.8,-1.8,1.3c-0.4,0.5,-0.8,1.2,-1,1.9c-0.3,0.8,-0.4,1.6,-0.4,2.5c0,1,0.1,1.8,0.4,2.5c0.2,0.7,0.6,1.2,1,1.7c0.5,0.4,1,0.7,1.6,0.9c0.7,0.2,1.3,0.3,2.1,0.3c0.6,0,1.2,-0.1,1.8,-0.2c0.5,-0.1,1,-0.3,1.4,-0.4Z" class="g3_1" />
<path d="M242.6,115.5l0,-7.9c0,-0.5,0,-1,-0.1,-1.4c-0.1,-0.5,-0.3,-0.9,-0.6,-1.2c-0.2,-0.3,-0.6,-0.6,-1,-0.8c-0.5,-0.1,-1,-0.2,-1.6,-0.2c-1,0,-1.8,0.2,-2.4,0.6c-0.7,0.4,-1.2,1,-1.5,1.7l-0.1,0c0.1,-0.3,0.2,-0.7,0.2,-1.1c0,-0.4,0,-0.8,0,-1.2l0,-5.4l-2.4,0l0,16.9l2.4,0l0,-5.4c0,-0.6,0.1,-1.1,0.3,-1.6c0.1,-0.5,0.3,-0.9,0.6,-1.3c0.3,-0.4,0.6,-0.6,0.9,-0.9c0.4,-0.2,0.8,-0.3,1.2,-0.3c0.7,0,1.1,0.2,1.4,0.6c0.2,0.4,0.3,0.9,0.3,1.6l0,7.3Z" class="g3_1" />
<path d="M255.8,115.5l0,-7.9c0,-0.5,-0.1,-1,-0.2,-1.4c-0.1,-0.5,-0.3,-0.9,-0.6,-1.2c-0.2,-0.3,-0.6,-0.6,-1,-0.8c-0.4,-0.1,-1,-0.2,-1.6,-0.2c-1,0,-1.8,0.2,-2.5,0.6c-0.6,0.5,-1.1,1.1,-1.5,1.8c0.1,-0.3,0.1,-0.7,0.1,-1.1c0,-0.4,0.1,-0.8,0.1,-1.1l-2.4,0l0,11.3l2.5,0l0,-5.5c0,-0.5,0,-1,0.2,-1.5c0.1,-0.5,0.4,-0.9,0.6,-1.3c0.3,-0.4,0.6,-0.6,1,-0.9c0.3,-0.2,0.7,-0.3,1.1,-0.3c0.7,0,1.1,0.2,1.4,0.6c0.2,0.4,0.3,0.9,0.3,1.6l0,7.3Z" class="g3_1" />
<path d="M261.8,104l-2.5,0l0,11.5l2.5,0Zm0.3,-3.3c0,-0.4,-0.1,-0.8,-0.4,-1.1c-0.3,-0.3,-0.7,-0.5,-1.1,-0.5c-0.5,0,-0.8,0.2,-1.1,0.5c-0.4,0.3,-0.5,0.7,-0.5,1.1c0,0.4,0.1,0.8,0.5,1.1c0.3,0.3,0.6,0.4,1.1,0.4c0.4,0,0.8,-0.1,1.1,-0.4c0.3,-0.3,0.4,-0.7,0.4,-1.1Z" class="g3_1" />
<path d="M272.2,111.9c0,-0.6,-0.1,-1.1,-0.4,-1.4c-0.2,-0.4,-0.6,-0.7,-0.9,-1c-0.4,-0.2,-0.8,-0.4,-1.2,-0.5c-0.5,-0.1,-0.9,-0.3,-1.3,-0.4c-0.3,-0.2,-0.6,-0.3,-0.9,-0.5c-0.2,-0.2,-0.4,-0.5,-0.4,-0.9c0,-0.4,0.2,-0.7,0.5,-1c0.4,-0.2,0.9,-0.3,1.6,-0.3c0.7,0,1.5,0.1,2.2,0.3l0,-2c-0.3,-0.1,-0.7,-0.1,-1,-0.2c-0.4,0,-0.7,0,-1.1,0c-0.8,0,-1.4,0.1,-2,0.2c-0.6,0.2,-1.1,0.4,-1.5,0.8c-0.4,0.3,-0.7,0.6,-0.9,1c-0.2,0.4,-0.3,0.9,-0.3,1.4c0,0.6,0.1,1.1,0.4,1.5c0.2,0.3,0.5,0.6,0.9,0.9c0.4,0.2,0.8,0.4,1.2,0.5c0.4,0.1,0.8,0.3,1.2,0.4c0.4,0.1,0.7,0.3,1,0.5c0.2,0.2,0.3,0.5,0.3,0.8c0,0.5,-0.2,0.8,-0.6,1.1c-0.4,0.3,-1,0.4,-1.6,0.4c-0.5,0,-0.9,0,-1.3,-0.1c-0.5,-0.1,-0.8,-0.2,-1.2,-0.3l-0.1,2.1c0.4,0.1,0.8,0.2,1.2,0.2c0.4,0,0.8,0.1,1.2,0.1c0.8,0,1.5,-0.1,2.1,-0.3c0.6,-0.2,1.1,-0.4,1.6,-0.7c0.4,-0.4,0.7,-0.7,0.9,-1.2c0.3,-0.4,0.4,-0.9,0.4,-1.4Z" class="g3_1" />
<path d="M282.3,114.9l-0.2,-2.1c-0.3,0.1,-0.7,0.3,-1.1,0.4c-0.5,0.1,-0.9,0.1,-1.3,0.1c-0.6,0,-1.1,-0.1,-1.5,-0.2c-0.4,-0.2,-0.7,-0.5,-0.9,-0.8c-0.2,-0.3,-0.4,-0.7,-0.5,-1.1c-0.1,-0.4,-0.2,-0.9,-0.2,-1.4c0,-1.2,0.3,-2.1,0.8,-2.8c0.5,-0.6,1.3,-1,2.4,-1c0.4,0,0.8,0.1,1.2,0.1c0.4,0.1,0.7,0.2,1.1,0.4l0.2,-2.2c-0.7,-0.2,-1.6,-0.3,-2.4,-0.3c-1,0,-1.9,0.1,-2.6,0.4c-0.7,0.3,-1.3,0.8,-1.8,1.3c-0.5,0.5,-0.8,1.2,-1.1,1.9c-0.2,0.8,-0.3,1.6,-0.3,2.5c0,1,0.1,1.8,0.4,2.5c0.2,0.7,0.6,1.2,1,1.7c0.5,0.4,1,0.7,1.6,0.9c0.6,0.2,1.3,0.3,2,0.3c0.7,0,1.3,-0.1,1.8,-0.2c0.6,-0.1,1.1,-0.3,1.4,-0.4Z" class="g3_1" />
<path d="M294.4,115.5l0,-7.9c0,-0.5,0,-1,-0.1,-1.4c-0.2,-0.5,-0.3,-0.9,-0.6,-1.2c-0.3,-0.3,-0.6,-0.6,-1.1,-0.8C292.2,104.1,291.7,104,291,104c-0.9,0,-1.7,0.2,-2.4,0.6c-0.6,0.4,-1.1,1,-1.4,1.7l-0.1,0c0.1,-0.3,0.1,-0.7,0.2,-1.1c0,-0.4,0,-0.8,0,-1.2l0,-5.4l-2.4,0l0,16.9l2.4,0l0,-5.4c0,-0.6,0.1,-1.1,0.2,-1.6c0.2,-0.5,0.4,-0.9,0.7,-1.3c0.2,-0.4,0.5,-0.6,0.9,-0.9c0.4,-0.2,0.8,-0.3,1.2,-0.3c0.6,0,1.1,0.2,1.3,0.6c0.3,0.4,0.4,0.9,0.4,1.6l0,7.3Z" class="g3_1" />
<path d="M304.5,108.1l-4.9,0c0.1,-0.7,0.4,-1.3,0.9,-1.7c0.4,-0.4,1,-0.6,1.7,-0.6c0.7,0,1.3,0.2,1.7,0.6c0.4,0.4,0.6,1,0.6,1.7m2.4,0.6c0,-0.6,-0.1,-1.2,-0.3,-1.8c-0.1,-0.6,-0.4,-1.1,-0.8,-1.5c-0.4,-0.5,-0.9,-0.8,-1.4,-1.1c-0.6,-0.2,-1.3,-0.3,-2.1,-0.3c-0.9,0,-1.6,0.1,-2.2,0.4c-0.7,0.3,-1.2,0.7,-1.7,1.2c-0.4,0.5,-0.8,1.2,-1,1.9c-0.2,0.7,-0.3,1.5,-0.3,2.3c0,1.9,0.4,3.4,1.4,4.3c0.9,0.9,2.3,1.4,4.1,1.4c0.7,0,1.3,-0.1,2,-0.2c0.7,-0.1,1.3,-0.3,1.9,-0.6l-0.2,-1.9c-0.5,0.2,-1,0.4,-1.6,0.5c-0.6,0.1,-1.2,0.2,-1.7,0.2c-1.2,0,-2,-0.3,-2.6,-0.9c-0.6,-0.6,-0.8,-1.5,-0.8,-2.7l7.2,0c0.1,-0.5,0.1,-0.8,0.1,-1.2Z" class="g3_1" />
<path d="M326,115l0,-16l-2,0l0,7l-7,0l0,-7l-3,0l0,16l3,0l0,-7l7,0l0,7Z" class="g3_1" />
<path d="M337.9,109.7c0,0.6,0,1.1,-0.2,1.6c-0.1,0.5,-0.4,0.8,-0.6,1.1c-0.3,0.3,-0.6,0.6,-1,0.7c-0.3,0.2,-0.7,0.2,-1.1,0.2c-0.9,0,-1.7,-0.3,-2.1,-0.9c-0.5,-0.6,-0.8,-1.6,-0.8,-2.8c0,-0.6,0.1,-1.1,0.3,-1.6c0.1,-0.4,0.4,-0.8,0.6,-1.1c0.3,-0.3,0.6,-0.5,1,-0.6c0.3,-0.2,0.7,-0.3,1,-0.3c1,0,1.8,0.4,2.2,1c0.5,0.6,0.7,1.5,0.7,2.7m2.5,-0.2c0,-1,-0.1,-1.8,-0.3,-2.5c-0.3,-0.7,-0.7,-1.3,-1.1,-1.7c-0.5,-0.5,-1,-0.8,-1.7,-1c-0.6,-0.2,-1.3,-0.3,-2,-0.3c-0.9,0,-1.7,0.1,-2.4,0.4c-0.7,0.3,-1.3,0.7,-1.8,1.3c-0.5,0.5,-0.9,1.1,-1.1,1.8c-0.3,0.8,-0.4,1.5,-0.4,2.4c0,0.9,0.1,1.8,0.3,2.5c0.3,0.7,0.6,1.3,1.1,1.7c0.5,0.5,1,0.8,1.6,1c0.7,0.3,1.4,0.4,2.2,0.4c0.8,0,1.6,-0.2,2.3,-0.5c0.7,-0.3,1.3,-0.7,1.8,-1.3c0.5,-0.5,0.9,-1.1,1.1,-1.8c0.3,-0.8,0.4,-1.6,0.4,-2.4Z" class="g3_1" />
<path d="M350.5,114.9l-0.2,-2.1c-0.4,0.1,-0.8,0.3,-1.2,0.4c-0.4,0.1,-0.9,0.1,-1.3,0.1c-0.6,0,-1.1,-0.1,-1.5,-0.2c-0.3,-0.2,-0.7,-0.5,-0.9,-0.8c-0.2,-0.3,-0.4,-0.7,-0.5,-1.1c-0.1,-0.4,-0.1,-0.9,-0.1,-1.4c0,-1.2,0.2,-2.1,0.7,-2.8c0.6,-0.6,1.3,-1,2.4,-1c0.4,0,0.8,0.1,1.2,0.1c0.4,0.1,0.7,0.2,1.1,0.4l0.2,-2.2C349.7,104.1,348.8,104,348,104c-1,0,-1.9,0.1,-2.6,0.4c-0.7,0.3,-1.3,0.8,-1.8,1.3c-0.5,0.5,-0.8,1.2,-1.1,1.9c-0.2,0.8,-0.3,1.6,-0.3,2.5c0,1,0.1,1.8,0.4,2.5c0.2,0.7,0.6,1.2,1,1.7c0.5,0.4,1,0.7,1.6,0.9c0.6,0.2,1.3,0.3,2.1,0.3c0.6,0,1.2,-0.1,1.7,-0.2c0.6,-0.1,1.1,-0.3,1.5,-0.4Z" class="g3_1" />
<path d="M362.5,115.5l0,-7.9c0,-0.5,0,-1,-0.1,-1.4c-0.1,-0.5,-0.3,-0.9,-0.6,-1.2c-0.3,-0.3,-0.6,-0.6,-1.1,-0.8c-0.4,-0.1,-0.9,-0.2,-1.6,-0.2c-0.9,0,-1.7,0.2,-2.3,0.6c-0.7,0.4,-1.2,1,-1.5,1.7l-0.1,0c0.1,-0.3,0.1,-0.7,0.2,-1.1c0,-0.4,0,-0.8,0,-1.2l0,-5.4l-2.4,0l0,16.9l2.4,0l0,-5.4c0,-0.6,0.1,-1.1,0.3,-1.6c0.1,-0.5,0.3,-0.9,0.6,-1.3c0.2,-0.4,0.5,-0.6,0.9,-0.9c0.4,-0.2,0.8,-0.3,1.2,-0.3c0.7,0,1.1,0.2,1.3,0.6c0.3,0.4,0.4,0.9,0.4,1.6l0,7.3Z" class="g3_1" />
<path d="M372.9,111.9c0,-0.6,-0.1,-1.1,-0.4,-1.4c-0.2,-0.4,-0.5,-0.7,-0.9,-1c-0.4,-0.2,-0.8,-0.4,-1.2,-0.5c-0.4,-0.1,-0.8,-0.3,-1.2,-0.4c-0.4,-0.2,-0.7,-0.3,-0.9,-0.5c-0.3,-0.2,-0.4,-0.5,-0.4,-0.9c0,-0.4,0.1,-0.7,0.5,-1c0.3,-0.2,0.8,-0.3,1.5,-0.3c0.8,0,1.5,0.1,2.2,0.3l0.1,-2c-0.4,-0.1,-0.7,-0.1,-1.1,-0.2c-0.4,0,-0.7,0,-1,0c-0.8,0,-1.5,0.1,-2.1,0.2c-0.6,0.2,-1.1,0.4,-1.4,0.8c-0.4,0.3,-0.7,0.6,-0.9,1c-0.2,0.4,-0.3,0.9,-0.3,1.4c0,0.6,0.1,1.1,0.3,1.5c0.3,0.3,0.6,0.6,1,0.9c0.3,0.2,0.7,0.4,1.2,0.5c0.4,0.1,0.8,0.3,1.2,0.4c0.3,0.1,0.6,0.3,0.9,0.5c0.2,0.2,0.4,0.5,0.4,0.8c0,0.5,-0.3,0.8,-0.7,1.1c-0.4,0.3,-0.9,0.4,-1.6,0.4c-0.4,0,-0.9,0,-1.3,-0.1c-0.4,-0.1,-0.8,-0.2,-1.2,-0.3l0,2.1c0.3,0.1,0.7,0.2,1.1,0.2c0.4,0,0.8,0.1,1.3,0.1c0.7,0,1.4,-0.1,2,-0.3c0.6,-0.2,1.2,-0.4,1.6,-0.7c0.4,-0.4,0.7,-0.7,1,-1.2c0.2,-0.4,0.3,-0.9,0.3,-1.4Z" class="g3_1" />
<path d="M383.1,114.9l-0.2,-2.1c-0.4,0.1,-0.7,0.3,-1.2,0.4c-0.4,0.1,-0.9,0.1,-1.3,0.1c-0.6,0,-1,-0.1,-1.4,-0.2c-0.4,-0.2,-0.7,-0.5,-1,-0.8c-0.2,-0.3,-0.4,-0.7,-0.5,-1.1c-0.1,-0.4,-0.1,-0.9,-0.1,-1.4c0,-1.2,0.2,-2.1,0.8,-2.8c0.5,-0.6,1.3,-1,2.3,-1c0.4,0,0.8,0.1,1.2,0.1c0.4,0.1,0.8,0.2,1.1,0.4l0.3,-2.2c-0.8,-0.2,-1.6,-0.3,-2.5,-0.3c-1,0,-1.8,0.1,-2.6,0.4c-0.7,0.3,-1.3,0.8,-1.8,1.3c-0.4,0.5,-0.8,1.2,-1,1.9c-0.3,0.8,-0.4,1.6,-0.4,2.5c0,1,0.1,1.8,0.4,2.5c0.2,0.7,0.6,1.2,1,1.7c0.5,0.4,1,0.7,1.7,0.9c0.6,0.2,1.2,0.3,2,0.3c0.6,0,1.2,-0.1,1.8,-0.2c0.5,-0.1,1,-0.3,1.4,-0.4Z" class="g3_1" />
<path d="M395.1,115.5l0,-7.9c0,-0.5,0,-1,-0.1,-1.4c-0.1,-0.5,-0.3,-0.9,-0.6,-1.2c-0.2,-0.3,-0.6,-0.6,-1,-0.8c-0.5,-0.1,-1,-0.2,-1.6,-0.2c-1,0,-1.8,0.2,-2.4,0.6c-0.7,0.4,-1.2,1,-1.5,1.7l-0.1,0c0.1,-0.3,0.2,-0.7,0.2,-1.1c0,-0.4,0,-0.8,0,-1.2l0,-5.4l-2.4,0l0,16.9l2.4,0l0,-5.4c0,-0.6,0.1,-1.1,0.3,-1.6c0.1,-0.5,0.3,-0.9,0.6,-1.3c0.3,-0.4,0.6,-0.6,0.9,-0.9c0.4,-0.2,0.8,-0.3,1.2,-0.3c0.7,0,1.1,0.2,1.4,0.6c0.2,0.4,0.3,0.9,0.3,1.6l0,7.3Z" class="g3_1" />
<path d="M408.3,115.2l0,-11.2l-2.5,0l0,5.4c0,0.5,-0.1,1.1,-0.2,1.6c-0.2,0.4,-0.4,0.9,-0.6,1.2c-0.3,0.4,-0.6,0.7,-1,0.9c-0.3,0.2,-0.7,0.3,-1.2,0.3c-0.6,0,-1.1,-0.2,-1.3,-0.6c-0.2,-0.4,-0.4,-0.9,-0.4,-1.6l0,-7.2l-2.4,0l0,7.9c0,0.5,0.1,0.9,0.2,1.4c0.1,0.4,0.3,0.8,0.5,1.1c0.3,0.3,0.7,0.6,1.1,0.8c0.4,0.2,1,0.3,1.6,0.3c1,0,1.8,-0.3,2.5,-0.7c0.6,-0.5,1.1,-1.1,1.5,-1.8c-0.1,0.4,-0.1,0.7,-0.1,1.1c-0.1,0.5,-0.1,0.8,-0.1,1.1Z" class="g3_1" />
<path d="M414,98l-3,0l0,17l3,0Z" class="g3_1" />
<path d="M424.3,108.1l-4.8,0c0.1,-0.7,0.4,-1.3,0.8,-1.7c0.5,-0.4,1.1,-0.6,1.7,-0.6c0.8,0,1.4,0.2,1.8,0.6c0.4,0.4,0.6,1,0.5,1.7m2.5,0.6c0,-0.6,-0.1,-1.2,-0.3,-1.8c-0.2,-0.6,-0.4,-1.1,-0.8,-1.5c-0.4,-0.5,-0.9,-0.8,-1.5,-1.1c-0.6,-0.2,-1.3,-0.3,-2.1,-0.3c-0.8,0,-1.5,0.1,-2.2,0.4c-0.6,0.3,-1.2,0.7,-1.6,1.2c-0.5,0.5,-0.8,1.2,-1,1.9c-0.2,0.7,-0.4,1.5,-0.4,2.3c0,1.9,0.5,3.4,1.4,4.3c1,0.9,2.4,1.4,4.1,1.4c0.7,0,1.4,-0.1,2.1,-0.2c0.7,-0.1,1.3,-0.3,1.9,-0.6l-0.3,-1.9c-0.4,0.2,-1,0.4,-1.5,0.5c-0.6,0.1,-1.2,0.2,-1.8,0.2c-1.1,0,-2,-0.3,-2.5,-0.9c-0.6,-0.6,-0.9,-1.5,-0.8,-2.7l7.2,0c0.1,-0.5,0.1,-0.8,0.1,-1.2Z" class="g3_1" />
<path d="M444.1,115.5l0,-2.4l-3.7,0l-2.4,0c-0.6,0,-1,0.1,-1.2,0.1c0.1,-0.2,0.3,-0.4,0.4,-0.6c0.1,-0.2,0.2,-0.4,0.4,-0.7L444,101.8l0,-2l-10,0l0,2.3l3.9,0l1.9,0c0.5,0,0.9,0,1.2,0c-0.2,0.2,-0.4,0.5,-0.6,0.8c-0.2,0.3,-0.3,0.5,-0.5,0.9l-6.1,9.7l0,2Z" class="g3_1" />
<path d="M450.7,100.4c0,-0.4,-0.2,-0.7,-0.4,-1C450,99.1,449.7,99,449.3,99c-0.4,0,-0.8,0.1,-1,0.4c-0.3,0.3,-0.4,0.6,-0.4,1c0,0.4,0.1,0.7,0.4,1c0.2,0.3,0.6,0.4,1,0.4c0.4,0,0.7,-0.1,1,-0.4c0.2,-0.3,0.4,-0.6,0.4,-1m4.5,0c0,-0.4,-0.2,-0.7,-0.4,-1c-0.3,-0.3,-0.6,-0.4,-1,-0.4c-0.4,0,-0.8,0.1,-1,0.4c-0.3,0.3,-0.4,0.6,-0.4,1c0,0.4,0.1,0.7,0.4,1c0.2,0.3,0.6,0.4,1,0.4c0.4,0,0.7,-0.1,1,-0.4c0.2,-0.3,0.4,-0.6,0.4,-1m1.2,14.8l0,-11.2l-2.4,0l0,5.4c0,0.5,-0.1,1.1,-0.3,1.6c-0.1,0.4,-0.3,0.9,-0.6,1.2c-0.2,0.4,-0.6,0.7,-0.9,0.9c-0.4,0.2,-0.8,0.3,-1.2,0.3c-0.7,0,-1.1,-0.2,-1.4,-0.6c-0.2,-0.4,-0.3,-0.9,-0.3,-1.6l0,-7.2l-2.4,0l0,7.9c0,0.5,0,0.9,0.1,1.4c0.1,0.4,0.3,0.8,0.6,1.1c0.3,0.3,0.6,0.6,1,0.8c0.5,0.2,1,0.3,1.7,0.3c0.9,0,1.7,-0.3,2.4,-0.7c0.7,-0.5,1.2,-1.1,1.5,-1.8c0,0.4,-0.1,0.7,-0.1,1.1c0,0.5,0,0.8,0,1.1Z" class="g3_1" />
<path d="M465.9,104c-0.5,-0.1,-1,0,-1.4,0.1c-0.4,0.1,-0.8,0.3,-1.1,0.6c-0.3,0.2,-0.5,0.5,-0.8,0.9c-0.2,0.3,-0.3,0.7,-0.5,1.1c0.1,-0.5,0.1,-0.9,0.2,-1.4c0,-0.4,0,-0.8,0,-1.1l-2.3,0l0,11.3l2.4,0l0,-4.6c0,-1.7,0.3,-2.9,0.9,-3.7c0.5,-0.7,1.4,-1,2.5,-0.8Z" class="g3_1" />
<path d="M470.6,104l-2.5,0l0,11.5l2.5,0Zm0.3,-3.3c0,-0.4,-0.1,-0.8,-0.5,-1.1c-0.3,-0.3,-0.6,-0.5,-1.1,-0.5c-0.4,0,-0.8,0.2,-1.1,0.5c-0.3,0.3,-0.4,0.7,-0.4,1.1c0,0.4,0.1,0.8,0.4,1.1c0.3,0.3,0.7,0.4,1.1,0.4c0.5,0,0.8,-0.1,1.1,-0.4c0.4,-0.3,0.5,-0.7,0.5,-1.1Z" class="g3_1" />
<path d="M481.5,114.9l-0.2,-2.1c-0.4,0.1,-0.7,0.3,-1.2,0.4c-0.4,0.1,-0.9,0.1,-1.3,0.1c-0.6,0,-1,-0.1,-1.4,-0.2c-0.4,-0.2,-0.7,-0.5,-1,-0.8c-0.2,-0.3,-0.4,-0.7,-0.5,-1.1c-0.1,-0.4,-0.1,-0.9,-0.1,-1.4c0,-1.2,0.2,-2.1,0.8,-2.8c0.5,-0.6,1.3,-1,2.3,-1c0.4,0,0.8,0.1,1.2,0.1c0.4,0.1,0.8,0.2,1.1,0.4l0.3,-2.2C480.7,104.1,479.9,104,479,104c-1,0,-1.8,0.1,-2.6,0.4c-0.7,0.3,-1.3,0.8,-1.8,1.3c-0.4,0.5,-0.8,1.2,-1,1.9c-0.3,0.8,-0.4,1.6,-0.4,2.5c0,1,0.1,1.8,0.4,2.5c0.2,0.7,0.6,1.2,1,1.7c0.5,0.4,1,0.7,1.7,0.9c0.6,0.2,1.2,0.3,2,0.3c0.6,0,1.2,-0.1,1.8,-0.2c0.5,-0.1,1,-0.3,1.4,-0.4Z" class="g3_1" />
<path d="M493.5,115.5l0,-7.9c0,-0.5,0,-1,-0.1,-1.4c-0.1,-0.5,-0.3,-0.9,-0.6,-1.2c-0.2,-0.3,-0.6,-0.6,-1,-0.8c-0.5,-0.1,-1,-0.2,-1.6,-0.2c-1,0,-1.8,0.2,-2.4,0.6c-0.7,0.4,-1.2,1,-1.5,1.7l-0.1,0c0.1,-0.3,0.2,-0.7,0.2,-1.1c0,-0.4,0,-0.8,0,-1.2l0,-5.4l-2.4,0l0,16.9l2.4,0l0,-5.4c0,-0.6,0.1,-1.1,0.3,-1.6c0.1,-0.5,0.3,-0.9,0.6,-1.3c0.3,-0.4,0.6,-0.6,0.9,-0.9c0.4,-0.2,0.8,-0.3,1.2,-0.3c0.7,0,1.1,0.2,1.4,0.6c0.2,0.4,0.3,0.9,0.3,1.6l0,7.3Z" class="g3_1" />
<path d="M56.4,140c0,-0.8,-0.2,-1.5,-0.5,-2c-0.3,-0.4,-0.8,-0.9,-1.3,-1.2c-0.4,-0.3,-1,-0.6,-1.6,-0.8c-0.6,-0.2,-1.1,-0.4,-1.6,-0.6c-0.5,-0.3,-0.9,-0.5,-1.3,-0.8c-0.3,-0.3,-0.5,-0.7,-0.5,-1.3c0,-0.6,0.3,-1.1,0.8,-1.5c0.5,-0.4,1.2,-0.6,2.2,-0.6c0.4,0,0.9,0.1,1.4,0.1c0.4,0.1,0.9,0.2,1.3,0.4l0.2,-2.3c-0.5,-0.1,-1,-0.1,-1.4,-0.2c-0.5,0,-1,-0.1,-1.4,-0.1c-0.9,0,-1.7,0.1,-2.4,0.4c-0.7,0.2,-1.3,0.5,-1.8,0.9c-0.5,0.4,-0.9,0.8,-1.1,1.4c-0.3,0.5,-0.4,1.1,-0.4,1.7c0,0.9,0.2,1.5,0.5,2c0.4,0.5,0.8,0.9,1.3,1.3c0.5,0.3,1,0.5,1.6,0.7c0.6,0.2,1.1,0.5,1.6,0.7c0.5,0.2,0.9,0.5,1.3,0.8c0.3,0.3,0.5,0.7,0.5,1.3c0,0.4,-0.1,0.7,-0.3,1c-0.1,0.3,-0.4,0.6,-0.6,0.7c-0.3,0.2,-0.6,0.4,-1,0.4c-0.4,0.1,-0.8,0.2,-1.2,0.2c-0.6,0,-1.1,-0.1,-1.7,-0.2c-0.6,-0.1,-1.1,-0.2,-1.5,-0.4l-0.1,2.4c0.4,0.1,0.9,0.2,1.4,0.3c0.6,0,1.1,0.1,1.7,0.1c0.9,0,1.7,-0.2,2.4,-0.4c0.8,-0.2,1.4,-0.6,1.9,-1c0.5,-0.4,0.9,-0.9,1.2,-1.5c0.3,-0.6,0.4,-1.2,0.4,-1.9Z" class="g3_1" />
<path d="M75,133.3l-2.5,0l-1.6,5.4c-0.2,0.6,-0.3,1.1,-0.4,1.6c-0.2,0.5,-0.3,1,-0.4,1.5c-0.2,-0.5,-0.3,-1,-0.4,-1.5c-0.1,-0.4,-0.3,-1,-0.5,-1.7l-1.7,-5.3l-2.5,0l-1.7,5.4c-0.2,0.5,-0.3,1,-0.4,1.5c-0.2,0.5,-0.3,1,-0.4,1.6c-0.2,-0.5,-0.3,-1,-0.4,-1.6c-0.2,-0.5,-0.3,-1.1,-0.5,-1.6l-1.5,-5.3l-2.7,0l3.5,11.5l2.6,0l1.7,-5.6c0.2,-0.5,0.3,-1,0.4,-1.4c0.2,-0.5,0.3,-1,0.4,-1.5c0.1,0.5,0.3,0.9,0.4,1.3c0.1,0.4,0.2,0.8,0.3,1.1l2,6.1l2.7,0Z" class="g3_1" />
<path d="M79.5,133.3l-2.4,0l0,11.5l2.4,0ZM79.9,130c0,-0.5,-0.2,-0.8,-0.5,-1.1c-0.3,-0.3,-0.6,-0.5,-1.1,-0.5c-0.4,0,-0.8,0.2,-1.1,0.5c-0.3,0.3,-0.4,0.7,-0.4,1.1c0,0.4,0.1,0.8,0.4,1.1c0.3,0.3,0.7,0.4,1.1,0.4c0.5,0,0.8,-0.1,1.1,-0.4c0.3,-0.3,0.5,-0.7,0.5,-1.1Z" class="g3_1" />
<path d="M89.9,141.2c0,-0.6,-0.1,-1.1,-0.3,-1.5c-0.3,-0.3,-0.6,-0.6,-1,-0.9c-0.3,-0.2,-0.7,-0.4,-1.2,-0.5C87,138.2,86.6,138,86.2,137.9c-0.4,-0.2,-0.7,-0.4,-0.9,-0.5c-0.3,-0.2,-0.4,-0.5,-0.4,-0.9c0,-0.4,0.2,-0.7,0.5,-1c0.3,-0.2,0.8,-0.3,1.5,-0.3c0.8,0,1.5,0.1,2.2,0.3l0.1,-2c-0.3,-0.1,-0.7,-0.1,-1.1,-0.2c-0.3,0,-0.7,0,-1,0c-0.8,0,-1.5,0,-2.1,0.2c-0.5,0.2,-1,0.4,-1.4,0.7c-0.4,0.4,-0.7,0.7,-0.9,1.1c-0.2,0.4,-0.3,0.9,-0.3,1.4c0,0.6,0.1,1.1,0.4,1.5c0.2,0.3,0.5,0.6,0.9,0.9c0.4,0.2,0.8,0.4,1.2,0.5c0.4,0.1,0.8,0.3,1.2,0.4c0.4,0.1,0.7,0.3,0.9,0.5c0.3,0.2,0.4,0.5,0.4,0.8c0,0.5,-0.2,0.8,-0.6,1.1c-0.5,0.3,-1,0.4,-1.7,0.4c-0.4,0,-0.8,0,-1.3,-0.1c-0.4,-0.1,-0.8,-0.2,-1.1,-0.3l-0.1,2.1c0.3,0.1,0.7,0.2,1.1,0.2c0.4,0,0.9,0.1,1.3,0.1c0.8,0,1.4,-0.1,2.1,-0.3c0.6,-0.2,1.1,-0.4,1.5,-0.7c0.4,-0.4,0.8,-0.7,1,-1.2c0.2,-0.4,0.3,-0.9,0.3,-1.4Z" class="g3_1" />
<path d="M99.6,141.2c0,-0.6,-0.1,-1.1,-0.4,-1.5c-0.3,-0.3,-0.6,-0.6,-0.9,-0.9c-0.4,-0.2,-0.8,-0.4,-1.2,-0.5c-0.5,-0.1,-0.9,-0.3,-1.3,-0.4c-0.3,-0.2,-0.6,-0.4,-0.9,-0.5c-0.2,-0.2,-0.4,-0.5,-0.4,-0.9c0,-0.4,0.2,-0.7,0.5,-1c0.4,-0.2,0.9,-0.3,1.6,-0.3c0.7,0,1.5,0.1,2.2,0.3l0,-2c-0.3,-0.1,-0.7,-0.1,-1,-0.2c-0.4,0,-0.7,0,-1.1,0c-0.8,0,-1.4,0,-2,0.2c-0.6,0.2,-1.1,0.4,-1.5,0.7c-0.4,0.4,-0.7,0.7,-0.9,1.1c-0.2,0.4,-0.3,0.9,-0.3,1.4c0,0.6,0.1,1.1,0.4,1.5c0.2,0.3,0.5,0.6,0.9,0.9c0.4,0.2,0.8,0.4,1.2,0.5c0.4,0.1,0.8,0.3,1.2,0.4c0.4,0.1,0.7,0.3,0.9,0.5c0.3,0.2,0.4,0.5,0.4,0.8c0,0.5,-0.2,0.8,-0.6,1.1c-0.4,0.3,-1,0.4,-1.6,0.4c-0.5,0,-0.9,0,-1.3,-0.1c-0.5,-0.1,-0.9,-0.2,-1.2,-0.3l-0.1,2.1c0.4,0.1,0.8,0.2,1.2,0.2c0.4,0,0.8,0.1,1.2,0.1c0.8,0,1.5,-0.1,2.1,-0.3c0.6,-0.2,1.1,-0.4,1.6,-0.7c0.4,-0.4,0.7,-0.7,0.9,-1.2c0.3,-0.4,0.4,-0.9,0.4,-1.4Z" class="g3_1" />
<path d="M115,131l0,-2l-8,0l0,15l2,0l0,-7l6,0l0,-2l-6,0l0,-4Z" class="g3_1" />
<path d="M124,137.4l-4.8,0c0.1,-0.7,0.4,-1.3,0.8,-1.7c0.5,-0.4,1.1,-0.6,1.7,-0.6c0.8,0,1.3,0.2,1.8,0.6c0.4,0.4,0.6,1,0.5,1.7m2.5,0.6c0,-0.6,-0.1,-1.2,-0.3,-1.8c-0.2,-0.6,-0.5,-1.1,-0.8,-1.5c-0.4,-0.5,-0.9,-0.8,-1.5,-1.1c-0.6,-0.2,-1.3,-0.3,-2.1,-0.3c-0.8,0,-1.5,0.1,-2.2,0.4c-0.6,0.3,-1.2,0.7,-1.6,1.2c-0.5,0.5,-0.8,1.2,-1,1.9c-0.3,0.7,-0.4,1.5,-0.4,2.3c0,1.9,0.5,3.4,1.4,4.3c1,0.9,2.3,1.4,4.1,1.4c0.7,0,1.4,-0.1,2.1,-0.2c0.7,-0.2,1.3,-0.3,1.9,-0.6l-0.3,-2c-0.4,0.3,-1,0.5,-1.5,0.6c-0.6,0.1,-1.2,0.2,-1.8,0.2c-1.1,0,-2,-0.3,-2.5,-0.9c-0.6,-0.6,-0.9,-1.5,-0.8,-2.7l7.2,0c0.1,-0.5,0.1,-0.8,0.1,-1.2Z" class="g3_1" />
<path d="M136,138.8c0,0.5,-0.1,0.9,-0.2,1.4c-0.1,0.5,-0.3,0.9,-0.5,1.3c-0.3,0.3,-0.6,0.6,-0.9,0.9c-0.4,0.2,-0.8,0.3,-1.2,0.3c-0.8,0,-1.4,-0.3,-1.7,-0.9c-0.4,-0.6,-0.6,-1.4,-0.6,-2.5c0,-1.5,0.3,-2.5,0.9,-3.1c0.6,-0.7,1.4,-1,2.4,-1c0.6,0,1.2,0.1,1.8,0.2Zm2.4,5.7l0,-16.6l-2.4,0l0,5.4c-0.3,0,-0.6,0,-0.9,0c-0.3,0,-0.5,0,-0.8,0c-0.9,0,-1.8,0.1,-2.5,0.4c-0.7,0.3,-1.4,0.7,-1.9,1.3c-0.5,0.5,-0.9,1.2,-1.2,1.9c-0.2,0.8,-0.4,1.7,-0.4,2.6c0,1.6,0.4,2.9,1.1,3.8c0.7,1,1.7,1.5,3.1,1.5c0.9,0,1.7,-0.3,2.3,-0.7c0.7,-0.4,1.1,-1,1.4,-1.7l0.1,0c-0.1,0.3,-0.1,0.7,-0.1,1.1c-0.1,0.4,-0.1,0.7,-0.1,1Z" class="g3_1" />
<path d="M148.5,137.4l-4.9,0c0.2,-0.7,0.4,-1.3,0.9,-1.7c0.4,-0.4,1,-0.6,1.7,-0.6c0.7,0,1.3,0.2,1.7,0.6c0.4,0.4,0.6,1,0.6,1.7m2.4,0.6c0,-0.6,-0.1,-1.2,-0.2,-1.8c-0.2,-0.6,-0.5,-1.1,-0.9,-1.5c-0.4,-0.5,-0.8,-0.8,-1.4,-1.1c-0.6,-0.2,-1.3,-0.3,-2.1,-0.3c-0.8,0,-1.6,0.1,-2.2,0.4c-0.7,0.3,-1.2,0.7,-1.7,1.2c-0.4,0.5,-0.7,1.2,-1,1.9c-0.2,0.7,-0.3,1.5,-0.3,2.3c0,1.9,0.5,3.4,1.4,4.3c0.9,0.9,2.3,1.4,4.1,1.4c0.7,0,1.4,-0.1,2,-0.2c0.7,-0.2,1.3,-0.3,1.9,-0.6l-0.2,-2c-0.5,0.3,-1,0.5,-1.6,0.6c-0.6,0.1,-1.1,0.2,-1.7,0.2c-1.2,0,-2,-0.3,-2.6,-0.9c-0.6,-0.6,-0.8,-1.5,-0.8,-2.7l7.3,0c0,-0.5,0,-0.8,0,-1.2Z" class="g3_1" />
<path d="M159.6,133.3c-0.5,-0.1,-1,0,-1.4,0.1c-0.4,0.1,-0.8,0.3,-1.1,0.6c-0.3,0.2,-0.5,0.5,-0.7,0.9c-0.3,0.3,-0.4,0.7,-0.5,1.1l-0.1,0c0.1,-0.5,0.1,-0.9,0.2,-1.4c0,-0.4,0,-0.8,0,-1.1l-2.3,0l0,11.3l2.4,0l0,-4.6c0,-1.7,0.3,-2.9,0.9,-3.7c0.5,-0.8,1.4,-1,2.5,-0.8Z" class="g3_1" />
<path d="M167.3,139.8c0,0.4,-0.1,0.7,-0.2,1.1c-0.1,0.4,-0.3,0.7,-0.6,1c-0.2,0.3,-0.5,0.5,-0.9,0.7c-0.3,0.1,-0.7,0.2,-1.1,0.2c-0.5,0,-0.9,-0.1,-1.1,-0.3c-0.3,-0.3,-0.4,-0.6,-0.4,-1c0,-0.2,0,-0.5,0.1,-0.7c0.1,-0.2,0.4,-0.4,0.7,-0.6c0.3,-0.2,0.7,-0.4,1.3,-0.5c0.6,-0.1,1.3,-0.1,2.2,-0.1Zm2.5,4.7c0,-0.4,0,-0.9,0,-1.5c0,-0.5,-0.1,-1,-0.1,-1.5l0,-4.5c0,-0.6,0,-1.1,-0.2,-1.5c-0.1,-0.5,-0.3,-0.9,-0.7,-1.2c-0.3,-0.3,-0.8,-0.6,-1.3,-0.8c-0.6,-0.2,-1.3,-0.2,-2.2,-0.2c-0.7,0,-1.4,0,-2.1,0.2c-0.7,0.1,-1.3,0.3,-1.9,0.5l0.2,2.1c0.5,-0.3,1.1,-0.5,1.7,-0.7c0.6,-0.1,1.2,-0.2,1.7,-0.2c0.9,0,1.5,0.2,1.9,0.5c0.3,0.3,0.5,0.8,0.5,1.5l0,0.7c-1,0,-1.9,0.1,-2.8,0.3c-0.8,0.1,-1.5,0.4,-2.1,0.7c-0.6,0.4,-1,0.8,-1.3,1.3c-0.4,0.5,-0.5,1.1,-0.5,1.7c0,0.9,0.3,1.6,0.9,2.1c0.5,0.5,1.3,0.8,2.3,0.8c0.9,0,1.7,-0.3,2.3,-0.7c0.7,-0.4,1.2,-1,1.5,-1.6c-0.1,0.3,-0.1,0.6,-0.1,1c0,0.3,0,0.7,0,1Z" class="g3_1" />
<path d="M175,127l-2,0l0,17l2,0Z" class="g3_1" />
<path d="M186,129l-2,0l0,15l2,0Z" class="g3_1" />
<path d="M200,144.8l0,-7.9c0,-0.5,0,-1,-0.1,-1.4c-0.2,-0.5,-0.3,-0.9,-0.6,-1.2c-0.3,-0.3,-0.6,-0.6,-1.1,-0.8c-0.4,-0.1,-0.9,-0.2,-1.6,-0.2c-0.9,0,-1.8,0.2,-2.4,0.6c-0.7,0.5,-1.2,1.1,-1.5,1.8l-0.1,0c0.1,-0.3,0.1,-0.7,0.2,-1.1c0,-0.5,0,-0.8,0,-1.1l-2.3,0l0,11.3l2.4,0l0,-5.5c0,-0.5,0.1,-1,0.2,-1.5c0.2,-0.5,0.4,-0.9,0.7,-1.3c0.2,-0.4,0.5,-0.7,0.9,-0.9c0.4,-0.2,0.8,-0.3,1.2,-0.3c0.7,0,1.1,0.2,1.3,0.6c0.3,0.4,0.4,0.9,0.4,1.6l0,7.3Z" class="g3_1" />
<path d="M210.4,141.2c0,-0.6,-0.1,-1.1,-0.4,-1.5c-0.2,-0.3,-0.5,-0.6,-0.9,-0.9c-0.4,-0.2,-0.8,-0.4,-1.2,-0.5c-0.4,-0.1,-0.9,-0.3,-1.2,-0.4c-0.4,-0.2,-0.7,-0.4,-0.9,-0.5c-0.3,-0.2,-0.4,-0.5,-0.4,-0.9c0,-0.4,0.1,-0.7,0.5,-1c0.3,-0.2,0.8,-0.3,1.5,-0.3c0.8,0,1.5,0.1,2.2,0.3l0.1,-2c-0.4,-0.1,-0.7,-0.1,-1.1,-0.2c-0.4,0,-0.7,0,-1.1,0c-0.7,0,-1.4,0,-2,0.2c-0.6,0.2,-1.1,0.4,-1.5,0.7c-0.4,0.4,-0.7,0.7,-0.8,1.1c-0.2,0.4,-0.3,0.9,-0.3,1.4c0,0.6,0.1,1.1,0.3,1.5c0.3,0.3,0.6,0.6,0.9,0.9c0.4,0.2,0.8,0.4,1.3,0.5c0.4,0.1,0.8,0.3,1.2,0.4c0.3,0.1,0.6,0.3,0.9,0.5c0.2,0.2,0.3,0.5,0.3,0.8c0,0.5,-0.2,0.8,-0.6,1.1c-0.4,0.3,-0.9,0.4,-1.6,0.4c-0.4,0,-0.9,0,-1.3,-0.1c-0.4,-0.1,-0.8,-0.2,-1.2,-0.3l0,2.1c0.3,0.1,0.7,0.2,1.1,0.2c0.4,0,0.8,0.1,1.3,0.1c0.7,0,1.4,-0.1,2,-0.3c0.6,-0.2,1.2,-0.4,1.6,-0.7c0.4,-0.4,0.7,-0.7,1,-1.2c0.2,-0.4,0.3,-0.9,0.3,-1.4Z" class="g3_1" />
<path d="M219.1,144.5l0,-2c-0.4,0.1,-0.9,0.2,-1.5,0.2c-0.2,0,-0.5,-0.1,-0.7,-0.2c-0.2,0,-0.3,-0.1,-0.4,-0.3c-0.1,-0.1,-0.2,-0.4,-0.3,-0.6c0,-0.3,0,-0.6,0,-1.1l0,-5.3l2.9,0l0,-1.9l-3,0l0,-4.2l-2.4,0.7l0,3.5l-2.2,0l0,1.9l2.2,0l0,6.1c0,0.6,0.1,1.2,0.2,1.6c0.1,0.5,0.2,0.8,0.5,1.1c0.2,0.3,0.5,0.5,0.9,0.6c0.4,0.1,1,0.2,1.6,0.2c0.3,0,0.7,-0.1,1.1,-0.1c0.4,-0.1,0.8,-0.1,1.1,-0.2Z" class="g3_1" />
<path d="M224.2,133.3l-2.4,0l0,11.5l2.4,0Zm0.4,-3.3c0,-0.5,-0.2,-0.8,-0.5,-1.1c-0.3,-0.3,-0.7,-0.5,-1.1,-0.5c-0.4,0,-0.8,0.2,-1.1,0.5c-0.3,0.3,-0.5,0.7,-0.5,1.1c0,0.4,0.2,0.8,0.5,1.1c0.3,0.3,0.7,0.4,1.1,0.4c0.4,0,0.8,-0.1,1.1,-0.4c0.3,-0.3,0.5,-0.7,0.5,-1.1Z" class="g3_1" />
<path d="M233.7,144.5l0,-2c-0.5,0.1,-1,0.2,-1.5,0.2c-0.3,0,-0.5,-0.1,-0.7,-0.2c-0.2,0,-0.4,-0.1,-0.5,-0.3c-0.1,-0.1,-0.2,-0.4,-0.2,-0.6c-0.1,-0.3,-0.1,-0.6,-0.1,-1.1l0,-5.3l3,0l0,-1.9l-3,0l0,-4.2l-2.4,0.7l0,3.5l-2.2,0l0,1.9l2.2,0l0,6.1c0,0.6,0,1.2,0.1,1.6c0.1,0.5,0.3,0.8,0.5,1.1c0.3,0.3,0.6,0.5,1,0.6c0.4,0.1,0.9,0.2,1.5,0.2c0.4,0,0.8,-0.1,1.2,-0.1c0.4,-0.1,0.8,-0.1,1.1,-0.2Z" class="g3_1" />
<path d="M245.9,144.5l0,-11.2l-2.5,0l0,5.4c0,0.5,-0.1,1.1,-0.2,1.5c-0.2,0.5,-0.4,1,-0.6,1.3c-0.3,0.4,-0.6,0.7,-1,0.9c-0.3,0.2,-0.7,0.3,-1.2,0.3c-0.6,0,-1.1,-0.2,-1.3,-0.6c-0.2,-0.4,-0.3,-0.9,-0.3,-1.6l0,-7.2l-2.5,0l0,7.9c0,0.4,0.1,0.9,0.2,1.4c0.1,0.4,0.3,0.8,0.5,1.1c0.3,0.3,0.7,0.6,1.1,0.8c0.4,0.2,1,0.3,1.6,0.3c1,0,1.8,-0.3,2.5,-0.7c0.6,-0.5,1.1,-1.1,1.5,-1.8c-0.1,0.3,-0.1,0.7,-0.1,1.1c0,0.5,-0.1,0.8,-0.1,1.1Z" class="g3_1" />
<path d="M255.4,144.5l0,-2c-0.5,0.1,-1,0.2,-1.5,0.2c-0.3,0,-0.6,-0.1,-0.8,-0.2c-0.1,0,-0.3,-0.1,-0.4,-0.3c-0.1,-0.1,-0.2,-0.4,-0.3,-0.6c0,-0.3,0,-0.6,0,-1.1l0,-5.3l3,0l0,-1.9l-3,0l0,-4.2l-2.5,0.7l0,3.5l-2.1,0l0,1.9l2.1,0l0,6.1c0,0.6,0.1,1.2,0.2,1.6c0.1,0.5,0.2,0.8,0.5,1.1c0.2,0.3,0.6,0.5,1,0.6c0.4,0.1,0.9,0.2,1.5,0.2c0.4,0,0.8,-0.1,1.2,-0.1c0.4,-0.1,0.7,-0.1,1.1,-0.2Z" class="g3_1" />
<path d="M264.5,137.4l-4.9,0c0.1,-0.7,0.4,-1.3,0.9,-1.7c0.4,-0.4,1,-0.6,1.7,-0.6c0.7,0,1.3,0.2,1.7,0.6c0.4,0.4,0.6,1,0.6,1.7m2.4,0.6c0,-0.6,-0.1,-1.2,-0.3,-1.8c-0.1,-0.6,-0.4,-1.1,-0.8,-1.5c-0.4,-0.5,-0.9,-0.8,-1.4,-1.1c-0.6,-0.2,-1.3,-0.3,-2.1,-0.3c-0.9,0,-1.6,0.1,-2.2,0.4c-0.7,0.3,-1.2,0.7,-1.7,1.2c-0.4,0.5,-0.8,1.2,-1,1.9c-0.2,0.7,-0.3,1.5,-0.3,2.3c0,1.9,0.4,3.4,1.4,4.3c0.9,0.9,2.3,1.4,4.1,1.4c0.7,0,1.4,-0.1,2,-0.2c0.7,-0.2,1.3,-0.3,1.9,-0.6l-0.2,-2c-0.5,0.3,-1,0.5,-1.6,0.6c-0.6,0.1,-1.2,0.2,-1.7,0.2c-1.2,0,-2,-0.3,-2.6,-0.9c-0.6,-0.6,-0.8,-1.5,-0.8,-2.7l7.2,0c0.1,-0.5,0.1,-0.8,0.1,-1.2Z" class="g3_1" />
<path d="M282.1,139c0,0.6,-0.1,1.1,-0.3,1.6c-0.1,0.4,-0.3,0.8,-0.6,1.1c-0.3,0.3,-0.6,0.6,-0.9,0.7c-0.4,0.2,-0.7,0.2,-1.1,0.2c-1,0,-1.7,-0.3,-2.2,-0.9c-0.5,-0.6,-0.7,-1.6,-0.7,-2.8c0,-0.6,0,-1.2,0.2,-1.6c0.2,-0.5,0.4,-0.8,0.7,-1.1c0.2,-0.3,0.6,-0.5,0.9,-0.7c0.4,-0.1,0.7,-0.2,1.1,-0.2c1,0,1.7,0.4,2.2,1c0.4,0.6,0.7,1.5,0.7,2.7m2.5,-0.2c0,-1,-0.1,-1.8,-0.4,-2.5c-0.3,-0.7,-0.6,-1.3,-1.1,-1.7c-0.4,-0.5,-1,-0.8,-1.6,-1c-0.6,-0.2,-1.3,-0.3,-2.1,-0.3c-0.9,0,-1.7,0.1,-2.4,0.4c-0.7,0.3,-1.2,0.7,-1.7,1.3c-0.5,0.5,-0.9,1.1,-1.2,1.8c-0.3,0.7,-0.4,1.5,-0.4,2.3c0,1,0.1,1.9,0.4,2.6c0.2,0.7,0.6,1.3,1,1.7c0.5,0.5,1,0.8,1.7,1c0.6,0.2,1.3,0.4,2.1,0.4c0.9,0,1.6,-0.2,2.3,-0.5c0.7,-0.3,1.3,-0.7,1.8,-1.3c0.5,-0.5,0.9,-1.1,1.2,-1.8c0.3,-0.8,0.4,-1.6,0.4,-2.4Z" class="g3_1" />
<path d="M294.2,128.1c-0.6,-0.2,-1.2,-0.2,-1.9,-0.2c-2.9,0,-4.4,1.5,-4.4,4.5l0,0.9l-2.2,0l0,1.9l2.2,0l0,9.6l2.4,0l0,-9.6l3,0l0,-1.9l-3,0l0,-0.9c0,-0.9,0.2,-1.5,0.5,-1.9c0.4,-0.4,0.9,-0.6,1.6,-0.6c0.3,0,0.6,0,0.8,0c0.3,0.1,0.5,0.1,0.8,0.2Z" class="g3_1" />
<path d="M309,131l0,-2l-11,0l0,2l4,0l0,13l2,0l0,-13Z" class="g3_1" />
<path d="M315.8,137.4l-4.8,0c0.1,-0.7,0.4,-1.3,0.8,-1.7c0.5,-0.4,1,-0.6,1.7,-0.6c0.8,0,1.3,0.2,1.7,0.6c0.5,0.4,0.6,1,0.6,1.7m2.5,0.6c0,-0.6,-0.1,-1.2,-0.3,-1.8c-0.2,-0.6,-0.5,-1.1,-0.8,-1.5c-0.4,-0.5,-0.9,-0.8,-1.5,-1.1c-0.6,-0.2,-1.3,-0.3,-2.1,-0.3c-0.8,0,-1.5,0.1,-2.2,0.4c-0.6,0.3,-1.2,0.7,-1.6,1.2c-0.5,0.5,-0.8,1.2,-1,1.9c-0.3,0.7,-0.4,1.5,-0.4,2.3c0,1.9,0.5,3.4,1.4,4.3c1,0.9,2.3,1.4,4.1,1.4c0.7,0,1.4,-0.1,2.1,-0.2c0.6,-0.2,1.3,-0.3,1.9,-0.6l-0.3,-2c-0.4,0.3,-1,0.5,-1.6,0.6c-0.5,0.1,-1.1,0.2,-1.7,0.2c-1.1,0,-2,-0.3,-2.6,-0.9c-0.5,-0.6,-0.8,-1.5,-0.8,-2.7l7.3,0c0,-0.5,0.1,-0.8,0.1,-1.2Z" class="g3_1" />
<path d="M328.4,144.2l-0.2,-2.1c-0.4,0.1,-0.7,0.3,-1.2,0.4c-0.4,0.1,-0.9,0.1,-1.3,0.1c-0.6,0,-1,-0.1,-1.4,-0.2c-0.4,-0.2,-0.7,-0.5,-1,-0.8c-0.2,-0.3,-0.4,-0.7,-0.5,-1.1c-0.1,-0.4,-0.1,-0.9,-0.1,-1.4c0,-1.2,0.2,-2.1,0.8,-2.8c0.5,-0.6,1.3,-1,2.3,-1c0.4,0,0.8,0.1,1.2,0.1c0.4,0.1,0.8,0.2,1.1,0.4l0.3,-2.2c-0.8,-0.2,-1.6,-0.3,-2.5,-0.3c-1,0,-1.8,0.1,-2.6,0.4c-0.7,0.3,-1.3,0.7,-1.8,1.3c-0.4,0.5,-0.8,1.2,-1,1.9c-0.3,0.8,-0.4,1.6,-0.4,2.5c0,1,0.1,1.8,0.4,2.5c0.2,0.7,0.6,1.2,1.1,1.7c0.4,0.4,0.9,0.7,1.6,0.9c0.6,0.2,1.2,0.3,2,0.3c0.6,0,1.2,-0.1,1.8,-0.2c0.5,-0.1,1,-0.3,1.4,-0.4Z" class="g3_1" />
<path d="M340.4,144.8l0,-7.9c0,-0.5,0,-1,-0.1,-1.4c-0.1,-0.5,-0.3,-0.9,-0.6,-1.2c-0.2,-0.3,-0.6,-0.6,-1,-0.8c-0.5,-0.1,-1,-0.2,-1.6,-0.2c-1,0,-1.8,0.2,-2.4,0.6c-0.7,0.4,-1.2,1,-1.5,1.7l-0.1,0c0.1,-0.3,0.2,-0.7,0.2,-1.1c0,-0.4,0.1,-0.8,0.1,-1.2l0,-5.4l-2.5,0l0,16.9l2.5,0l0,-5.4c0,-0.6,0,-1.1,0.2,-1.6c0.1,-0.5,0.3,-0.9,0.6,-1.3c0.3,-0.4,0.6,-0.7,0.9,-0.9c0.4,-0.2,0.8,-0.3,1.2,-0.3c0.7,0,1.1,0.2,1.4,0.6c0.2,0.4,0.3,0.9,0.3,1.6l0,7.3Z" class="g3_1" />
<path d="M353.6,144.8l0,-7.9c0,-0.5,-0.1,-1,-0.2,-1.4c-0.1,-0.5,-0.3,-0.9,-0.6,-1.2c-0.2,-0.3,-0.6,-0.6,-1,-0.8c-0.4,-0.1,-1,-0.2,-1.6,-0.2c-1,0,-1.8,0.2,-2.5,0.6c-0.6,0.5,-1.1,1.1,-1.5,1.8c0.1,-0.3,0.1,-0.7,0.1,-1.1c0,-0.5,0.1,-0.8,0.1,-1.1l-2.4,0l0,11.3l2.5,0l0,-5.5c0,-0.5,0,-1,0.2,-1.5c0.2,-0.5,0.4,-0.9,0.6,-1.3c0.3,-0.4,0.6,-0.7,1,-0.9c0.3,-0.2,0.7,-0.3,1.1,-0.3c0.7,0,1.2,0.2,1.4,0.6c0.2,0.4,0.3,0.9,0.3,1.6l0,7.3Z" class="g3_1" />
<path d="M364.5,139c0,0.6,0,1.1,-0.2,1.6c-0.1,0.4,-0.4,0.8,-0.6,1.1c-0.3,0.3,-0.6,0.6,-1,0.7c-0.3,0.2,-0.7,0.2,-1.1,0.2c-0.9,0,-1.7,-0.3,-2.1,-0.9c-0.5,-0.6,-0.8,-1.6,-0.8,-2.8c0,-0.6,0.1,-1.2,0.3,-1.6c0.1,-0.5,0.4,-0.8,0.6,-1.1c0.3,-0.3,0.6,-0.5,1,-0.7c0.3,-0.1,0.7,-0.2,1,-0.2c1,0,1.8,0.4,2.2,1c0.5,0.6,0.7,1.5,0.7,2.7m2.6,-0.2c0,-1,-0.2,-1.8,-0.4,-2.5c-0.3,-0.7,-0.7,-1.3,-1.1,-1.7c-0.5,-0.5,-1,-0.8,-1.6,-1c-0.7,-0.2,-1.4,-0.3,-2.1,-0.3c-0.9,0,-1.7,0.1,-2.4,0.4c-0.7,0.3,-1.3,0.7,-1.8,1.3c-0.5,0.5,-0.9,1.1,-1.1,1.8c-0.3,0.7,-0.4,1.5,-0.4,2.3c0,1,0.1,1.9,0.3,2.6c0.3,0.7,0.6,1.3,1.1,1.7c0.5,0.5,1,0.8,1.6,1c0.7,0.2,1.4,0.4,2.2,0.4c0.8,0,1.6,-0.2,2.3,-0.5c0.7,-0.3,1.3,-0.7,1.8,-1.3c0.5,-0.5,0.9,-1.1,1.1,-1.8c0.3,-0.8,0.5,-1.6,0.5,-2.4Z" class="g3_1" />
<path d="M372,127l-3,0l0,17l3,0Z" class="g3_1" />
<path d="M383.1,139c0,0.6,-0.1,1.1,-0.2,1.6c-0.2,0.4,-0.4,0.8,-0.6,1.1c-0.3,0.3,-0.6,0.6,-1,0.7c-0.3,0.2,-0.7,0.2,-1.1,0.2c-0.9,0,-1.7,-0.3,-2.2,-0.9c-0.4,-0.6,-0.7,-1.6,-0.7,-2.8c0,-0.6,0.1,-1.2,0.3,-1.6c0.1,-0.5,0.4,-0.8,0.6,-1.1c0.3,-0.3,0.6,-0.5,1,-0.7c0.3,-0.1,0.7,-0.2,1,-0.2c1,0,1.7,0.4,2.2,1c0.5,0.6,0.7,1.5,0.7,2.7m2.5,-0.2c0,-1,-0.1,-1.8,-0.3,-2.5c-0.3,-0.7,-0.7,-1.3,-1.1,-1.7c-0.5,-0.5,-1,-0.8,-1.7,-1c-0.6,-0.2,-1.3,-0.3,-2.1,-0.3c-0.8,0,-1.6,0.1,-2.3,0.4c-0.7,0.3,-1.3,0.7,-1.8,1.3c-0.5,0.5,-0.9,1.1,-1.1,1.8c-0.3,0.7,-0.4,1.5,-0.4,2.3c0,1,0.1,1.9,0.3,2.6c0.3,0.7,0.6,1.3,1.1,1.7c0.4,0.5,1,0.8,1.6,1c0.7,0.2,1.4,0.4,2.2,0.4c0.8,0,1.6,-0.2,2.3,-0.5c0.7,-0.3,1.3,-0.7,1.8,-1.3c0.5,-0.5,0.9,-1.1,1.1,-1.8c0.3,-0.8,0.4,-1.6,0.4,-2.4Z" class="g3_1" />
<path d="M395.9,146.4c0,0.6,-0.3,1.1,-0.8,1.5c-0.6,0.4,-1.4,0.6,-2.5,0.6c-0.8,0,-1.5,-0.2,-2,-0.5c-0.5,-0.3,-0.8,-0.8,-0.8,-1.4c0,-0.4,0.1,-0.7,0.3,-1.1c0.3,-0.3,0.6,-0.6,1,-0.8c0.1,0,0.2,0.1,0.3,0.1l0.3,0l2.1,0c0.8,0,1.3,0.1,1.6,0.4c0.4,0.3,0.5,0.7,0.5,1.2m-0.7,-9.1c0,0.7,-0.2,1.3,-0.7,1.7c-0.5,0.4,-1.1,0.6,-1.9,0.6c-0.8,0,-1.4,-0.2,-1.9,-0.6c-0.4,-0.4,-0.6,-1,-0.6,-1.7c0,-0.7,0.2,-1.3,0.7,-1.8c0.4,-0.4,1,-0.6,1.9,-0.6c0.8,0,1.4,0.2,1.8,0.6c0.5,0.4,0.7,1,0.7,1.8m3.2,8.7c0,-1,-0.4,-1.8,-1.1,-2.4c-0.6,-0.6,-1.6,-0.9,-2.8,-0.9l-2,0c-0.7,0,-1.1,0,-1.4,-0.1c-0.3,-0.1,-0.4,-0.3,-0.4,-0.6c0,-0.1,0,-0.3,0.1,-0.4c0.1,-0.1,0.3,-0.2,0.5,-0.3c0.2,0,0.4,0,0.6,0c0.3,0.1,0.5,0.1,0.7,0.1c1.6,0,2.8,-0.4,3.7,-1.2c0.8,-0.8,1.2,-1.8,1.2,-3.1c0,-0.4,0,-0.8,-0.2,-1.1c-0.1,-0.3,-0.3,-0.6,-0.5,-0.8l1.7,0l0,-1.9l-3.8,0c-0.3,-0.1,-0.6,-0.2,-0.9,-0.2c-0.3,-0.1,-0.7,-0.1,-1,-0.1c-0.8,0,-1.5,0.1,-2.2,0.4c-0.6,0.2,-1.1,0.5,-1.6,0.9c-0.4,0.4,-0.7,0.9,-1,1.4c-0.2,0.6,-0.3,1.1,-0.3,1.7c0,0.7,0.1,1.4,0.4,1.9c0.3,0.6,0.7,1,1.3,1.3c-0.4,0.2,-0.7,0.4,-1,0.8c-0.2,0.4,-0.3,0.7,-0.3,1.1c0,0.4,0.1,0.8,0.3,1c0.2,0.3,0.5,0.6,0.8,0.7c-0.5,0.3,-0.9,0.7,-1.3,1.2c-0.3,0.5,-0.5,1,-0.5,1.7c0,1.1,0.4,1.9,1.3,2.5c0.8,0.5,2,0.8,3.5,0.8c0.9,0,1.8,-0.1,2.5,-0.3c0.8,-0.3,1.4,-0.6,2,-1c0.5,-0.4,0.9,-0.8,1.2,-1.4c0.3,-0.5,0.5,-1.1,0.5,-1.7Z" class="g3_1" />
<path d="M410.6,133.3l-2.7,0l-1.6,4.6c-0.2,0.6,-0.4,1.2,-0.6,1.9c-0.2,0.7,-0.4,1.3,-0.5,1.7c-0.1,-0.5,-0.3,-1,-0.4,-1.5c-0.2,-0.5,-0.3,-1,-0.5,-1.5l-1.9,-5.2l-2.7,0l4.2,11.3l-0.4,1.2c-0.2,0.5,-0.4,0.9,-0.6,1.3c-0.1,0.3,-0.3,0.5,-0.5,0.7c-0.2,0.2,-0.4,0.3,-0.7,0.4c-0.2,0.1,-0.4,0.1,-0.7,0.1c-0.3,0,-0.5,0,-0.8,0c-0.2,-0.1,-0.4,-0.1,-0.7,-0.2l-0.2,2.1c0.2,0.1,0.5,0.1,0.8,0.2c0.3,0,0.5,0,0.7,0c0.7,0,1.2,-0.1,1.7,-0.2c0.5,-0.2,0.9,-0.4,1.3,-0.8c0.4,-0.4,0.7,-0.8,1.1,-1.4c0.3,-0.6,0.6,-1.4,1,-2.3Z" class="g3_1" />
<path d="M427,144.8l0,-2.4l-3.7,0l-2.4,0c-0.6,0,-1,0.1,-1.2,0.1c0.2,-0.2,0.3,-0.4,0.4,-0.6c0.1,-0.2,0.3,-0.4,0.4,-0.7l6.4,-10.1l0,-2l-9.9,0l0,2.3l3.8,0l1.9,0c0.5,0,0.9,0,1.3,0c-0.2,0.2,-0.4,0.5,-0.6,0.8c-0.2,0.3,-0.4,0.5,-0.6,0.9l-6.1,9.7l0,2Z" class="g3_1" />
<path d="M439,144.5l0,-11.2l-2.5,0l0,5.4c0,0.5,0,1.1,-0.2,1.5c-0.1,0.5,-0.4,1,-0.6,1.3c-0.3,0.4,-0.6,0.7,-0.9,0.9c-0.4,0.2,-0.8,0.3,-1.2,0.3c-0.7,0,-1.1,-0.2,-1.4,-0.6c-0.2,-0.4,-0.3,-0.9,-0.3,-1.6l0,-7.2l-2.5,0l0,7.9c0,0.4,0.1,0.9,0.2,1.4c0.1,0.4,0.3,0.8,0.6,1.1c0.2,0.3,0.6,0.6,1,0.8c0.4,0.2,1,0.3,1.6,0.3c1,0,1.8,-0.3,2.5,-0.7c0.6,-0.5,1.2,-1.1,1.5,-1.8c0,0.3,-0.1,0.7,-0.1,1.1c0,0.5,0,0.8,0,1.1Z" class="g3_1" />
<path d="M448.5,133.3c-0.5,-0.1,-1,0,-1.4,0.1c-0.4,0.1,-0.8,0.3,-1.1,0.6c-0.3,0.2,-0.6,0.5,-0.8,0.9c-0.2,0.3,-0.4,0.7,-0.5,1.1c0,-0.5,0.1,-0.9,0.1,-1.4c0.1,-0.4,0.1,-0.8,0.1,-1.1l-2.3,0l0,11.3l2.4,0l0,-4.6c0,-1.7,0.3,-2.9,0.8,-3.7c0.6,-0.8,1.4,-1,2.6,-0.8Z" class="g3_1" />
<path d="M453.1,133.3l-2.4,0l0,11.5l2.4,0Zm0.4,-3.3c0,-0.5,-0.2,-0.8,-0.5,-1.1c-0.3,-0.3,-0.6,-0.5,-1.1,-0.5c-0.4,0,-0.8,0.2,-1.1,0.5c-0.3,0.3,-0.5,0.7,-0.5,1.1c0,0.4,0.2,0.8,0.5,1.1c0.3,0.3,0.7,0.4,1.1,0.4c0.5,0,0.8,-0.1,1.1,-0.4c0.3,-0.3,0.5,-0.7,0.5,-1.1Z" class="g3_1" />
<path d="M464.1,144.2l-0.2,-2.1c-0.4,0.1,-0.8,0.3,-1.2,0.4c-0.4,0.1,-0.9,0.1,-1.3,0.1c-0.6,0,-1.1,-0.1,-1.5,-0.2c-0.3,-0.2,-0.7,-0.5,-0.9,-0.8c-0.2,-0.3,-0.4,-0.7,-0.5,-1.1c-0.1,-0.4,-0.1,-0.9,-0.1,-1.4c0,-1.2,0.2,-2.1,0.7,-2.8c0.6,-0.6,1.3,-1,2.4,-1c0.4,0,0.8,0.1,1.2,0.1c0.4,0.1,0.7,0.2,1.1,0.4l0.2,-2.2c-0.7,-0.2,-1.6,-0.3,-2.4,-0.3c-1,0,-1.9,0.1,-2.6,0.4c-0.7,0.3,-1.3,0.7,-1.8,1.3c-0.5,0.5,-0.8,1.2,-1.1,1.9c-0.2,0.8,-0.3,1.6,-0.3,2.5c0,1,0.1,1.8,0.4,2.5c0.2,0.7,0.6,1.2,1,1.7c0.5,0.4,1,0.7,1.6,0.9c0.6,0.2,1.3,0.3,2.1,0.3c0.6,0,1.2,-0.1,1.7,-0.2c0.6,-0.1,1.1,-0.3,1.5,-0.4Z" class="g3_1" />
<path d="M476.1,144.8l0,-7.9c0,-0.5,0,-1,-0.1,-1.4c-0.1,-0.5,-0.3,-0.9,-0.6,-1.2c-0.3,-0.3,-0.6,-0.6,-1.1,-0.8c-0.4,-0.1,-0.9,-0.2,-1.6,-0.2c-0.9,0,-1.7,0.2,-2.3,0.6c-0.7,0.4,-1.2,1,-1.5,1.7l-0.1,0c0.1,-0.3,0.1,-0.7,0.2,-1.1c0,-0.4,0,-0.8,0,-1.2l0,-5.4l-2.4,0l0,16.9l2.4,0l0,-5.4c0,-0.6,0.1,-1.1,0.3,-1.6c0.1,-0.5,0.3,-0.9,0.6,-1.3c0.2,-0.4,0.5,-0.7,0.9,-0.9c0.4,-0.2,0.8,-0.3,1.2,-0.3c0.7,0,1.1,0.2,1.3,0.6c0.3,0.4,0.4,0.9,0.4,1.6l0,7.3Z" class="g3_1" />
<g clip-path="url(#c0_1)">
<path fill-rule="evenodd" d="M100.8,264.8l4.5,-0.2l4.4,-0.6l4.2,-1.1l4.1,-1.6l3.7,-1.8l3.7,-2.2l3.4,-2.6l3.2,-2.8l2.8,-3.1l2.6,-3.3l2.2,-3.6l1.8,-3.9l1.4,-4l1.1,-4.1l0.7,-4.4l0.2,-4.5l-0.2,-4.5l-0.7,-4.3L142.8,208l-1.4,-4.1l-1.8,-3.7l-2.2,-3.7l-2.6,-3.4l-2.8,-3l-3.2,-2.9l-3.4,-2.5l-3.7,-2.3L118,180.6l-4.1,-1.4l-4.2,-1.1l-4.4,-0.6l-4.5,-0.3l-4.5,0.3L92,178.1l-4.3,1.1l-4,1.4l-3.9,1.8l-3.5,2.3l-3.5,2.5l-3.1,2.9l-2.8,3l-2.6,3.4l-2.2,3.7l-1.8,3.7L58.8,208l-1.1,4.2L57,216.5L56.7,221l0.3,4.5l0.7,4.4l1.1,4.1l1.5,4l1.8,3.9l2.2,3.6l2.6,3.3l2.8,3.1l3.1,2.8l3.5,2.6l3.5,2.2l3.9,1.8l4,1.6L92,264l4.3,0.6Z" class="g4_1" />
<path fill-rule="evenodd" d="M144.8,221l-0.2,4.5l-0.7,4.4l-1.1,4.1l-1.4,4l-1.8,3.9l-2.2,3.6l-2.6,3.3l-2.8,3.1l-3.2,2.8l-3.4,2.6l-3.7,2.2l-3.7,1.8l-4.1,1.6l-4.2,1.1l-4.4,0.6l-4.5,0.2l-4.5,-0.2L92,264l-4.3,-1.1l-4,-1.6l-3.9,-1.8l-3.5,-2.2l-3.5,-2.6l-3.1,-2.8l-2.8,-3.1l-2.6,-3.3l-2.2,-3.6L60.3,238l-1.5,-4l-1.1,-4.1L57,225.5L56.7,221L57,216.5l0.7,-4.3L58.8,208l1.5,-4.1l1.8,-3.7l2.2,-3.7l2.6,-3.4l2.8,-3l3.1,-2.9l3.5,-2.5l3.5,-2.3l3.9,-1.8l4,-1.4L92,178.1l4.3,-0.6l4.5,-0.3l4.5,0.3l4.4,0.6l4.2,1.1l4.1,1.4l3.7,1.8l3.7,2.3l3.4,2.5l3.2,2.9l2.8,3l2.6,3.4l2.2,3.7l1.8,3.7l1.4,4.1l1.1,4.2l0.7,4.3Z" class="g4_1" />
<path fill-rule="evenodd" d="M144.3,221l-0.1,4.4l-0.7,4.4l-1.1,4.1l-1.5,4l-1.8,3.7l-2.2,3.6l-2.5,3.4l-2.8,3l-3.1,2.8l-3.3,2.5l-3.6,2.2l-3.9,1.8l-3.9,1.5l-4.2,1.1l-4.3,0.6l-4.5,0.2l-4.4,-0.2L92,263.5l-4.2,-1.1l-4,-1.5L80,259.1l-3.5,-2.2l-3.4,-2.5L70,251.6l-2.8,-3l-2.5,-3.4l-2.2,-3.6l-1.9,-3.7l-1.4,-4l-1,-4.1l-0.7,-4.4L57.2,221l0.3,-4.5l0.7,-4.2l1,-4.1l1.4,-4l1.9,-3.8l2.2,-3.6l2.5,-3.3L70,190.3l3.1,-2.8l3.4,-2.4L80,182.9l3.8,-1.8l4,-1.5l4.2,-1L96.4,178l4.4,-0.3l4.5,0.3l4.3,0.6l4.2,1l3.9,1.5l3.9,1.8l3.6,2.2l3.3,2.4l3.1,2.8l2.8,3.2l2.5,3.3l2.2,3.6l1.8,3.8l1.5,4l1.1,4.1l0.7,4.2Z" class="g5_1" />
<path fill-rule="evenodd" d="M143.8,221l-0.1,4.4l-0.7,4.2l-1,4.2l-1.5,3.8l-1.8,3.8l-2.2,3.5l-2.4,3.3l-2.8,3l-3.1,2.8l-3.3,2.6l-3.5,2l-3.8,1.8l-4,1.5l-4,1.1l-4.4,0.6l-4.4,0.2l-4.4,-0.2L92.1,263L88,261.9l-3.9,-1.5l-3.8,-1.8l-3.6,-2L73.5,254l-3.1,-2.8l-2.8,-3l-2.4,-3.3L63,241.4l-1.9,-3.8l-1.4,-3.8l-1,-4.2L58,225.4L57.7,221L58,216.6l0.7,-4.2l1,-4.1l1.4,-4L63,200.6L65.2,197l2.4,-3.3l2.8,-3l3.1,-2.8l3.2,-2.4l3.6,-2.2l3.8,-1.7L88,180.1L92.1,179l4.3,-0.6l4.4,-0.2l4.4,0.2l4.4,0.6l4,1.1l4,1.5l3.8,1.7l3.5,2.2l3.3,2.4l3.1,2.8l2.8,3l2.4,3.3l2.2,3.6l1.8,3.7l1.5,4l1,4.1l0.7,4.2Z" class="g6_1" />
<path fill-rule="evenodd" d="M143.3,221l-0.1,4.4l-0.7,4.1l-1,4.1l-1.5,3.9l-1.8,3.7l-2.1,3.5l-2.4,3.2l-2.8,3.1l-3.1,2.6l-3.1,2.5l-3.6,2.2l-3.7,1.8l-3.9,1.3l-4.1,1.1l-4.2,0.6l-4.4,0.3l-4.3,-0.3l-4.3,-0.6l-4,-1.1l-4,-1.3l-3.7,-1.8L77,256.1l-3.3,-2.5L70.8,251L68,247.9l-2.5,-3.2l-2.2,-3.5l-1.7,-3.7l-1.4,-3.9l-1.1,-4.1l-0.6,-4.1L58.2,221l0.3,-4.4l0.6,-4.1l1.1,-4.1l1.4,-3.9l1.7,-3.6l2.2,-3.5L68,194.1l2.8,-3l2.9,-2.7L77,185.8l3.5,-2L84.2,182l4,-1.4l4,-1.1l4.3,-0.6l4.3,-0.2l4.4,0.2l4.2,0.6l4.1,1.1l3.9,1.4l3.7,1.8l3.6,2l3.1,2.6l3.1,2.7l2.8,3l2.4,3.3l2.1,3.5l1.8,3.6l1.5,3.9l1,4.1l0.7,4.1Z" class="g7_1" />
<path fill-rule="evenodd" d="M142.8,221l-0.1,4.3l-0.7,4.1l-1,4l-1.4,3.9l-1.8,3.6l-2,3.5l-2.5,3.2l-2.8,3l-2.9,2.7l-3.3,2.4l-3.4,2.1l-3.7,1.8l-3.9,1.3l-4,1.1l-4.1,0.6l-4.4,0.3l-4.3,-0.3L92.4,262l-4.1,-1.1l-3.9,-1.3l-3.6,-1.8l-3.6,-2.1l-3.1,-2.4L71,250.6l-2.7,-3l-2.4,-3.2l-2.1,-3.5L62,237.3l-1.4,-3.9l-1.1,-4l-0.6,-4.1L58.7,221l0.2,-4.2l0.6,-4.3l1.1,-4L62,204.8L63.8,201l2.1,-3.4l2.4,-3.3L71,191.4l3.1,-2.7l3.1,-2.4l3.6,-2.2l3.6,-1.7L88.3,181l4.1,-1l4.1,-0.6l4.3,-0.2l4.4,0.2l4.1,0.6l4,1l3.9,1.4l3.7,1.7l3.4,2.2l3.3,2.4l2.9,2.7l2.8,2.9l2.5,3.3l2,3.4l1.8,3.8l1.4,3.7l1,4l0.7,4.3Z" class="g8_1" />
<path fill-rule="evenodd" d="M142.4,221l-0.2,4.3l-0.6,4.1l-1.1,3.9l-1.3,3.8l-1.8,3.6l-2.1,3.5l-2.3,3.1l-2.7,3l-3.1,2.6l-3.1,2.4l-3.4,2.1l-3.7,1.7l-3.8,1.5l-4,0.9l-4.2,0.6l-4.2,0.3l-4.3,-0.3l-4,-0.6l-4,-0.9l-3.8,-1.5L81,257.4l-3.4,-2.1l-3.3,-2.4l-2.9,-2.6l-2.7,-3l-2.3,-3.1l-2.2,-3.5l-1.7,-3.6l-1.4,-3.8L60,229.4l-0.6,-4.1L59.2,221l0.2,-4.2L60,212.6l1.1,-4l1.4,-3.7l1.7,-3.7l2.2,-3.4l2.3,-3.1l2.7,-2.9l2.9,-2.7l3.3,-2.4L81,184.6l3.7,-1.7l3.8,-1.4l4,-1l4,-0.6l4.3,-0.3l4.2,0.3l4.2,0.6l4,1l3.8,1.4l3.7,1.7l3.4,2.1l3.1,2.4l3.1,2.7l2.7,2.9l2.3,3.1l2.1,3.4l1.8,3.7l1.3,3.7l1.1,4l0.6,4.2Z" class="g9_1" />
<path fill-rule="evenodd" d="M142,221l-0.2,4.1l-0.7,4.2l-1.1,3.8l-1.3,3.8l-1.7,3.6l-2.1,3.3l-2.3,3.2l-2.7,2.9l-2.9,2.7l-3.2,2.3l-3.4,2l-3.5,1.8l-3.8,1.4l-4,0.9l-4.1,0.7l-4.2,0.2l-4.2,-0.2L92.5,261l-3.9,-0.9l-3.8,-1.4l-3.5,-1.8l-3.5,-2l-3.1,-2.3l-3,-2.7L69.1,247l-2.4,-3.2l-2,-3.3L63,236.9l-1.5,-3.8l-1,-3.8l-0.6,-4.2L59.7,221l0.2,-4.2l0.6,-4l1,-3.9L63,205.1l1.7,-3.6l2,-3.4l2.4,-3.2L71.7,192l3,-2.5L77.8,187l3.5,-2l3.5,-1.7L88.6,182l3.9,-1l4.1,-0.7l4.2,-0.2l4.2,0.2l4.1,0.7l4,1l3.8,1.3l3.5,1.7l3.4,2l3.2,2.5l2.9,2.5l2.7,2.9l2.3,3.2l2.1,3.4l1.7,3.6l1.3,3.8l1.1,3.9l0.7,4Z" class="g10_1" />
<path fill-rule="evenodd" d="M141.5,221l-0.2,4.1l-0.6,4l-1,3.9l-1.5,3.8l-1.7,3.5l-1.9,3.3l-2.5,3.1l-2.5,2.8l-3,2.7l-3,2.3l-3.4,2.1l-3.6,1.7l-3.8,1.3l-3.7,1l-4.2,0.6l-4.1,0.2l-4.2,-0.2l-4,-0.6l-3.9,-1L85,258.3l-3.5,-1.7l-3.4,-2.1l-3.2,-2.3l-2.8,-2.7l-2.7,-2.8l-2.3,-3.1L65,240.3l-1.7,-3.5L62,233l-1,-3.9l-0.6,-4L60.2,221l0.2,-4.1l0.6,-4L62,209l1.3,-3.8L65,201.7l2.1,-3.2l2.3,-3.2l2.7,-2.9l2.8,-2.6l3.2,-2.3l3.4,-2L85,183.8l3.7,-1.4l3.9,-1.1l4,-0.6l4.2,-0.1l4.1,0.1l4.2,0.6l3.7,1.1l3.8,1.4l3.6,1.7l3.4,2l3,2.3l3,2.6l2.5,2.9l2.5,3.2l1.9,3.2l1.7,3.5l1.5,3.8l1,3.9l0.6,4Z" class="g11_1" />
<path fill-rule="evenodd" d="M141,221l-0.2,4.1l-0.6,3.9l-1,3.9l-1.3,3.6l-1.8,3.6l-2,3.2l-2.3,3.1l-2.6,2.9l-2.8,2.5l-3.2,2.3l-3.3,2l-3.4,1.7l-3.8,1.3l-3.8,1l-4,0.6l-4.1,0.2l-4.1,-0.2l-4,-0.6l-3.9,-1l-3.6,-1.3l-3.6,-1.7l-3.3,-2l-3,-2.3l-2.8,-2.5l-2.7,-2.9l-2.3,-3.1l-2,-3.2l-1.7,-3.6l-1.3,-3.6l-1,-3.9l-0.6,-3.9L60.6,221l0.3,-4.1L61.5,213l1,-3.9l1.3,-3.6L65.5,202l2,-3.3l2.3,-3.2l2.7,-2.7l2.8,-2.6l3,-2.3l3.3,-2.1l3.6,-1.5l3.6,-1.5l3.9,-1l4,-0.6l4.1,-0.1l4.1,0.1l4,0.6l3.8,1l3.8,1.5l3.4,1.5l3.3,2.1l3.2,2.3l2.8,2.6l2.6,2.7l2.3,3.2l2,3.3l1.8,3.5l1.3,3.6l1,3.9l0.6,3.9Z" class="g11_1" />
<path fill-rule="evenodd" d="M140.5,221l-0.2,4l-0.6,3.9l-1,3.9l-1.3,3.5l-1.7,3.5l-2,3.3l-2.3,3l-2.6,2.8l-2.8,2.6l-3,2.3l-3.3,1.9l-3.4,1.7l-3.7,1.2l-3.8,1l-3.9,0.6l-4.1,0.2l-4.1,-0.2l-3.9,-0.6l-3.7,-1l-3.7,-1.2l-3.5,-1.7l-3.2,-1.9l-3.2,-2.3l-2.8,-2.6l-2.5,-2.8l-2.2,-3l-2.1,-3.3l-1.6,-3.5L63,232.8l-1,-3.9L61.4,225l-0.3,-4l0.3,-4L62,213l1,-3.8l1.3,-3.6l1.6,-3.4L68,198.9l2.2,-3l2.5,-2.8l2.8,-2.5l3.2,-2.3l3.2,-2l3.5,-1.7l3.7,-1.3l3.7,-1l3.9,-0.6l4.1,-0.1l4.1,0.1l3.9,0.6l3.8,1l3.7,1.3l3.4,1.7l3.3,2l3,2.3l2.8,2.5l2.6,2.8l2.3,3l2,3.3l1.7,3.4l1.3,3.6l1,3.8l0.6,4Z" class="g12_1" />
<path fill-rule="evenodd" d="M140,221l-0.2,4l-0.6,3.9l-1,3.6l-1.3,3.7l-1.6,3.4l-2,3.1l-2.3,3.1l-2.4,2.8l-2.8,2.5l-3.1,2.2l-3.3,1.9l-3.4,1.7l-3.5,1.4l-3.8,0.9l-3.9,0.5l-4,0.3l-3.9,-0.3L93,259.2l-3.8,-0.9l-3.7,-1.4l-3.4,-1.7l-3.2,-1.9l-3,-2.2l-2.8,-2.5l-2.6,-2.8l-2.2,-3.1l-1.9,-3.1l-1.7,-3.4l-1.2,-3.7l-1,-3.6L61.9,225l-0.3,-4l0.3,-4l0.6,-3.9l1,-3.7l1.2,-3.5l1.7,-3.4l1.9,-3.3l2.2,-2.9l2.6,-2.8l2.8,-2.6l3,-2.3l3.2,-1.9l3.4,-1.6l3.7,-1.3l3.8,-1l3.9,-0.6l3.9,-0.1l4,0.1l3.9,0.6l3.8,1l3.5,1.3l3.4,1.6l3.3,1.9l3.1,2.3l2.8,2.6l2.4,2.8l2.3,2.9l2,3.3l1.6,3.4l1.3,3.5l1,3.7l0.6,3.9Z" class="g13_1" />
<path fill-rule="evenodd" d="M139.6,221l-0.3,3.9l-0.6,3.9l-1,3.6l-1.2,3.5l-1.7,3.4l-2,3.2l-2.1,3l-2.5,2.7l-2.8,2.5l-2.9,2.2l-3.2,2l-3.4,1.5l-3.5,1.4l-3.8,0.9l-3.8,0.6l-4,0.2l-3.9,-0.2L93,258.7l-3.7,-0.9l-3.5,-1.4l-3.4,-1.5l-3.2,-2l-2.9,-2.2l-2.8,-2.5L71,245.5l-2.3,-3l-2,-3.2l-1.5,-3.4l-1.4,-3.5L63,228.8l-0.6,-3.9L62.1,221l0.3,-4L63,213.3l0.8,-3.7L65.2,206l1.5,-3.3l2,-3.3L71,196.5l2.5,-2.7l2.8,-2.5l2.9,-2.2l3.2,-1.9l3.4,-1.6l3.5,-1.3l3.7,-1l3.9,-0.6l3.9,-0.1l4,0.1l3.8,0.6l3.8,1l3.5,1.3l3.4,1.6l3.2,1.9l2.9,2.2l2.8,2.5l2.5,2.7l2.1,2.9l2,3.3l1.7,3.3l1.2,3.6l1,3.7l0.6,3.7Z" class="g14_1" />
<path fill-rule="evenodd" d="M139.1,221l-0.3,3.9l-0.6,3.8l-0.8,3.6l-1.4,3.5l-1.6,3.3l-1.9,3.1l-2.2,3l-2.5,2.6l-2.6,2.6l-3,2.2l-3.1,1.8l-3.4,1.7l-3.5,1.2l-3.6,1l-3.9,0.6l-3.9,0.1l-3.9,-0.1l-3.8,-0.6l-3.7,-1l-3.5,-1.2l-3.3,-1.7l-3.2,-1.8l-2.9,-2.2l-2.7,-2.6l-2.4,-2.6l-2.2,-3l-2,-3.1l-1.6,-3.3l-1.3,-3.5l-1,-3.6l-0.5,-3.8L62.6,221l0.2,-3.9l0.5,-3.7l1,-3.7l1.3,-3.5l1.6,-3.3l2,-3.1l2.2,-2.9l2.4,-2.8l2.7,-2.4l2.9,-2.2l3.2,-2L85.9,186l3.5,-1.3l3.7,-0.9l3.8,-0.6l3.9,-0.2l3.9,0.2l3.9,0.6l3.6,0.9l3.5,1.3l3.4,1.5l3.1,2l3,2.2l2.6,2.4l2.5,2.8l2.2,2.9l1.9,3.1l1.6,3.3l1.4,3.5l0.8,3.7l0.6,3.7Z" class="g15_1" />
<path fill-rule="evenodd" d="M138.6,221l-0.3,3.9l-0.6,3.6l-0.8,3.7l-1.4,3.4l-1.6,3.2l-1.8,3.2l-2.2,2.9l-2.4,2.7l-2.7,2.4l-2.9,2.1l-3.1,1.9l-3.3,1.6l-3.5,1.2l-3.5,1l-3.8,0.6l-3.9,0.1L97,258.4l-3.8,-0.6l-3.6,-1l-3.5,-1.2L82.8,254l-3.1,-1.9L76.9,250l-2.7,-2.4l-2.5,-2.7L69.5,242l-1.9,-3.2L66,235.6l-1.2,-3.4l-1,-3.7l-0.5,-3.6L63.1,221l0.2,-3.9l0.5,-3.6l1,-3.6L66,206.3l1.6,-3.2L69.5,200l2.2,-2.9l2.5,-2.7L76.9,192l2.8,-2.2L82.8,188l3.3,-1.6l3.5,-1.3l3.6,-0.8L97,183.7l3.8,-0.2l3.9,0.2l3.8,0.6l3.5,0.8l3.5,1.3l3.3,1.6l3.1,1.8l2.9,2.2l2.7,2.4l2.4,2.7l2.2,2.9l1.8,3.1l1.6,3.2l1.4,3.6l0.8,3.6l0.6,3.6Z" class="g15_1" />
<path fill-rule="evenodd" d="M138.1,221l-0.3,3.8l-0.4,3.6l-1,3.7l-1.2,3.4l-1.6,3.1l-1.9,3.2l-2.1,2.8l-2.5,2.6l-2.5,2.4l-3,2.1l-3,1.8l-3.3,1.6l-3.4,1.3l-3.6,0.9l-3.6,0.6l-3.9,0.1L97,257.9l-3.7,-0.6l-3.5,-0.9l-3.4,-1.3l-3.3,-1.6L80,251.7l-2.9,-2.1l-2.7,-2.4l-2.3,-2.6l-2.2,-2.8l-1.8,-3.2l-1.6,-3.1l-1.2,-3.4l-1,-3.7l-0.5,-3.6L63.6,221l0.2,-3.7l0.5,-3.8l1,-3.5l1.2,-3.4l1.6,-3.3l1.8,-3l2.2,-2.8l2.3,-2.7l2.7,-2.4L80,190.3l3.1,-1.9l3.3,-1.6l3.4,-1.2l3.5,-0.9L97,184.1l3.8,-0.2l3.9,0.2l3.6,0.6l3.6,0.9l3.4,1.2l3.3,1.6l3,1.9l3,2.1l2.5,2.4l2.5,2.7l2.1,2.8l1.9,3l1.6,3.3l1.2,3.4l1,3.5l0.4,3.8Z" class="g16_1" />
<path fill-rule="evenodd" d="M137.6,221l-0.2,3.8l-0.5,3.6l-1,3.5l-1.2,3.3l-1.6,3.3l-1.8,2.9l-2.1,2.9l-2.5,2.6l-2.5,2.3l-2.8,2.1l-3.1,1.9l-3.1,1.5l-3.5,1.3l-3.5,0.8l-3.6,0.6l-3.8,0.1l-3.7,-0.1l-3.6,-0.6L89.9,256l-3.4,-1.3l-3.2,-1.5l-3,-1.9l-2.8,-2.1l-2.7,-2.3l-2.3,-2.6l-2.2,-2.9l-1.8,-2.9L67,235.2l-1.2,-3.3l-1,-3.5l-0.5,-3.6L64.1,221l0.2,-3.7l0.5,-3.7l1,-3.5L67,206.8l1.5,-3.3l1.8,-3l2.2,-2.8l2.3,-2.5l2.7,-2.4l2.8,-2.1l3,-1.8l3.2,-1.6l3.4,-1.2l3.6,-0.9l3.6,-0.6l3.7,-0.2l3.8,0.2l3.6,0.6l3.5,0.9l3.5,1.2l3.1,1.6l3.1,1.8l2.8,2.1l2.7,2.4l2.3,2.5l2.1,2.8l1.8,3l1.6,3.3l1.2,3.3l1,3.5l0.5,3.7Z" class="g17_1" />
<path fill-rule="evenodd" d="M137.1,221l-0.2,3.7l-0.5,3.6l-1,3.4l-1.2,3.4l-1.5,3.1l-1.8,3l-2.1,2.7l-2.3,2.6l-2.6,2.3l-2.8,2.2l-3,1.7l-3.2,1.6l-3.3,1.2l-3.5,0.8l-3.5,0.6l-3.8,0.1l-3.7,-0.1l-3.6,-0.6L90,255.5l-3.3,-1.2l-3.1,-1.6L80.5,251l-2.8,-2.2l-2.5,-2.3l-2.4,-2.6l-2,-2.7l-1.9,-3l-1.5,-3.1l-1.3,-3.4l-0.8,-3.4l-0.6,-3.6L64.6,221l0.1,-3.7l0.6,-3.6l0.8,-3.5l1.3,-3.3l1.5,-3.1l1.9,-2.9l2,-2.8l2.4,-2.6l2.5,-2.4l2.8,-2l3.1,-1.9l3.1,-1.4L90,186.6l3.5,-1l3.6,-0.5l3.7,-0.2l3.8,0.2l3.5,0.5l3.5,1l3.3,1.2l3.2,1.4l3,1.9l2.8,2l2.6,2.4l2.3,2.6l2.1,2.8l1.8,2.9l1.5,3.1l1.2,3.3l1,3.5l0.5,3.6Z" class="g18_1" />
<path fill-rule="evenodd" d="M136.6,221l-0.2,3.7l-0.5,3.5l-0.9,3.4l-1.2,3.2l-1.6,3.2l-1.7,2.9l-2,2.8l-2.4,2.4l-2.5,2.3l-2.8,2.1l-3,1.8l-3,1.5l-3.3,1.2l-3.4,0.8l-3.7,0.6l-3.6,0.2l-3.7,-0.2l-3.5,-0.6L90.2,255l-3.3,-1.2l-3.2,-1.5l-2.9,-1.8l-2.7,-2.1l-2.6,-2.3l-2.3,-2.4l-2.1,-2.8L69.3,238l-1.5,-3.2l-1.2,-3.2l-0.8,-3.4l-0.6,-3.5L65,221l0.2,-3.6l0.6,-3.5l0.8,-3.4l1.2,-3.3L69.3,204l1.8,-2.9l2.1,-2.8l2.3,-2.5l2.6,-2.3l2.7,-2l2.9,-1.8l3.2,-1.6L90.2,187l3.4,-0.9l3.5,-0.5l3.7,-0.2l3.6,0.2l3.7,0.5l3.4,0.9l3.3,1.1l3,1.6l3,1.8l2.8,2l2.5,2.3l2.4,2.5l2,2.8l1.7,2.9l1.6,3.2l1.2,3.3l0.9,3.4l0.5,3.5Z" class="g19_1" />
<path fill-rule="evenodd" d="M136.1,221l-0.2,3.5l-0.5,3.6l-0.8,3.3l-1.3,3.3l-1.4,3.1l-1.9,2.9l-1.9,2.6l-2.3,2.6l-2.5,2.2l-2.8,2l-2.9,1.7l-3,1.6l-3.3,1.1l-3.3,0.8l-3.6,0.7l-3.6,0.1L97.2,256l-3.5,-0.7l-3.4,-0.8l-3.2,-1.1l-3.2,-1.6l-2.8,-1.7l-2.8,-2l-2.4,-2.2l-2.3,-2.6l-2.1,-2.6l-1.7,-2.9l-1.5,-3.1l-1.2,-3.3l-0.8,-3.3l-0.7,-3.6L65.5,221l0.1,-3.6L66.3,214l0.8,-3.4l1.2,-3.3l1.5,-3l1.7,-2.9l2.1,-2.7l2.3,-2.6l2.4,-2.3l2.8,-1.9l2.8,-1.8l3.2,-1.5l3.2,-1.2l3.4,-0.8l3.5,-0.5l3.6,-0.3l3.6,0.3l3.6,0.5l3.3,0.8l3.3,1.2l3,1.5l2.9,1.8l2.8,1.9l2.5,2.3l2.3,2.6l1.9,2.7l1.9,2.9l1.4,3l1.3,3.3l0.8,3.4l0.5,3.4Z" class="g20_1" />
<path fill-rule="evenodd" d="M135.7,221l-0.3,3.5l-0.5,3.4l-0.8,3.4l-1.3,3.2l-1.4,3l-1.7,2.9l-2,2.7l-2.3,2.4l-2.4,2.2l-2.7,2.1l-2.9,1.7l-3,1.4l-3.3,1.2l-3.3,0.9l-3.4,0.5l-3.6,0.1l-3.6,-0.1L93.8,255l-3.4,-0.9l-3.2,-1.2l-3,-1.4l-2.8,-1.7l-2.7,-2.1l-2.6,-2.2L73.9,243L72,240.4l-1.8,-2.9l-1.5,-3l-1.1,-3.2l-0.9,-3.4l-0.6,-3.4L66,221l0.1,-3.5L66.7,214l0.9,-3.3l1.1,-3.2l1.5,-3L72,201.6l1.9,-2.7l2.2,-2.4l2.6,-2.2l2.7,-2l2.8,-1.7l3,-1.5l3.2,-1.2L93.8,187l3.4,-0.4l3.6,-0.3l3.6,0.3l3.4,0.4l3.3,0.9l3.3,1.2l3,1.5l2.9,1.7l2.7,2l2.4,2.2l2.3,2.4l2,2.7l1.7,2.9l1.4,3l1.3,3.2l0.8,3.3l0.5,3.5Z" class="g21_1" />
<path fill-rule="evenodd" d="M135.2,221l-0.3,3.5l-0.5,3.4l-0.8,3.3l-1.1,3l-1.5,3.1l-1.7,2.8l-1.9,2.6l-2.4,2.5l-2.4,2.1l-2.6,2l-2.8,1.7l-3,1.4l-3.2,1.2l-3.3,0.9l-3.4,0.5l-3.5,0.1L97.4,255l-3.5,-0.5l-3.3,-0.9l-3.1,-1.2L84.4,251l-2.8,-1.7l-2.7,-2l-2.4,-2.1l-2.2,-2.5l-1.9,-2.6l-1.8,-2.8l-1.4,-3.1l-1.2,-3l-0.8,-3.3l-0.6,-3.4L66.5,221l0.1,-3.5l0.6,-3.4L68,210.8l1.2,-3.1l1.4,-2.9l1.8,-3l1.9,-2.5l2.2,-2.4l2.4,-2.2l2.7,-2.1l2.8,-1.7l3.1,-1.4l3.1,-1.1l3.3,-0.9L97.4,187l3.4,-0.2l3.5,0.2l3.4,0.5l3.3,0.9l3.2,1.1l3,1.4l2.8,1.7l2.6,2.1l2.4,2.2l2.4,2.4l1.9,2.5l1.7,3l1.5,2.9l1.1,3.1l0.8,3.3l0.5,3.4Z" class="g22_1" />
<path fill-rule="evenodd" d="M134.7,221l-0.1,3.4l-0.7,3.4l-0.8,3.2l-1.1,3.1l-1.5,2.9l-1.6,2.8l-1.9,2.6l-2.2,2.4l-2.4,2.2l-2.6,1.9l-2.8,1.7l-3.1,1.5l-3,1.1l-3.3,0.8l-3.3,0.5l-3.5,0.1l-3.4,-0.1L93.9,254l-3.1,-0.8l-3.2,-1.1l-2.9,-1.5l-2.8,-1.7L79.3,247l-2.4,-2.2l-2.2,-2.4l-2,-2.6L71,237l-1.3,-2.9L68.5,231l-0.9,-3.2l-0.5,-3.4L67,221l0.1,-3.5l0.5,-3.3l0.9,-3.3l1.2,-3L71,205l1.7,-2.8l2,-2.7l2.2,-2.3l2.4,-2.1l2.6,-2l2.8,-1.7L87.6,190l3.2,-1.1L93.9,188l3.5,-0.5l3.4,-0.2l3.5,0.2l3.3,0.5l3.3,0.9l3,1.1l3.1,1.4l2.8,1.7l2.6,2l2.4,2.1l2.2,2.3l1.9,2.7l1.6,2.8l1.5,2.9l1.1,3l0.8,3.3l0.7,3.3Z" class="g23_1" />
<path fill-rule="evenodd" d="M134.2,221l-0.1,3.4l-0.6,3.3l-0.8,3.1l-1.2,3.1l-1.3,2.9l-1.7,2.8l-2,2.5l-2.1,2.3l-2.4,2.2l-2.6,2l-2.7,1.5l-2.9,1.5l-3,1.1l-3.2,0.8l-3.4,0.5l-3.4,0.1L97.4,254l-3.3,-0.5l-3.2,-0.8l-3.1,-1.1l-2.9,-1.5l-2.8,-1.5l-2.5,-2l-2.4,-2.2L75,242.1l-1.9,-2.5l-1.6,-2.8L70,233.9l-1.1,-3.1l-0.8,-3.1l-0.5,-3.3L67.5,221l0.1,-3.4l0.5,-3.3l0.8,-3.1L70,208l1.5,-2.9l1.6,-2.6L75,199.9l2.2,-2.4l2.4,-2.1l2.5,-1.9l2.8,-1.7l2.9,-1.4l3.1,-1l3.2,-0.9L97.4,188l3.4,-0.2l3.4,0.2l3.4,0.5l3.2,0.9l3,1l2.9,1.4l2.7,1.7l2.6,1.9l2.4,2.1l2.1,2.4l2,2.6l1.7,2.6l1.3,2.9l1.2,3.2l0.8,3.1l0.6,3.3Z" class="g24_1" />
<path fill-rule="evenodd" d="M133.7,221l-0.1,3.3l-0.5,3.3l-0.9,3.1l-1.1,3.1l-1.4,2.7l-1.6,2.8l-2,2.5l-2,2.4l-2.4,2l-2.5,1.9l-2.7,1.7l-2.9,1.3l-3,1.1l-3.1,0.8l-3.3,0.5l-3.4,0.3l-3.3,-0.3L94.2,253L91,252.2l-3,-1.1l-2.8,-1.3l-2.7,-1.7l-2.6,-1.9l-2.3,-2l-2.2,-2.4l-1.8,-2.5l-1.7,-2.8l-1.4,-2.7l-1.1,-3.1l-0.8,-3.1l-0.5,-3.3L68,221l0.1,-3.4l0.5,-3.1l0.8,-3.2l1.1,-3l1.4,-2.9l1.7,-2.7l1.8,-2.5l2.2,-2.4l2.3,-2l2.6,-2l2.7,-1.5L88,190.8l3,-1.1L94.2,189l3.3,-0.5l3.3,-0.2l3.4,0.2l3.3,0.5l3.1,0.7l3,1.1l2.9,1.5l2.7,1.5l2.5,2l2.4,2l2,2.4l2,2.5l1.6,2.7l1.4,2.9l1.1,3l0.9,3.2l0.5,3.1Z" class="g25_1" />
<path fill-rule="evenodd" d="M133.2,221l-0.1,3.3l-0.5,3.1l-0.8,3.2l-1.1,2.9l-1.4,2.9l-1.6,2.6l-1.9,2.5l-2.1,2.3l-2.3,2.1l-2.5,1.8l-2.6,1.6l-2.8,1.4l-3.1,1.1l-3,0.8l-3.2,0.4l-3.4,0.3L97.5,253l-3.2,-0.4l-3.2,-0.8l-2.9,-1.1l-2.8,-1.4l-2.7,-1.6l-2.5,-1.8L78,243.8l-2.2,-2.3L73.9,239l-1.5,-2.6L71,233.5l-1.1,-2.9l-0.8,-3.2l-0.5,-3.1L68.5,221l0.1,-3.3l0.5,-3.2l0.8,-3.1l1.1,-3l1.4,-2.8l1.5,-2.7l1.9,-2.4L78,198.2l2.2,-2.1l2.5,-1.8l2.7,-1.7l2.8,-1.3l2.9,-1.1l3.2,-0.7L97.5,189l3.3,-0.3l3.4,0.3l3.2,0.5l3,0.7l3.1,1.1l2.8,1.3l2.6,1.7l2.5,1.8l2.3,2.1l2.1,2.3l1.9,2.4l1.6,2.7l1.4,2.8l1.1,3l0.8,3.1l0.5,3.2Z" class="g26_1" />
<path fill-rule="evenodd" d="M132.7,221l-0.1,3.3l-0.5,3.1l-0.8,3.1l-1,2.9l-1.5,2.8l-1.6,2.5l-1.8,2.5l-2.1,2.3l-2.2,2l-2.4,1.8l-2.7,1.6l-2.8,1.4l-2.9,1l-3.1,0.8l-3.1,0.5l-3.3,0.2l-3.2,-0.2l-3.2,-0.5l-3,-0.8l-3.1,-1l-2.7,-1.4L83,247.3l-2.5,-1.8l-2.3,-2l-2.1,-2.3l-1.8,-2.5l-1.6,-2.5l-1.3,-2.8l-1.1,-2.9l-0.8,-3.1l-0.4,-3.1L68.9,221l0.2,-3.3l0.4,-3.1l0.8,-3l1.1,-3l1.3,-2.7l1.6,-2.6l1.8,-2.5l2.1,-2.2l2.3,-2.1L83,194.7l2.6,-1.6l2.7,-1.3l3.1,-1.1l3,-0.9l3.2,-0.3l3.2,-0.3l3.3,0.3l3.1,0.3l3.1,0.9l2.9,1.1l2.8,1.3l2.7,1.6l2.4,1.8l2.2,2.1l2.1,2.2l1.8,2.5l1.6,2.6l1.5,2.7l1,3l0.8,3l0.5,3.1Z" class="g27_1" />
<path fill-rule="evenodd" d="M132.2,221l-0.1,3.2l-0.5,3.1l-0.7,3.1l-1.1,2.7l-1.3,2.8l-1.6,2.6l-1.9,2.4l-1.9,2.2l-2.3,2.1l-2.5,1.8l-2.5,1.6l-2.7,1.2l-2.9,1.1l-3.1,0.7l-3,0.5l-3.3,0.2l-3.2,-0.2l-3.2,-0.5l-2.9,-0.7l-2.9,-1.1l-2.7,-1.2L83.2,247l-2.4,-1.8l-2.2,-2.1l-2.1,-2.2l-1.7,-2.4l-1.6,-2.6l-1.3,-2.8l-1.1,-2.7L70,227.3l-0.4,-3.1L69.4,221l0.2,-3.1L70,214.7l0.8,-3l1.1,-2.8l1.3,-2.8l1.6,-2.6l1.7,-2.4l2.1,-2.2l2.2,-2l2.4,-1.8l2.7,-1.6l2.7,-1.4l2.9,-0.9l2.9,-0.9l3.2,-0.5l3.2,-0.1l3.3,0.1l3,0.5l3.1,0.9l2.9,0.9l2.7,1.4l2.5,1.6l2.5,1.8l2.3,2l1.9,2.2l1.9,2.4l1.6,2.6l1.3,2.8l1.1,2.8l0.7,3l0.5,3.2Z" class="g28_1" />
<path fill-rule="evenodd" d="M131.8,221l-0.2,3.2l-0.5,3l-0.7,2.9l-1.1,2.9l-1.3,2.7l-1.5,2.5l-1.8,2.3l-2,2.2l-2.2,2.1l-2.4,1.7l-2.6,1.6l-2.7,1.3l-2.8,1l-2.9,0.7l-3.2,0.5l-3.1,0.2l-3.2,-0.2l-3,-0.5l-3,-0.7l-2.8,-1L86,248.1l-2.5,-1.6l-2.4,-1.7l-2.2,-2.1L77,240.5l-1.8,-2.3l-1.6,-2.5L72.4,233l-1.1,-2.9l-0.8,-2.9l-0.5,-3L69.9,221L70,217.9l0.5,-3.1l0.8,-3L72.4,209l1.2,-2.7l1.6,-2.5L77,201.4l1.9,-2.2l2.2,-2l2.4,-1.8L86,194l2.8,-1.4l2.8,-0.9l3,-0.9l3,-0.5l3.2,-0.1l3.1,0.1l3.2,0.5l2.9,0.9l2.8,0.9l2.7,1.4l2.6,1.4l2.4,1.8l2.2,2l2,2.2l1.8,2.4l1.5,2.5l1.3,2.7l1.1,2.8l0.7,3l0.5,3.1Z" class="g29_1" />
<path fill-rule="evenodd" d="M131.3,221l-0.2,3l-0.4,3.1l-0.8,2.9l-1,2.8l-1.3,2.7L126,238l-1.7,2.3l-1.9,2.1l-2.2,2l-2.4,1.7l-2.5,1.6l-2.6,1.2l-2.8,1l-2.9,0.8l-3.1,0.4l-3.1,0.2l-3.1,-0.2l-3,-0.4l-3,-0.8l-2.8,-1l-2.6,-1.2l-2.5,-1.6l-2.4,-1.7l-2.1,-2l-1.9,-2.1L75.5,238l-1.4,-2.5l-1.4,-2.7l-1,-2.8L71,227.1L70.5,224l-0.1,-3l0.1,-3.1L71,215l0.7,-3l1,-2.8l1.4,-2.6L75.5,204l1.9,-2.3l1.9,-2.2l2.1,-1.9l2.4,-1.7l2.5,-1.6l2.6,-1.2L91.7,192l3,-0.7l3,-0.5l3.1,-0.1l3.1,0.1l3.1,0.5l2.9,0.7l2.8,1.1l2.6,1.2l2.5,1.6l2.4,1.7l2.2,1.9l1.9,2.2L126,204l1.6,2.6l1.3,2.6l1,2.8l0.8,3l0.4,2.9Z" class="g30_1" />
<path fill-rule="evenodd" d="M130.8,221l-0.1,3l-0.5,3l-0.8,2.9l-0.9,2.8l-1.3,2.5l-1.5,2.4l-1.8,2.3l-1.9,2.2l-2.1,2l-2.3,1.7l-2.4,1.4l-2.7,1.2l-2.8,1.1l-2.8,0.8l-3,0.3l-3.1,0.3l-3.1,-0.3l-2.9,-0.3l-2.9,-0.8l-2.7,-1.1l-2.7,-1.2l-2.4,-1.4l-2.4,-1.7l-2,-2l-2,-2.2L76,237.6l-1.6,-2.4l-1.2,-2.5l-1,-2.8L71.5,227L71,224l-0.1,-3L71,218l0.5,-3l0.7,-2.8l1,-2.8l1.2,-2.6L76,204.3l1.7,-2.2l2,-2.2l2,-1.9l2.4,-1.7l2.4,-1.5l2.7,-1.3l2.7,-1l2.9,-0.7l2.9,-0.5l3.1,-0.1l3.1,0.1l3,0.5l2.8,0.7l2.8,1l2.7,1.3l2.4,1.5l2.3,1.7l2.1,1.9l1.9,2.2l1.8,2.2l1.5,2.5l1.3,2.6l0.9,2.8l0.8,2.8l0.5,3Z" class="g30_1" />
<path fill-rule="evenodd" d="M130.3,221l-0.1,3l-0.5,3l-0.8,2.8l-0.9,2.6l-1.3,2.6l-1.4,2.4l-1.7,2.3l-2,2.1l-2,1.8l-2.2,1.7l-2.5,1.6l-2.5,1.2l-2.8,0.9l-2.9,0.8l-2.9,0.3l-3,0.3l-3,-0.3l-2.9,-0.3L92,249l-2.7,-0.9l-2.6,-1.2l-2.4,-1.6l-2.2,-1.7l-2.2,-1.8l-1.8,-2.1l-1.7,-2.3L74.9,235l-1.2,-2.6l-1.1,-2.6L71.9,227l-0.4,-3l-0.1,-3l0.1,-3l0.4,-2.9l0.7,-2.8l1.1,-2.7l1.2,-2.5l1.5,-2.5l1.7,-2.3l1.8,-2l2.2,-2l2.2,-1.7l2.4,-1.4L89.3,194L92,193l2.9,-0.7l2.9,-0.5l3,-0.1l3,0.1l2.9,0.5l2.9,0.7l2.8,1l2.5,1.2l2.5,1.4l2.2,1.7l2,2l2,2l1.7,2.3l1.4,2.5l1.3,2.5l0.9,2.7l0.8,2.8l0.5,2.9Z" class="g30_1" />
<path fill-rule="evenodd" d="M129.8,221l-0.1,2.9l-0.5,2.9l-0.7,2.8l-1,2.6l-1.2,2.5l-1.4,2.4l-1.7,2.2l-1.9,2.1l-2,1.8l-2.3,1.7l-2.3,1.5l-2.6,1.2l-2.7,1l-2.8,0.7l-2.8,0.3l-3,0.3l-3,-0.3l-2.9,-0.3l-2.7,-0.7l-2.6,-1L87,246.4l-2.4,-1.5l-2.2,-1.7l-2.1,-1.8l-1.8,-2.1l-1.8,-2.2l-1.4,-2.4l-1.2,-2.5l-1,-2.6l-0.7,-2.8L72,223.9L71.9,221L72,218.1l0.4,-2.9l0.7,-2.8l1,-2.7l1.2,-2.4l1.4,-2.4l1.8,-2.2l1.8,-2.1l2.1,-1.9l2.2,-1.6L87,195.7l2.6,-1.3l2.6,-0.9l2.7,-0.7l2.9,-0.5l3,-0.2l3,0.2l2.8,0.5l2.8,0.7l2.7,0.9l2.6,1.3l2.3,1.4l2.3,1.6l2,1.9l1.9,2.1l1.7,2.2l1.4,2.4l1.2,2.4l1,2.7l0.7,2.8l0.5,2.9Z" class="g31_1" />
<path fill-rule="evenodd" d="M129.3,221l-0.1,2.9l-0.5,2.8l-0.6,2.7l-1,2.7l-1.2,2.4l-1.5,2.4l-1.6,2.2L121,241l-2.1,1.9l-2.1,1.7l-2.4,1.3l-2.5,1.2l-2.6,1l-2.8,0.7l-2.8,0.4l-2.9,0.2l-3,-0.2L95,248.8l-2.6,-0.7l-2.7,-1l-2.5,-1.2l-2.3,-1.3l-2.2,-1.7L80.6,241l-1.8,-1.9l-1.6,-2.2l-1.4,-2.4l-1.2,-2.4l-1,-2.7l-0.8,-2.7l-0.3,-2.8L72.4,221l0.1,-2.9l0.3,-2.8l0.8,-2.8l1,-2.5l1.2,-2.5l1.4,-2.4l1.6,-2.2L80.6,201l2.1,-1.8l2.2,-1.7L87.2,196l2.5,-1.1L92.4,194L95,193.2l2.8,-0.4l3,-0.2l2.9,0.2l2.8,0.4l2.8,0.8l2.6,0.9l2.5,1.1l2.4,1.5l2.1,1.7L121,201l1.8,1.9l1.6,2.2l1.5,2.4l1.2,2.5l1,2.5l0.6,2.8l0.5,2.8Z" class="g32_1" />
<path fill-rule="evenodd" d="M128.8,221l-0.1,2.8l-0.5,2.8l-0.6,2.7l-1,2.5l-1.2,2.4l-1.3,2.3l-1.6,2.2l-1.8,2l-2.1,1.8l-2.1,1.6l-2.3,1.4l-2.5,1.1l-2.5,1l-2.7,0.7l-2.8,0.4l-2.9,0.1L98,248.7l-2.8,-0.4l-2.7,-0.7l-2.6,-1l-2.4,-1.1l-2.3,-1.4L83,242.5l-2,-1.8l-1.8,-2l-1.6,-2.2l-1.5,-2.3L75,231.8l-0.9,-2.5l-0.8,-2.7L73,223.8L72.8,221L73,218.1l0.3,-2.7l0.8,-2.6L75,210.2l1.1,-2.5l1.5,-2.2l1.6,-2.2L81,201.4l2,-1.9L85.2,198l2.3,-1.5l2.4,-1.2l2.6,-0.9l2.7,-0.7L98,193.2l2.8,-0.1l2.9,0.1l2.8,0.5l2.7,0.7l2.5,0.9l2.5,1.2l2.3,1.5l2.1,1.5l2.1,1.9l1.8,1.9l1.6,2.2l1.3,2.2l1.2,2.5l1,2.6l0.6,2.6l0.5,2.7Z" class="g33_1" />
<path fill-rule="evenodd" d="M128.3,221l-0.1,2.8l-0.5,2.7l-0.6,2.6l-1,2.6L125,234l-1.4,2.3l-1.6,2.1l-1.7,1.9l-2,1.8l-2.2,1.6l-2.2,1.3l-2.4,1.2l-2.6,0.9l-2.5,0.7l-2.8,0.4l-2.8,0.1L98,248.2l-2.7,-0.4l-2.7,-0.7l-2.4,-0.9L87.7,245l-2.3,-1.3l-2.1,-1.6l-1.9,-1.8l-1.8,-1.9L78,236.3L76.6,234l-1.1,-2.3l-0.9,-2.6l-0.8,-2.6l-0.3,-2.7L73.3,221l0.2,-2.8l0.3,-2.8l0.8,-2.5l0.9,-2.6l1.1,-2.4L78,205.7l1.6,-2.2l1.8,-1.9l1.9,-1.7l2.1,-1.6L87.7,197l2.5,-1.2l2.4,-0.9l2.7,-0.7L98,193.8l2.8,-0.2l2.8,0.2l2.8,0.4l2.5,0.7l2.6,0.9l2.4,1.2l2.2,1.3l2.2,1.6l2,1.7l1.7,1.9l1.6,2.2l1.4,2.2l1.1,2.4l1,2.6l0.6,2.5l0.5,2.8Z" class="g33_1" />
<path fill-rule="evenodd" d="M127.8,221l-0.1,2.8l-0.5,2.6l-0.6,2.6l-0.9,2.4l-1.1,2.4l-1.4,2.3l-1.6,2l-1.7,1.8l-1.9,1.9l-2.1,1.4l-2.2,1.5l-2.3,1.1l-2.6,0.8l-2.5,0.7l-2.7,0.4l-2.8,0.1l-2.7,-0.1l-2.7,-0.4l-2.6,-0.7l-2.5,-0.8L88,244.7l-2.2,-1.5l-2.1,-1.4l-2,-1.9L80,238.1l-1.5,-2l-1.4,-2.3l-1.2,-2.4L75,229l-0.7,-2.6l-0.4,-2.6L73.8,221l0.1,-2.8l0.4,-2.6L75,213l0.9,-2.4l1.2,-2.4L78.5,206L80,203.9L81.7,202l2,-1.7l2.1,-1.6L88,197.4l2.3,-1.1l2.5,-1l2.6,-0.6l2.7,-0.4l2.7,-0.2l2.8,0.2l2.7,0.4l2.5,0.6l2.6,1l2.3,1.1l2.2,1.3l2.1,1.6l1.9,1.7l1.7,1.9l1.6,2.1l1.4,2.2l1.1,2.4l0.9,2.4l0.6,2.6l0.5,2.6Z" class="g34_1" />
<path fill-rule="evenodd" d="M127.4,221l-0.2,2.7l-0.4,2.7l-0.7,2.4l-0.8,2.4l-1.2,2.3l-1.3,2.2l-1.5,2.1l-1.7,1.9l-1.9,1.7l-2,1.5l-2.2,1.3l-2.4,1.1l-2.4,0.8l-2.6,0.8l-2.5,0.3l-2.8,0.1l-2.7,-0.1l-2.6,-0.3L93,246.1l-2.5,-0.8l-2.3,-1.1L86,242.9l-2.1,-1.5l-1.8,-1.7l-1.7,-1.9l-1.6,-2.1l-1.3,-2.2l-1.1,-2.3l-0.9,-2.4l-0.7,-2.4l-0.4,-2.7L74.3,221l0.1,-2.7l0.4,-2.6l0.7,-2.6l0.9,-2.4l1.1,-2.3l1.3,-2.2l1.6,-1.9l1.7,-2l1.8,-1.7L86,199.2l2.2,-1.4l2.3,-1l2.5,-1l2.5,-0.6l2.6,-0.4l2.7,-0.1l2.8,0.1l2.5,0.4l2.6,0.6l2.4,1l2.4,1l2.2,1.4l2,1.4l1.9,1.7l1.7,2l1.5,1.9l1.3,2.2l1.2,2.3l0.8,2.4l0.7,2.6l0.4,2.6Z" class="g35_1" />
<path fill-rule="evenodd" d="M126.9,221l-0.3,2.7l-0.3,2.5l-0.6,2.5l-0.9,2.4l-1.1,2.3l-1.3,2.1l-1.5,2l-1.7,1.8l-1.8,1.6l-2,1.6l-2.2,1.2l-2.3,1.1l-2.3,1l-2.6,0.6l-2.5,0.3l-2.7,0.2l-2.6,-0.2l-2.7,-0.3l-2.4,-0.6l-2.4,-1l-2.2,-1.1l-2.2,-1.2l-2,-1.6l-1.8,-1.6l-1.7,-1.9l-1.5,-1.9L78,233.4l-1.1,-2.3L76,228.7l-0.7,-2.5l-0.4,-2.5L74.8,221l0.1,-2.7l0.4,-2.5L76,213.3l0.9,-2.4L78,208.6l1.3,-2l1.5,-2.1l1.7,-1.8L84.3,201l2,-1.5l2.2,-1.3l2.2,-1.1l2.4,-0.8l2.4,-0.6l2.7,-0.4l2.6,-0.1l2.7,0.1l2.5,0.4l2.6,0.6l2.3,0.8l2.3,1.1l2.2,1.3l2,1.5l1.8,1.7l1.7,1.8l1.5,2.1l1.3,2l1.1,2.3l0.9,2.4l0.6,2.5l0.3,2.5Z" class="g36_1" />
<path fill-rule="evenodd" d="M126.4,221l-0.3,2.6l-0.3,2.5l-0.6,2.4l-0.9,2.3l-1.1,2.3l-1.2,2.1l-1.5,1.9l-1.7,1.9l-1.8,1.5l-2,1.5l-2,1.3l-2.2,1.1l-2.3,0.9l-2.5,0.6l-2.5,0.3l-2.7,0.2l-2.6,-0.2l-2.5,-0.3l-2.5,-0.6l-2.3,-0.9l-2.2,-1.1L86.5,242l-1.9,-1.5L82.7,239l-1.6,-1.9l-1.4,-1.9l-1.4,-2.1l-0.9,-2.3l-0.9,-2.3l-0.7,-2.4l-0.4,-2.5L75.3,221l0.1,-2.7l0.4,-2.4l0.7,-2.4l0.9,-2.4l0.9,-2.2l1.4,-2.1l1.4,-1.9l1.6,-1.8l1.9,-1.6l1.9,-1.6l2.2,-1.2l2.2,-1.1l2.3,-0.8l2.5,-0.7l2.5,-0.3l2.6,-0.1l2.7,0.1l2.5,0.3l2.5,0.7l2.3,0.8l2.2,1.1l2,1.2l2,1.6l1.8,1.6l1.7,1.8l1.5,1.9l1.2,2.1l1.1,2.2l0.9,2.4l0.6,2.4l0.3,2.4Z" class="g37_1" />
<path fill-rule="evenodd" d="M125.8,221l-0.1,2.6l-0.4,2.4l-0.6,2.4l-0.9,2.3l-1,2.2l-1.3,2.1l-1.3,1.8l-1.7,1.8l-1.7,1.6l-2,1.4l-2.1,1.3l-2.2,1l-2.3,0.9l-2.3,0.6l-2.6,0.4l-2.5,0.1l-2.6,-0.1l-2.4,-0.4l-2.5,-0.6l-2.2,-0.9l-2.2,-1l-2,-1.3l-2,-1.4l-1.8,-1.6l-1.6,-1.8L80,235l-1.2,-2.1l-1.1,-2.2L77,228.4L76.4,226l-0.5,-2.4L75.8,221l0.1,-2.5L76.4,216L77,213.6l0.7,-2.3l1.1,-2.2l1.2,-2l1.5,-2l1.6,-1.7l1.8,-1.6l2,-1.4l2,-1.2l2.2,-1.1l2.2,-0.9l2.5,-0.6l2.4,-0.3l2.6,-0.2l2.5,0.2l2.6,0.3l2.3,0.6l2.3,0.9l2.2,1.1l2.1,1.2l2,1.4l1.7,1.6l1.7,1.7l1.3,2l1.3,2l1,2.2l0.9,2.3l0.6,2.4l0.4,2.5Z" class="g38_1" />
<path fill-rule="evenodd" d="M125.3,221l-0.1,2.4l-0.4,2.5l-0.6,2.4l-0.7,2.2l-1.1,2.2l-1.3,1.9l-1.4,1.9l-1.6,1.7l-1.7,1.6l-1.8,1.4l-2.1,1.3l-2.1,1l-2.3,0.8l-2.3,0.6l-2.5,0.4l-2.5,0.1l-2.5,-0.1l-2.4,-0.4l-2.3,-0.6l-2.3,-0.8l-2.1,-1l-2.1,-1.3l-1.8,-1.4l-1.8,-1.6l-1.6,-1.7l-1.4,-1.9l-1.2,-1.9l-1.1,-2.2l-0.8,-2.2l-0.5,-2.4l-0.5,-2.5L76.3,221l0.1,-2.5L76.9,216l0.5,-2.3l0.8,-2.1l1.1,-2.2l1.2,-2l1.4,-1.9l1.6,-1.7l1.8,-1.6l1.8,-1.4l2.1,-1.3l2.1,-0.9l2.3,-0.9l2.3,-0.6l2.4,-0.3l2.5,-0.2l2.5,0.2l2.5,0.3l2.3,0.6l2.3,0.9l2.1,0.9l2.1,1.3l1.8,1.4l1.7,1.6l1.6,1.7l1.4,1.9l1.3,2l1.1,2.2l0.7,2.1l0.6,2.3l0.4,2.5Z" class="g39_1" />
<path fill-rule="evenodd" d="M124.8,221l-0.1,2.4l-0.4,2.5l-0.6,2.2l-0.7,2.1l-1.1,2.2l-1.1,2l-1.5,1.8l-1.5,1.7l-1.7,1.6l-1.9,1.3l-2,1.2l-2,1l-2.2,0.8l-2.4,0.6l-2.4,0.4l-2.4,0.1l-2.5,-0.1L96,244.4l-2.3,-0.6L91.5,243l-2.1,-1l-2,-1.2l-1.9,-1.3l-1.7,-1.6l-1.6,-1.7l-1.3,-1.8l-1.2,-2l-1,-2.2l-0.9,-2.1l-0.4,-2.2L77,223.4L76.9,221L77,218.6l0.4,-2.4l0.4,-2.3l0.9,-2.2l1,-2.1l1.2,-1.9l1.3,-1.8l1.6,-1.7l1.7,-1.6l1.9,-1.4l2,-1.2l2.1,-1.1l2.2,-0.7L96,197.6l2.3,-0.4l2.5,-0.1l2.4,0.1l2.4,0.4l2.4,0.6l2.2,0.7l2,1.1l2,1.2l1.9,1.4l1.7,1.6l1.5,1.7l1.5,1.8l1.1,1.9l1.1,2.1l0.7,2.2l0.6,2.3l0.4,2.4Z" class="g40_1" />
<path fill-rule="evenodd" d="M124.3,221l-0.1,2.4l-0.4,2.3l-0.6,2.2l-0.7,2.2l-1,2.1l-1.2,1.9l-1.4,1.7l-1.4,1.7l-1.7,1.6l-1.9,1.3l-1.9,1.1l-2.1,1l-2.1,0.8l-2.3,0.6l-2.3,0.4l-2.4,0.1l-2.3,-0.1l-2.4,-0.4l-2.3,-0.6l-2.2,-0.8l-2,-1l-1.9,-1.1l-1.8,-1.3l-1.7,-1.6l-1.5,-1.7l-1.3,-1.7l-1.2,-1.9l-1,-2.1l-0.9,-2.2l-0.5,-2.2l-0.3,-2.3L77.4,221l0.1,-2.4l0.3,-2.3l0.5,-2.2l0.9,-2.2l1,-2l1.2,-2l1.3,-1.8l1.5,-1.6l1.7,-1.6l1.8,-1.3l1.9,-1.2l2,-1l2.2,-0.7l2.3,-0.6l2.4,-0.4l2.3,-0.1l2.4,0.1l2.3,0.4l2.3,0.6l2.1,0.7l2.1,1l1.9,1.2l1.9,1.3l1.7,1.6l1.4,1.6l1.4,1.8l1.2,2l1,2l0.7,2.2l0.6,2.2l0.4,2.3Z" class="g41_1" />
<path fill-rule="evenodd" d="M123.8,221l-0.1,2.3l-0.4,2.3l-0.5,2.2l-0.8,2.1l-1,2l-1.1,1.9l-1.3,1.8l-1.5,1.5l-1.7,1.5l-1.7,1.3l-2,1.3l-1.9,0.9l-2.2,0.8l-2.2,0.6l-2.2,0.3l-2.4,0.1l-2.3,-0.1l-2.4,-0.3l-2.2,-0.6l-2,-0.8l-2.1,-0.9L88,239.9l-1.9,-1.3l-1.5,-1.5l-1.5,-1.5l-1.4,-1.8l-1.2,-1.9l-0.8,-2l-0.9,-2.1l-0.5,-2.2L78,223.3L77.8,221L78,218.7l0.3,-2.3l0.5,-2.2L79.7,212l0.8,-1.9l1.2,-1.9l1.4,-1.7l1.5,-1.7l1.5,-1.5L88,202l1.8,-1.1l2.1,-1l2,-0.7l2.2,-0.6l2.4,-0.4l2.3,-0.1l2.4,0.1l2.2,0.4l2.2,0.6l2.2,0.7l1.9,1l2,1.1l1.7,1.3l1.7,1.5l1.5,1.7l1.3,1.7l1.1,1.9l1,1.9l0.8,2.2l0.5,2.2l0.4,2.3Z" class="g42_1" />
<path fill-rule="evenodd" d="M123.3,221l-0.1,2.3l-0.4,2.2l-0.4,2.2l-0.9,2.1l-0.8,1.9l-1.3,1.8l-1.2,1.7l-1.5,1.6l-1.5,1.4l-1.7,1.4l-2,1.1l-1.9,0.9l-2.1,0.8l-2.1,0.6l-2.3,0.2l-2.3,0.1l-2.3,-0.1L96.3,243l-2.2,-0.6l-2,-0.8L90,240.7l-1.8,-1.1l-1.7,-1.4l-1.6,-1.4l-1.4,-1.6l-1.4,-1.7L81,231.7l-1,-1.9l-0.7,-2.1l-0.5,-2.2l-0.3,-2.2L78.3,221l0.2,-2.3l0.3,-2.2l0.5,-2.2l0.7,-2l1,-2l1.1,-1.8l1.4,-1.8l1.4,-1.6l1.6,-1.4l1.7,-1.2L90,201.4l2.1,-1l2,-0.7l2.2,-0.6l2.2,-0.4l2.3,-0.1l2.3,0.1l2.3,0.4l2.1,0.6l2.1,0.7l1.9,1l2,1.1l1.7,1.2l1.5,1.4l1.5,1.6l1.2,1.8l1.3,1.8l0.8,2l0.9,2l0.4,2.2l0.4,2.2Z" class="g43_1" />
<path fill-rule="evenodd" d="M122.8,221l-0.1,2.2l-0.3,2.2l-0.5,2.2l-0.8,1.9l-0.9,1.9l-1.1,1.9l-1.3,1.7l-1.4,1.4l-1.6,1.5l-1.7,1.3l-1.8,1.1l-1.9,0.9l-2,0.7l-2.1,0.6l-2.2,0.2l-2.3,0.2l-2.2,-0.2l-2.2,-0.2l-2.1,-0.6l-2.1,-0.7l-1.9,-0.9l-1.8,-1.1l-1.6,-1.3l-1.6,-1.5L83.8,235l-1.2,-1.7l-1.1,-1.9l-1,-1.9l-0.7,-1.9l-0.5,-2.2l-0.4,-2.2L78.8,221l0.1,-2.3l0.4,-2.1l0.5,-2.1l0.7,-2l1,-1.9l1.1,-1.8l1.2,-1.7l1.5,-1.6l1.6,-1.3l1.6,-1.4l1.8,-1.1l1.9,-0.8l2.1,-0.7l2.1,-0.7l2.2,-0.3l2.2,-0.1l2.3,0.1l2.2,0.3l2.1,0.7l2,0.7l1.9,0.8l1.8,1.1l1.7,1.4l1.6,1.3l1.4,1.6l1.3,1.7l1.1,1.8l0.9,1.9l0.8,2l0.5,2.1l0.3,2.1Z" class="g44_1" />
<path fill-rule="evenodd" d="M122.4,221l-0.2,2.2l-0.3,2.1l-0.5,2l-0.7,2.1l-1,1.8l-1,1.7l-1.3,1.7l-1.4,1.6l-1.4,1.3l-1.8,1.2l-1.8,1.1l-1.8,0.9l-2,0.7l-2,0.6l-2.2,0.2l-2.2,0.2l-2.2,-0.2L96.5,242l-2.1,-0.6l-1.9,-0.7l-2,-0.9l-1.7,-1.1l-1.7,-1.2l-1.5,-1.3l-1.4,-1.6L83,232.9l-1.1,-1.7L81,229.4l-0.7,-2.1l-0.5,-2l-0.4,-2.1L79.3,221l0.1,-2.2l0.4,-2.2l0.5,-2l0.7,-2l0.9,-1.8L83,209l1.2,-1.6l1.4,-1.5l1.5,-1.4l1.7,-1.2l1.7,-1.1l2,-1l1.9,-0.7L96.5,200l2.1,-0.3l2.2,-0.2l2.2,0.2l2.2,0.3l2,0.5l2,0.7l1.8,1l1.8,1.1l1.8,1.2l1.4,1.4l1.4,1.5l1.3,1.6l1,1.8l1,1.8l0.7,2l0.5,2l0.3,2.2Z" class="g45_1" />
<path fill-rule="evenodd" d="M121.9,221l-0.1,2.1l-0.4,2.2l-0.5,1.9l-0.7,1.9l-2,3.6l-1.2,1.5l-1.3,1.6l-1.5,1.3l-1.6,1.3l-1.8,0.9l-1.9,1l-1.8,0.6l-2.1,0.6l-2,0.3l-2.2,0.1l-2.1,-0.1l-2.1,-0.3l-2,-0.6l-2,-0.6l-3.5,-1.9l-1.6,-1.3L86,235.8l-1.4,-1.6l-1.3,-1.5L82.4,231l-0.9,-1.9l-0.7,-1.9l-0.5,-1.9l-0.4,-2.2L79.8,221l0.1,-2.2l0.4,-2l0.5,-2l0.7,-1.9l1.8,-3.5l1.3,-1.7L86,206.2l1.5,-1.3l1.6,-1.2l1.7,-1.1l1.8,-0.9l2,-0.7l2,-0.5l2.1,-0.3l2.1,0l2.2,0l2,0.3l2.1,0.5l1.8,0.7l1.9,0.9l1.8,1.1l1.6,1.2l1.5,1.3l1.3,1.5l1.2,1.7l1.1,1.7l0.9,1.8l0.7,1.9l0.5,2l0.4,2Z" class="g46_1" />
<path fill-rule="evenodd" d="M121.4,221l-0.1,2.1l-0.4,2l-0.5,2l-0.7,1.8l-1.9,3.5l-1.2,1.6l-1.3,1.5l-1.5,1.3l-1.6,1.1l-1.5,1.1l-1.9,0.8l-1.9,0.7l-2,0.5l-1.9,0.3l-2.2,0.1l-2.1,-0.1L96.6,241l-1.9,-0.5l-1.9,-0.7l-3.5,-1.9l-1.6,-1.1l-1.4,-1.3L85,234l-1.2,-1.6l-1.1,-1.7l-0.8,-1.8l-0.6,-1.8l-0.5,-2l-0.4,-2L80.3,221l0.1,-2l0.4,-2.1L81.3,215l0.6,-2l1.9,-3.4L85,208l1.3,-1.4l1.4,-1.4L89.3,204L91,203.1l1.8,-0.9l1.9,-0.7L96.6,201l2.1,-0.2l2.1,-0.2l2.2,0.2l1.9,0.2l2,0.5l1.9,0.7l3.4,1.8l1.6,1.2l1.5,1.4l1.3,1.4l1.2,1.6l1,1.7l0.9,1.7l0.7,2l0.5,1.9l0.4,2.1Z" class="g47_1" />
<path fill-rule="evenodd" d="M120.8,221l0,2.1l-0.4,1.9l-1.1,3.8l-1.9,3.4l-2.5,2.9l-1.3,1.3l-1.6,1.1l-1.6,1l-1.8,0.8l-1.9,0.8l-1.9,0.4l-2,0.3l-2,0.1l-2,-0.1l-2.1,-0.3L93,239.3l-3.3,-1.8l-3.1,-2.4l-1.2,-1.5l-1.2,-1.4l-1,-1.7l-0.8,-1.7L81.7,227l-0.4,-2l-0.4,-1.9L80.8,221l0.1,-2l0.4,-2l1.1,-3.7l1.8,-3.4l2.4,-3l1.5,-1.3l1.6,-1.1l1.6,-1L93,202.7L94.9,202l1.8,-0.5l2.1,-0.3l2,-0.1l2,0.1l2,0.3l3.8,1.2l3.4,1.8l2.9,2.4l1.4,1.4l1.1,1.6l1.1,1.7l0.8,1.7l0.6,1.8l0.5,1.9l0.4,2Z" class="g48_1" />
<path fill-rule="evenodd" d="M120.3,221l0,2l-0.4,1.9l-1.1,3.6l-1.8,3.3l-2.3,2.9l-3,2.4l-1.5,1l-1.7,0.7l-1.9,0.8l-1.8,0.5l-2,0.2l-2,0.1l-2,-0.1l-1.9,-0.2l-3.7,-1.3l-3.3,-1.7L87,234.7l-2.3,-2.9l-1,-1.6l-0.9,-1.7l-0.6,-1.8l-0.5,-1.8L81.4,223l-0.1,-2l0.1,-1.9l0.3,-2l1.1,-3.6l1.9,-3.4L87,207.3l2.9,-2.4l1.6,-1l1.7,-0.8L95,202.5L96.9,202l1.9,-0.3l2,-0.1l2,0.1l2,0.3l3.7,1.1l3.2,1.8l3,2.4l2.3,2.8l1,1.7l0.8,1.7l0.6,1.7l0.5,1.9l0.4,2Z" class="g49_1" />
<path fill-rule="evenodd" d="M119.8,221l-0.4,3.8l-1.1,3.6l-1.7,3.2l-2.3,2.8l-2.8,2.3l-3.3,1.8l-3.5,1.1l-2,0.2l-1.9,0.1L97,239.6l-3.5,-1.1l-3.3,-1.8l-2.8,-2.3L85,231.6l-1.7,-3.2l-1.1,-3.6L81.9,223l-0.2,-2l0.5,-3.9l1.1,-3.5L85,210.5l2.4,-2.8l2.8,-2.3l3.3,-1.9l3.5,-1l1.8,-0.3l2,-0.1l3.9,0.4l3.5,1l3.3,1.9l2.8,2.3l2.3,2.8l1.7,3.1l1.1,3.5l0.4,2Z" class="g50_1" />
<path fill-rule="evenodd" d="M119.3,221l-0.4,3.7l-1.1,3.5l-1.7,3.1l-2.2,2.7l-2.8,2.3L108,238l-3.4,1.1l-1.9,0.2l-1.9,0.2l-3.7,-0.4L93.6,238l-3.2,-1.7L87.7,234l-2.3,-2.7l-1.7,-3.1l-1,-3.5l-0.3,-1.9l0,-1.8l0.3,-3.7l1,-3.4l1.7,-3.2l2.3,-2.8l2.7,-2.2L93.6,204l3.5,-1.1l1.8,-0.2l1.9,-0.1l3.8,0.3L108,204l3.1,1.7l2.8,2.2l2.2,2.8l1.7,3.2l1.1,3.4l0.3,1.8Z" class="g51_1" />
<path fill-rule="evenodd" d="M118.8,221l-0.3,3.7l-1,3.2l-1.7,3.1l-2.2,2.6l-2.7,2.2l-3.1,1.7l-3.4,1.1l-1.8,0.2l-1.8,0.2l-3.6,-0.4l-3.4,-1.1l-3,-1.7l-2.7,-2.2L85.9,231l-1.7,-3.1l-1,-3.2l-0.4,-1.9l0,-1.8l0.4,-3.6l1,-3.4l1.7,-3.1l2.2,-2.6l2.7,-2.2l3,-1.6l3.4,-1.1l1.7,-0.2l1.9,-0.1l3.6,0.3l3.4,1.1l3.1,1.6l2.7,2.2l2.2,2.6l1.7,3.1l1,3.4l0.2,1.8Z" class="g52_1" />
<path fill-rule="evenodd" d="M118.3,221l-0.3,3.5l-1,3.3l-1.7,2.9l-2.1,2.6l-2.6,2.2l-3,1.5l-3.3,1.1l-1.7,0.3l-1.8,0.1l-3.6,-0.4L93.9,237L91,235.5l-2.5,-2.2l-2.2,-2.6l-1.6,-2.9l-1,-3.3l-0.4,-1.7l0,-1.8l0.4,-3.5l1,-3.3l1.6,-2.9l2.2,-2.7l2.5,-2l2.9,-1.7l3.3,-1l1.9,-0.2l1.7,-0.2l3.5,0.4l3.3,1l3,1.7l2.6,2l2.2,2.7l1.6,2.9l1,3.3l0.2,1.7Z" class="g53_1" />
<path fill-rule="evenodd" d="M117.8,221l-0.3,3.4l-1,3.2l-1.6,2.9l-2.1,2.5l-2.5,2.1l-2.8,1.4l-3.3,1.1l-3.4,0.3l-3.4,-0.3l-3.2,-1.1l-2.9,-1.4L88.8,233l-2.1,-2.5l-1.5,-2.9l-1,-3.2L83.8,221l0.4,-3.4l1,-3.1l1.5,-2.9L88.8,209l2.5,-2.1l2.9,-1.5l3.2,-1l3.4,-0.4l3.4,0.4l3.3,1l2.8,1.5l2.5,2.1l2.1,2.6l1.6,2.9l1,3.1Z" class="g54_1" />
<path fill-rule="evenodd" d="M117.4,221l-0.4,3.3l-1,3.1l-1.4,2.8l-2.1,2.5l-2.5,1.9l-2.8,1.6l-3,0.9l-3.4,0.3l-3.3,-0.3l-3.1,-0.9l-2.8,-1.6l-2.4,-1.9l-2.1,-2.5l-1.5,-2.8l-0.9,-3.1L84.3,221l0.4,-3.3l0.9,-3.1l1.5,-2.8l2.1,-2.4l2.4,-2l2.8,-1.5l3.1,-1l3.3,-0.4l3.4,0.4l3,1l2.8,1.5l2.5,2l2.1,2.4l1.4,2.8l1,3.1Z" class="g55_1" />
<path fill-rule="evenodd" d="M116.9,221l-0.4,3.2l-1,3l-1.4,2.7l-2,2.4l-2.3,1.9l-2.7,1.5l-3,1l-3.3,0.2l-3.2,-0.2l-3,-1l-2.7,-1.5l-2.5,-1.9l-1.9,-2.4L86,227.2l-0.8,-3L84.8,221l0.4,-3.3L86,214.8L87.5,212l1.9,-2.3l2.5,-1.9l2.7,-1.5l3,-0.9l3.2,-0.4l3.3,0.4l3,0.9l2.7,1.5l2.3,1.9l2,2.3l1.4,2.8l1,2.9Z" class="g55_1" />
<path fill-rule="evenodd" d="M116.4,221l-0.4,3.2l-0.8,2.8l-1.5,2.6l-2,2.3l-2.1,1.9l-2.7,1.4l-3,1l-3.1,0.2l-3.1,-0.2l-2.9,-1l-2.7,-1.4l-2.3,-1.9L88,229.6L86.5,227l-0.9,-2.8L85.3,221l0.3,-3.1L86.5,215L88,212.4l1.8,-2.3l2.3,-1.9l2.7,-1.4l2.9,-0.9l3.1,-0.3l3.1,0.3l3,0.9l2.7,1.4l2.1,1.9l2,2.3l1.5,2.6l0.8,2.9Z" class="g56_1" />
<path fill-rule="evenodd" d="M115.9,221l-0.4,3l-0.8,2.8l-1.4,2.6l-1.9,2.2l-2.2,1.8l-2.6,1.3l-2.8,1l-3,0.2l-3,-0.2l-2.9,-1l-2.5,-1.3l-2.2,-1.8l-1.9,-2.2L87,226.8L86.1,224l-0.3,-3l0.3,-3L87,215.2l1.3,-2.6l1.9,-2.1l2.2,-1.9l2.5,-1.4l2.9,-0.9l3,-0.2l3,0.2l2.8,0.9l2.6,1.4l2.2,1.9l1.9,2.1l1.4,2.6l0.8,2.8Z" class="g57_1" />
<path fill-rule="evenodd" d="M115.4,221l-0.4,2.9l-0.8,2.7l-1.4,2.4l-1.7,2.2l-2.2,1.8l-2.4,1.4l-2.8,0.8l-2.9,0.3l-3,-0.3l-2.6,-0.8L92.7,233l-2.2,-1.8L88.8,229l-1.3,-2.4l-0.9,-2.7L86.3,221l0.3,-2.9l0.9,-2.7l1.3,-2.5l1.7,-2.1L92.7,209l2.5,-1.3l2.6,-0.9l3,-0.2l2.9,0.2l2.8,0.9l2.4,1.3l2.2,1.8l1.7,2.1l1.4,2.5l0.8,2.7Z" class="g57_1" />
<path fill-rule="evenodd" d="M114.9,221l-0.3,2.8l-0.8,2.7l-1.3,2.3l-1.7,2l-2.1,1.7l-2.4,1.4l-2.6,0.8l-2.9,0.3L98,234.7l-2.6,-0.8L93,232.5l-2.1,-1.7l-1.7,-2l-1.4,-2.3L87,223.8L86.7,221L87,218.2l0.8,-2.6l1.4,-2.5l1.7,-2L93,209.4l2.4,-1.2L98,207.3l2.8,-0.2l2.9,0.2l2.6,0.9l2.4,1.2l2.1,1.7l1.7,2l1.3,2.5l0.8,2.6Z" class="g58_1" />
<path fill-rule="evenodd" d="M114.4,221l-0.3,2.7l-0.8,2.5l-1.2,2.3l-1.7,2.1l-1.9,1.6l-2.4,1.2l-2.5,0.8l-2.8,0.3l-2.7,-0.3l-2.6,-0.8l-2.3,-1.2l-1.9,-1.6l-1.7,-2.1l-1.3,-2.3l-0.8,-2.5L87.2,221l0.3,-2.8l0.8,-2.4l1.3,-2.3l1.7,-2.1l1.9,-1.5l2.3,-1.4l2.6,-0.7l2.7,-0.3l2.8,0.3l2.5,0.7l2.4,1.4l1.9,1.5l1.7,2.1l1.2,2.3l0.8,2.4Z" class="g58_1" />
<path fill-rule="evenodd" d="M113.9,221l-0.2,2.7l-0.9,2.4l-1.2,2.2l-1.6,1.9l-1.9,1.6l-2.2,1.2l-2.4,0.8l-2.7,0.2l-2.6,-0.2L95.8,233l-2.3,-1.2l-2,-1.6l-1.6,-1.9l-1.2,-2.2L88,223.7L87.7,221L88,218.3l0.7,-2.4l1.2,-2.2l1.6,-1.9l2,-1.6L95.8,209l2.4,-0.7l2.6,-0.4l2.7,0.4l2.4,0.7l2.2,1.2l1.9,1.6l1.6,1.9l1.2,2.2l0.9,2.4Z" class="g59_1" />
<path fill-rule="evenodd" d="M113.5,221l-0.3,2.6l-0.7,2.3l-1.2,2.2l-1.5,1.8l-2,1.5l-2,1.1l-2.5,0.8l-2.5,0.2l-2.5,-0.2l-2.4,-0.8l-2.2,-1.1l-1.8,-1.5l-1.5,-1.8l-1.2,-2.2l-0.7,-2.3L88.2,221l0.3,-2.5l0.7,-2.3L90.4,214l1.5,-1.8l1.8,-1.6l2.2,-1.2l2.4,-0.8l2.5,-0.2l2.5,0.2l2.5,0.8l2,1.2l2,1.6l1.5,1.8l1.2,2.2l0.7,2.3Z" class="g60_1" />
<path fill-rule="evenodd" d="M113,221l-0.3,2.4l-0.7,2.3l-1.1,2.1l-1.5,1.7l-1.8,1.5l-2.1,1.2l-2.3,0.6l-2.4,0.2l-2.5,-0.2l-2.2,-0.6l-2,-1.2l-1.9,-1.5l-1.4,-1.7l-1.1,-2.1l-0.8,-2.3L88.7,221l0.2,-2.4l0.8,-2.3l1.1,-2.1l1.4,-1.8l1.9,-1.5l2,-1l2.2,-0.8l2.5,-0.2l2.4,0.2l2.3,0.8l2.1,1l1.8,1.5l1.5,1.8l1.1,2.1l0.7,2.3Z" class="g61_1" />
<path fill-rule="evenodd" d="M112.5,221l-0.3,2.3l-0.6,2.2l-1.1,1.9l-1.4,1.9l-1.7,1.3l-2,1.1l-2.2,0.7l-2.4,0.3l-2.3,-0.3l-2.2,-0.7l-2,-1.1l-1.7,-1.3l-1.5,-1.9L90,225.5l-0.6,-2.2L89.2,221l0.2,-2.3L90,216.5l1.1,-2l1.5,-1.7l1.7,-1.4l2,-1.1l2.2,-0.7l2.3,-0.2l2.4,0.2l2.2,0.7l2,1.1l1.7,1.4l1.4,1.7l1.1,2l0.6,2.2Z" class="g62_1" />
<path fill-rule="evenodd" d="M112,221l-0.3,2.2l-0.6,2.2l-1.1,1.8l-1.3,1.7l-1.6,1.3l-1.9,1l-2.1,0.7l-2.3,0.3l-2.2,-0.3l-2.1,-0.7l-1.9,-1l-1.8,-1.3l-1.3,-1.7l-1,-1.8l-0.7,-2.2L89.7,221l0.1,-2.3l0.7,-2.1l1,-1.8l1.3,-1.7l1.8,-1.3l1.9,-1.1l2.1,-0.6l2.2,-0.2l2.3,0.2l2.1,0.6l1.9,1.1l1.6,1.3l1.3,1.7l1.1,1.8l0.6,2.1Z" class="g62_1" />
<path fill-rule="evenodd" d="M111.5,221l-0.2,2.2l-0.6,1.9l-1,1.9l-1.2,1.5l-1.6,1.4l-1.9,0.9l-2,0.6l-2.2,0.3l-2.1,-0.3l-2.1,-0.6l-1.8,-0.9l-1.6,-1.4L91.9,227l-1,-1.9l-0.6,-1.9L90,221l0.3,-2.2l0.6,-1.9l1,-1.8l1.3,-1.6l1.6,-1.3l1.8,-1l2.1,-0.6l2.1,-0.3l2.2,0.3l2,0.6l1.9,1l1.6,1.3l1.2,1.6l1,1.8l0.6,1.9Z" class="g63_1" />
<path fill-rule="evenodd" d="M111,221l-0.1,2.1l-0.6,1.9l-1,1.7l-1.2,1.5l-1.6,1.3l-1.7,0.9l-2,0.6l-2,0.2L98.7,231l-1.8,-0.6L95,229.5l-1.4,-1.3l-1.2,-1.5l-1,-1.7l-0.6,-1.9L90.5,221l0.3,-2l0.6,-2l1,-1.7l1.2,-1.6L95,212.5l1.9,-0.9l1.8,-0.5l2.1,-0.3l2,0.3l2,0.5l1.7,0.9l1.6,1.2l1.2,1.6l1,1.7l0.6,2Z" class="g64_1" />
<path fill-rule="evenodd" d="M110.5,221l-0.1,2l-0.6,1.8l-0.9,1.7l-1.2,1.3l-1.4,1.2l-1.6,1l-1.9,0.5l-2,0.2l-2,-0.2L97,230l-1.6,-1l-1.5,-1.2l-1.2,-1.3l-0.8,-1.7L91.3,223L91,221l0.3,-1.9l0.6,-1.8l0.8,-1.7l1.2,-1.5l1.5,-1.2L97,212l1.8,-0.6l2,-0.1l2,0.1l1.9,0.6l1.6,0.9l1.4,1.2l1.2,1.5l0.9,1.7l0.6,1.8Z" class="g65_1" />
<path fill-rule="evenodd" d="M110.2,221l-0.3,1.8l-0.5,1.9l-0.8,1.4l-1.2,1.5l-1.4,1.1l-1.6,0.8l-1.7,0.6l-1.9,0.1l-1.9,-0.1l-1.7,-0.6l-1.5,-0.8l-1.5,-1.1l-1.1,-1.5l-0.9,-1.4l-0.5,-1.9L91.5,221l0.2,-1.8l0.5,-1.8l0.9,-1.6l1.1,-1.3l1.5,-1.1l1.5,-0.9l1.7,-0.6l1.9,-0.1l1.9,0.1l1.7,0.6l1.6,0.9l1.4,1.1l1.2,1.3l0.8,1.6l0.5,1.8Z" class="g66_1" />
<path fill-rule="evenodd" d="M109.7,221l-0.3,1.7l-0.5,1.7l-0.8,1.5l-1.1,1.3l-1.2,1.1l-1.5,0.7l-1.7,0.6l-1.8,0.2l-1.7,-0.2L97.4,229l-1.5,-0.7l-1.3,-1.1l-1.1,-1.3l-0.8,-1.5l-0.5,-1.7L92,221l0.2,-1.8l0.5,-1.6L93.5,216l1.1,-1.2l1.3,-1.1l1.5,-0.8l1.7,-0.5l1.7,-0.1l1.8,0.1l1.7,0.5l1.5,0.8l1.2,1.1l1.1,1.2l0.8,1.6l0.5,1.6Z" class="g67_1" />
<path fill-rule="evenodd" d="M109.2,221l-0.3,1.7l-0.4,1.5l-0.8,1.4l-1,1.2l-1.2,1.1l-1.4,0.8l-1.6,0.4l-1.7,0.2l-1.6,-0.2l-1.6,-0.4l-1.5,-0.8l-1.2,-1.1l-1,-1.2l-0.8,-1.4l-0.5,-1.5L92.5,221l0.1,-1.7l0.5,-1.6l0.8,-1.3l1,-1.2l1.2,-1.1l1.5,-0.7l1.6,-0.5l1.6,-0.3l1.7,0.3l1.6,0.5l1.4,0.7l1.2,1.1l1,1.2l0.8,1.3l0.4,1.6Z" class="g68_1" />
<path fill-rule="evenodd" d="M108.7,221l-0.1,1.6l-0.5,1.4l-0.7,1.4l-1,1.1l-1.2,0.9l-1.4,0.8l-1.4,0.5l-1.6,0.1l-1.6,-0.1l-1.5,-0.5l-1.3,-0.8l-1.1,-0.9l-1,-1.1L93.6,224l-0.5,-1.4L93,221l0.1,-1.6L93.6,218l0.7,-1.4l1,-1.2l1.1,-0.9l1.3,-0.8l1.5,-0.3l1.6,-0.3l1.6,0.3l1.4,0.3l1.4,0.8l1.2,0.9l1,1.2l0.7,1.4l0.5,1.4Z" class="g69_1" />
<path fill-rule="evenodd" d="M108.2,221l-0.1,1.5l-0.5,1.3l-0.6,1.3l-1,1.1l-1.1,0.9l-1.2,0.7l-1.3,0.4l-1.6,0.1l-1.5,-0.1L98,227.8l-1.4,-0.7l-0.9,-0.9l-1,-1.1l-0.6,-1.3l-0.5,-1.3L93.5,221l0.1,-1.4l0.5,-1.5l0.6,-1.2l1,-1.1L96.6,215L98,214.2l1.3,-0.3l1.5,-0.3l1.6,0.3l1.3,0.3l1.2,0.8l1.1,0.8l1,1.1l0.6,1.2l0.5,1.5Z" class="g70_1" />
<path fill-rule="evenodd" d="M107.7,221l-0.1,1.4l-0.4,1.3l-0.7,1.2l-0.8,1l-1,0.8l-1.2,0.6l-1.3,0.4l-1.4,0.2l-1.4,-0.2l-1.3,-0.4L97,226.7l-1.1,-0.8l-0.9,-1l-0.6,-1.2l-0.3,-1.3L93.9,221l0.2,-1.4l0.3,-1.3L95,217.1l0.9,-0.9L97,215.3l1.1,-0.6l1.3,-0.5l1.4,-0.1l1.4,0.1l1.3,0.5l1.2,0.6l1,0.9l0.8,0.9l0.7,1.2l0.4,1.3Z" class="g71_1" />
<path fill-rule="evenodd" d="M107.2,221l-0.1,1.4l-0.4,1l-0.6,1.1l-0.7,1l-1,0.9l-1.1,0.4l-1.2,0.5l-1.3,0.1l-1.2,-0.1l-1.3,-0.5l-1.1,-0.4l-0.9,-0.9l-0.8,-1l-0.6,-1.1l-0.3,-1L94.4,221l0.2,-1.3l0.3,-1.2l0.6,-1.1l0.8,-0.9l0.9,-0.8l1.1,-0.6l1.3,-0.4l1.2,-0.1l1.3,0.1l1.2,0.4l1.1,0.6l1,0.8l0.7,0.9l0.6,1.1l0.4,1.2Z" class="g72_1" />
<path fill-rule="evenodd" d="M106.7,221l-0.1,1.2l-0.3,1.1l-0.5,1l-0.8,0.8l-0.8,0.8l-1.1,0.6l-1.1,0.3l-1.2,0.2l-1.1,-0.2l-1.2,-0.3l-1,-0.6l-0.9,-0.8l-0.7,-0.8l-0.6,-1l-0.4,-1.1l0,-1.2l0,-1.2l0.4,-1.1l0.6,-1l0.7,-0.9L97.5,216l1,-0.4l1.2,-0.4l1.1,-0.1l1.2,0.1l1.1,0.4l1.1,0.4l0.8,0.8l0.8,0.9l0.5,1l0.3,1.1Z" class="g73_1" />
<path fill-rule="evenodd" d="M106.3,221l-0.2,1.1l-0.2,1l-0.5,0.9l-0.7,0.9l-0.8,0.6L103,226l-1.1,0.4l-1.1,0.1l-1.1,-0.1l-1,-0.4l-1,-0.5L97,224.9L96.3,224l-0.5,-0.9l-0.4,-1L95.3,221l0.1,-1.1l0.4,-1.1L96.3,218L97,217.1l0.7,-0.6l1,-0.6l1,-0.2l1.1,-0.1l1.1,0.1l1.1,0.2l0.9,0.6l0.8,0.6l0.7,0.9l0.5,0.8l0.2,1.1Z" class="g74_1" />
<path fill-rule="evenodd" d="M105.8,221l0,1l-0.4,1l-1.1,1.5l-1.6,1.1l-0.8,0.3l-1.1,0.1l-1,-0.1l-1,-0.3l-1.6,-1.1l-0.6,-0.7L96.3,223l-0.4,-1l-0.1,-1l0.1,-1l0.4,-0.9l0.9,-1.6L98,216.9l0.8,-0.5l1,-0.2l1,-0.2l1.1,0.2l0.8,0.2l1.6,1.1l0.6,0.7l0.5,0.9l0.4,0.9Z" class="g75_1" />
<path fill-rule="evenodd" d="M105.4,221l-0.4,1.7l-0.9,1.5l-1.5,0.9l-1.8,0.4l-1.7,-0.4l-1.5,-0.9l-1,-1.5L96.3,221l0.3,-1.8l1,-1.3l1.5,-1l1.7,-0.4l1.8,0.4l1.5,1l0.9,1.3Z" class="g76_1" />
<path fill-rule="evenodd" d="M104.9,221l-0.3,1.6l-0.9,1.2l-1.3,1l-1.6,0.2l-1.6,-0.2l-1.2,-1l-0.9,-1.2L96.7,221l0.4,-1.6L98,218.1l1.2,-0.8l1.6,-0.3l1.6,0.3l1.3,0.8l0.9,1.3Z" class="g77_1" />
<path fill-rule="evenodd" d="M104.4,221l-0.3,1.4l-0.8,1.2l-1.1,0.7l-1.4,0.2l-1.4,-0.2l-1.1,-0.7l-0.8,-1.2L97.2,221l0.3,-1.4l0.8,-1.1l1.1,-0.8l1.4,-0.2l1.4,0.2l1.1,0.8l0.8,1.1Z" class="g78_1" />
<path fill-rule="evenodd" d="M103.9,221l-0.2,1.2l-0.7,1l-1,0.6l-1.2,0.2l-1.2,-0.2l-1,-0.6l-0.6,-1L97.7,221L98,219.8l0.6,-1l1,-0.7l1.2,-0.2l1.2,0.2l1,0.7l0.7,1Z" class="g79_1" />
<path fill-rule="evenodd" d="M103.5,221l-0.3,1l-0.5,0.8l-0.8,0.6l-1.1,0.2l-1,-0.2l-0.9,-0.6L98.5,222l-0.3,-1l0.3,-1.1l0.4,-0.7l0.9,-0.6l1,-0.3l1.1,0.3l0.8,0.6l0.5,0.7Z" class="g80_1" />
<path fill-rule="evenodd" d="M103,221l-0.2,0.9l-0.4,0.6l-0.8,0.5l-0.8,0.2L99.9,223l-0.6,-0.5l-0.5,-0.6L98.7,221l0.1,-0.8l0.5,-0.8l0.7,-0.3l0.8,-0.3l0.8,0.3l0.8,0.3l0.4,0.8Z" class="g81_1" />
<path fill-rule="evenodd" d="M102.5,221l-0.1,0.6l-0.4,0.6l-0.5,0.4l-0.7,0.1l-0.6,-0.1l-0.5,-0.4l-0.4,-0.6L99.2,221l0.1,-0.6l0.4,-0.6l0.5,-0.4l0.6,-0.1l0.7,0.1l0.5,0.4l0.4,0.6Z" class="g81_1" />
<path fill-rule="evenodd" d="M102,221l-0.4,0.9l-0.8,0.3l-0.9,-0.3L99.7,221l0.2,-0.8l0.9,-0.4l0.8,0.4Z" class="g82_1" />
<path d="M100.5,221.5l0,-1" class="g83_1" />
<path fill-rule="evenodd" d="M108.9,215.3l-1.5,-2l-1.6,-1.8l-1.6,-1.7l-1.8,-1.6l-1.9,-1.5l-1.9,-1.4l-2,-1.3l-2.1,-1.1l-2.2,-1.1l-2.2,-0.9l-2.3,-0.8l-2.4,-0.7l-2.3,-0.6l-2.5,-0.5L78.1,198l-2.5,-0.2l-2.5,-0.2l-2.6,0l-2.6,0.1L65.2,198l-1.9,0.2l-1.2,2l-0.3,0.5l1.1,-0.2l2.6,-0.3L68,200l2.5,-0.2l2.5,0l2.5,0.2l2.4,0.2l2.3,0.3l2.4,0.5l2.3,0.5l2.2,0.7l2.2,0.8l2.1,0.8l2.1,1l2,1.1l1.9,1.2l1.8,1.3l1.8,1.4l1.6,1.6l1.6,1.6l1.5,1.7l1.4,1.9l0,-0.1Z" class="g1_1" />
<path fill-rule="evenodd" d="M109.1,264l1,-2l1.2,-2.3l1,-2.4l0.9,-2.4l0.7,-2.5l0.7,-2.4l0.5,-2.4l0.4,-2.5l0.3,-2.4l0.1,-2.5l0.1,-2.4l-0.1,-2.4L115.6,233l-0.3,-2.3l-0.5,-2.3l-0.7,-2.3l-0.7,-2.3l-1,-2.2l-1,-2.2l-1.2,-2.1l-1.3,-2l-1.8,1.2l1.2,2l1.1,2l1,2l0.9,2.1l0.7,2.1l0.6,2.2l0.5,2.2l0.3,2.2l0.2,2.3l0.1,2.3l0,2.3l-0.1,2.3l-0.3,2.3l-0.4,2.4l-0.5,2.3l-0.6,2.3l-0.7,2.4l-0.9,2.3l-1,2.3l-1,2.3l-1.2,2.2l-0.7,1.1Z" class="g1_1" />
<path fill-rule="evenodd" d="M99.2,221.6l-1.6,-2.2l-1.7,-2l-1.8,-1.9l-1.9,-1.8L90.3,212l-2.1,-1.6l-2.1,-1.5l-2.2,-1.4l-2.3,-1.2l-2.3,-1.1l-2.4,-1l-2.4,-0.9l-2.4,-0.8l-2.6,-0.6L67,201.4L64.4,201l-2.5,-0.3l-1.1,2.1l0.8,0.1l2.5,0.3l2.5,0.3L69,204l2.4,0.7l2.4,0.7l2.3,0.8l2.3,1l2.2,1.1l2.2,1.1l2.1,1.3l2,1.4l2,1.6l1.8,1.6l1.8,1.7l1.8,1.9l1.6,1.9l1.5,2.1Z" class="g1_1" />
<path fill-rule="evenodd" d="M105.8,264.5l0.3,-0.8l0.6,-2.6l0.5,-2.5l0.4,-2.6l0.2,-2.5l0.2,-2.6l0,-2.6l-0.2,-2.5l-0.2,-2.6l-0.4,-2.5l-0.5,-2.5L106,235.7l-0.8,-2.5l-0.9,-2.4l-1,-2.4l-1.2,-2.3l-1.4,-2.3l-1.5,-2.2l-1.8,1.3l1.4,2.1l1.3,2.2l1.1,2.2l1.1,2.3l0.8,2.3l0.8,2.3l0.6,2.4l0.5,2.4l0.4,2.4l0.2,2.4l0.1,2.5l0,2.5l-0.1,2.4l-0.2,2.5l-0.4,2.4l-0.5,2.5l-0.6,2.4l-0.5,1.6l1.9,-0.1Z" class="g1_1" />
<path fill-rule="evenodd" d="M83.4,232.3l-2.5,-3.5l-2.6,-3.5L75.6,222L73,218.8l-2.7,-3.1l-2.8,-2.9l-2.7,-2.9L62,207.2l-2.2,-2L59,207.5l1.5,1.3l2.7,2.7l2.7,2.8l2.7,2.9l2.7,3.1l2.6,3.1l2.6,3.3l2.6,3.4l2.5,3.4Z" class="g1_1" />
<path fill-rule="evenodd" d="M101.3,264.8l-0.2,-0.4l-1.5,-3.5L98,257.3l-1.7,-3.5l-1.9,-3.6l-1.9,-3.6L90.4,243l-2.2,-3.6l-2.4,-3.6l-2.4,-3.5l-1.8,1.2l2.4,3.6l2.3,3.5l2.2,3.6l2,3.5l2,3.5l1.8,3.6l1.7,3.5l1.6,3.5l1.3,2.9l1.9,0.1Z" class="g1_1" />
<path fill-rule="evenodd" d="M98,264.7L58.7,208.6L58,211.3l37.2,53.1l1.1,0.2Z" class="g1_1" />
<path fill-rule="evenodd" d="M70.5,241.3l2.5,3.5l2.6,3.4l2.6,3.3l2.7,3.2l2.7,3.1l2.7,3l2.3,2.3L92,264l0.8,0.1L90.7,262L88,259.2l-2.8,-2.9l-2.6,-3l-2.7,-3.2l-2.6,-3.2l-2.5,-3.4L72.3,240Z" class="g1_1" />
<path fill-rule="evenodd" d="M56.9,218.4l0.7,1.4l1.8,3.6l2,3.6l2.1,3.6l2.2,3.6l2.3,3.5l2.5,3.6L72.3,240l-2.4,-3.5L67.6,233l-2.2,-3.6l-2.1,-3.5l-1.9,-3.6l-1.8,-3.5l-1.7,-3.5l-0.5,-1.1L57,216.5Z" class="g1_1" />
<path fill-rule="evenodd" d="M89.6,228.3l-1.9,-2.7l-2.1,-2.5l-2.1,-2.5l-2.2,-2.3l-2.2,-2.2L76.8,214l-2.4,-1.9L72,210.2l-2.5,-1.7l-2.6,-1.6l-2.5,-1.5L61.8,204l-1.3,-0.6l-0.2,0.5l-0.6,1.6l1.1,0.5l2.5,1.3l2.5,1.5l2.4,1.5l2.4,1.7l2.4,1.8l2.3,1.9l2.3,2l2.1,2.2l2.2,2.2l2,2.4l2,2.4l1.9,2.6Z" class="g1_1" />
<path fill-rule="evenodd" d="M103.1,264.7l-0.2,-2l-0.3,-2.9L102,256.9L101.4,254l-0.8,-3l-0.9,-2.9l-1,-2.9l-1.2,-2.9l-1.3,-2.8l-1.5,-2.9l-1.5,-2.8L91.5,231l-1.9,-2.7l-1.8,1.2l1.8,2.7l1.6,2.7l1.6,2.7l1.4,2.8l1.2,2.8l1.2,2.8l1,2.8l0.9,2.9l0.7,2.8l0.7,2.8l0.5,2.8l0.3,2.8l0.2,1.9Z" class="g1_1" />
<path fill-rule="evenodd" d="M65.6,245.2l1.9,2.6l2.1,2.6l2.1,2.4l2.2,2.3l1.7,1.7l0.7,0.5l3.5,2.2l3.9,1.8l1.6,0.6l-0.7,-0.4l-2.3,-1.8l-2.4,-1.9l-2.2,-2.1l-2.2,-2.1l-2.1,-2.3L71.3,249l-2,-2.5l-1.9,-2.6Z" class="g1_1" />
<path fill-rule="evenodd" d="M58.5,232.8L59,234l1.5,2.9l1.6,2.8l1.7,2.7l1.8,2.8l1.8,-1.3l-1.8,-2.6L64,238.6l-1.5,-2.8l-1.4,-2.7l-1.3,-2.8l-1.1,-2.8l-1.1,-2.8l-0.8,-2.8l0.2,3.6l0.7,4.4Z" class="g1_1" />
<path d="M104.5,317.5l0,-7" class="g84_1" />
<path fill-rule="evenodd" d="M111.6,317.8L110,315.2l-0.6,-1.1l0,0.9l0,2.8l-1.2,0l0,-5.6l1.8,0l1.6,2.7l0.6,1.1l-0.1,-1.5l0,-2.3l1.4,0l0,5.6Z" class="g85_1" />
<path fill-rule="evenodd" d="M116.4,317.9l-1.1,-0.1l0.1,-1.2l1.1,0.1l0.6,-0.1l0.3,-0.5l0,-0.2L117,315.8l-0.7,-0.4l-0.8,-0.5l-0.2,-0.4l-0.1,-0.6l0.1,-0.7l0.5,-0.5l0.7,-0.3l1,-0.3l1.1,0.1l-0.1,1.3l-1,-0.3l-0.6,0.3l-0.3,0.3l0.1,0.3l0.3,0.2l0.7,0.2l0.9,0.5l0.2,0.4l0.1,0.6l-0.2,0.7l-0.5,0.6l-0.7,0.4Z" class="g85_1" />
<path fill-rule="evenodd" d="M122,313l0,4l-1,0l0,-4l-2,0l0,-1l4,0l0,1Z" class="g85_1" />
<path d="M125.5,317.5l0,-5" class="g84_1" />
<path fill-rule="evenodd" d="M130,313l0,4l-1,0l0,-4l-1,0l0,-1l4,0l0,1Z" class="g85_1" />
<path fill-rule="evenodd" d="M136.1,317.8L135,317.7l-0.7,-0.4l-0.5,-0.6l-0.1,-0.8l0,-3.7l1.3,0l0,3.3l0.4,1l0.9,0.2l0.5,-0.1l0.3,-0.2l0.4,-0.9l0,-3.3l1.3,0l0,3.4l-0.2,0.9l-0.4,0.7l-0.8,0.5Z" class="g85_1" />
<path fill-rule="evenodd" d="M161,313l0,1l2,0l0,1l-2,0l0,2l-1,0l0,-5l3,0l0,1Z" class="g85_1" />
<path fill-rule="evenodd" d="M104,301l8,0l0,-27l-8,0l0,27Z" class="g85_1" />
<path fill-rule="evenodd" d="M150.2,301.6l-1.5,-8.9L148,286.6l-0.1,0l-1.6,7.1l-2.2,7.9l-7,0L135,294.5l-0.9,-3.9l-0.8,-4l-0.1,0l-0.8,6.7l-1.1,8.3l-7.5,0l4.5,-26.7l8.3,0l3,9.2l1.3,6.1l0.1,0l0.6,-3.2l1,-3l2.8,-9.1l8.2,0l4.4,26.7Z" class="g85_1" />
<path fill-rule="evenodd" d="M169,301l0,-27l16,0l0,7l-8,0l0,3l8,0l0,6l-8,0l0,5l8,0l0,6Z" class="g85_1" />
<path fill-rule="evenodd" d="M204,302.2l-2.9,-0.1l-2.6,-0.5l0.3,-6.7l2.7,0.6l3.1,0.2l1.2,-0.1l0.8,-0.3l0.6,-0.6l0.3,-0.9l-0.1,-0.6L207,292.6l-1.1,-0.9l-3.4,-1.3l-1.8,-1l-1.6,-1.3l-0.8,-1L197.9,286l-0.3,-1.3l-0.1,-1.6l0.1,-1.9l0.6,-1.7l0.9,-1.5l1.3,-1.3l1.6,-1l2,-0.7l2.1,-0.5l2.5,-0.1l5,0.4l-0.5,6.4l-2.3,-0.5l-2.5,-0.2l-1.3,0.1l-0.9,0.5l-0.6,0.4l-0.1,0.8l0.1,0.6l0.4,0.5l1.1,0.8l3.4,1.5l1.8,0.9l1.6,1.5l0.8,0.8l0.5,1.1l0.2,1.3l0.1,1.4l-0.1,2l-0.6,1.8l-1,1.5l-1.3,1.5l-1.6,1.1l-2.1,0.8l-2.2,0.5Z" class="g85_1" />
<path fill-rule="evenodd" d="M145,317l0,-5l4,0l0,1l-2,0l0,1l2,0l0,1l-2,0l0,1l2,0l0,1Z" class="g85_1" />
<path fill-rule="evenodd" d="M142,313l0,4l-1,0l0,-4l-1,0l0,-1l4,0l0,1Z" class="g85_1" />
<path fill-rule="evenodd" d="M111.7,330.4L111.3,327L111,325.3l-0.5,1.6l-1.1,3.5l-1.3,0L107,327.2l-0.5,-1.9l-0.2,1.9l-0.4,3.2l-1.3,0l1.1,-7.1l1.5,0l1.3,3.7l0.3,1.5l0.4,-1.5l1.2,-3.7l1.7,0l1.1,7.1Z" class="g85_1" />
<path fill-rule="evenodd" d="M114,330l0,-6l4,0l0,2l-2,0l0,1l2,0l0,1l-2,0l0,1l2,0l0,1Z" class="g85_1" />
<path fill-rule="evenodd" d="M122.6,330.6l-1.2,-0.2l-0.9,-0.6L120,329l-0.1,-1.1l0.1,-1.1l0.7,-1l0.8,-0.6L123,325l1.1,0.1l-0.2,1.2l-1.1,-0.2l-0.6,0.1l-0.4,0.4l-0.3,0.4l-0.1,0.8l0.1,0.7l0.3,0.5l0.4,0.3l0.6,0l1.1,-0.1l0.2,1.1Z" class="g85_1" />
<path fill-rule="evenodd" d="M130,330l0,-2l-3,0l0,2l-1,0l0,-6l1,0l0,3l3,0l0,-3l1,0l0,6Z" class="g85_1" />
<path fill-rule="evenodd" d="M135.9,327.3l-0.2,-0.9l-0.3,0.9l-0.5,1.3l1.5,0Zm1.2,3.3l-0.3,-1l-2.2,0l-0.4,1l-1.4,0l2.1,-5.6l1.6,0l2.1,5.6Z" class="g85_1" />
<path fill-rule="evenodd" d="M143.6,330.6l-1.7,-2.7l-0.5,-1.1l0,1l0,2.8l-1.4,0l0,-5.6l2,0l1.6,2.6l0.5,1.1l0.1,0l-0.1,-1.4l0,-2.3l1.3,0l0,5.6Z" class="g85_1" />
<path d="M147.5,330.5l0,-6" class="g84_1" />
<path fill-rule="evenodd" d="M152.8,330.6l-1.2,-0.2l-0.8,-0.6L150.3,329L150,327.9l0.3,-1.1l0.5,-1l1,-0.6l1.3,-0.2l1.2,0.1l-0.1,1.2l-1.1,-0.2l-0.6,0.1l-0.5,0.4l-0.4,0.4l0,0.8l0,0.7L152,329l0.5,0.3l0.6,0l1.1,-0.1l0.1,1.1Z" class="g85_1" />
<path fill-rule="evenodd" d="M174.7,330.6l-1.5,-0.2l0.1,-1.3l1.5,0.2l1,-0.2l0.2,-0.2l0,-0.4L175.9,328l-0.2,-0.2l-1.1,-0.5l-1,-0.6l-0.4,-0.6l-0.1,-0.8l0.1,-0.8l0.6,-0.7l0.9,-0.4l1.1,-0.2l1.3,0.1l-0.1,1.2l-1.2,-0.1l-1,0.2l-0.2,0.6l0.1,0.4l0.3,0.3l1,0.5l1.1,0.6l0.4,0.5l0.1,0.8l-0.2,0.9l-0.6,0.8l-0.9,0.4Z" class="g85_1" />
<path fill-rule="evenodd" d="M181.8,328.7l0,1.7l-1.4,0l0,-1.7L178.5,325l1.5,0l0.7,1.4l0.4,1l0.5,-1.1l0.8,-1.3l1.3,0Z" class="g85_1" />
<path fill-rule="evenodd" d="M186,330.6l-1.1,-0.2l0.1,-1.2l1.1,0.3l0.7,-0.2l0.2,-0.4l-0.1,-0.3l-0.3,-0.2l-0.7,-0.3l-0.7,-0.5l-0.3,-0.3l-0.1,-0.6l0.1,-0.8l0.5,-0.6l0.7,-0.3l1,-0.1l1,0.1l0,1.1l-1,-0.2l-0.7,0.2l-0.1,0.5l0.1,0.2l0.2,0.1l0.8,0.4l0.8,0.5l0.3,0.3l0,0.5l-0.2,0.9l-0.4,0.6l-0.8,0.3Z" class="g85_1" />
<path fill-rule="evenodd" d="M192,326l0,4l-1,0l0,-4l-2,0l0,-2l5,0l0,2Z" class="g85_1" />
<path fill-rule="evenodd" d="M195,330l0,-6l4,0l0,2l-2,0l0,1l2,0l0,1l-2,0l0,1l2,0l0,1Z" class="g85_1" />
<path fill-rule="evenodd" d="M206.9,330.4l-0.4,-2.6l-0.1,-1.1l-0.1,0l-0.3,1.1l-0.8,2.6l-1.5,0L203,327.9l-0.4,-1.2l-0.1,1.2l-0.4,2.5l-1.3,0l0.8,-5.4l1.7,0l0.9,2.8l0.4,0.9l0.2,-0.9l0.9,-2.8l1.8,0l0.8,5.4Z" class="g85_1" />
<path fill-rule="evenodd" d="M158.8,327.3l-0.2,-0.9l-0.3,0.9l-0.4,1.3l1.4,0Zm1.2,3.3l-0.3,-1l-2.2,0l-0.3,1l-1.4,0l2.1,-5.6l1.5,0l2.1,5.6Z" class="g85_1" />
<path fill-rule="evenodd" d="M211.3,330.6l-1.1,-0.2l0.1,-1.2l1.1,0.3l0.6,-0.2l0.2,-0.4l-0.1,-0.3l-0.2,-0.2l-0.8,-0.3l-0.7,-0.5l-0.2,-0.3l-0.1,-0.6l0.1,-0.8l0.5,-0.6l0.7,-0.3l1,-0.1l0.9,0.1l0,1.1l-0.9,-0.2l-0.8,0.2l-0.1,0.5l0.1,0.2l0.3,0.1l0.7,0.4l0.7,0.5l0.4,0.3l0,0.5l-0.1,0.9l-0.5,0.6l-0.7,0.3Z" class="g85_1" />
<path fill-rule="evenodd" d="M157.5,313.8l-0.4,-0.3l-0.5,-0.2l-0.5,0.2l-0.3,0.3l-0.4,0.5l0,0.7l0,0.8l0.3,0.4l0.3,0.4l0.6,0.1l0.4,-0.1l0.5,-0.2l0.2,-0.6l0.2,-0.8l-0.2,-0.7Zm1.4,2.3l-0.6,1l-0.8,0.5l-1,0.2l-1.1,-0.2l-0.7,-0.5l-0.5,-0.9l-0.1,-1l0.1,-1.3l0.6,-0.8l0.9,-0.6l0.9,-0.1l1.1,0.1l0.8,0.5l0.4,0.8l0.3,1.2Z" class="g85_1" />
<path fill-rule="evenodd" d="M163,330l0,-5l1,0l0,4l2,0l0,1Z" class="g85_1" />
</g>
<g clip-path="url(#c1_1)">
<path d="M335,870l1425,0l0,155l-1425,0Z" class="g86_1" />
</g>
<text 
x="598" 
y="930" 
dx="0,0.1,-0.5,0,0,0,0,-0.3,0,0,0.7,0,-0.4,0,0,0,0.4,0.1,0,0,0,1.5,0,-0.4,0,0,0,0,0" 
class="s1_1"
>Granular Rigid Body Dynamics </text>

<text 
x="575" 
y="1000" 
dx="0,0,0,0,0,0,-0.6,-0.3,0,0,0,0.1,-0.4,0,0,0,0,0,-0.4,0,0,-0.1,0,0,-0.4,0,0,-1.1,0,-0.5,-0.3,0" 
class="s1_1"
>with Application to Chute Flows </text>

<g clip-path="url(#c2_1)">
<path d="M-16,1025l1596,0l0,153l-1596,0Z" class="g87_1" />
</g>
<text 
x="708" 
y="1092" 
dx="0,0,0,0,0,0,0,0,0.7,-3" 
class="s2_1"
>Examiner: </text>

<text 
x="974" 
y="1092" 
dx="0,-0.8,-0.2,0,-1.3,-1.7,0,0.1,-2.1,-1.7,0,-0.1,0,-1.7,0,0.1,0,0,0,0.3,0,0" 
class="s2_1"
>Prof. Dr. Ch. Glocker </text>

<text 
x="708" 
y="1136" 
dx="0,-0.5,0,0,0,0,0,0,0,0,0,0.7,-3" 
class="s2_1"
>Co-Examiner: </text>

<text 
x="974" 
y="1136" 
dx="0,-0.8,-0.2,0,-1.3,-1.7,0,0.1,-2.1,-1.7,0,0,-1.7,0,0.1,0,0,0,-1.6,0,-0.8,-0.2,0,-1.3,-1.7,0,0.1,-2.1,-1.7,0,0,-1.7,0,-0.7,0,0,0" 
class="s2_1"
>Prof. Dr. J. Dual, Prof. Dr. R. Leine</text>

<text 
x="29" 
y="1121" 
dx="0,0,0,0,0,0,0,0,0,0,0,0,0.4,0,0,0.1,0,0,0,0,0,0,0,0,0" 
class="s3_1"
>MSc ETH ME Gabriel Ntzi </text>



<!-- Any embedded fonts defined here -->
<style type="text/css" ><![CDATA[

@font-face {
	font-family: WLVRIH-MyriadApple-Semibold1;
	src: url("1/fonts/WLVRIH-MyriadApple-Semibold.woff") format("woff");
}

@font-face {
	font-family: NXNZCE-MyriadApple-Text1;
	src: url("1/fonts/NXNZCE-MyriadApple-Text.woff") format("woff");
}

]]></style>

<title>DefenceVortrag.key Page1</title>
</svg>
