<?xml version="1.0" encoding="UTF-8" standalone="no"?>
<!-- Created with Inkscape (http://www.inkscape.org/) -->

<svg
   xmlns:dc="http://purl.org/dc/elements/1.1/"
   xmlns:cc="http://creativecommons.org/ns#"
   xmlns:rdf="http://www.w3.org/1999/02/22-rdf-syntax-ns#"
   xmlns:svg="http://www.w3.org/2000/svg"
   xmlns="http://www.w3.org/2000/svg"
   xmlns:sodipodi="http://sodipodi.sourceforge.net/DTD/sodipodi-0.dtd"
   xmlns:inkscape="http://www.inkscape.org/namespaces/inkscape"
   width="103.23164mm"
   height="25.500401mm"
   viewBox="0 0 365.78141 90.35575"
   id="svg4687"
   version="1.1"
   inkscape:version="0.91 r"
   sodipodi:docname="ETHLogo.svg">
  <defs
     id="defs4689">
    <clipPath
       clipPathUnits="userSpaceOnUse"
       id="clipPath50">
      <path
         d="m 29,652 321,0 0,98 -321,0 0,-98 z"
         id="path52"
         inkscape:connector-curvature="0" />
    </clipPath>
    <clipPath
       clipPathUnits="userSpaceOnUse"
       id="clipPath56">
      <path
         d="m 30,669 294,0 0,73 -294,0 0,-73 z"
         id="path58"
         inkscape:connector-curvature="0" />
    </clipPath>
    <clipPath
       clipPathUnits="userSpaceOnUse"
       id="clipPath60">
      <path
         d="m 28,652 322,0 0,98 -322,0 0,-98 z"
         id="path62"
         inkscape:connector-curvature="0" />
    </clipPath>
    <clipPath
       clipPathUnits="userSpaceOnUse"
       id="clipPath64">
      <path
         d="M 13.49645,756.6423 350,756.6423 350,652 l -336.50355,0 0,104.6423 z"
         id="path66"
         inkscape:connector-curvature="0" />
    </clipPath>
    <clipPath
       clipPathUnits="userSpaceOnUse"
       id="clipPath68">
      <path
         d="m 28,652 322,0 0,98 -322,0 0,-98 z"
         id="path70"
         inkscape:connector-curvature="0" />
    </clipPath>
  </defs>
  <sodipodi:namedview
     id="base"
     pagecolor="#ffffff"
     bordercolor="#666666"
     borderopacity="1.0"
     inkscape:pageopacity="0.0"
     inkscape:pageshadow="2"
     inkscape:zoom="1.979899"
     inkscape:cx="79.549579"
     inkscape:cy="-3.0585827"
     inkscape:document-units="px"
     inkscape:current-layer="layer1"
     showgrid="false"
     fit-margin-top="0"
     fit-margin-left="0"
     fit-margin-right="0"
     fit-margin-bottom="0"
     inkscape:window-width="1855"
     inkscape:window-height="1119"
     inkscape:window-x="1985"
     inkscape:window-y="24"
     inkscape:window-maximized="1" />
  <metadata
     id="metadata4692">
    <rdf:RDF>
      <cc:Work
         rdf:about="">
        <dc:format>image/svg+xml</dc:format>
        <dc:type
           rdf:resource="http://purl.org/dc/dcmitype/StillImage" />
        <dc:title></dc:title>
      </cc:Work>
    </rdf:RDF>
  </metadata>
  <g
     inkscape:label="Layer 1"
     inkscape:groupmode="layer"
     id="layer1"
     transform="translate(-217.10929,-247.1844)">
    <g
       transform="matrix(1.25,0,0,-1.25,179.0797,1174.4839)"
       id="g46">
      <g
         id="g48"
         clip-path="url(#clipPath50)">
        <g
           id="g54" />
        <g
           id="g72">
          <g
             clip-path="url(#clipPath56)"
             id="g74">
            <g
               id="g76" />
            <g
               id="g78">
              <g
                 clip-path="url(#clipPath60)"
                 id="g80">
                <path
                   d="m 95.75304,741.8396 -2.04763,-9.7772 6.26006,0 2.27513,9.7772 9.2191,0 -5.9181,-27.1465 -9.33353,0 2.16343,10.467 -6.03254,0 -2.50402,-10.467 -9.67414,0 4.43858,20.1299 -8.30769,0 -4.3255,-20.1299 -9.90165,0 4.43858,20.1299 -21.62478,0 -0.79699,-3.2219 13.3171,0 -1.36645,-6.441 -13.43017,0 -0.79698,-3.3348 13.99963,0 -1.59396,-7.1322 -23.78685,0 5.9181,27.1465 59.41127,0 z"
                   style="fill:#231f20;fill-opacity:1;fill-rule:evenodd;stroke:none"
                   id="path82"
                   inkscape:connector-curvature="0" />
                <path
                   d="m 36.58604,692.4255 0,1.4072 -3.70154,0 0,3.1819 3.52171,0 0,1.348 -3.52171,0 0,2.9066 3.70154,0 0,1.3782 -5.33501,0 0,-10.2219 5.33501,0 z"
                   style="fill:#231f20;fill-opacity:1;fill-rule:nonzero;stroke:none"
                   id="path84"
                   inkscape:connector-curvature="0" />
              </g>
            </g>
            <g
               id="g86">
              <g
                 clip-path="url(#clipPath64)"
                 id="g88">
                <g
                   clip-path="url(#clipPath68)"
                   id="g90">
                  <path
                     d="m 40.31864,699.9523 -1.6035,0 0,-7.5273 1.6035,0 0,7.5273 z m 0.22479,2.1356 c 0,0.2932 -0.10081,0.5356 -0.30108,0.727 -0.1989,0.1913 -0.43868,0.2877 -0.71933,0.2877 -0.28882,0 -0.53404,-0.0991 -0.73431,-0.296 -0.20027,-0.1969 -0.29836,-0.4365 -0.29836,-0.7187 0,-0.2837 0.09809,-0.5219 0.29836,-0.7201 0.20027,-0.1969 0.44549,-0.2947 0.73431,-0.2947 0.28065,0 0.52043,0.0978 0.71933,0.2947 0.20027,0.1982 0.30108,0.4364 0.30108,0.7201"
                     style="fill:#231f20;fill-opacity:1;fill-rule:nonzero;stroke:none"
                     id="path92"
                     inkscape:connector-curvature="0" />
                  <path
                     d="m 47.07651,696.3248 c 0,-0.3056 -0.03951,-0.6099 -0.11989,-0.9156 -0.08038,-0.3084 -0.20027,-0.5838 -0.35966,-0.8261 -0.1594,-0.2437 -0.35149,-0.442 -0.57628,-0.5962 -0.22616,-0.1542 -0.48773,-0.2286 -0.78881,-0.2286 -0.50816,0 -0.88281,0.1928 -1.12259,0.5811 -0.23977,0.3883 -0.35966,0.9404 -0.35966,1.6577 0,0.9556 0.19754,1.6399 0.59126,2.053 0.39509,0.4116 0.91279,0.6154 1.55173,0.6154 0.3801,0 0.77383,-0.0427 1.1839,-0.1294 l 0,-2.2113 z m 1.58851,-3.7519 0,10.9075 -1.58851,0 0,-3.5881 c -0.20027,0.0193 -0.39236,0.0344 -0.57764,0.0454 -0.18392,0.01 -0.36648,0.0152 -0.54631,0.0152 -0.59944,0 -1.14166,-0.0991 -1.62666,-0.2933 -0.48364,-0.1955 -0.89371,-0.4695 -1.22749,-0.8261 -0.33514,-0.3566 -0.59263,-0.7862 -0.77246,-1.2915 -0.17983,-0.5067 -0.26975,-1.074 -0.26975,-1.6977 0,-1.0506 0.22615,-1.8849 0.68118,-2.4976 0.45503,-0.6128 1.14166,-0.9212 2.06126,-0.9212 0.579,0 1.07899,0.1418 1.4986,0.4269 0.4196,0.2822 0.72886,0.6526 0.92913,1.1125 l 0.02997,0 c -0.03951,-0.2093 -0.06812,-0.4434 -0.0831,-0.705 -0.01363,-0.2561 -0.0218,-0.486 -0.0218,-0.687 l 1.51358,0 z"
                     style="fill:#231f20;fill-opacity:1;fill-rule:nonzero;stroke:none"
                     id="path94"
                     inkscape:connector-curvature="0" />
                  <path
                     d="m 55.99249,691.3754 c 0,-0.4034 -0.18664,-0.7353 -0.56266,-0.9982 -0.37328,-0.2589 -0.91142,-0.3911 -1.61031,-0.3911 -0.53949,0 -0.97818,0.106 -1.31877,0.3195 -0.33922,0.212 -0.50952,0.5149 -0.50952,0.9087 0,0.2533 0.07221,0.4888 0.21798,0.7022 0.14441,0.2107 0.3474,0.3855 0.60625,0.5232 0.05994,-0.01 0.12534,-0.0138 0.19482,-0.0138 l 0.2098,0 1.3937,0 c 0.47955,0 0.82968,-0.0977 1.04902,-0.2877 0.21934,-0.1928 0.32969,-0.4475 0.32969,-0.7628 m -0.47955,5.9412 c 0,-0.4943 -0.14986,-0.8743 -0.44958,-1.1442 -0.29972,-0.2657 -0.70434,-0.4007 -1.21387,-0.4007 -0.53949,0 -0.95365,0.1364 -1.24383,0.409 -0.29019,0.2726 -0.4346,0.6567 -0.4346,1.151 0,0.4654 0.14714,0.8427 0.44277,1.136 0.29427,0.2919 0.71115,0.4406 1.25065,0.4406 0.51906,0 0.92504,-0.1405 1.21386,-0.4172 0.29019,-0.2782 0.4346,-0.6692 0.4346,-1.1745 m 2.06806,-5.7292 c 0,0.6981 -0.2207,1.2309 -0.65938,1.6013 -0.44004,0.3704 -1.064,0.5535 -1.87325,0.5535 l -1.27381,0 c -0.44958,0 -0.76701,0.0358 -0.95093,0.1074 -0.18528,0.0702 -0.27792,0.1914 -0.27792,0.3608 0,0.0977 0.03542,0.19 0.1049,0.2795 0.06948,0.0881 0.17984,0.1611 0.3297,0.223 0.11035,-0.022 0.24522,-0.0385 0.40462,-0.0537 0.16076,-0.0151 0.30925,-0.022 0.44958,-0.022 1.04902,0 1.84872,0.2588 2.39775,0.7793 0.5504,0.5205 0.82423,1.1896 0.82423,2.0075 0,0.2712 -0.04495,0.5163 -0.13487,0.7339 -0.08992,0.2175 -0.21525,0.391 -0.37465,0.5218 l 1.13894,0 0,1.2722 -2.51765,0 c -0.19891,0.051 -0.39645,0.0881 -0.59263,0.1143 -0.19482,0.0248 -0.40598,0.0386 -0.63622,0.0386 -0.52996,0 -1.00134,-0.0799 -1.4155,-0.2341 -0.41552,-0.1528 -0.76428,-0.3608 -1.04902,-0.6168 -0.28473,-0.2617 -0.49998,-0.5659 -0.64439,-0.9198 -0.14578,-0.3511 -0.21798,-0.7229 -0.21798,-1.1084 0,-0.4695 0.09264,-0.8839 0.27792,-1.2461 0.18392,-0.3607 0.46184,-0.6416 0.83104,-0.8412 -0.26021,-0.1088 -0.46729,-0.2809 -0.62123,-0.515 -0.15531,-0.2327 -0.23297,-0.4846 -0.23297,-0.7517 0,-0.2479 0.06539,-0.4668 0.19482,-0.6568 0.13079,-0.19 0.30926,-0.3373 0.53949,-0.4461 -0.32015,-0.1694 -0.59943,-0.4172 -0.83921,-0.7449 -0.23978,-0.3291 -0.35966,-0.7022 -0.35966,-1.118 0,-0.7146 0.282,-1.2571 0.84739,-1.6247 0.56401,-0.3663 1.33647,-0.5522 2.31465,-0.5522 0.59944,0 1.14711,0.0771 1.64165,0.2245 0.49453,0.15 0.9155,0.3538 1.26563,0.6141 0.35013,0.2602 0.6226,0.5603 0.81742,0.9073 0.19345,0.3429 0.29154,0.7132 0.29154,1.1125"
                     style="fill:#231f20;fill-opacity:1;fill-rule:nonzero;stroke:none"
                     id="path96"
                     inkscape:connector-curvature="0" />
                  <path
                     d="m 63.51532,697.2257 -3.16204,0 c 0.06948,0.4695 0.25203,0.8399 0.54767,1.1167 0.29427,0.2753 0.66619,0.413 1.11577,0.413 0.47955,0 0.8542,-0.1377 1.12395,-0.413 0.26975,-0.2768 0.39508,-0.6472 0.37465,-1.1167 m 1.6035,-0.4062 c 0,0.4269 -0.05994,0.8317 -0.17983,1.2089 -0.11989,0.3787 -0.30245,0.7133 -0.54631,0.9983 -0.24522,0.2877 -0.55993,0.5122 -0.94412,0.6788 -0.38555,0.1638 -0.84194,0.2464 -1.3719,0.2464 -0.53949,0 -1.02177,-0.0964 -1.44546,-0.2891 -0.42506,-0.1955 -0.782,-0.4613 -1.07218,-0.8027 -0.28882,-0.3401 -0.50953,-0.7435 -0.65939,-1.2076 -0.14986,-0.4653 -0.22479,-0.972 -0.22479,-1.5145 0,-1.2833 0.3079,-2.2209 0.92232,-2.8171 0.61443,-0.5989 1.50541,-0.895 2.67432,-0.895 0.46048,0 0.9087,0.04 1.34874,0.1212 0.44004,0.0799 0.84875,0.201 1.22885,0.3621 l -0.14986,1.2874 c -0.30925,-0.1515 -0.65393,-0.2699 -1.03403,-0.3552 -0.37874,-0.0868 -0.75884,-0.1295 -1.13894,-0.1295 -0.7493,0 -1.30923,0.19 -1.67843,0.5701 -0.3692,0.38 -0.54358,0.9817 -0.52451,1.8078 l 4.75056,0 c 0.02997,0.2726 0.04496,0.5163 0.04496,0.7297"
                     style="fill:#231f20;fill-opacity:1;fill-rule:nonzero;stroke:none"
                     id="path98"
                     inkscape:connector-curvature="0" />
                  <path
                     d="m 73.18101,692.4255 0,5.1674 c 0,0.325 -0.03406,0.632 -0.1049,0.9184 -0.06948,0.2878 -0.1921,0.5384 -0.36784,0.7518 -0.17438,0.212 -0.40462,0.3786 -0.68936,0.5025 -0.28473,0.124 -0.63622,0.1873 -1.05583,0.1873 -0.62941,0 -1.16346,-0.1501 -1.6035,-0.4447 -0.43868,-0.2974 -0.76973,-0.6843 -0.98907,-1.1594 l -0.01499,0.0152 c 0.03951,0.2079 0.06812,0.4502 0.0831,0.7283 0.01363,0.2768 0.0218,0.515 0.0218,0.7105 l -1.52857,0 0,-7.3773 1.6035,0 0,3.5482 c 0,0.3635 0.05041,0.7077 0.14986,1.0272 0.09945,0.318 0.23569,0.5989 0.40462,0.8344 0.1703,0.2368 0.37465,0.4227 0.61443,0.5617 0.23978,0.1391 0.49862,0.2066 0.78063,0.2066 0.42779,0 0.72069,-0.1253 0.876,-0.3759 0.15395,-0.252 0.2316,-0.6086 0.2316,-1.0712 l 0,-4.731 1.58852,0 z"
                     style="fill:#231f20;fill-opacity:1;fill-rule:nonzero;stroke:none"
                     id="path100"
                     inkscape:connector-curvature="0" />
                  <path
                     d="m 77.91658,702.2995 c 0,0.2533 -0.08719,0.4668 -0.26157,0.643 -0.17575,0.1776 -0.39236,0.2657 -0.65257,0.2657 -0.26022,0 -0.47547,-0.0881 -0.6444,-0.2657 -0.1703,-0.1762 -0.25476,-0.3897 -0.25476,-0.643 0,-0.263 0.08446,-0.4819 0.25476,-0.6582 0.16893,-0.1776 0.38418,-0.2657 0.6444,-0.2657 0.26021,0 0.47682,0.0881 0.65257,0.2657 0.17438,0.1763 0.26157,0.3952 0.26157,0.6582 m 2.93725,0 c 0,0.2533 -0.08855,0.4668 -0.26293,0.643 -0.17438,0.1776 -0.38691,0.2657 -0.63622,0.2657 -0.26022,0 -0.47683,-0.0881 -0.65258,-0.2657 -0.17438,-0.1762 -0.26157,-0.3897 -0.26157,-0.643 0,-0.263 0.08719,-0.4819 0.26157,-0.6582 0.17575,-0.1776 0.39236,-0.2657 0.65258,-0.2657 0.24931,0 0.46184,0.0881 0.63622,0.2657 0.17438,0.1763 0.26293,0.3952 0.26293,0.6582 m -0.49453,-6.0761 c 0,-0.4062 -0.05041,-0.7615 -0.14986,-1.0671 -0.10082,-0.3029 -0.23842,-0.5549 -0.4128,-0.7559 -0.17438,-0.1983 -0.37601,-0.3442 -0.60625,-0.4406 -0.23024,-0.0937 -0.47546,-0.1418 -0.73431,-0.1418 -0.62941,0 -1.10488,0.2051 -1.42367,0.614 -0.32016,0.4076 -0.47955,1.0148 -0.47955,1.8216 0,0.4062 0.05585,0.7615 0.16484,1.0534 0.11035,0.2946 0.25476,0.5369 0.4346,0.7269 0.17983,0.19 0.38418,0.3305 0.61442,0.42 0.23024,0.0895 0.46457,0.1349 0.70434,0.1349 0.63895,0 1.11442,-0.2038 1.42367,-0.6127 0.30926,-0.4062 0.46457,-0.9927 0.46457,-1.7527 m 1.64709,0.1046 c 0,0.6402 -0.08446,1.1882 -0.2534,1.6454 -0.17029,0.4543 -0.40462,0.8275 -0.70434,1.1194 -0.29972,0.2905 -0.65666,0.5094 -1.07218,0.6471 -0.41416,0.1418 -0.87055,0.212 -1.37053,0.212 -0.56947,0 -1.08172,-0.0977 -1.53675,-0.2974 -0.45503,-0.1996 -0.8433,-0.4722 -1.16891,-0.8151 -0.32424,-0.3456 -0.57355,-0.7518 -0.7493,-1.2254 -0.17438,-0.4695 -0.26157,-0.9762 -0.26157,-1.5187 0,-0.6402 0.07902,-1.1924 0.23978,-1.6536 0.15939,-0.4613 0.38963,-0.8399 0.68935,-1.1359 0.29972,-0.2961 0.65939,-0.5177 1.07899,-0.6609 0.41961,-0.1474 0.88826,-0.219 1.40869,-0.219 0.54903,0 1.05174,0.0978 1.50541,0.2961 0.45503,0.201 0.84466,0.475 1.1689,0.8233 0.32561,0.3511 0.57628,0.7628 0.75748,1.2378 0.17983,0.4764 0.26838,0.9914 0.26838,1.5449"
                     style="fill:#231f20;fill-opacity:1;fill-rule:nonzero;stroke:none"
                     id="path102"
                     inkscape:connector-curvature="0" />
                  <path
                     d="m 88.21155,694.753 c 0,0.3924 -0.08311,0.7118 -0.24795,0.95 -0.16349,0.2437 -0.36648,0.4406 -0.60626,0.5935 -0.23977,0.1542 -0.50543,0.2753 -0.79425,0.3621 -0.28882,0.0867 -0.55448,0.179 -0.79426,0.2754 -0.23978,0.095 -0.44277,0.2092 -0.60625,0.3373 -0.16485,0.1322 -0.24795,0.3139 -0.24795,0.5425 0,0.2809 0.10763,0.4998 0.32152,0.6581 0.21525,0.1597 0.54767,0.2382 0.99725,0.2382 0.49998,0 0.98498,-0.0716 1.45364,-0.2106 l 0.04495,1.3176 c -0.23023,0.0386 -0.46456,0.0716 -0.70434,0.0964 -0.23977,0.0275 -0.47001,0.0386 -0.68935,0.0386 -0.50953,0 -0.95502,-0.0579 -1.33376,-0.1749 -0.38009,-0.1129 -0.69889,-0.2726 -0.9591,-0.4736 -0.26021,-0.2052 -0.45503,-0.4393 -0.58445,-0.7091 -0.13079,-0.2699 -0.19482,-0.5577 -0.19482,-0.8661 0,-0.4144 0.08038,-0.7449 0.23978,-0.99 0.16075,-0.2437 0.36238,-0.4419 0.60761,-0.5851 0.24386,-0.1446 0.5068,-0.2603 0.78608,-0.3456 0.27929,-0.0895 0.54222,-0.1735 0.78609,-0.2603 0.24522,-0.0881 0.44821,-0.1968 0.60761,-0.3249 0.1594,-0.1322 0.23978,-0.3167 0.23978,-0.5563 0,-0.3001 -0.13488,-0.5314 -0.40463,-0.7008 -0.26974,-0.1693 -0.62396,-0.2533 -1.064,-0.2533 -0.29018,0 -0.57492,0.0234 -0.8542,0.0688 -0.27929,0.0441 -0.53405,0.1033 -0.76429,0.1735 l -0.04496,-1.3782 c 0.23024,-0.0496 0.47956,-0.0882 0.7493,-0.1129 0.26975,-0.0262 0.54359,-0.0372 0.82423,-0.0372 0.49999,0 0.94957,0.0578 1.34874,0.1735 0.39917,0.1142 0.73976,0.2753 1.01905,0.4819 0.27928,0.2079 0.49454,0.4543 0.6444,0.7366 0.14986,0.285 0.22479,0.5962 0.22479,0.9349"
                     style="fill:#231f20;fill-opacity:1;fill-rule:nonzero;stroke:none"
                     id="path104"
                     inkscape:connector-curvature="0" />
                  <path
                     d="m 94.52037,694.753 c 0,0.3924 -0.0831,0.7118 -0.24795,0.95 -0.16348,0.2437 -0.36647,0.4406 -0.60625,0.5935 -0.23977,0.1542 -0.50543,0.2753 -0.79425,0.3621 -0.28883,0.0867 -0.55449,0.179 -0.79426,0.2754 -0.23978,0.095 -0.44277,0.2092 -0.60625,0.3373 -0.16485,0.1322 -0.24795,0.3139 -0.24795,0.5425 0,0.2809 0.10762,0.4998 0.32151,0.6581 0.21526,0.1597 0.54767,0.2382 0.99725,0.2382 0.49999,0 0.98499,-0.0716 1.45364,-0.2106 l 0.04496,1.3176 c -0.23024,0.0386 -0.46456,0.0716 -0.70434,0.0964 -0.23977,0.0275 -0.47001,0.0386 -0.68935,0.0386 -0.50953,0 -0.95502,-0.0579 -1.33376,-0.1749 -0.3801,-0.1129 -0.69889,-0.2726 -0.9591,-0.4736 -0.26021,-0.2052 -0.45503,-0.4393 -0.58445,-0.7091 -0.13079,-0.2699 -0.19482,-0.5577 -0.19482,-0.8661 0,-0.4144 0.08038,-0.7449 0.23977,-0.99 0.16076,-0.2437 0.36239,-0.4419 0.60762,-0.5851 0.24386,-0.1446 0.5068,-0.2603 0.78608,-0.3456 0.27929,-0.0895 0.54222,-0.1735 0.78608,-0.2603 0.24523,-0.0881 0.44822,-0.1968 0.60762,-0.3249 0.15939,-0.1322 0.23977,-0.3167 0.23977,-0.5563 0,-0.3001 -0.13487,-0.5314 -0.40462,-0.7008 -0.26975,-0.1693 -0.62396,-0.2533 -1.064,-0.2533 -0.29019,0 -0.57492,0.0234 -0.8542,0.0688 -0.27929,0.0441 -0.53405,0.1033 -0.76429,0.1735 l -0.04496,-1.3782 c 0.23024,-0.0496 0.47955,-0.0882 0.7493,-0.1129 0.26975,-0.0262 0.54358,-0.0372 0.82423,-0.0372 0.49999,0 0.94957,0.0578 1.34874,0.1735 0.39917,0.1142 0.73976,0.2753 1.01905,0.4819 0.27928,0.2079 0.49453,0.4543 0.64439,0.7366 0.14986,0.285 0.22479,0.5962 0.22479,0.9349"
                     style="fill:#231f20;fill-opacity:1;fill-rule:nonzero;stroke:none"
                     id="path106"
                     inkscape:connector-curvature="0" />
                  <path
                     d="m 97.96702,699.9523 -1.60351,0 0,-7.5273 1.60351,0 0,7.5273 z m 0.22479,2.1356 c 0,0.2932 -0.09946,0.5356 -0.29972,0.727 -0.19891,0.1913 -0.44005,0.2877 -0.71933,0.2877 -0.28882,0 -0.53405,-0.0991 -0.73432,-0.296 -0.20026,-0.1969 -0.29971,-0.4365 -0.29971,-0.7187 0,-0.2837 0.09945,-0.5219 0.29971,-0.7201 0.20027,-0.1969 0.4455,-0.2947 0.73432,-0.2947 0.27928,0 0.52042,0.0978 0.71933,0.2947 0.20026,0.1982 0.29972,0.4364 0.29972,0.7201"
                     style="fill:#231f20;fill-opacity:1;fill-rule:nonzero;stroke:none"
                     id="path108"
                     inkscape:connector-curvature="0" />
                  <path
                     d="m 104.7708,694.753 c 0,0.3924 -0.0831,0.7118 -0.248,0.95 -0.1648,0.2437 -0.3664,0.4406 -0.6062,0.5935 -0.2398,0.1542 -0.5054,0.2753 -0.7943,0.3621 -0.2902,0.0867 -0.5544,0.179 -0.7942,0.2754 -0.2398,0.095 -0.4414,0.2092 -0.6063,0.3373 -0.1648,0.1322 -0.2479,0.3139 -0.2479,0.5425 0,0.2809 0.1076,0.4998 0.3215,0.6581 0.2152,0.1597 0.5477,0.2382 0.9972,0.2382 0.5,0 0.985,-0.0716 1.4537,-0.2106 l 0.0449,1.3176 c -0.2302,0.0386 -0.4645,0.0716 -0.7043,0.0964 -0.2398,0.0275 -0.47,0.0386 -0.6894,0.0386 -0.5095,0 -0.9536,-0.0579 -1.3337,-0.1749 -0.3801,-0.1129 -0.6989,-0.2726 -0.9591,-0.4736 -0.2602,-0.2052 -0.455,-0.4393 -0.5845,-0.7091 -0.13075,-0.2699 -0.19479,-0.5577 -0.19479,-0.8661 0,-0.4144 0.08038,-0.7449 0.23979,-0.99 0.1607,-0.2437 0.3624,-0.4419 0.6076,-0.5851 0.2439,-0.1446 0.5054,-0.2603 0.7861,-0.3456 0.2793,-0.0895 0.5422,-0.1735 0.7861,-0.2603 0.2452,-0.0881 0.4482,-0.1968 0.6076,-0.3249 0.1594,-0.1322 0.2398,-0.3167 0.2398,-0.5563 0,-0.3001 -0.1349,-0.5314 -0.4047,-0.7008 -0.2697,-0.1693 -0.6239,-0.2533 -1.064,-0.2533 -0.2888,0 -0.5735,0.0234 -0.8542,0.0688 -0.2806,0.0441 -0.534,0.1033 -0.7643,0.1735 l -0.04491,-1.3782 c 0.23021,-0.0496 0.47951,-0.0882 0.74931,-0.1129 0.2697,-0.0262 0.5436,-0.0372 0.8242,-0.0372 0.5,0 0.9482,0.0578 1.3488,0.1735 0.3991,0.1142 0.7397,0.2753 1.019,0.4819 0.2793,0.2079 0.4945,0.4543 0.6444,0.7366 0.1499,0.285 0.2248,0.5962 0.2248,0.9349"
                     style="fill:#231f20;fill-opacity:1;fill-rule:nonzero;stroke:none"
                     id="path110"
                     inkscape:connector-curvature="0" />
                  <path
                     d="m 111.4243,692.8033 -0.1349,1.3783 c -0.2193,-0.1102 -0.4714,-0.1997 -0.7561,-0.2644 -0.2847,-0.0647 -0.5722,-0.0991 -0.8624,-0.0991 -0.3692,0 -0.6825,0.0578 -0.9373,0.1735 -0.2534,0.1143 -0.4591,0.2754 -0.613,0.4833 -0.1553,0.2065 -0.2657,0.4516 -0.3297,0.7352 -0.0654,0.2823 -0.0981,0.5879 -0.0981,0.9156 0,0.7601 0.1703,1.359 0.5095,1.8079 0.3406,0.4461 0.8542,0.6705 1.5436,0.6705 0.2697,0 0.5299,-0.0275 0.7792,-0.084 0.2493,-0.0551 0.4891,-0.1225 0.7194,-0.2038 l 0.1648,1.4086 c -0.4986,0.1514 -1.0381,0.2272 -1.6185,0.2272 -0.6389,0 -1.1961,-0.1005 -1.6702,-0.3002 -0.4741,-0.2024 -0.8679,-0.4791 -1.1771,-0.8358 -0.3093,-0.3593 -0.5422,-0.782 -0.6962,-1.2694 -0.1553,-0.4888 -0.2329,-1.0217 -0.2329,-1.6 0,-0.6471 0.0831,-1.1937 0.2479,-1.6426 0.1649,-0.4488 0.3937,-0.8165 0.6894,-1.0932 0.2942,-0.2781 0.643,-0.4805 1.0476,-0.6017 0.406,-0.1225 0.8474,-0.1831 1.327,-0.1831 0.4196,0 0.8119,0.0372 1.177,0.1129 0.3638,0.0743 0.6703,0.1638 0.921,0.2643"
                     style="fill:#231f20;fill-opacity:1;fill-rule:nonzero;stroke:none"
                     id="path112"
                     inkscape:connector-curvature="0" />
                  <path
                     d="m 119.3216,692.4255 0,5.1674 c 0,0.325 -0.034,0.632 -0.1049,0.9184 -0.0694,0.2878 -0.1921,0.5384 -0.3678,0.7518 -0.1744,0.212 -0.4046,0.3786 -0.6894,0.5025 -0.2847,0.124 -0.6362,0.1873 -1.0558,0.1873 -0.609,0 -1.1294,-0.1418 -1.5585,-0.4241 -0.4292,-0.2836 -0.7548,-0.6609 -0.9741,-1.1373 l -0.03,0.0165 c 0.0504,0.2011 0.0858,0.4461 0.1049,0.7339 0.0204,0.2878 0.03,0.548 0.03,0.7793 l 0,3.5592 -1.6035,0 0,-11.0549 1.6035,0 0,3.5331 c 0,0.3635 0.0504,0.7091 0.1498,1.034 0.0995,0.325 0.2357,0.6072 0.4047,0.8427 0.1703,0.2368 0.3746,0.4227 0.6144,0.5617 0.2398,0.1391 0.4986,0.2066 0.7793,0.2066 0.4291,0 0.722,-0.1253 0.8773,-0.3759 0.154,-0.252 0.2316,-0.6086 0.2316,-1.0712 l 0,-4.731 1.5885,0 z"
                     style="fill:#231f20;fill-opacity:1;fill-rule:nonzero;stroke:none"
                     id="path114"
                     inkscape:connector-curvature="0" />
                  <path
                     d="m 125.9006,697.2257 -3.162,0 c 0.0695,0.4695 0.252,0.8399 0.5463,1.1167 0.2943,0.2753 0.6675,0.413 1.1158,0.413 0.4809,0 0.8542,-0.1377 1.1253,-0.413 0.2697,-0.2768 0.3937,-0.6472 0.3746,-1.1167 m 1.6035,-0.4062 c 0,0.4269 -0.0599,0.8317 -0.1812,1.2089 -0.1185,0.3787 -0.3011,0.7133 -0.5463,0.9983 -0.2452,0.2877 -0.5599,0.5122 -0.9441,0.6788 -0.3842,0.1638 -0.8419,0.2464 -1.3719,0.2464 -0.5381,0 -1.0204,-0.0964 -1.4455,-0.2891 -0.425,-0.1955 -0.7806,-0.4613 -1.0708,-0.8027 -0.2902,-0.3401 -0.5095,-0.7435 -0.6594,-1.2076 -0.1498,-0.4653 -0.2247,-0.972 -0.2247,-1.5145 0,-1.2833 0.3065,-2.2209 0.9209,-2.8171 0.6144,-0.5989 1.5068,-0.895 2.6757,-0.895 0.4591,0 0.9087,0.04 1.3487,0.1212 0.4387,0.0799 0.8488,0.201 1.2289,0.3621 l -0.1499,1.2874 c -0.3106,-0.1515 -0.6539,-0.2699 -1.034,-0.3552 -0.3801,-0.0868 -0.7589,-0.1295 -1.1403,-0.1295 -0.7479,0 -1.3079,0.19 -1.6771,0.5701 -0.3692,0.38 -0.5449,0.9817 -0.5245,1.8078 l 4.7506,0 c 0.0299,0.2726 0.0449,0.5163 0.0449,0.7297"
                     style="fill:#231f20;fill-opacity:1;fill-rule:nonzero;stroke:none"
                     id="path116"
                     inkscape:connector-curvature="0" />
                  <path
                     d="m 138.3229,701.2542 0,1.3934 -7.1933,0 0,-1.3934 2.7725,0 0,-8.8285 1.6334,0 0,8.8285 2.7874,0 z"
                     style="fill:#231f20;fill-opacity:1;fill-rule:nonzero;stroke:none"
                     id="path118"
                     inkscape:connector-curvature="0" />
                  <path
                     d="m 142.6987,697.2257 -3.1621,0 c 0.0695,0.4695 0.2521,0.8399 0.5477,1.1167 0.2943,0.2753 0.6662,0.413 1.1158,0.413 0.4795,0 0.8542,-0.1377 1.1239,-0.413 0.2698,-0.2768 0.3951,-0.6472 0.3747,-1.1167 m 1.6035,-0.4062 c 0,0.4269 -0.06,0.8317 -0.1798,1.2089 -0.1199,0.3787 -0.3025,0.7133 -0.5463,0.9983 -0.2453,0.2877 -0.56,0.5122 -0.9442,0.6788 -0.3855,0.1638 -0.8419,0.2464 -1.3719,0.2464 -0.5395,0 -1.0217,-0.0964 -1.4454,-0.2891 -0.4251,-0.1955 -0.782,-0.4613 -1.0722,-0.8027 -0.2888,-0.3401 -0.5095,-0.7435 -0.6594,-1.2076 -0.1499,-0.4653 -0.2248,-0.972 -0.2248,-1.5145 0,-1.2833 0.3079,-2.2209 0.9223,-2.8171 0.6145,-0.5989 1.5054,-0.895 2.6744,-0.895 0.4591,0 0.9087,0.04 1.3487,0.1212 0.44,0.0799 0.8487,0.201 1.2288,0.3621 l -0.1498,1.2874 c -0.3093,-0.1515 -0.6539,-0.2699 -1.034,-0.3552 -0.3788,-0.0868 -0.7589,-0.1295 -1.139,-0.1295 -0.7493,0 -1.3092,0.19 -1.6784,0.5701 -0.3692,0.38 -0.5436,0.9817 -0.5245,1.8078 l 4.7505,0 c 0.03,0.2726 0.045,0.5163 0.045,0.7297"
                     style="fill:#231f20;fill-opacity:1;fill-rule:nonzero;stroke:none"
                     id="path120"
                     inkscape:connector-curvature="0" />
                  <path
                     d="m 150.9261,692.8033 -0.1348,1.3783 c -0.2207,-0.1102 -0.4714,-0.1997 -0.7575,-0.2644 -0.2847,-0.0647 -0.5722,-0.0991 -0.861,-0.0991 -0.3706,0 -0.6826,0.0578 -0.9373,0.1735 -0.2548,0.1143 -0.4591,0.2754 -0.6145,0.4833 -0.1539,0.2065 -0.2643,0.4516 -0.3296,0.7352 -0.0641,0.2823 -0.0968,0.5879 -0.0968,0.9156 0,0.7601 0.1703,1.359 0.5095,1.8079 0.3393,0.4461 0.8542,0.6705 1.5436,0.6705 0.2698,0 0.5286,-0.0275 0.7793,-0.084 0.2493,-0.0551 0.4891,-0.1225 0.7193,-0.2038 l 0.1648,1.4086 c -0.4999,0.1514 -1.0394,0.2272 -1.6184,0.2272 -0.639,0 -1.1962,-0.1005 -1.6717,-0.3002 -0.4741,-0.2024 -0.8664,-0.4791 -1.1757,-0.8358 -0.3106,-0.3593 -0.5422,-0.782 -0.6975,-1.2694 -0.154,-0.4888 -0.2316,-1.0217 -0.2316,-1.6 0,-0.6471 0.0817,-1.1937 0.2466,-1.6426 0.1662,-0.4488 0.3951,-0.8165 0.6893,-1.0932 0.2957,-0.2781 0.6444,-0.4805 1.0491,-0.6017 0.4046,-0.1225 0.8473,-0.1831 1.3255,-0.1831 0.421,0 0.8134,0.0372 1.1771,0.1129 0.3651,0.0743 0.6717,0.1638 0.9223,0.2643"
                     style="fill:#231f20;fill-opacity:1;fill-rule:nonzero;stroke:none"
                     id="path122"
                     inkscape:connector-curvature="0" />
                  <path
                     d="m 158.8229,692.4255 0,5.1674 c 0,0.325 -0.034,0.632 -0.1049,0.9184 -0.0694,0.2878 -0.1921,0.5384 -0.3664,0.7518 -0.1758,0.212 -0.406,0.3786 -0.6894,0.5025 -0.2847,0.124 -0.6376,0.1873 -1.0572,0.1873 -0.609,0 -1.1294,-0.1418 -1.5572,-0.4241 -0.4305,-0.2836 -0.7561,-0.6609 -0.9754,-1.1373 l -0.0286,0.0165 c 0.049,0.2011 0.0844,0.4461 0.1035,0.7339 0.0204,0.2878 0.03,0.548 0.03,0.7793 l 0,3.5592 -1.6022,0 0,-11.0549 1.6022,0 0,3.5331 c 0,0.3635 0.0504,0.7091 0.1498,1.034 0.1009,0.325 0.2357,0.6072 0.406,0.8427 0.169,0.2368 0.3733,0.4227 0.6131,0.5617 0.2411,0.1391 0.5,0.2066 0.7806,0.2066 0.4278,0 0.7207,-0.1253 0.876,-0.3759 0.154,-0.252 0.2316,-0.6086 0.2316,-1.0712 l 0,-4.731 1.5885,0 z"
                     style="fill:#231f20;fill-opacity:1;fill-rule:nonzero;stroke:none"
                     id="path124"
                     inkscape:connector-curvature="0" />
                  <path
                     d="m 167.4095,692.4255 0,5.1674 c 0,0.325 -0.0341,0.632 -0.1049,0.9184 -0.0695,0.2878 -0.1921,0.5384 -0.3665,0.7518 -0.1757,0.212 -0.406,0.3786 -0.6893,0.5025 -0.2848,0.124 -0.6376,0.1873 -1.0572,0.1873 -0.6281,0 -1.1635,-0.1501 -1.6035,-0.4447 -0.4387,-0.2974 -0.7698,-0.6843 -0.9891,-1.1594 l -0.015,0.0152 c 0.0409,0.2079 0.0681,0.4502 0.0831,0.7283 0.015,0.2768 0.0218,0.515 0.0218,0.7105 l -1.5272,0 0,-7.3773 1.6021,0 0,3.5482 c 0,0.3635 0.0504,0.7077 0.1499,1.0272 0.1008,0.318 0.2357,0.5989 0.406,0.8344 0.1689,0.2368 0.3733,0.4227 0.613,0.5617 0.2412,0.1391 0.5,0.2066 0.7807,0.2066 0.4278,0 0.7207,-0.1253 0.876,-0.3759 0.1539,-0.252 0.2316,-0.6086 0.2316,-1.0712 l 0,-4.731 1.5885,0 z"
                     style="fill:#231f20;fill-opacity:1;fill-rule:nonzero;stroke:none"
                     id="path126"
                     inkscape:connector-curvature="0" />
                  <path
                     d="m 171.3507,699.9523 -1.6035,0 0,-7.5273 1.6035,0 0,7.5273 z m 0.2248,2.1356 c 0,0.2932 -0.0995,0.5356 -0.2998,0.727 -0.1989,0.1913 -0.4386,0.2877 -0.7193,0.2877 -0.2902,0 -0.534,-0.0991 -0.7343,-0.296 -0.1989,-0.1969 -0.2997,-0.4365 -0.2997,-0.7187 0,-0.2837 0.1008,-0.5219 0.2997,-0.7201 0.2003,-0.1969 0.4441,-0.2947 0.7343,-0.2947 0.2807,0 0.5204,0.0978 0.7193,0.2947 0.2003,0.1982 0.2998,0.4364 0.2998,0.7201"
                     style="fill:#231f20;fill-opacity:1;fill-rule:nonzero;stroke:none"
                     id="path128"
                     inkscape:connector-curvature="0" />
                  <path
                     d="m 178.1547,694.753 c 0,0.3924 -0.0831,0.7118 -0.2479,0.95 -0.1649,0.2437 -0.3665,0.4406 -0.6063,0.5935 -0.2398,0.1542 -0.5054,0.2753 -0.7942,0.3621 -0.2902,0.0867 -0.5545,0.179 -0.7943,0.2754 -0.2398,0.095 -0.4428,0.2092 -0.6076,0.3373 -0.1635,0.1322 -0.2466,0.3139 -0.2466,0.5425 0,0.2809 0.1076,0.4998 0.3215,0.6581 0.2153,0.1597 0.5477,0.2382 0.9973,0.2382 0.5,0 0.985,-0.0716 1.4536,-0.2106 l 0.045,1.3176 c -0.2303,0.0386 -0.4646,0.0716 -0.7044,0.0964 -0.2397,0.0275 -0.47,0.0386 -0.6893,0.0386 -0.5096,0 -0.955,-0.0579 -1.3338,-0.1749 -0.3801,-0.1129 -0.6989,-0.2726 -0.9591,-0.4736 -0.2602,-0.2052 -0.455,-0.4393 -0.5844,-0.7091 -0.1308,-0.2699 -0.1949,-0.5577 -0.1949,-0.8661 0,-0.4144 0.0804,-0.7449 0.2398,-0.99 0.1594,-0.2437 0.3624,-0.4419 0.6063,-0.5851 0.2452,-0.1446 0.5068,-0.2603 0.7874,-0.3456 0.2793,-0.0895 0.5422,-0.1735 0.7861,-0.2603 0.2452,-0.0881 0.4482,-0.1968 0.6076,-0.3249 0.1594,-0.1322 0.2398,-0.3167 0.2398,-0.5563 0,-0.3001 -0.1349,-0.5314 -0.4046,-0.7008 -0.2711,-0.1693 -0.624,-0.2533 -1.064,-0.2533 -0.2902,0 -0.575,0.0234 -0.8542,0.0688 -0.2807,0.0441 -0.5341,0.1033 -0.7643,0.1735 l -0.045,-1.3782 c 0.2303,-0.0496 0.4796,-0.0882 0.7493,-0.1129 0.2698,-0.0262 0.5436,-0.0372 0.8242,-0.0372 0.4987,0 0.9483,0.0578 1.3488,0.1735 0.3992,0.1142 0.7384,0.2753 1.019,0.4819 0.2793,0.2079 0.4946,0.4543 0.6444,0.7366 0.1499,0.285 0.2248,0.5962 0.2248,0.9349"
                     style="fill:#231f20;fill-opacity:1;fill-rule:nonzero;stroke:none"
                     id="path130"
                     inkscape:connector-curvature="0" />
                  <path
                     d="m 184.8082,692.8033 -0.1348,1.3783 c -0.2207,-0.1102 -0.4714,-0.1997 -0.7575,-0.2644 -0.2848,-0.0647 -0.5708,-0.0991 -0.861,-0.0991 -0.3706,0 -0.6826,0.0578 -0.9373,0.1735 -0.2548,0.1143 -0.4592,0.2754 -0.6145,0.4833 -0.1539,0.2065 -0.2643,0.4516 -0.3283,0.7352 -0.0654,0.2823 -0.0981,0.5879 -0.0981,0.9156 0,0.7601 0.1703,1.359 0.5095,1.8079 0.3393,0.4461 0.8542,0.6705 1.5436,0.6705 0.2697,0 0.5286,-0.0275 0.7793,-0.084 0.2493,-0.0551 0.4891,-0.1225 0.7193,-0.2038 l 0.1648,1.4086 c -0.4999,0.1514 -1.0394,0.2272 -1.6184,0.2272 -0.639,0 -1.1962,-0.1005 -1.6717,-0.3002 -0.4741,-0.2024 -0.8664,-0.4791 -1.1757,-0.8358 -0.3092,-0.3593 -0.5422,-0.782 -0.6975,-1.2694 -0.154,-0.4888 -0.2316,-1.0217 -0.2316,-1.6 0,-0.6471 0.0817,-1.1937 0.2466,-1.6426 0.1662,-0.4488 0.3951,-0.8165 0.6893,-1.0932 0.2957,-0.2781 0.6444,-0.4805 1.049,-0.6017 0.4047,-0.1225 0.8474,-0.1831 1.327,-0.1831 0.4196,0 0.812,0.0372 1.1757,0.1129 0.3651,0.0743 0.6717,0.1638 0.9223,0.2643"
                     style="fill:#231f20;fill-opacity:1;fill-rule:nonzero;stroke:none"
                     id="path132"
                     inkscape:connector-curvature="0" />
                  <path
                     d="m 192.705,692.4255 0,5.1674 c 0,0.325 -0.034,0.632 -0.1049,0.9184 -0.0695,0.2878 -0.1921,0.5384 -0.3665,0.7518 -0.1757,0.212 -0.4046,0.3786 -0.6893,0.5025 -0.2847,0.124 -0.6376,0.1873 -1.0558,0.1873 -0.6104,0 -1.1308,-0.1418 -1.5586,-0.4241 -0.4305,-0.2836 -0.7561,-0.6609 -0.9754,-1.1373 l -0.0286,0.0165 c 0.049,0.2011 0.0844,0.4461 0.1035,0.7339 0.0204,0.2878 0.03,0.548 0.03,0.7793 l 0,3.5592 -1.6022,0 0,-11.0549 1.6022,0 0,3.5331 c 0,0.3635 0.0504,0.7091 0.1512,1.034 0.0994,0.325 0.2343,0.6072 0.4046,0.8427 0.1689,0.2368 0.3733,0.4227 0.6144,0.5617 0.2398,0.1391 0.4987,0.2066 0.7793,0.2066 0.4278,0 0.7207,-0.1253 0.876,-0.3759 0.1553,-0.252 0.2316,-0.6086 0.2316,-1.0712 l 0,-4.731 1.5885,0 z"
                     style="fill:#231f20;fill-opacity:1;fill-rule:nonzero;stroke:none"
                     id="path134"
                     inkscape:connector-curvature="0" />
                  <path
                     d="m 199.284,697.2257 -3.162,0 c 0.0694,0.4695 0.252,0.8399 0.5476,1.1167 0.2943,0.2753 0.6662,0.413 1.1158,0.413 0.4796,0 0.8542,-0.1377 1.124,-0.413 0.2697,-0.2768 0.395,-0.6472 0.3746,-1.1167 m 1.6035,-0.4062 c 0,0.4269 -0.0599,0.8317 -0.1798,1.2089 -0.1199,0.3787 -0.3025,0.7133 -0.5463,0.9983 -0.2453,0.2877 -0.56,0.5122 -0.9441,0.6788 -0.3856,0.1638 -0.842,0.2464 -1.3719,0.2464 -0.5395,0 -1.0218,-0.0964 -1.4469,-0.2891 -0.4237,-0.1955 -0.7806,-0.4613 -1.0708,-0.8027 -0.2902,-0.3401 -0.5095,-0.7435 -0.6594,-1.2076 -0.1498,-0.4653 -0.2248,-0.972 -0.2248,-1.5145 0,-1.2833 0.3066,-2.2209 0.9224,-2.8171 0.6144,-0.5989 1.5054,-0.895 2.6743,-0.895 0.4591,0 0.9087,0.04 1.3487,0.1212 0.4401,0.0799 0.8488,0.201 1.2289,0.3621 l -0.1499,1.2874 c -0.3093,-0.1515 -0.6539,-0.2699 -1.034,-0.3552 -0.3788,-0.0868 -0.7589,-0.1295 -1.139,-0.1295 -0.7493,0 -1.3092,0.19 -1.6784,0.5701 -0.3692,0.38 -0.5449,0.9817 -0.5245,1.8078 l 4.7506,0 c 0.0299,0.2726 0.0449,0.5163 0.0449,0.7297"
                     style="fill:#231f20;fill-opacity:1;fill-rule:nonzero;stroke:none"
                     id="path136"
                     inkscape:connector-curvature="0" />
                  <path
                     d="m 213.9993,692.4255 0,10.2219 -1.6185,0 0,-4.2256 -4.7792,0 0,4.2256 -1.6348,0 0,-10.2219 1.6348,0 0,4.5891 4.7792,0 0,-4.5891 1.6185,0 z"
                     style="fill:#231f20;fill-opacity:1;fill-rule:nonzero;stroke:none"
                     id="path138"
                     inkscape:connector-curvature="0" />
                  <path
                     d="m 221.1928,696.2239 c 0,-0.4062 -0.0504,-0.7628 -0.1498,-1.0671 -0.1008,-0.3029 -0.2384,-0.5562 -0.4128,-0.7559 -0.1744,-0.1996 -0.376,-0.3442 -0.6063,-0.442 -0.2302,-0.0936 -0.4754,-0.1404 -0.7343,-0.1404 -0.6294,0 -1.1049,0.2038 -1.4236,0.6127 -0.3202,0.4076 -0.4796,1.0161 -0.4796,1.8216 0,0.4062 0.0545,0.7614 0.1648,1.0533 0.1104,0.2961 0.2548,0.5384 0.4346,0.727 0.1799,0.19 0.3842,0.3318 0.6145,0.42 0.2302,0.0908 0.4632,0.1363 0.7043,0.1363 0.639,0 1.1144,-0.2052 1.4237,-0.6141 0.3092,-0.4048 0.4645,-0.9914 0.4645,-1.7514 m 1.6471,0.1033 c 0,0.6416 -0.0844,1.1882 -0.2534,1.6467 -0.1703,0.4544 -0.4046,0.8275 -0.7043,1.1194 -0.2997,0.2905 -0.658,0.5081 -1.0722,0.6471 -0.4141,0.1405 -0.8719,0.2121 -1.3705,0.2121 -0.5695,0 -1.0817,-0.0978 -1.5368,-0.2988 -0.4536,-0.1983 -0.8433,-0.4723 -1.1675,-0.8151 -0.3256,-0.3456 -0.5749,-0.7504 -0.7507,-1.2241 -0.1744,-0.4695 -0.2615,-0.9762 -0.2615,-1.52 0,-0.6403 0.079,-1.191 0.2397,-1.6523 0.1594,-0.4626 0.3897,-0.8399 0.6894,-1.1359 0.2997,-0.296 0.6594,-0.5177 1.079,-0.6623 0.4196,-0.1459 0.8882,-0.2189 1.4087,-0.2189 0.549,0 1.0517,0.0978 1.5054,0.2974 0.455,0.201 0.8446,0.475 1.1689,0.8234 0.3242,0.3511 0.5776,0.7614 0.7575,1.2364 0.1798,0.4778 0.2683,0.9927 0.2683,1.5449"
                     style="fill:#231f20;fill-opacity:1;fill-rule:nonzero;stroke:none"
                     id="path140"
                     inkscape:connector-curvature="0" />
                  <path
                     d="m 229.3896,692.8033 -0.1348,1.3783 c -0.2194,-0.1102 -0.4714,-0.1997 -0.7562,-0.2644 -0.2847,-0.0647 -0.5721,-0.0991 -0.8623,-0.0991 -0.3692,0 -0.6826,0.0578 -0.9373,0.1735 -0.2548,0.1143 -0.4591,0.2754 -0.6131,0.4833 -0.1553,0.2065 -0.2657,0.4516 -0.3297,0.7352 -0.0654,0.2823 -0.0981,0.5879 -0.0981,0.9156 0,0.7601 0.1703,1.359 0.5095,1.8079 0.3393,0.4461 0.8542,0.6705 1.5436,0.6705 0.2698,0 0.53,-0.0275 0.7793,-0.084 0.2493,-0.0551 0.4891,-0.1225 0.7193,-0.2038 l 0.1648,1.4086 c -0.4999,0.1514 -1.0381,0.2272 -1.6184,0.2272 -0.639,0 -1.1962,-0.1005 -1.6703,-0.3002 -0.4741,-0.2024 -0.8678,-0.4791 -1.1771,-0.8358 -0.3092,-0.3593 -0.5422,-0.782 -0.6961,-1.2694 -0.1554,-0.4888 -0.233,-1.0217 -0.233,-1.6 0,-0.6471 0.0831,-1.1937 0.2466,-1.6426 0.1662,-0.4488 0.3951,-0.8165 0.6907,-1.0932 0.2943,-0.2781 0.643,-0.4805 1.0477,-0.6017 0.4059,-0.1225 0.8473,-0.1831 1.3269,-0.1831 0.4196,0 0.812,0.0372 1.1771,0.1129 0.3637,0.0743 0.6703,0.1638 0.9209,0.2643"
                     style="fill:#231f20;fill-opacity:1;fill-rule:nonzero;stroke:none"
                     id="path142"
                     inkscape:connector-curvature="0" />
                  <path
                     d="m 237.2871,692.4255 0,5.1674 c 0,0.325 -0.0354,0.632 -0.1049,0.9184 -0.0695,0.2878 -0.1921,0.5384 -0.3678,0.7518 -0.1744,0.212 -0.4046,0.3786 -0.6894,0.5025 -0.2847,0.124 -0.6362,0.1873 -1.0558,0.1873 -0.609,0 -1.1294,-0.1418 -1.5586,-0.4241 -0.4291,-0.2836 -0.7547,-0.6609 -0.974,-1.1373 l -0.03,0.0165 c 0.0504,0.2011 0.0858,0.4461 0.1049,0.7339 0.0204,0.2878 0.03,0.548 0.03,0.7793 l 0,3.5592 -1.6035,0 0,-11.0549 1.6035,0 0,3.5331 c 0,0.3635 0.049,0.7091 0.1498,1.034 0.0995,0.325 0.2343,0.6072 0.4046,0.8427 0.1703,0.2368 0.3747,0.4227 0.6145,0.5617 0.2397,0.1391 0.4986,0.2066 0.7792,0.2066 0.4292,0 0.7221,-0.1253 0.8774,-0.3759 0.1539,-0.252 0.2316,-0.6086 0.2316,-1.0712 l 0,-4.731 1.5885,0 z"
                     style="fill:#231f20;fill-opacity:1;fill-rule:nonzero;stroke:none"
                     id="path144"
                     inkscape:connector-curvature="0" />
                  <path
                     d="m 244.0903,694.753 c 0,0.3924 -0.0831,0.7118 -0.2479,0.95 -0.1635,0.2437 -0.3665,0.4406 -0.6063,0.5935 -0.2397,0.1542 -0.5054,0.2753 -0.7942,0.3621 -0.2888,0.0867 -0.5545,0.179 -0.7943,0.2754 -0.2397,0.095 -0.4414,0.2092 -0.6062,0.3373 -0.1649,0.1322 -0.248,0.3139 -0.248,0.5425 0,0.2809 0.1077,0.4998 0.3229,0.6581 0.2139,0.1597 0.5463,0.2382 0.9959,0.2382 0.5,0 0.985,-0.0716 1.4536,-0.2106 l 0.045,1.3176 c -0.2302,0.0386 -0.4646,0.0716 -0.7043,0.0964 -0.2398,0.0275 -0.4687,0.0386 -0.6894,0.0386 -0.5095,0 -0.9537,-0.0579 -1.3338,-0.1749 -0.3787,-0.1129 -0.6988,-0.2726 -0.9591,-0.4736 -0.2602,-0.2052 -0.455,-0.4393 -0.5844,-0.7091 -0.1308,-0.2699 -0.1948,-0.5577 -0.1948,-0.8661 0,-0.4144 0.0803,-0.7449 0.2397,-0.99 0.1608,-0.2437 0.3624,-0.4419 0.6077,-0.5851 0.2438,-0.1446 0.5068,-0.2603 0.786,-0.3456 0.2793,-0.0895 0.5423,-0.1735 0.7861,-0.2603 0.2452,-0.0881 0.4482,-0.1968 0.6076,-0.3249 0.1594,-0.1322 0.2398,-0.3167 0.2398,-0.5563 0,-0.3001 -0.1349,-0.5314 -0.4046,-0.7008 -0.2698,-0.1693 -0.624,-0.2533 -1.064,-0.2533 -0.2902,0 -0.5736,0.0234 -0.8542,0.0688 -0.2793,0.0441 -0.5341,0.1033 -0.7643,0.1735 l -0.045,-1.3782 c 0.2303,-0.0496 0.4796,-0.0882 0.7493,-0.1129 0.2698,-0.0262 0.5436,-0.0372 0.8243,-0.0372 0.5,0 0.9495,0.0578 1.3487,0.1735 0.3992,0.1142 0.7398,0.2753 1.0191,0.4819 0.2792,0.2079 0.4945,0.4543 0.6444,0.7366 0.1498,0.285 0.2247,0.5962 0.2247,0.9349"
                     style="fill:#231f20;fill-opacity:1;fill-rule:nonzero;stroke:none"
                     id="path146"
                     inkscape:connector-curvature="0" />
                  <path
                     d="m 250.7437,692.8033 -0.1349,1.3783 c -0.2193,-0.1102 -0.4713,-0.1997 -0.7561,-0.2644 -0.2847,-0.0647 -0.5722,-0.0991 -0.8623,-0.0991 -0.3692,0 -0.6826,0.0578 -0.936,0.1735 -0.2561,0.1143 -0.4605,0.2754 -0.6144,0.4833 -0.1553,0.2065 -0.2657,0.4516 -0.3297,0.7352 -0.0654,0.2823 -0.0981,0.5879 -0.0981,0.9156 0,0.7601 0.1703,1.359 0.5095,1.8079 0.3406,0.4461 0.8542,0.6705 1.5436,0.6705 0.2697,0 0.5299,-0.0275 0.7793,-0.084 0.2493,-0.0551 0.4904,-0.1225 0.7193,-0.2038 l 0.1648,1.4086 c -0.4986,0.1514 -1.0381,0.2272 -1.6185,0.2272 -0.6389,0 -1.1961,-0.1005 -1.6702,-0.3002 -0.4741,-0.2024 -0.8678,-0.4791 -1.1771,-0.8358 -0.3093,-0.3593 -0.5422,-0.782 -0.6962,-1.2694 -0.1553,-0.4888 -0.2329,-1.0217 -0.2329,-1.6 0,-0.6471 0.0831,-1.1937 0.2479,-1.6426 0.1649,-0.4488 0.3937,-0.8165 0.6894,-1.0932 0.2942,-0.2781 0.6444,-0.4805 1.049,-0.6017 0.4046,-0.1225 0.846,-0.1831 1.3256,-0.1831 0.4196,0 0.8119,0.0372 1.1771,0.1129 0.3637,0.0743 0.6716,0.1638 0.9209,0.2643"
                     style="fill:#231f20;fill-opacity:1;fill-rule:nonzero;stroke:none"
                     id="path148"
                     inkscape:connector-curvature="0" />
                  <path
                     d="m 258.6412,692.4255 0,5.1674 c 0,0.325 -0.0341,0.632 -0.1049,0.9184 -0.0695,0.2878 -0.1921,0.5384 -0.3665,0.7518 -0.1757,0.212 -0.406,0.3786 -0.6907,0.5025 -0.2834,0.124 -0.6362,0.1873 -1.0558,0.1873 -0.609,0 -1.1294,-0.1418 -1.5586,-0.4241 -0.4291,-0.2836 -0.7547,-0.6609 -0.9741,-1.1373 l -0.0299,0.0165 c 0.0504,0.2011 0.0858,0.4461 0.1049,0.7339 0.0204,0.2878 0.0299,0.548 0.0299,0.7793 l 0,3.5592 -1.6021,0 0,-11.0549 1.6021,0 0,3.5331 c 0,0.3635 0.0504,0.7091 0.1499,1.034 0.1008,0.325 0.2357,0.6072 0.406,0.8427 0.1689,0.2368 0.3733,0.4227 0.613,0.5617 0.2412,0.1391 0.5,0.2066 0.7793,0.2066 0.4292,0 0.7221,-0.1253 0.8774,-0.3759 0.1539,-0.252 0.2316,-0.6086 0.2316,-1.0712 l 0,-4.731 1.5885,0 z"
                     style="fill:#231f20;fill-opacity:1;fill-rule:nonzero;stroke:none"
                     id="path150"
                     inkscape:connector-curvature="0" />
                  <path
                     d="m 267.2279,692.5734 0,7.3787 -1.6035,0 0,-3.5482 c 0,-0.3635 -0.0491,-0.7064 -0.1499,-1.0272 -0.0994,-0.318 -0.2343,-0.5989 -0.4032,-0.833 -0.1703,-0.2382 -0.376,-0.4254 -0.6158,-0.5645 -0.2384,-0.1377 -0.4986,-0.2065 -0.7793,-0.2065 -0.4291,0 -0.7207,0.1266 -0.876,0.3772 -0.1553,0.2506 -0.233,0.6072 -0.233,1.0726 l 0,4.7296 -1.5871,0 0,-5.1674 c 0,-0.325 0.0341,-0.6334 0.1035,-0.9198 0.0709,-0.2864 0.1921,-0.5356 0.3679,-0.7476 0.1744,-0.2162 0.4046,-0.3814 0.6893,-0.5053 0.2848,-0.124 0.6363,-0.1859 1.0572,-0.1859 0.6281,0 1.1635,0.1473 1.6022,0.4433 0.44,0.2988 0.7697,0.6843 0.989,1.1594 l 0.015,-0.0152 c -0.0395,-0.2065 -0.0667,-0.4488 -0.0817,-0.727 -0.015,-0.2781 -0.0232,-0.5149 -0.0232,-0.7132 l 1.5286,0 z"
                     style="fill:#231f20;fill-opacity:1;fill-rule:nonzero;stroke:none"
                     id="path152"
                     inkscape:connector-curvature="0" />
                  <path
                     d="m 271.1696,703.4813 -1.6035,0 0,-11.0549 1.6035,0 0,11.0549 z"
                     style="fill:#231f20;fill-opacity:1;fill-rule:nonzero;stroke:none"
                     id="path154"
                     inkscape:connector-curvature="0" />
                  <path
                     d="m 277.7482,697.2257 -3.1621,0 c 0.0695,0.4695 0.2521,0.8399 0.5464,1.1167 0.2942,0.2753 0.6675,0.413 1.1157,0.413 0.4809,0 0.8556,-0.1377 1.1253,-0.413 0.2698,-0.2768 0.3938,-0.6472 0.3747,-1.1167 m 1.6035,-0.4062 c 0,0.4269 -0.06,0.8317 -0.1798,1.2089 -0.1199,0.3787 -0.3025,0.7133 -0.5463,0.9983 -0.2466,0.2877 -0.5613,0.5122 -0.9455,0.6788 -0.3842,0.1638 -0.842,0.2464 -1.3719,0.2464 -0.5382,0 -1.0204,-0.0964 -1.4455,-0.2891 -0.425,-0.1955 -0.7806,-0.4613 -1.0708,-0.8027 -0.2902,-0.3401 -0.5095,-0.7435 -0.6594,-1.2076 -0.1499,-0.4653 -0.2248,-0.972 -0.2248,-1.5145 0,-1.2833 0.3065,-2.2209 0.921,-2.8171 0.6144,-0.5989 1.5067,-0.895 2.6757,-0.895 0.4591,0 0.9087,0.04 1.3487,0.1212 0.4387,0.0799 0.8487,0.201 1.2288,0.3621 l -0.1498,1.2874 c -0.3106,-0.1515 -0.6539,-0.2699 -1.034,-0.3552 -0.3801,-0.0868 -0.7589,-0.1295 -1.1403,-0.1295 -0.748,0 -1.3079,0.19 -1.6771,0.5701 -0.3692,0.38 -0.545,0.9817 -0.5245,1.8078 l 4.7505,0 c 0.03,0.2726 0.045,0.5163 0.045,0.7297"
                     style="fill:#231f20;fill-opacity:1;fill-rule:nonzero;stroke:none"
                     id="path156"
                     inkscape:connector-curvature="0" />
                  <path
                     d="m 290.6654,692.4255 0,1.5146 -2.4127,0 -1.5735,0 c -0.3897,0 -0.654,-0.01 -0.7943,-0.0317 0.0995,0.1432 0.1894,0.2781 0.2684,0.4103 0.0804,0.1308 0.1662,0.2671 0.2561,0.409 l 4.1961,6.6186 0,1.3011 -6.5189,0 0,-1.4691 2.5326,0 1.2439,0 c 0.3201,0 0.5885,0.005 0.8092,0.0165 -0.1403,-0.1831 -0.2698,-0.3621 -0.3896,-0.5383 -0.1199,-0.1763 -0.2398,-0.3663 -0.3597,-0.5687 l -3.9863,-6.4052 0,-1.2571 6.7287,0 z"
                     style="fill:#231f20;fill-opacity:1;fill-rule:nonzero;stroke:none"
                     id="path158"
                     inkscape:connector-curvature="0" />
                  <path
                     d="m 294.9806,702.2995 c 0,0.2533 -0.0872,0.4668 -0.2616,0.643 -0.1757,0.1776 -0.3924,0.2657 -0.6526,0.2657 -0.2588,0 -0.4741,-0.0881 -0.6444,-0.2657 -0.1703,-0.1762 -0.2547,-0.3897 -0.2547,-0.643 0,-0.263 0.0844,-0.4819 0.2547,-0.6582 0.1703,-0.1776 0.3856,-0.2657 0.6444,-0.2657 0.2602,0 0.4769,0.0881 0.6526,0.2657 0.1744,0.1763 0.2616,0.3952 0.2616,0.6582 m 2.9372,0 c 0,0.2533 -0.0872,0.4668 -0.2629,0.643 -0.1744,0.1776 -0.3869,0.2657 -0.6362,0.2657 -0.2602,0 -0.4769,-0.0881 -0.6512,-0.2657 -0.1758,-0.1762 -0.263,-0.3897 -0.263,-0.643 0,-0.263 0.0872,-0.4819 0.263,-0.6582 0.1743,-0.1776 0.391,-0.2657 0.6512,-0.2657 0.2493,0 0.4618,0.0881 0.6362,0.2657 0.1757,0.1763 0.2629,0.3952 0.2629,0.6582 m 0.8243,-9.7262 0,7.3786 -1.6035,0 0,-3.5482 c 0,-0.3635 -0.0504,-0.7063 -0.1499,-1.0271 -0.0995,-0.3181 -0.2343,-0.599 -0.4046,-0.833 -0.1703,-0.2382 -0.3747,-0.4255 -0.6144,-0.5632 -0.2398,-0.139 -0.5,-0.2079 -0.7793,-0.2079 -0.4292,0 -0.7207,0.1267 -0.876,0.3773 -0.1553,0.2506 -0.233,0.6072 -0.233,1.0726 l 0,4.7295 -1.5885,0 0,-5.1674 c 0,-0.3249 0.0354,-0.632 0.1049,-0.9184 0.0709,-0.2863 0.1921,-0.5369 0.3678,-0.749 0.1744,-0.2161 0.4047,-0.3814 0.6894,-0.5053 0.2834,-0.1225 0.6362,-0.1859 1.0558,-0.1859 0.6294,0 1.1649,0.1474 1.6035,0.4434 0.4401,0.2988 0.7684,0.6843 0.9891,1.1593 l 0.015,-0.0151 c -0.0395,-0.2066 -0.0668,-0.4489 -0.0817,-0.727 -0.015,-0.2781 -0.0232,-0.515 -0.0232,-0.7132 l 1.5286,0 z"
                     style="fill:#231f20;fill-opacity:1;fill-rule:nonzero;stroke:none"
                     id="path160"
                     inkscape:connector-curvature="0" />
                  <path
                     d="m 304.9608,699.9525 c -0.3487,0.0303 -0.6593,0.003 -0.9291,-0.0826 -0.2697,-0.084 -0.5041,-0.2135 -0.7043,-0.3842 -0.2003,-0.1748 -0.3692,-0.3731 -0.5096,-0.6017 -0.1403,-0.2285 -0.2493,-0.4654 -0.3296,-0.7132 l -0.03,0 c 0.0504,0.2864 0.0885,0.5797 0.1131,0.8757 0.0245,0.2974 0.0367,0.5494 0.0367,0.7573 l -1.5285,0 0,-7.3787 1.6035,0 0,2.9837 c 0,1.1029 0.1798,1.9056 0.5395,2.4095 0.3596,0.5026 0.9141,0.6843 1.6634,0.5439 l 0.0749,1.5903 z"
                     style="fill:#231f20;fill-opacity:1;fill-rule:nonzero;stroke:none"
                     id="path162"
                     inkscape:connector-curvature="0" />
                  <path
                     d="m 308.0038,699.9523 -1.6035,0 0,-7.5273 1.6035,0 0,7.5273 z m 0.2248,2.1356 c 0,0.2932 -0.1008,0.5356 -0.2997,0.727 -0.2003,0.1913 -0.4401,0.2877 -0.7193,0.2877 -0.2902,0 -0.5355,-0.0991 -0.7344,-0.296 -0.2002,-0.1969 -0.2997,-0.4365 -0.2997,-0.7187 0,-0.2837 0.0995,-0.5219 0.2997,-0.7201 0.1989,-0.1969 0.4442,-0.2947 0.7344,-0.2947 0.2792,0 0.519,0.0978 0.7193,0.2947 0.1989,0.1982 0.2997,0.4364 0.2997,0.7201"
                     style="fill:#231f20;fill-opacity:1;fill-rule:nonzero;stroke:none"
                     id="path164"
                     inkscape:connector-curvature="0" />
                  <path
                     d="m 315.1513,692.8033 -0.1349,1.3783 c -0.2193,-0.1102 -0.4713,-0.1997 -0.7574,-0.2644 -0.2834,-0.0647 -0.5709,-0.0991 -0.861,-0.0991 -0.3692,0 -0.6826,0.0578 -0.936,0.1735 -0.2561,0.1143 -0.4605,0.2754 -0.6144,0.4833 -0.1553,0.2065 -0.2657,0.4516 -0.3297,0.7352 -0.0654,0.2823 -0.0981,0.5879 -0.0981,0.9156 0,0.7601 0.1703,1.359 0.5095,1.8079 0.3393,0.4461 0.8542,0.6705 1.5436,0.6705 0.2697,0 0.5299,-0.0275 0.7793,-0.084 0.2493,-0.0551 0.4904,-0.1225 0.7193,-0.2038 l 0.1648,1.4086 c -0.4986,0.1514 -1.0381,0.2272 -1.6185,0.2272 -0.6389,0 -1.1961,-0.1005 -1.6702,-0.3002 -0.4755,-0.2024 -0.8678,-0.4791 -1.1771,-0.8358 -0.3093,-0.3593 -0.5422,-0.782 -0.6962,-1.2694 -0.1553,-0.4888 -0.2329,-1.0217 -0.2329,-1.6 0,-0.6471 0.0831,-1.1937 0.2466,-1.6426 0.1662,-0.4488 0.395,-0.8165 0.6907,-1.0932 0.2942,-0.2781 0.6444,-0.4805 1.049,-0.6017 0.4046,-0.1225 0.846,-0.1831 1.3256,-0.1831 0.4196,0 0.8119,0.0372 1.1771,0.1129 0.3637,0.0743 0.6716,0.1638 0.9209,0.2643"
                     style="fill:#231f20;fill-opacity:1;fill-rule:nonzero;stroke:none"
                     id="path166"
                     inkscape:connector-curvature="0" />
                  <path
                     d="m 323.0488,692.4255 0,5.1674 c 0,0.325 -0.0354,0.632 -0.1049,0.9184 -0.0695,0.2878 -0.1921,0.5384 -0.3665,0.7518 -0.1757,0.212 -0.406,0.3786 -0.6907,0.5025 -0.2847,0.124 -0.6362,0.1873 -1.0558,0.1873 -0.609,0 -1.1294,-0.1418 -1.5586,-0.4241 -0.4291,-0.2836 -0.7547,-0.6609 -0.9741,-1.1373 l -0.0299,0.0165 c 0.0504,0.2011 0.0858,0.4461 0.1049,0.7339 0.0204,0.2878 0.0299,0.548 0.0299,0.7793 l 0,3.5592 -1.6035,0 0,-11.0549 1.6035,0 0,3.5331 c 0,0.3635 0.0491,0.7091 0.1499,1.034 0.0994,0.325 0.2357,0.6072 0.4046,0.8427 0.1703,0.2368 0.3747,0.4227 0.6144,0.5617 0.2412,0.1391 0.5,0.2066 0.7793,0.2066 0.4292,0 0.7221,-0.1253 0.8774,-0.3759 0.1539,-0.252 0.2316,-0.6086 0.2316,-1.0712 l 0,-4.731 1.5885,0 z"
                     style="fill:#231f20;fill-opacity:1;fill-rule:nonzero;stroke:none"
                     id="path168"
                     inkscape:connector-curvature="0" />
                  <path
                     d="m 36.91601,676.3857 c 0,0.5163 -0.11035,0.9362 -0.32969,1.2584 -0.21934,0.3208 -0.49318,0.5893 -0.81742,0.7986 -0.32424,0.2093 -0.67846,0.3828 -1.06401,0.5273 -0.38418,0.1405 -0.7384,0.2851 -1.06264,0.431 -0.3256,0.1473 -0.59808,0.3194 -0.81742,0.5205 -0.21934,0.1996 -0.32969,0.464 -0.32969,0.7972 0,0.4089 0.16076,0.7449 0.47955,1.0023 0.32016,0.2603 0.79426,0.3883 1.42367,0.3883 0.29972,0 0.60762,-0.0248 0.92096,-0.0743 0.31607,-0.051 0.61715,-0.1212 0.90733,-0.2135 l 0.08992,1.4705 c -0.30926,0.051 -0.61715,0.0923 -0.92232,0.1281 -0.30381,0.0358 -0.60625,0.0523 -0.90597,0.0523 -0.58991,0 -1.11442,-0.0702 -1.57353,-0.212 -0.45912,-0.1405 -0.85012,-0.3374 -1.16891,-0.5921 -0.31879,-0.2547 -0.56265,-0.559 -0.7275,-0.917 -0.16485,-0.3552 -0.24659,-0.7421 -0.24659,-1.1634 0,-0.5356 0.11035,-0.9666 0.32969,-1.2957 0.22071,-0.3277 0.49182,-0.5948 0.81742,-0.8054 0.32424,-0.2079 0.67846,-0.3801 1.06264,-0.5122 0.38555,-0.1295 0.73977,-0.2713 1.06537,-0.4227 0.32424,-0.1529 0.59672,-0.3319 0.81606,-0.5356 0.21934,-0.2038 0.32969,-0.4778 0.32969,-0.8207 0,-0.2616 -0.05313,-0.4915 -0.15667,-0.687 -0.10627,-0.1955 -0.24795,-0.3566 -0.42778,-0.475 -0.17984,-0.1212 -0.391,-0.2135 -0.63759,-0.2727 -0.24386,-0.0578 -0.5068,-0.0867 -0.78608,-0.0867 -0.37057,0 -0.73977,0.0344 -1.10897,0.106 -0.3692,0.0702 -0.69889,0.1611 -0.98907,0.2713 l -0.08992,-1.56 c 0.29019,-0.0799 0.61034,-0.1405 0.95911,-0.1804 0.35012,-0.0413 0.70979,-0.0606 1.07899,-0.0606 0.59944,0 1.13893,0.0771 1.61848,0.2341 0.47956,0.1569 0.8869,0.3745 1.22068,0.6512 0.33514,0.2782 0.59263,0.61 0.77246,0.99 0.17983,0.3773 0.26975,0.8 0.26975,1.2599"
                     style="fill:#231f20;fill-opacity:1;fill-rule:nonzero;stroke:none"
                     id="path170"
                     inkscape:connector-curvature="0" />
                  <path
                     d="m 49.09948,680.7772 -1.66345,0 -1.03403,-3.5592 c -0.11035,-0.3828 -0.20435,-0.7311 -0.28473,-1.0451 -0.08038,-0.3125 -0.1594,-0.6457 -0.23978,-0.9996 l -0.01498,0 c -0.08038,0.3236 -0.16076,0.643 -0.23978,0.9624 -0.08038,0.3167 -0.19482,0.705 -0.34468,1.1594 l -1.12395,3.4821 -1.61848,0 -1.10897,-3.5441 c -0.10899,-0.3235 -0.20435,-0.654 -0.28473,-0.9913 -0.08038,-0.3387 -0.1594,-0.6954 -0.23978,-1.0685 l -0.01498,0 c -0.07902,0.3442 -0.16757,0.6926 -0.26294,1.0451 -0.094,0.3524 -0.19209,0.7077 -0.29154,1.0602 l -0.98908,3.4986 -1.75336,0 2.29286,-7.5274 1.69341,0 1.12395,3.635 c 0.09946,0.3235 0.18937,0.6361 0.26975,0.939 0.08038,0.3029 0.1594,0.6223 0.23978,0.9542 l 0.01498,0 c 0.06948,-0.2919 0.14033,-0.5673 0.20981,-0.8248 0.07084,-0.2575 0.14577,-0.5136 0.22479,-0.7655 l 1.28879,-3.9379 1.76835,0 2.38277,7.5274 z"
                     style="fill:#231f20;fill-opacity:1;fill-rule:nonzero;stroke:none"
                     id="path172"
                     inkscape:connector-curvature="0" />
                  <path
                     d="m 52.0663,680.7766 -1.6035,0 0,-7.5273 1.6035,0 0,7.5273 z m 0.22479,2.1356 c 0,0.2932 -0.10082,0.5356 -0.29972,0.727 -0.20027,0.1927 -0.43868,0.2877 -0.71933,0.2877 -0.28882,0 -0.53405,-0.0977 -0.73431,-0.2946 -0.20027,-0.1969 -0.29972,-0.4379 -0.29972,-0.7201 0,-0.2823 0.09945,-0.5219 0.29972,-0.7188 0.20026,-0.1969 0.44549,-0.2946 0.73431,-0.2946 0.28065,0 0.51906,0.0977 0.71933,0.2946 0.1989,0.1969 0.29972,0.4365 0.29972,0.7188"
                     style="fill:#231f20;fill-opacity:1;fill-rule:nonzero;stroke:none"
                     id="path174"
                     inkscape:connector-curvature="0" />
                  <path
                     d="m 58.87021,675.5776 c 0,0.3937 -0.08311,0.7118 -0.24795,0.95 -0.16485,0.2437 -0.36648,0.442 -0.60625,0.5948 -0.23978,0.1528 -0.50544,0.274 -0.79426,0.3608 -0.29018,0.0881 -0.55448,0.1803 -0.79426,0.2753 -0.23977,0.095 -0.44277,0.2093 -0.60761,0.3374 -0.16485,0.1321 -0.24659,0.3139 -0.24659,0.5438 0,0.2795 0.10763,0.4998 0.32152,0.6582 0.21525,0.1583 0.54767,0.2368 0.99725,0.2368 0.49998,0 0.98362,-0.0702 1.45364,-0.2107 l 0.04496,1.3177 c -0.23024,0.0399 -0.46457,0.0716 -0.70435,0.0978 -0.23977,0.0261 -0.47001,0.0371 -0.68935,0.0371 -0.50952,0 -0.95502,-0.0578 -1.33375,-0.1735 -0.3801,-0.1142 -0.6989,-0.2726 -0.95911,-0.4736 -0.26021,-0.2051 -0.45503,-0.4406 -0.58445,-0.7105 -0.13079,-0.2698 -0.19482,-0.5576 -0.19482,-0.866 0,-0.4145 0.08038,-0.7449 0.23978,-0.99 0.15939,-0.2437 0.36239,-0.4406 0.60761,-0.5838 0.24386,-0.1446 0.50544,-0.2616 0.78608,-0.3456 0.27929,-0.0895 0.54086,-0.1748 0.78609,-0.2616 0.24522,-0.0867 0.44821,-0.1955 0.60761,-0.3249 0.1594,-0.1322 0.23978,-0.3153 0.23978,-0.5563 0,-0.2988 -0.13624,-0.5315 -0.40462,-0.7008 -0.26975,-0.168 -0.62397,-0.2534 -1.06401,-0.2534 -0.29018,0 -0.57492,0.0235 -0.8542,0.0689 -0.28065,0.0454 -0.53541,0.1033 -0.76429,0.1749 l -0.04495,-1.3783 c 0.22887,-0.0509 0.47955,-0.0895 0.74929,-0.1143 0.26975,-0.0261 0.54359,-0.0372 0.82423,-0.0372 0.49999,0 0.94821,0.0579 1.34874,0.1749 0.39918,0.1129 0.73977,0.274 1.01905,0.4805 0.27928,0.2079 0.49454,0.4544 0.6444,0.7367 0.14986,0.285 0.22479,0.5962 0.22479,0.9349"
                     style="fill:#231f20;fill-opacity:1;fill-rule:nonzero;stroke:none"
                     id="path176"
                     inkscape:connector-curvature="0" />
                  <path
                     d="m 65.17904,675.5776 c 0,0.3937 -0.08311,0.7118 -0.24795,0.95 -0.16485,0.2437 -0.36648,0.442 -0.60626,0.5948 -0.23977,0.1528 -0.50543,0.274 -0.79425,0.3608 -0.29019,0.0881 -0.55448,0.1803 -0.79426,0.2753 -0.23978,0.095 -0.44277,0.2093 -0.60761,0.3374 -0.16485,0.1321 -0.24659,0.3139 -0.24659,0.5438 0,0.2795 0.10763,0.4998 0.32152,0.6582 0.21525,0.1583 0.54767,0.2368 0.99725,0.2368 0.49998,0 0.98362,-0.0702 1.45364,-0.2107 l 0.04495,1.3177 c -0.23023,0.0399 -0.46456,0.0716 -0.70434,0.0978 -0.23977,0.0261 -0.47001,0.0371 -0.68935,0.0371 -0.50953,0 -0.95502,-0.0578 -1.33376,-0.1735 -0.38009,-0.1142 -0.69889,-0.2726 -0.9591,-0.4736 -0.26021,-0.2051 -0.45503,-0.4406 -0.58445,-0.7105 -0.13079,-0.2698 -0.19482,-0.5576 -0.19482,-0.866 0,-0.4145 0.08038,-0.7449 0.23978,-0.99 0.16075,-0.2437 0.36238,-0.4406 0.60761,-0.5838 0.24386,-0.1446 0.50544,-0.2616 0.78608,-0.3456 0.27929,-0.0895 0.54222,-0.1748 0.78609,-0.2616 0.24522,-0.0867 0.44821,-0.1955 0.60761,-0.3249 0.1594,-0.1322 0.23978,-0.3153 0.23978,-0.5563 0,-0.2988 -0.13624,-0.5315 -0.40463,-0.7008 -0.26974,-0.168 -0.62396,-0.2534 -1.064,-0.2534 -0.29018,0 -0.57492,0.0235 -0.8542,0.0689 -0.28065,0.0454 -0.53541,0.1033 -0.76429,0.1749 l -0.04496,-1.3783 c 0.22888,-0.0509 0.47956,-0.0895 0.7493,-0.1143 0.26975,-0.0261 0.54359,-0.0372 0.82423,-0.0372 0.49999,0 0.94821,0.0579 1.34874,0.1749 0.39917,0.1129 0.73976,0.274 1.01905,0.4805 0.27928,0.2079 0.49454,0.4544 0.6444,0.7367 0.14986,0.285 0.22479,0.5962 0.22479,0.9349"
                     style="fill:#231f20;fill-opacity:1;fill-rule:nonzero;stroke:none"
                     id="path178"
                     inkscape:connector-curvature="0" />
                  <path
                     d="m 75.56378,682.0801 0,1.3934 -5.27507,0 0,-10.2233 1.63348,0 0,4.4831 3.44677,0 0,1.348 -3.44677,0 0,2.9988 3.64159,0 z"
                     style="fill:#231f20;fill-opacity:1;fill-rule:nonzero;stroke:none"
                     id="path180"
                     inkscape:connector-curvature="0" />
                  <path
                     d="m 81.18353,678.0517 -3.16205,0 c 0.06948,0.4695 0.25204,0.8399 0.54631,1.1152 0.29427,0.2754 0.66756,0.4131 1.11578,0.4131 0.48091,0 0.8542,-0.1377 1.12531,-0.4131 0.26974,-0.2753 0.39372,-0.6457 0.37465,-1.1152 m 1.6035,-0.4076 c 0,0.4282 -0.05995,0.8316 -0.1812,1.2103 -0.11852,0.3772 -0.30108,0.7118 -0.5463,0.9968 -0.24523,0.2878 -0.55994,0.5122 -0.94412,0.6788 -0.38419,0.1639 -0.84194,0.2465 -1.3719,0.2465 -0.53813,0 -1.02041,-0.095 -1.44547,-0.2891 -0.42505,-0.1942 -0.78063,-0.4613 -1.07081,-0.8028 -0.29019,-0.3387 -0.50953,-0.7435 -0.65939,-1.2061 -0.14986,-0.4668 -0.22479,-0.9721 -0.22479,-1.5146 0,-1.2832 0.30653,-2.2209 0.92096,-2.8184 0.61442,-0.5976 1.50677,-0.895 2.67568,-0.895 0.45912,0 0.9087,0.0399 1.34874,0.1212 0.43868,0.0798 0.84875,0.201 1.22885,0.3635 l -0.14986,1.2873 c -0.31062,-0.1528 -0.65393,-0.2698 -1.03403,-0.3566 -0.3801,-0.0853 -0.75884,-0.1294 -1.1403,-0.1294 -0.74794,0 -1.30787,0.19 -1.67707,0.5714 -0.3692,0.3787 -0.54494,0.9817 -0.52451,1.8078 l 4.75056,0 c 0.02997,0.2713 0.04496,0.515 0.04496,0.7284"
                     style="fill:#231f20;fill-opacity:1;fill-rule:nonzero;stroke:none"
                     id="path182"
                     inkscape:connector-curvature="0" />
                  <path
                     d="m 89.02038,677.1494 c 0,-0.3043 -0.03951,-0.61 -0.11989,-0.9156 -0.08038,-0.3084 -0.20026,-0.5824 -0.35966,-0.8261 -0.1594,-0.2437 -0.35149,-0.4406 -0.57628,-0.5949 -0.22615,-0.1542 -0.48773,-0.2299 -0.78745,-0.2299 -0.50952,0 -0.88417,0.1942 -1.12394,0.5811 -0.23978,0.3882 -0.35967,0.9404 -0.35967,1.6591 0,0.9555 0.19754,1.6385 0.59263,2.0515 0.39372,0.4117 0.91142,0.6155 1.55037,0.6155 0.3801,0 0.77382,-0.0427 1.18389,-0.1294 l 0,-2.2113 z m 1.58852,-3.7506 0,10.9076 -1.58852,0 0,-3.5895 c -0.20027,0.0193 -0.39236,0.0344 -0.57628,0.0454 -0.18528,0.01 -0.36784,0.0152 -0.54767,0.0152 -0.59944,0 -1.14166,-0.0992 -1.6253,-0.2933 -0.485,-0.1942 -0.89507,-0.4695 -1.22885,-0.8261 -0.33514,-0.3553 -0.59263,-0.7862 -0.77246,-1.2902 -0.17983,-0.508 -0.26975,-1.0739 -0.26975,-1.6976 0,-1.052 0.22752,-1.8864 0.68119,-2.4991 0.45503,-0.6127 1.14166,-0.9211 2.06125,-0.9211 0.579,0 1.07899,0.1418 1.4986,0.4268 0.41961,0.2837 0.72886,0.654 0.92913,1.1125 l 0.02997,0 c -0.03951,-0.2092 -0.06675,-0.4433 -0.0831,-0.7035 -0.01363,-0.2575 -0.0218,-0.4875 -0.0218,-0.6871 l 1.51359,0 z"
                     style="fill:#231f20;fill-opacity:1;fill-rule:nonzero;stroke:none"
                     id="path184"
                     inkscape:connector-curvature="0" />
                  <path
                     d="m 97.18734,678.0517 -3.16205,0 c 0.06948,0.4695 0.25204,0.8399 0.54767,1.1152 0.29427,0.2754 0.6662,0.4131 1.11578,0.4131 0.47955,0 0.8542,-0.1377 1.12395,-0.4131 0.26974,-0.2753 0.39508,-0.6457 0.37465,-1.1152 m 1.6035,-0.4076 c 0,0.4282 -0.05995,0.8316 -0.17984,1.2103 -0.11988,0.3772 -0.30244,0.7118 -0.5463,0.9968 -0.24523,0.2878 -0.55993,0.5122 -0.94412,0.6788 -0.38555,0.1639 -0.84194,0.2465 -1.3719,0.2465 -0.53949,0 -1.02177,-0.095 -1.44547,-0.2891 -0.42505,-0.1942 -0.78199,-0.4613 -1.07218,-0.8028 -0.28882,-0.3387 -0.50952,-0.7435 -0.65938,-1.2061 -0.14986,-0.4668 -0.22479,-0.9721 -0.22479,-1.5146 0,-1.2832 0.3079,-2.2209 0.92232,-2.8184 0.61443,-0.5976 1.50541,-0.895 2.67432,-0.895 0.45911,0 0.90869,0.0399 1.34874,0.1212 0.44004,0.0798 0.84875,0.201 1.22885,0.3635 l -0.14986,1.2873 c -0.30926,-0.1528 -0.65394,-0.2698 -1.03403,-0.3566 -0.37874,-0.0853 -0.75884,-0.1294 -1.13894,-0.1294 -0.7493,0 -1.30923,0.19 -1.67843,0.5714 -0.3692,0.3787 -0.54358,0.9817 -0.52451,1.8078 l 4.75056,0 c 0.02997,0.2713 0.04496,0.515 0.04496,0.7284"
                     style="fill:#231f20;fill-opacity:1;fill-rule:nonzero;stroke:none"
                     id="path186"
                     inkscape:connector-curvature="0" />
                  <path
                     d="m 104.4847,680.7772 c -0.3488,0.0303 -0.658,0.003 -0.9291,-0.0812 -0.2698,-0.0854 -0.5041,-0.2148 -0.703,-0.3856 -0.2003,-0.1748 -0.3706,-0.3731 -0.5109,-0.6003 -0.139,-0.2299 -0.2493,-0.4668 -0.3283,-0.7146 l -0.03,0 c 0.049,0.2878 0.0872,0.5811 0.1117,0.8757 0.0245,0.2988 0.0368,0.5494 0.0368,0.7587 l -1.5286,0 0,-7.3801 1.6035,0 0,2.9837 c 0,1.1043 0.1799,1.9056 0.5409,2.4109 0.3583,0.5012 0.9141,0.6843 1.6621,0.5439 l 0.0749,1.5889 z"
                     style="fill:#231f20;fill-opacity:1;fill-rule:nonzero;stroke:none"
                     id="path188"
                     inkscape:connector-curvature="0" />
                  <path
                     d="m 109.5051,676.5162 c 0,-0.2547 -0.0449,-0.4984 -0.1348,-0.7339 -0.09,-0.2382 -0.2139,-0.4489 -0.3747,-0.6361 -0.1594,-0.19 -0.3515,-0.3415 -0.5763,-0.4544 -0.2248,-0.1129 -0.4727,-0.1693 -0.7425,-0.1693 -0.3201,0 -0.5681,0.0771 -0.7493,0.2327 -0.1798,0.1569 -0.2683,0.3648 -0.2683,0.6306 0,0.1514 0.0367,0.3001 0.1117,0.4516 0.0749,0.1514 0.2166,0.2877 0.4278,0.4117 0.2084,0.1211 0.4986,0.2203 0.8678,0.296 0.3692,0.0743 0.8501,0.1129 1.4386,0.1129 l 0,-0.1418 z m 1.6485,-3.12 c -0.0191,0.3112 -0.0313,0.6389 -0.0368,0.99 -0.005,0.3483 -0.008,0.6788 -0.008,0.9899 l 0,2.9548 c 0,0.369 -0.0449,0.705 -0.1348,1.0051 -0.09,0.3015 -0.2439,0.5576 -0.4646,0.7724 -0.2193,0.2121 -0.5163,0.3787 -0.891,0.4957 -0.3746,0.1157 -0.8474,0.1735 -1.4168,0.1735 -0.4796,0 -0.9442,-0.0482 -1.3924,-0.1446 -0.4509,-0.095 -0.8596,-0.2134 -1.2288,-0.3566 l 0.1498,-1.3782 c 0.3188,0.2037 0.6812,0.3538 1.0858,0.4557 0.4047,0.1005 0.782,0.1515 1.1308,0.1515 0.5899,0 0.9959,-0.1088 1.2207,-0.3277 0.2248,-0.2189 0.3378,-0.5466 0.3378,-0.9817 l 0,-0.4475 c -0.6689,0 -1.2738,-0.0578 -1.8133,-0.1763 -0.5395,-0.1156 -1.0013,-0.2877 -1.3855,-0.5122 -0.3842,-0.2258 -0.6798,-0.5011 -0.8842,-0.8288 -0.2043,-0.325 -0.3079,-0.6995 -0.3079,-1.1208 0,-0.5852 0.188,-1.0423 0.5627,-1.3714 0.3746,-0.3249 0.8814,-0.4888 1.5218,-0.4888 0.5994,0 1.1144,0.1405 1.5503,0.4227 0.4346,0.2823 0.7412,0.6389 0.921,1.0768 l 0.015,-0.0152 c -0.03,-0.1955 -0.0491,-0.4062 -0.06,-0.6389 -0.01,-0.2354 -0.015,-0.4667 -0.015,-0.6994 l 1.5436,0 z"
                     style="fill:#231f20;fill-opacity:1;fill-rule:nonzero;stroke:none"
                     id="path190"
                     inkscape:connector-curvature="0" />
                  <path
                     d="m 115.0797,684.3069 -1.6035,0 0,-11.0563 1.6035,0 0,11.0563 z"
                     style="fill:#231f20;fill-opacity:1;fill-rule:nonzero;stroke:none"
                     id="path192"
                     inkscape:connector-curvature="0" />
                  <path
                     d="m 122.3179,683.4726 -1.6335,0 0,-10.2233 1.6335,0 0,10.2233 z"
                     style="fill:#231f20;fill-opacity:1;fill-rule:nonzero;stroke:none"
                     id="path194"
                     inkscape:connector-curvature="0" />
                  <path
                     d="m 130.919,673.2501 0,5.1674 c 0,0.3249 -0.034,0.6334 -0.1049,0.9184 -0.0695,0.2877 -0.1921,0.5383 -0.3665,0.7531 -0.1757,0.2107 -0.4046,0.3773 -0.6893,0.5012 -0.2847,0.1239 -0.6362,0.1873 -1.0558,0.1873 -0.6295,0 -1.1649,-0.1487 -1.6049,-0.4434 -0.4387,-0.2988 -0.7684,-0.6857 -0.9877,-1.1593 l -0.0164,0.0138 c 0.0409,0.2079 0.0682,0.4502 0.0831,0.7283 0.015,0.2768 0.0232,0.515 0.0232,0.7119 l -1.5286,0 0,-7.3787 1.6035,0 0,3.5496 c 0,0.3635 0.0491,0.7063 0.1499,1.0271 0.0994,0.3181 0.2343,0.5976 0.4046,0.833 0.1689,0.2382 0.3733,0.4227 0.6144,0.5632 0.2398,0.1377 0.4987,0.2065 0.7793,0.2065 0.4292,0 0.7207,-0.1267 0.876,-0.3759 0.1553,-0.2533 0.2316,-0.6086 0.2316,-1.0726 l 0,-4.7309 1.5885,0 z"
                     style="fill:#231f20;fill-opacity:1;fill-rule:nonzero;stroke:none"
                     id="path196"
                     inkscape:connector-curvature="0" />
                  <path
                     d="m 137.7229,675.5776 c 0,0.3937 -0.0831,0.7118 -0.2479,0.95 -0.1635,0.2437 -0.3665,0.442 -0.6063,0.5948 -0.2397,0.1528 -0.504,0.274 -0.7942,0.3608 -0.2888,0.0881 -0.5545,0.1803 -0.7943,0.2753 -0.2398,0.095 -0.4414,0.2093 -0.6062,0.3374 -0.1649,0.1321 -0.248,0.3139 -0.248,0.5438 0,0.2795 0.1076,0.4998 0.3215,0.6582 0.2153,0.1583 0.5477,0.2368 0.9973,0.2368 0.5,0 0.985,-0.0702 1.4536,-0.2107 l 0.045,1.3177 c -0.2303,0.0399 -0.4646,0.0716 -0.7044,0.0978 -0.2397,0.0261 -0.47,0.0371 -0.6893,0.0371 -0.5095,0 -0.9537,-0.0578 -1.3338,-0.1735 -0.3801,-0.1142 -0.6989,-0.2726 -0.9591,-0.4736 -0.2602,-0.2051 -0.455,-0.4406 -0.5844,-0.7105 -0.1294,-0.2698 -0.1948,-0.5576 -0.1948,-0.866 0,-0.4145 0.0803,-0.7449 0.2397,-0.99 0.1608,-0.2437 0.3624,-0.4406 0.6076,-0.5838 0.2439,-0.1446 0.5068,-0.2616 0.7861,-0.3456 0.2793,-0.0895 0.5423,-0.1748 0.7861,-0.2616 0.2452,-0.0867 0.4482,-0.1955 0.6076,-0.3249 0.1594,-0.1322 0.2412,-0.3153 0.2412,-0.5563 0,-0.2988 -0.1363,-0.5315 -0.406,-0.7008 -0.2698,-0.168 -0.624,-0.2534 -1.064,-0.2534 -0.2888,0 -0.5736,0.0235 -0.8542,0.0689 -0.2807,0.0454 -0.5341,0.1033 -0.7643,0.1749 l -0.045,-1.3783 c 0.2303,-0.0509 0.4796,-0.0895 0.7507,-0.1143 0.2684,-0.0261 0.5436,-0.0372 0.8229,-0.0372 0.4999,0 0.9495,0.0579 1.3487,0.1749 0.3992,0.1129 0.7398,0.274 1.019,0.4805 0.2793,0.2079 0.4946,0.4544 0.6444,0.7367 0.1499,0.285 0.2248,0.5962 0.2248,0.9349"
                     style="fill:#231f20;fill-opacity:1;fill-rule:nonzero;stroke:none"
                     id="path198"
                     inkscape:connector-curvature="0" />
                  <path
                     d="m 143.4325,673.4168 0,1.3329 c -0.2998,-0.0813 -0.624,-0.1212 -0.9741,-0.1212 -0.1894,0 -0.3474,0.022 -0.4728,0.0661 -0.1239,0.0454 -0.2234,0.1184 -0.2983,0.2217 -0.075,0.1032 -0.1281,0.2423 -0.1581,0.4199 -0.0299,0.1749 -0.0449,0.4034 -0.0449,0.6788 l 0,3.5055 1.9482,0 0,1.2571 -1.9632,0 0,2.6959 -1.5885,-0.4186 0,-2.2773 -1.4237,0 0,-1.2571 1.4237,0 0,-4.0163 c 0,-0.4158 0.0327,-0.7669 0.0967,-1.052 0.0654,-0.2877 0.1785,-0.5204 0.3379,-0.6967 0.1607,-0.1803 0.3719,-0.3097 0.6376,-0.3869 0.2643,-0.0784 0.5967,-0.1184 0.9958,-0.1184 0.2494,0 0.5041,0.0152 0.7643,0.0455 0.2602,0.0303 0.4987,0.0702 0.7194,0.1211"
                     style="fill:#231f20;fill-opacity:1;fill-rule:nonzero;stroke:none"
                     id="path200"
                     inkscape:connector-curvature="0" />
                  <path
                     d="m 146.7587,680.7766 -1.6035,0 0,-7.5273 1.6035,0 0,7.5273 z m 0.2248,2.1356 c 0,0.2932 -0.0995,0.5356 -0.2984,0.727 -0.2003,0.1927 -0.44,0.2877 -0.7207,0.2877 -0.2902,0 -0.534,-0.0977 -0.7343,-0.2946 -0.1989,-0.1969 -0.2984,-0.4379 -0.2984,-0.7201 0,-0.2823 0.0995,-0.5219 0.2984,-0.7188 0.2003,-0.1969 0.4441,-0.2946 0.7343,-0.2946 0.2807,0 0.5204,0.0977 0.7207,0.2946 0.1989,0.1969 0.2984,0.4365 0.2984,0.7188"
                     style="fill:#231f20;fill-opacity:1;fill-rule:nonzero;stroke:none"
                     id="path202"
                     inkscape:connector-curvature="0" />
                  <path
                     d="m 152.963,673.4168 0,1.3329 c -0.2997,-0.0813 -0.624,-0.1212 -0.9741,-0.1212 -0.1894,0 -0.3474,0.022 -0.4714,0.0661 -0.1253,0.0454 -0.2248,0.1184 -0.2997,0.2217 -0.0749,0.1032 -0.128,0.2423 -0.1567,0.4199 -0.0299,0.1749 -0.0463,0.4034 -0.0463,0.6788 l 0,3.5055 1.9482,0 0,1.2571 -1.9618,0 0,2.6959 -1.5885,-0.4186 0,-2.2773 -1.425,0 0,-1.2571 1.425,0 0,-4.0163 c 0,-0.4158 0.0313,-0.7669 0.0967,-1.052 0.0654,-0.2877 0.1771,-0.5204 0.3365,-0.6967 0.1608,-0.1803 0.3719,-0.3097 0.6376,-0.3869 0.2643,-0.0784 0.5967,-0.1184 0.9959,-0.1184 0.2507,0 0.5041,0.0152 0.7643,0.0455 0.2602,0.0303 0.5,0.0702 0.7193,0.1211"
                     style="fill:#231f20;fill-opacity:1;fill-rule:nonzero;stroke:none"
                     id="path204"
                     inkscape:connector-curvature="0" />
                  <path
                     d="m 160.935,673.3994 0,7.3772 -1.6035,0 0,-3.5482 c 0,-0.3635 -0.049,-0.7063 -0.1499,-1.0271 -0.0994,-0.3181 -0.2343,-0.5976 -0.4032,-0.833 -0.1703,-0.2382 -0.3747,-0.4241 -0.6144,-0.5632 -0.2398,-0.139 -0.5,-0.2065 -0.7793,-0.2065 -0.4305,0 -0.7221,0.1253 -0.8774,0.3759 -0.1539,0.252 -0.2316,0.6086 -0.2316,1.0726 l 0,4.7295 -1.5885,0 0,-5.1674 c 0,-0.3249 0.0341,-0.632 0.1035,-0.9183 0.0709,-0.2878 0.1935,-0.537 0.3679,-0.7491 0.1757,-0.2148 0.4046,-0.3814 0.6893,-0.5053 0.2848,-0.1239 0.6363,-0.1859 1.0572,-0.1859 0.6281,0 1.1635,0.1488 1.6035,0.4434 0.4387,0.2988 0.7684,0.6843 0.9877,1.1593 l 0.0164,-0.0151 c -0.0409,-0.2065 -0.0681,-0.4489 -0.0831,-0.727 -0.015,-0.2781 -0.0232,-0.515 -0.0232,-0.7118 l 1.5286,0 z"
                     style="fill:#231f20;fill-opacity:1;fill-rule:nonzero;stroke:none"
                     id="path206"
                     inkscape:connector-curvature="0" />
                  <path
                     d="m 167.1395,673.4168 0,1.3329 c -0.2997,-0.0813 -0.624,-0.1212 -0.9741,-0.1212 -0.1894,0 -0.3474,0.022 -0.4728,0.0661 -0.1239,0.0454 -0.2234,0.1184 -0.2983,0.2217 -0.0749,0.1032 -0.1281,0.2423 -0.158,0.4199 -0.03,0.1749 -0.045,0.4034 -0.045,0.6788 l 0,3.5055 1.9482,0 0,1.2571 -1.9632,0 0,2.6959 -1.5885,-0.4186 0,-2.2773 -1.4237,0 0,-1.2571 1.4237,0 0,-4.0163 c 0,-0.4158 0.0327,-0.7669 0.0967,-1.052 0.0654,-0.2877 0.1785,-0.5204 0.3379,-0.6967 0.1607,-0.1803 0.3719,-0.3097 0.6362,-0.3869 0.2657,-0.0784 0.5981,-0.1184 0.9973,-0.1184 0.2493,0 0.504,0.0152 0.7642,0.0455 0.2603,0.0303 0.4987,0.0702 0.7194,0.1211"
                     style="fill:#231f20;fill-opacity:1;fill-rule:nonzero;stroke:none"
                     id="path208"
                     inkscape:connector-curvature="0" />
                  <path
                     d="m 173.1038,678.0517 -3.1621,0 c 0.0695,0.4695 0.2521,0.8399 0.5477,1.1152 0.2929,0.2754 0.6662,0.4131 1.1158,0.4131 0.4795,0 0.8542,-0.1377 1.1239,-0.4131 0.2698,-0.2753 0.3937,-0.6457 0.3747,-1.1152 m 1.6035,-0.4076 c 0,0.4282 -0.06,0.8316 -0.1799,1.2103 -0.1199,0.3772 -0.3024,0.7118 -0.5463,0.9968 -0.2452,0.2878 -0.5599,0.5122 -0.9441,0.6788 -0.3855,0.1639 -0.8419,0.2465 -1.3719,0.2465 -0.5395,0 -1.0218,-0.095 -1.4468,-0.2891 -0.4237,-0.1942 -0.7807,-0.4613 -1.0708,-0.8028 -0.2902,-0.3387 -0.5096,-0.7435 -0.6594,-1.2061 -0.1499,-0.4668 -0.2248,-0.9721 -0.2248,-1.5146 0,-1.2832 0.3065,-2.2209 0.9223,-2.8184 0.6144,-0.5976 1.5054,-0.895 2.6743,-0.895 0.4591,0 0.9087,0.0399 1.3488,0.1212 0.44,0.0798 0.8487,0.201 1.2288,0.3635 l -0.1498,1.2873 c -0.3093,-0.1528 -0.654,-0.2698 -1.0341,-0.3566 -0.3787,-0.0853 -0.7588,-0.1294 -1.1389,-0.1294 -0.7493,0 -1.3092,0.19 -1.6784,0.5714 -0.3692,0.3787 -0.545,0.9817 -0.5246,1.8078 l 4.7506,0 c 0.03,0.2713 0.045,0.515 0.045,0.7284"
                     style="fill:#231f20;fill-opacity:1;fill-rule:nonzero;stroke:none"
                     id="path210"
                     inkscape:connector-curvature="0" />
                  <path
                     d="m 184.6273,677.05 c 0,-0.4076 -0.0504,-0.7642 -0.1499,-1.0685 -0.1008,-0.3029 -0.237,-0.5562 -0.4127,-0.7545 -0.1744,-0.1996 -0.3761,-0.3456 -0.6063,-0.4433 -0.2302,-0.0923 -0.4755,-0.1405 -0.7343,-0.1405 -0.6294,0 -1.1049,0.2038 -1.4237,0.6141 -0.3201,0.4062 -0.4795,1.0148 -0.4795,1.8216 0,0.4062 0.0558,0.76 0.1648,1.0533 0.1104,0.2947 0.2548,0.5384 0.4346,0.727 0.1798,0.1886 0.3856,0.3305 0.6144,0.4186 0.2303,0.0908 0.4632,0.1363 0.7044,0.1363 0.6389,0 1.1144,-0.2052 1.4236,-0.6141 0.3093,-0.4048 0.4646,-0.9914 0.4646,-1.75 m 1.6485,0.1019 c 0,0.6416 -0.0859,1.1896 -0.2548,1.6467 -0.1703,0.4544 -0.4046,0.8275 -0.7043,1.1208 -0.2998,0.2905 -0.6581,0.5067 -1.0722,0.6457 -0.4142,0.1419 -0.8706,0.2121 -1.3706,0.2121 -0.5694,0 -1.0817,-0.0978 -1.5367,-0.2974 -0.4537,-0.1997 -0.8433,-0.4723 -1.1675,-0.8165 -0.3256,-0.3456 -0.575,-0.7504 -0.7493,-1.2227 -0.1758,-0.4709 -0.263,-0.9775 -0.263,-1.52 0,-0.6417 0.0804,-1.191 0.2398,-1.6537 0.1594,-0.4626 0.3896,-0.8399 0.6894,-1.1359 0.2997,-0.2946 0.6593,-0.5177 1.0789,-0.6609 0.4197,-0.1459 0.8883,-0.2203 1.4087,-0.2203 0.5491,0 1.0518,0.0992 1.5054,0.2988 0.4551,0.1997 0.8447,0.4736 1.1689,0.8234 0.3256,0.3511 0.5777,0.7614 0.7575,1.2364 0.1798,0.4764 0.2698,0.9914 0.2698,1.5435"
                     style="fill:#231f20;fill-opacity:1;fill-rule:nonzero;stroke:none"
                     id="path212"
                     inkscape:connector-curvature="0" />
                  <path
                     d="m 192.5539,684.1697 c -0.3896,0.0908 -0.7942,0.1376 -1.2138,0.1376 -1.9373,0 -2.9059,-0.9913 -2.9059,-2.9726 l 0,-0.5577 -1.4251,0 0,-1.257 1.4251,0 0,-6.2703 1.5871,0 0,6.2703 1.9332,0 0,1.257 -1.9332,0 0,0.5783 c 0,0.5673 0.1131,0.9817 0.3379,1.242 0.2248,0.2602 0.5763,0.3924 1.0558,0.3924 0.1703,0 0.3406,-0.0138 0.5095,-0.0386 0.1703,-0.0248 0.3406,-0.0633 0.5096,-0.1143 l 0.1198,1.3329 z"
                     style="fill:#231f20;fill-opacity:1;fill-rule:nonzero;stroke:none"
                     id="path214"
                     inkscape:connector-curvature="0" />
                  <path
                     d="m 202.3394,682.0801 0,1.3934 -7.1919,0 0,-1.3934 2.771,0 0,-8.8299 1.6335,0 0,8.8299 2.7874,0 z"
                     style="fill:#231f20;fill-opacity:1;fill-rule:nonzero;stroke:none"
                     id="path216"
                     inkscape:connector-curvature="0" />
                  <path
                     d="m 206.7158,678.0517 -3.162,0 c 0.0695,0.4695 0.252,0.8399 0.5477,1.1152 0.2929,0.2754 0.6662,0.4131 1.1157,0.4131 0.4796,0 0.8542,-0.1377 1.124,-0.4131 0.2697,-0.2753 0.3937,-0.6457 0.3746,-1.1152 m 1.6035,-0.4076 c 0,0.4282 -0.0599,0.8316 -0.1812,1.2103 -0.1185,0.3772 -0.301,0.7118 -0.5463,0.9968 -0.2452,0.2878 -0.5585,0.5122 -0.9441,0.6788 -0.3842,0.1639 -0.8406,0.2465 -1.3705,0.2465 -0.5395,0 -1.0218,-0.095 -1.4468,-0.2891 -0.4237,-0.1942 -0.7807,-0.4613 -1.0709,-0.8028 -0.2901,-0.3387 -0.5095,-0.7435 -0.6593,-1.2061 -0.1499,-0.4668 -0.2248,-0.9721 -0.2248,-1.5146 0,-1.2832 0.3065,-2.2209 0.9223,-2.8184 0.613,-0.5976 1.5054,-0.895 2.6743,-0.895 0.4591,0 0.9087,0.0399 1.3487,0.1212 0.4387,0.0798 0.8488,0.201 1.2289,0.3635 l -0.1499,1.2873 c -0.3106,-0.1528 -0.6539,-0.2698 -1.034,-0.3566 -0.3787,-0.0853 -0.7588,-0.1294 -1.1389,-0.1294 -0.7493,0 -1.3093,0.19 -1.6785,0.5714 -0.3692,0.3787 -0.5449,0.9817 -0.5245,1.8078 l 4.7506,0 c 0.0299,0.2713 0.0449,0.515 0.0449,0.7284"
                     style="fill:#231f20;fill-opacity:1;fill-rule:nonzero;stroke:none"
                     id="path218"
                     inkscape:connector-curvature="0" />
                  <path
                     d="m 214.9425,673.6293 -0.1349,1.3769 c -0.2194,-0.1102 -0.4714,-0.1997 -0.7575,-0.263 -0.2834,-0.0661 -0.5708,-0.1005 -0.861,-0.1005 -0.3706,0 -0.6825,0.0592 -0.9373,0.1748 -0.2548,0.1129 -0.4591,0.2754 -0.6131,0.4819 -0.1553,0.2066 -0.2656,0.4517 -0.3297,0.7353 -0.0654,0.2822 -0.098,0.5879 -0.098,0.9156 0,0.76 0.1702,1.3604 0.5095,1.8078 0.3392,0.4475 0.8542,0.672 1.5435,0.672 0.2698,0 0.53,-0.029 0.7793,-0.084 0.2493,-0.0565 0.4891,-0.1226 0.7193,-0.2038 l 0.1649,1.4072 c -0.5,0.1528 -1.0381,0.2271 -1.6185,0.2271 -0.639,0 -1.1962,-0.1005 -1.6703,-0.2987 -0.4754,-0.2038 -0.8678,-0.4806 -1.177,-0.8358 -0.3093,-0.3594 -0.5423,-0.7821 -0.6976,-1.2709 -0.1539,-0.4888 -0.2316,-1.0216 -0.2316,-1.5999 0,-0.6457 0.0831,-1.1937 0.2466,-1.6426 0.1662,-0.4489 0.3951,-0.8165 0.6907,-1.0932 0.2943,-0.2768 0.6431,-0.4806 1.0477,-0.6017 0.4046,-0.1226 0.8474,-0.1832 1.3269,-0.1832 0.4196,0 0.812,0.0372 1.1757,0.113 0.3652,0.0757 0.6717,0.1638 0.9224,0.2657"
                     style="fill:#231f20;fill-opacity:1;fill-rule:nonzero;stroke:none"
                     id="path220"
                     inkscape:connector-curvature="0" />
                  <path
                     d="m 222.8399,673.2501 0,5.1674 c 0,0.3249 -0.0354,0.6334 -0.1049,0.9184 -0.0694,0.2877 -0.1921,0.5383 -0.3678,0.7531 -0.1744,0.2107 -0.4046,0.3773 -0.6894,0.5012 -0.2847,0.1239 -0.6362,0.1873 -1.0558,0.1873 -0.609,0 -1.1294,-0.1419 -1.5585,-0.4241 -0.4292,-0.2837 -0.7548,-0.6609 -0.9741,-1.1359 l -0.03,0.0151 c 0.0491,0.201 0.0858,0.4475 0.1049,0.7353 0.0204,0.2877 0.03,0.5466 0.03,0.7793 l 0,3.5592 -1.6035,0 0,-11.0563 1.6035,0 0,3.5331 c 0,0.3648 0.049,0.7104 0.1498,1.0354 0.0995,0.3235 0.2344,0.6058 0.4047,0.8412 0.1703,0.2382 0.3746,0.4227 0.6144,0.5632 0.2398,0.1377 0.4986,0.2065 0.7793,0.2065 0.4291,0 0.722,-0.1267 0.8773,-0.3759 0.154,-0.2533 0.2316,-0.6086 0.2316,-1.0726 l 0,-4.7309 1.5885,0 z"
                     style="fill:#231f20;fill-opacity:1;fill-rule:nonzero;stroke:none"
                     id="path222"
                     inkscape:connector-curvature="0" />
                  <path
                     d="m 231.4265,673.2501 0,5.1674 c 0,0.3249 -0.0354,0.6334 -0.1049,0.9184 -0.0695,0.2877 -0.1921,0.5383 -0.3678,0.7531 -0.1744,0.2107 -0.4047,0.3773 -0.6894,0.5012 -0.2847,0.1239 -0.6362,0.1873 -1.0558,0.1873 -0.6294,0 -1.1635,-0.1487 -1.6035,-0.4434 -0.4401,-0.2988 -0.7698,-0.6857 -0.9891,-1.1593 l -0.015,0.0138 c 0.0395,0.2079 0.0681,0.4502 0.0831,0.7283 0.0136,0.2768 0.0218,0.515 0.0218,0.7119 l -1.5286,0 0,-7.3787 1.6035,0 0,3.5496 c 0,0.3635 0.0491,0.7063 0.1499,1.0271 0.0995,0.3181 0.2343,0.5976 0.4046,0.833 0.1703,0.2382 0.3747,0.4227 0.6145,0.5632 0.2397,0.1377 0.4986,0.2065 0.7792,0.2065 0.4292,0 0.7221,-0.1267 0.8774,-0.3759 0.1539,-0.2533 0.2316,-0.6086 0.2316,-1.0726 l 0,-4.7309 1.5885,0 z"
                     style="fill:#231f20;fill-opacity:1;fill-rule:nonzero;stroke:none"
                     id="path224"
                     inkscape:connector-curvature="0" />
                  <path
                     d="m 238.6042,677.05 c 0,-0.4076 -0.0504,-0.7642 -0.1498,-1.0685 -0.0995,-0.3029 -0.2371,-0.5562 -0.4114,-0.7545 -0.1758,-0.1996 -0.3774,-0.3456 -0.6077,-0.4433 -0.2288,-0.0923 -0.4741,-0.1405 -0.7329,-0.1405 -0.6308,0 -1.1049,0.2038 -1.425,0.6141 -0.3202,0.4062 -0.4796,1.0148 -0.4796,1.8216 0,0.4062 0.0559,0.76 0.1649,1.0533 0.1103,0.2947 0.2547,0.5384 0.4345,0.727 0.1799,0.1886 0.3856,0.3305 0.6145,0.4186 0.2302,0.0908 0.4645,0.1363 0.7043,0.1363 0.639,0 1.1144,-0.2052 1.4237,-0.6141 0.3106,-0.4048 0.4645,-0.9914 0.4645,-1.75 m 1.6485,0.1019 c 0,0.6416 -0.0858,1.1896 -0.2548,1.6467 -0.1703,0.4544 -0.4046,0.8275 -0.7043,1.1208 -0.2997,0.2905 -0.6567,0.5067 -1.0708,0.6457 -0.4142,0.1419 -0.8719,0.2121 -1.3719,0.2121 -0.5695,0 -1.0817,-0.0978 -1.5354,-0.2974 -0.455,-0.1997 -0.8447,-0.4723 -1.1689,-0.8165 -0.3256,-0.3456 -0.5749,-0.7504 -0.7493,-1.2227 -0.1757,-0.4709 -0.2629,-0.9775 -0.2629,-1.52 0,-0.6417 0.0803,-1.191 0.2397,-1.6537 0.1594,-0.4626 0.3897,-0.8399 0.6894,-1.1359 0.2997,-0.2946 0.6594,-0.5177 1.079,-0.6609 0.4196,-0.1459 0.8896,-0.2203 1.4087,-0.2203 0.549,0 1.0517,0.0992 1.5067,0.2988 0.4551,0.1997 0.8433,0.4736 1.1689,0.8234 0.3243,0.3511 0.5763,0.7614 0.7562,1.2364 0.1798,0.4764 0.2697,0.9914 0.2697,1.5435"
                     style="fill:#231f20;fill-opacity:1;fill-rule:nonzero;stroke:none"
                     id="path226"
                     inkscape:connector-curvature="0" />
                  <path
                     d="m 243.594,684.3069 -1.6035,0 0,-11.0563 1.6035,0 0,11.0563 z"
                     style="fill:#231f20;fill-opacity:1;fill-rule:nonzero;stroke:none"
                     id="path228"
                     inkscape:connector-curvature="0" />
                  <path
                     d="m 250.773,677.05 c 0,-0.4076 -0.0504,-0.7642 -0.1499,-1.0685 -0.1008,-0.3029 -0.2384,-0.5562 -0.4128,-0.7545 -0.1743,-0.1996 -0.376,-0.3456 -0.6062,-0.4433 -0.2302,-0.0923 -0.4755,-0.1405 -0.7343,-0.1405 -0.6294,0 -1.1049,0.2038 -1.4237,0.6141 -0.3201,0.4062 -0.4795,1.0148 -0.4795,1.8216 0,0.4062 0.0558,0.76 0.1648,1.0533 0.1104,0.2947 0.2548,0.5384 0.4346,0.727 0.1798,0.1886 0.3842,0.3305 0.6144,0.4186 0.2303,0.0908 0.4646,0.1363 0.7044,0.1363 0.6389,0 1.1144,-0.2052 1.4236,-0.6141 0.3093,-0.4048 0.4646,-0.9914 0.4646,-1.75 m 1.6471,0.1019 c 0,0.6416 -0.0845,1.1896 -0.2534,1.6467 -0.1703,0.4544 -0.4046,0.8275 -0.7043,1.1208 -0.2998,0.2905 -0.6567,0.5067 -1.0722,0.6457 -0.4142,0.1419 -0.8706,0.2121 -1.3706,0.2121 -0.5694,0 -1.0817,-0.0978 -1.5367,-0.2974 -0.455,-0.1997 -0.8433,-0.4723 -1.1689,-0.8165 -0.3242,-0.3456 -0.5736,-0.7504 -0.7493,-1.2227 -0.1744,-0.4709 -0.2616,-0.9775 -0.2616,-1.52 0,-0.6417 0.079,-1.191 0.2398,-1.6537 0.1594,-0.4626 0.3896,-0.8399 0.6894,-1.1359 0.2997,-0.2946 0.6593,-0.5177 1.0789,-0.6609 0.4196,-0.1459 0.8883,-0.2203 1.4087,-0.2203 0.5491,0 1.0518,0.0992 1.5054,0.2988 0.4551,0.1997 0.8447,0.4736 1.1689,0.8234 0.3256,0.3511 0.5763,0.7614 0.7575,1.2364 0.1798,0.4764 0.2684,0.9914 0.2684,1.5435"
                     style="fill:#231f20;fill-opacity:1;fill-rule:nonzero;stroke:none"
                     id="path230"
                     inkscape:connector-curvature="0" />
                  <path
                     d="m 259.1502,672.2 c 0,-0.4035 -0.188,-0.7339 -0.5627,-0.9969 -0.3746,-0.2602 -0.9114,-0.3924 -1.6103,-0.3924 -0.5395,0 -0.9795,0.1074 -1.3188,0.3194 -0.3406,0.2121 -0.5108,0.515 -0.5108,0.9088 0,0.2547 0.0735,0.4888 0.2193,0.7022 0.1444,0.212 0.3474,0.3855 0.6062,0.5232 0.06,-0.008 0.1254,-0.0138 0.1949,-0.0138 l 0.2098,0 1.3937,0 c 0.4795,0 0.8296,-0.0964 1.049,-0.2878 0.2193,-0.1927 0.3297,-0.4474 0.3297,-0.7627 m -0.4809,5.9412 c 0,-0.4943 -0.1485,-0.8744 -0.4483,-1.1428 -0.2997,-0.2672 -0.7043,-0.4021 -1.2138,-0.4021 -0.5395,0 -0.9537,0.1377 -1.2439,0.4103 -0.2901,0.2713 -0.4346,0.6568 -0.4346,1.1511 0,0.464 0.1472,0.8413 0.4415,1.1345 0.2942,0.2933 0.7125,0.4406 1.252,0.4406 0.519,0 0.9236,-0.139 1.2138,-0.4172 0.2902,-0.2767 0.4333,-0.6677 0.4333,-1.1744 m 2.0694,-5.7292 c 0,0.6994 -0.2207,1.2323 -0.6594,1.6027 -0.44,0.369 -1.064,0.5535 -1.8732,0.5535 l -1.2739,0 c -0.4495,0 -0.767,0.0344 -0.9522,0.106 -0.184,0.0716 -0.2766,0.1928 -0.2766,0.3621 0,0.0978 0.0341,0.19 0.1049,0.2795 0.0695,0.0881 0.1798,0.1611 0.3297,0.2217 0.1103,-0.0207 0.2452,-0.0386 0.4046,-0.0523 0.1594,-0.0165 0.3093,-0.0234 0.4496,-0.0234 1.049,0 1.8474,0.2602 2.3977,0.7807 0.5491,0.519 0.8243,1.1882 0.8243,2.0061 0,0.2726 -0.045,0.5177 -0.1349,0.7352 -0.0899,0.2162 -0.2152,0.3897 -0.3746,0.5218 l 1.1389,0 0,1.2709 -2.5177,0 c -0.2002,0.0523 -0.3978,0.0895 -0.5926,0.1143 -0.1948,0.0261 -0.406,0.0385 -0.6362,0.0385 -0.53,0 -1.0013,-0.0785 -1.4169,-0.2327 -0.4141,-0.1528 -0.7643,-0.3607 -1.049,-0.6182 -0.2834,-0.2602 -0.4986,-0.5645 -0.6444,-0.9184 -0.1444,-0.3511 -0.2166,-0.7228 -0.2166,-1.1083 0,-0.4695 0.0926,-0.884 0.2766,-1.2475 0.1852,-0.3607 0.4618,-0.6416 0.8324,-0.8412 -0.2602,-0.1088 -0.4673,-0.2796 -0.6226,-0.515 -0.154,-0.2327 -0.2316,-0.4833 -0.2316,-0.7518 0,-0.2464 0.0654,-0.4667 0.1948,-0.6554 0.1294,-0.19 0.3092,-0.3387 0.5395,-0.4461 -0.3202,-0.1693 -0.5995,-0.4172 -0.8392,-0.7449 -0.2398,-0.329 -0.3597,-0.7022 -0.3597,-1.1194 0,-0.7132 0.282,-1.257 0.8474,-1.6247 0.564,-0.3662 1.3351,-0.5507 2.3146,-0.5507 0.5995,0 1.1458,0.0757 1.6403,0.2244 0.4946,0.1501 0.9169,0.3539 1.267,0.6127 0.3488,0.2603 0.6213,0.5618 0.8161,0.9074 0.1948,0.3428 0.2929,0.7132 0.2929,1.1125"
                     style="fill:#231f20;fill-opacity:1;fill-rule:nonzero;stroke:none"
                     id="path232"
                     inkscape:connector-curvature="0" />
                  <path
                     d="m 268.7412,680.7772 -1.7247,0 -1.0627,-3.0594 c -0.1403,-0.3842 -0.2779,-0.7945 -0.4128,-1.2337 -0.1349,-0.4406 -0.2425,-0.811 -0.3215,-1.1139 l -0.015,0 c -0.0804,0.3249 -0.1676,0.6499 -0.2629,0.9776 -0.094,0.3277 -0.203,0.6595 -0.3215,0.9913 l -1.2139,3.4381 -1.7983,0 2.7874,-7.4461 -0.2998,-0.7945 c -0.1198,-0.3222 -0.237,-0.5838 -0.3528,-0.7958 -0.1144,-0.2093 -0.2371,-0.3732 -0.3665,-0.4929 -0.1308,-0.1212 -0.2684,-0.2052 -0.4128,-0.2534 -0.1444,-0.0523 -0.312,-0.0757 -0.5013,-0.0757 -0.1703,0 -0.3324,0.0124 -0.4878,0.0372 -0.1553,0.0247 -0.316,0.0674 -0.4863,0.1294 l -0.1199,-1.4251 c 0.1499,-0.0303 0.3161,-0.0551 0.5027,-0.0757 0.1839,-0.0207 0.3515,-0.0289 0.5014,-0.0289 0.4196,0 0.7833,0.0495 1.0939,0.1473 0.3093,0.1019 0.5899,0.2685 0.8393,0.5053 0.2493,0.2341 0.4822,0.548 0.6961,0.9363 0.2153,0.3924 0.4319,0.8771 0.6526,1.4567 l 3.0871,8.1759 z"
                     style="fill:#231f20;fill-opacity:1;fill-rule:nonzero;stroke:none"
                     id="path234"
                     inkscape:connector-curvature="0" />
                  <path
                     d="m 279.5005,673.2501 0,1.5159 -2.4128,0 -1.5735,0 c -0.3896,0 -0.6553,-0.011 -0.7943,-0.0316 0.0995,0.1418 0.1894,0.2767 0.2684,0.4089 0.0804,0.1322 0.1662,0.2671 0.2561,0.4089 l 4.1961,6.6187 0,1.3025 -6.5189,0 0,-1.4705 2.5326,0 1.2425,0 c 0.3202,0 0.5899,0.006 0.8106,0.0165 -0.1403,-0.1831 -0.2697,-0.3621 -0.3896,-0.537 -0.1199,-0.1776 -0.2398,-0.3662 -0.361,-0.57 l -3.9849,-6.4052 0,-1.2571 6.7287,0 z"
                     style="fill:#231f20;fill-opacity:1;fill-rule:nonzero;stroke:none"
                     id="path236"
                     inkscape:connector-curvature="0" />
                  <path
                     d="m 287.3366,673.3994 0,7.3772 -1.6035,0 0,-3.5482 c 0,-0.3635 -0.049,-0.7063 -0.1498,-1.0271 -0.0995,-0.3181 -0.2344,-0.5976 -0.4033,-0.833 -0.1703,-0.2382 -0.3746,-0.4241 -0.6144,-0.5632 -0.2398,-0.139 -0.5,-0.2065 -0.7793,-0.2065 -0.4305,0 -0.722,0.1253 -0.8773,0.3759 -0.154,0.252 -0.2316,0.6086 -0.2316,1.0726 l 0,4.7295 -1.5886,0 0,-5.1674 c 0,-0.3249 0.0341,-0.632 0.1036,-0.9183 0.0708,-0.2878 0.1934,-0.537 0.3678,-0.7491 0.1758,-0.2148 0.4046,-0.3814 0.6894,-0.5053 0.2847,-0.1239 0.6362,-0.1859 1.0572,-0.1859 0.6294,0 1.1634,0.1488 1.6035,0.4434 0.4386,0.2988 0.7683,0.6843 0.9877,1.1593 l 0.0163,-0.0151 c -0.0408,-0.2065 -0.0681,-0.4489 -0.0831,-0.727 -0.015,-0.2781 -0.0231,-0.515 -0.0231,-0.7118 l 1.5285,0 z"
                     style="fill:#231f20;fill-opacity:1;fill-rule:nonzero;stroke:none"
                     id="path238"
                     inkscape:connector-curvature="0" />
                  <path
                     d="m 293.5564,680.7772 c -0.3502,0.0303 -0.6594,0.003 -0.9292,-0.0812 -0.2697,-0.0854 -0.5054,-0.2148 -0.7043,-0.3856 -0.2003,-0.1748 -0.3706,-0.3731 -0.5095,-0.6003 -0.1404,-0.2299 -0.2507,-0.4668 -0.3297,-0.7146 l -0.03,0 c 0.0491,0.2878 0.0872,0.5811 0.1117,0.8757 0.0259,0.2988 0.0382,0.5494 0.0382,0.7587 l -1.5286,0 0,-7.3801 1.6035,0 0,2.9837 c 0,1.1043 0.1798,1.9056 0.5395,2.4109 0.3597,0.5012 0.9141,0.6843 1.6634,0.5439 l 0.075,1.5889 z"
                     style="fill:#231f20;fill-opacity:1;fill-rule:nonzero;stroke:none"
                     id="path240"
                     inkscape:connector-curvature="0" />
                  <path
                     d="m 296.5981,680.7766 -1.6035,0 0,-7.5273 1.6035,0 0,7.5273 z m 0.2248,2.1356 c 0,0.2932 -0.0994,0.5356 -0.2997,0.727 -0.1989,0.1927 -0.4387,0.2877 -0.7193,0.2877 -0.2902,0 -0.5341,-0.0977 -0.7344,-0.2946 -0.2002,-0.1969 -0.2997,-0.4379 -0.2997,-0.7201 0,-0.2823 0.0995,-0.5219 0.2997,-0.7188 0.2003,-0.1969 0.4442,-0.2946 0.7344,-0.2946 0.2806,0 0.5204,0.0977 0.7193,0.2946 0.2003,0.1969 0.2997,0.4365 0.2997,0.7188"
                     style="fill:#231f20;fill-opacity:1;fill-rule:nonzero;stroke:none"
                     id="path242"
                     inkscape:connector-curvature="0" />
                  <path
                     d="m 303.7462,673.6293 -0.1349,1.3769 c -0.2194,-0.1102 -0.4714,-0.1997 -0.7561,-0.263 -0.2848,-0.0661 -0.5722,-0.1005 -0.8624,-0.1005 -0.3692,0 -0.6812,0.0592 -0.9359,0.1748 -0.2548,0.1129 -0.4605,0.2754 -0.6145,0.4819 -0.1553,0.2066 -0.2656,0.4517 -0.3297,0.7353 -0.0654,0.2822 -0.0981,0.5879 -0.0981,0.9156 0,0.76 0.1703,1.3604 0.5096,1.8078 0.3406,0.4475 0.8542,0.672 1.5449,0.672 0.2684,0 0.5286,-0.029 0.7779,-0.084 0.2493,-0.0565 0.4904,-0.1226 0.7193,-0.2038 l 0.1649,1.4072 c -0.4987,0.1528 -1.0381,0.2271 -1.6185,0.2271 -0.639,0 -1.1962,-0.1005 -1.6703,-0.2987 -0.4741,-0.2038 -0.8678,-0.4806 -1.1771,-0.8358 -0.3092,-0.3594 -0.5422,-0.7821 -0.6961,-1.2709 -0.1553,-0.4888 -0.233,-1.0216 -0.233,-1.5999 0,-0.6457 0.0831,-1.1937 0.248,-1.6426 0.1648,-0.4489 0.3937,-0.8165 0.6893,-1.0932 0.2943,-0.2768 0.6444,-0.4806 1.049,-0.6017 0.4047,-0.1226 0.8461,-0.1832 1.3256,-0.1832 0.421,0 0.812,0.0372 1.1771,0.113 0.3638,0.0757 0.6716,0.1638 0.921,0.2657"
                     style="fill:#231f20;fill-opacity:1;fill-rule:nonzero;stroke:none"
                     id="path244"
                     inkscape:connector-curvature="0" />
                  <path
                     d="m 311.6436,673.2501 0,5.1674 c 0,0.3249 -0.034,0.6334 -0.1049,0.9184 -0.0694,0.2877 -0.1921,0.5383 -0.3664,0.7531 -0.1758,0.2107 -0.406,0.3773 -0.6908,0.5012 -0.2847,0.1239 -0.6362,0.1873 -1.0558,0.1873 -0.609,0 -1.1294,-0.1419 -1.5572,-0.4241 -0.4305,-0.2837 -0.7547,-0.6609 -0.9754,-1.1359 l -0.03,0.0151 c 0.0504,0.201 0.0858,0.4475 0.1049,0.7353 0.0204,0.2877 0.03,0.5466 0.03,0.7793 l 0,3.5592 -1.6035,0 0,-11.0563 1.6035,0 0,3.5331 c 0,0.3648 0.0504,0.7104 0.1498,1.0354 0.0995,0.3235 0.2357,0.6058 0.4047,0.8412 0.1703,0.2382 0.3746,0.4227 0.6144,0.5632 0.2411,0.1377 0.5,0.2065 0.7806,0.2065 0.4278,0 0.7207,-0.1267 0.876,-0.3759 0.154,-0.2533 0.2316,-0.6086 0.2316,-1.0726 l 0,-4.7309 1.5885,0 z"
                     style="fill:#231f20;fill-opacity:1;fill-rule:nonzero;stroke:none"
                     id="path246"
                     inkscape:connector-curvature="0" />
                </g>
              </g>
            </g>
          </g>
        </g>
      </g>
    </g>
  </g>
</svg>
